<?xml version="1.0" encoding="UTF-8"?>
<svg id="Outline" xmlns="http://www.w3.org/2000/svg" viewBox="0 0 24 24">
  <defs>
    <style>
      .cls-1 {
        fill: #282a32;
        stroke-width: 0px;
      }
    </style>
  </defs>
  <path class="cls-1" d="m12.5,12h-1v-3.01c0-1.66-1.34-3-3-3s-3,1.34-3,3v3.01h-1c-1.1,0-2,.89-2,1.99v2.01c0,1.1.9,2,2,2h8c1.11,0,2-.9,2-2v-2.01c0-1.1-.89-1.99-2-1.99Zm-6-3.01c0-1.1.9-2,2-2s2,.9,2,2v3.01h-4v-3.01Zm7,7.01c0,.55-.45,1-1,1h-8c-.55,0-1-.45-1-1v-2.01c0-.55.45-.99,1-.99h8c.55,0,1,.44,1,.99v2.01Zm6.5,4c0,.55-.45,1-1,1h-7c-.55,0-1-.45-1-1s.45-1,1-1h7c.55,0,1,.45,1,1Zm-.5-11.5h-1v-3c0-1.66-1.34-3-3-3s-3,1.34-3,3v4s7,0,7,0c.55,0,1,.45,1,1v2c0,.55-.45,1-1,1h-4.05c.04.16.05.33.05.5v.5h4c1.11,0,2-.89,2-2v-2c0-1.1-.89-2-2-2Zm-6-3c0-1.1.9-2,2-2s2,.9,2,2v3h-4v-3Z"/>
</svg>