<?xml version="1.0" encoding="UTF-8"?>
<svg id="Outline" xmlns="http://www.w3.org/2000/svg" viewBox="0 0 24 24">
  <defs>
    <style>
      .cls-1 {
        fill: #282a32;
        stroke-width: 0px;
      }
    </style>
  </defs>
  <path class="cls-1" d="m6.53,6.53c-4.29,4.29-5.32,10.21-2.29,13.24,3.02,3.02,8.95,1.99,13.24-2.29,4.29-4.29,5.32-10.21,2.29-13.24-3.02-3.02-8.95-1.99-13.24,2.29Zm.71.71c3.48-3.48,8.09-4.67,10.91-2.99.29.17.35.56.12.8l-2.06,2.06c-1.68-1.11-4.68-.26-7.02,2.08s-3.19,5.34-2.08,7.02l-2.06,2.06c-.24.24-.63.17-.8-.12-1.67-2.81-.49-7.42,2.99-10.91Zm8.65.88c1,1,.52,3.71-1.76,6s-5,2.77-6,1.76-.52-3.71,1.76-6,5-2.77,6-1.76Zm.88,8.65c-3.48,3.48-8.09,4.67-10.91,2.99-.29-.17-.35-.56-.12-.8l2.06-2.06c1.68,1.11,4.68.26,7.02-2.08s3.19-5.34,2.08-7.02l2.06-2.06c.24-.24.63-.17.8.12,1.67,2.81.49,7.42-2.99,10.91Zm-3.35-7.59l1.41,1.41c.19.19.2.51,0,.71s-.51.19-.71,0l-.35-.35-1.06,1.06.35.35c.19.19.2.51,0,.71s-.51.19-.71,0l-.35-.35-1.06,1.06.35.35c.19.19.2.51,0,.71s-.51.19-.71,0l-1.41-1.41c-.19-.19-.19-.51,0-.71s.51-.19.71,0l.35.35,1.06-1.06-.35-.35c-.19-.19-.19-.51,0-.71s.51-.19.71,0l.35.35,1.06-1.06-.35-.35c-.19-.19-.19-.51,0-.71s.51-.19.71,0Z"/>
</svg>