<?xml version="1.0" encoding="UTF-8"?>
<svg id="Outline" xmlns="http://www.w3.org/2000/svg" viewBox="0 0 24 24">
  <defs>
    <style>
      .cls-1 {
        fill: #282a32;
        stroke-width: 0px;
      }
    </style>
  </defs>
  <path class="cls-1" d="m21.38,20.55c-.24.59-.81.95-1.42.95-.19,0-.39-.04-.58-.11-.78-.32-1.35-.73-1.76-1.19l-8.15-1.43.43-.43c.14-.13.25-.28.33-.45l6.68,1.17c-.41-1.03-.39-2.16-.37-3.16.03-1.6.07-3.25-1.24-5.08l.72-.72c1.6,2.15,1.55,4.08,1.52,5.82-.04,1.85-.08,3.59,2.22,4.54.07.03.13.04.2.04.22,0,.42-.13.5-.33.05-.13.05-.28,0-.41-.06-.13-.16-.24-.29-.29-1.56-.64-1.61-1.6-1.56-3.52.03-1.77.09-4.11-1.83-6.61l.72-.72c2.21,2.83,2.15,5.5,2.11,7.35-.05,1.94.05,2.21.94,2.58.78.32,1.16,1.22.83,2Zm-11.89-3.62c0,.27-.11.52-.29.71l-2.28,2.28c-.19.19-.51.05-.51-.21v-1.6c0-.28-.22-.5-.5-.5h-1.6c-.27,0-.4-.32-.21-.51l2.28-2.28c.19-.19.44-.29.71-.29h1.71l5.18-5.18c-1.84-1.66-3.49-1.89-5.07-1.89-.27,0-.53.01-.79.01-.23.01-.48.02-.72.02-.81,0-1.66-.07-2.44-.39l1.18,6.68c-.17.08-.32.19-.46.33l-.42.42-1.44-8.16c-.45-.42-.86-.96-1.18-1.74-.33-.78.05-1.68.83-2,.19-.08.39-.12.59-.12.6,0,1.17.36,1.42.95.32.78.56.95,1.94.95.19,0,.4,0,.63,0,.27,0,.54-.01.84-.01,1.95,0,4.57.28,7.27,2.78l1.47-1.47-.95-.95c-.29-.29-.17-.77.21-.9l3.91-1.3c.06-.02.12-.03.18-.03.35,0,.64.35.51.72l-1.3,3.91c-.08.24-.3.37-.52.37-.14,0-.27-.05-.38-.16l-.95-.95-8.83,8.83v1.71Zm8.4-12.38l1.56,1.56.78-2.35-2.35.78Zm-3.23,4.09l.76-.76c-2.36-2.17-4.63-2.5-6.55-2.5-.29,0-.56.01-.81.01-.25,0-.46,0-.66,0-1.54,0-2.32-.22-2.87-1.57-.08-.2-.28-.33-.49-.33-.07,0-.14.02-.21.04-.13.06-.23.16-.29.29-.05.13-.05.28,0,.41.77,1.87,1.99,2.24,3.84,2.24.24,0,.47-.01.7-.02.27,0,.54-.01.81-.01,1.77,0,3.7.3,5.77,2.18Z"/>
</svg>