<?xml version="1.0" encoding="UTF-8"?>
<svg id="Outline" xmlns="http://www.w3.org/2000/svg" viewBox="0 0 24 24">
  <defs>
    <style>
      .cls-1 {
        fill: #282a32;
        stroke-width: 0px;
      }
    </style>
  </defs>
  <path class="cls-1" d="m12,3c.37,0,.73.1,1.05.29l6,3.67c.59.36.96,1.02.96,1.71v6.65c0,.69-.37,1.35-.96,1.71l-6,3.67c-.31.19-.68.29-1.05.29s-.73-.1-1.05-.29l-6-3.67c-.59-.36-.96-1.02-.96-1.71v-6.65c0-.69.37-1.35.96-1.71l6-3.67c.31-.19.68-.29,1.04-.29m0-1c-.54,0-1.09.15-1.57.44l-6,3.67c-.89.55-1.44,1.52-1.44,2.56v6.65c0,1.05.54,2.02,1.44,2.56l6,3.67c.48.29,1.02.44,1.57.44s1.09-.15,1.57-.44l6-3.67c.89-.55,1.44-1.52,1.44-2.56v-6.65c0-1.05-.54-2.02-1.43-2.56l-6-3.67c-.48-.29-1.02-.44-1.57-.44h0Zm4.7,8.75l-2.29-2.25h0s0,0,0,0h0s0,0,0,0l-2.4,2.36-2.41-2.36h0s0,0,0,0h0s0,0,0,0l-2.3,2.25-2.3-2.25v2.14l7,6.86,7-6.86v-2.14l-2.3,2.25Zm-2.3-.11l1.2,1.18-1.31,1.29-1.2-1.18,1.31-1.29Zm-4.81,0l1.31,1.29-1.2,1.18-1.31-1.29,1.2-1.18Zm1.2,3.54l1.2-1.18,1.2,1.18-1.2,1.18-1.2-1.18Z"/>
</svg>