<?xml version="1.0" encoding="UTF-8"?>
<svg id="Outline" xmlns="http://www.w3.org/2000/svg" viewBox="0 0 24 24">
  <defs>
    <style>
      .cls-1 {
        fill: #282a32;
        stroke-width: 0px;
      }
    </style>
  </defs>
  <path class="cls-1" d="m17,4c1.65,0,3,1.35,3,3v10c0,1.65-1.35,3-3,3H7c-1.65,0-3-1.35-3-3V7c0-1.65,1.35-3,3-3h10m0-1H7c-2.21,0-4,1.79-4,4v10c0,2.21,1.79,4,4,4h10c2.21,0,4-1.79,4-4V7c0-2.21-1.79-4-4-4h0Zm.47,3.42c.63.53.72,1.48.18,2.11s-1.48.72-2.11.18-.72-1.48-.18-2.11,1.48-.72,2.11-.18Zm.59,3.4c-.53-.58-1.14.47-1.61.54-.28.09-.3.05-.55-.13-2.21-3.05-4.3-2.86-7.18-.66-.5.36.04,1.15.56.83,1.1-.68,2.53-1.42,3.7-1.1-1.08.74-2.56,1.78-2.52,2.89-.81,1.15-3.11,3.36-3.57,3.25-.4-.09-.79.21-.86.62l-.17,1c-.07.41.21.8.62.86.41.07.8-.21.86-.62l.17-.99c1.44-.81,2.86-1.81,3.9-2.77.67.43,1.41.67,2.04.96,0,0-1.15.18-1.53-.02-.37-.19-.82,0-.99.37l-.42.91c-.17.38,0,.82.37.99.38.17.82,0,.99-.37l.36-.8c.92.06,1.69.02,2.42-.14.87-.2,1.14-1.03.44-1.59-.78-.64-1.74-1.21-2.58-1.71.63-.54,1.35-1.07,2.05-1.51.6.66,1.45,1.29,2.36.78.53-.34,1.58-.98,1.14-1.6Z"/>
</svg>