<?xml version="1.0" encoding="UTF-8"?>
<svg id="Outline" xmlns="http://www.w3.org/2000/svg" viewBox="0 0 24 24">
  <defs>
    <style>
      .cls-1 {
        fill: #282a32;
        stroke-width: 0px;
      }
    </style>
  </defs>
  <path class="cls-1" d="m14.82,10.59c.19.19.2.51,0,.71s-.51.19-.71,0l-.35-.35-1.06,1.06.35.35c.19.19.19.51,0,.71-.2.2-.51.2-.71,0l-.35-.35-1.06,1.06.35.35c.19.19.2.51,0,.71-.19.2-.51.2-.71,0l-1.41-1.41c-.19-.19-.2-.51,0-.71.2-.19.51-.19.71,0l.35.35,1.06-1.06-.35-.35c-.19-.19-.19-.51,0-.71.2-.2.51-.2.71,0l.35.35,1.06-1.06-.35-.35c-.19-.19-.2-.51,0-.71.19-.2.51-.2.71,0l1.41,1.41Zm2.65,6.88c-4.29,4.29-10.21,5.32-13.24,2.29-3.02-3.02-1.99-8.95,2.29-13.24,4.29-4.29,10.21-5.32,13.24-2.29,3.02,3.02,1.99,8.95-2.29,13.24Zm2.29-11.61c-.17-.29-.56-.35-.8-.12l-2.73,2.73c-.2.2-.51.2-.71,0-.19-.19-.2-.51,0-.71l2.73-2.73c.24-.24.17-.63-.12-.8-2.81-1.67-7.42-.49-10.9,2.99s-4.67,8.09-2.99,10.91c.17.29.56.35.8.12l2.73-2.73c.2-.2.51-.2.71,0,.19.19.2.51,0,.71l-2.73,2.73c-.24.24-.17.63.12.8,2.81,1.67,7.42.49,10.91-2.99,3.48-3.48,4.66-8.09,2.99-10.9Z"/>
</svg>