<?xml version="1.0" encoding="UTF-8"?>
<svg id="Outline" xmlns="http://www.w3.org/2000/svg" viewBox="0 0 24 24">
  <defs>
    <style>
      .cls-1 {
        fill: #282a32;
        stroke-width: 0px;
      }
    </style>
  </defs>
  <path class="cls-1" d="m17,3H7c-2.21,0-4,1.79-4,4v10c0,2.21,1.79,4,4,4h10c2.21,0,4-1.79,4-4V7c0-2.21-1.79-4-4-4Zm3,14c0,1.66-1.34,3-3,3H7c-1.65,0-3-1.34-3-3V7c0-1.65,1.35-3,3-3h10c1.66,0,3,1.35,3,3v10Zm-1.04-2.35c-.18-.93-.89-1.62-1.9-1.86-.4-.09-.71-.37-.72-.67-.01-.33.36-.65,1-.85.95-.3,1.44-.94,1.32-1.72-.15-1.01-1.41-2.05-3.25-2.05h-2.91v1h2.91c1.34,0,2.19.71,2.27,1.2.05.33-.32.52-.64.62-1.1.34-1.73,1.03-1.7,1.84.03.75.64,1.41,1.5,1.61.62.14,1.03.53,1.14,1.07.1.52-.12,1.06-.57,1.37-.35.26-.99.42-1.55.17-.53-.23-.86-.78-.96-1.61-.1-.77-.63-1.35-1.32-1.44-.05-.01-.11-.01-.17-.01-.56,0-1.06.35-1.29.93-.18.46-.48.56-.65.57-.2.02-.39-.07-.48-.22-.11-.19-.06-.46.15-.77.69-1.07.46-1.78.26-2.11-.3-.48-.86-.73-1.47-.67-.71.07-1.31.56-1.57,1.28-.37,1.03-.99,1.38-1.32,1.5-.34.11-.63.08-.76,0-.19-.13-.28-.28-.27-.49,0-.44.4-1.01.9-1.3.8-.45,1.1-.74,1.1-2.01,0-.66.17-1.42,1.51-1.52v-1c-1.6.1-2.51,1-2.51,2.52,0,.81-.01.82-.64,1.17-.65.36-1.34,1.22-1.36,2.11-.02.57.25,1.05.74,1.36.42.27,1.02.3,1.61.1.51-.17,1.43-.68,1.95-2.11.12-.35.39-.58.72-.62.22-.02.42.06.51.2.13.22.04.61-.24,1.04-.42.64-.48,1.31-.17,1.83.29.48.85.75,1.42.71.67-.06,1.23-.51,1.5-1.2.09-.21.23-.32.41-.3.17.03.4.19.45.58.19,1.5.94,2.14,1.55,2.4.32.14.66.21.99.21.6,0,1.16-.21,1.54-.48.77-.54,1.15-1.48.97-2.38Zm-7.96-5.4h0c-.28,0-.5-.22-.5-.5v-1.5c0-.28.22-.5.5-.5h0c.28,0,.5.22.5.5v1.5c0,.28-.22.5-.5.5Z"/>
</svg>