<?xml version="1.0" encoding="UTF-8"?>
<svg id="Outline" xmlns="http://www.w3.org/2000/svg" viewBox="0 0 24 24">
  <defs>
    <style>
      .cls-1 {
        fill: #282a32;
        stroke-width: 0px;
      }
    </style>
  </defs>
  <path class="cls-1" d="m20.46,8.46l-1.06,1.06-.7-.7,1.06-1.06c1-1,1.01-2.51,0-3.52-1-1-2.52-1-3.52,0l-1.06,1.06-.7-.7,1.06-1.06c1.41-1.41,3.57-1.36,4.93,0,1.36,1.36,1.41,3.52,0,4.93Zm-6.46-1.54l-.45-.45-9.31,3.83c-.38.16-.64.48-.72.88-.08.4.04.79.33,1.07l.12.12c.33.33.84.39,1.24.14l8.8-5.58Zm-5.85,8.22l7.04-7.04-.46-.46-8.42,5.34c-.26.16-.42.43-.46.73-.03.3.07.6.29.81l.61.61c.39.39,1.02.39,1.41,0Zm8.2-5.88l-.46-.46-7.04,7.04c-.39.39-.39,1.02,0,1.41l.61.61c.21.21.51.32.81.29.3-.03.57-.2.73-.46l5.34-8.42Zm1.18,1.18l-.45-.45-5.58,8.8c-.25.4-.2.9.14,1.24l.12.12c.29.29.68.4,1.07.33.4-.08.72-.34.88-.72l3.83-9.3Zm1.18-.23l-4.09,9.91c-.6,1.45-2.47,1.83-3.57.72l-.12-.12c-.43-.43-.63-1.02-.57-1.59-.57.05-1.16-.13-1.6-.57l-.61-.61c-.42-.42-.6-.99-.57-1.54-.55.03-1.12-.15-1.54-.57l-.61-.61c-.44-.45-.62-1.04-.57-1.61-.58.06-1.17-.13-1.6-.56l-.12-.12c-1.1-1.11-.72-2.98.72-3.58l9.92-4.08,4.93,4.93Z"/>
</svg>