<?xml version="1.0" encoding="UTF-8"?>
<svg id="Outline" xmlns="http://www.w3.org/2000/svg" viewBox="0 0 24 24">
  <defs>
    <style>
      .cls-1 {
        fill: #282a32;
        stroke-width: 0px;
      }
    </style>
  </defs>
  <path class="cls-1" d="m12.18,2.5c-5.39-.1-9.78,4.29-9.68,9.68.09,5.08,4.24,9.22,9.32,9.32,5.39.1,9.78-4.29,9.68-9.68-.1-5.08-4.24-9.22-9.32-9.32Zm6.94,14.12c-.17.26-.38.48-.65.63-.16.1-.35.17-.59.22-.51.09-.7-.03-1.05-.25-.39-.24-.92-.56-1.85-.49-.95.06-1.45.46-1.85.78-.36.29-.59.48-1.12.49-.54,0-.78-.2-1.13-.49-.4-.32-.9-.72-1.83-.78-.95-.08-1.48.25-1.87.49-.35.22-.54.34-1.03.25-.25-.05-.44-.13-.61-.22-.27-.15-.49-.38-.65-.64-.48-.74-.85-1.55-1.08-2.43-.05-.17.06-.34.24-.37.1-.02.21-.02.34-.01.45.03.65.21.94.47.33.3.75.67,1.54.75.84.07,1.28-.29,1.64-.58.28-.23.49-.41.94-.39.45,0,.65.19.95.46.35.32.79.72,1.63.72.84,0,1.27-.4,1.62-.72.3-.28.5-.46.95-.46.44,0,.64.15.93.39.35.29.79.65,1.64.58.79-.08,1.2-.45,1.53-.75.28-.26.49-.44.94-.47.13-.01.24,0,.33.01.18.03.28.2.24.38-.23.87-.6,1.69-1.08,2.43Zm.44-3.81c-.79.05-1.21.42-1.54.73-.29.26-.5.45-.95.49-.44.03-.62-.11-.92-.36-.35-.28-.78-.64-1.59-.62-.83.01-1.26.41-1.61.73-.3.28-.5.46-.95.46-.45,0-.65-.19-.96-.46-.35-.32-.78-.71-1.6-.73-.82-.03-1.25.33-1.59.62-.3.25-.48.4-.91.36-.46-.04-.67-.23-.96-.5-.33-.3-.75-.68-1.54-.73-.26-.02-.48,0-.67.04-.12.03-.24-.06-.25-.18-.02-.22-.03-.45-.03-.68,0-.27.02-.54.04-.81.05-.49.43-.89.92-.97h.01c.43-.06.61.07.9.28.32.24.76.56,1.55.52.82-.03,1.24-.42,1.59-.74.29-.27.5-.46.96-.49.45-.02.64.16.94.42.35.31.78.69,1.6.69h0c.84-.02,1.26-.38,1.61-.69.3-.26.49-.43.93-.42.46.02.67.22.96.49.34.31.77.71,1.58.74.79.03,1.23-.29,1.55-.52.29-.21.46-.34.88-.29h.01c.49.08.87.48.92.97.03.26.04.53.04.8,0,.23-.01.45-.03.67-.01.12-.13.21-.25.18-.19-.04-.4-.06-.66-.04ZM4.95,7.28c.1-.15.31-.21.47-.11,0,0,0,0,.01,0,.33.19.78.44,1.55.29.79-.13,1.2-.55,1.53-.88.3-.31.52-.53.98-.59.44-.04.63.11.93.37.35.29.79.65,1.58.65.83.01,1.25-.36,1.6-.65.3-.26.49-.42.92-.37.47.06.69.28.99.59.33.34.74.76,1.52.88.78.15,1.23-.11,1.56-.29,0,0,0,0,0,0,.16-.09.37-.04.47.11.35.53.65,1.09.88,1.69.06.14-.07.29-.22.27-.02,0-.04,0-.06,0-.83-.11-1.26.21-1.61.47-.28.2-.48.35-.91.33-.45-.02-.65-.2-.94-.47-.34-.31-.77-.71-1.59-.75-.85-.04-1.29.35-1.64.67-.3.26-.49.44-.94.44h0c-.45,0-.66-.18-.95-.44-.35-.31-.79-.7-1.65-.67-.82.04-1.25.43-1.59.75-.29.27-.5.46-.95.48-.44.02-.64-.13-.92-.33-.35-.26-.79-.58-1.63-.47-.02,0-.04,0-.06,0-.15.03-.27-.12-.22-.27.23-.6.53-1.17.88-1.7Zm7.05-3.78c2.36,0,4.49.97,6.03,2.53.1.1.07.28-.07.33-.21.08-.51.17-.77.12-.46-.07-.69-.3-.97-.6-.34-.35-.76-.78-1.6-.88-.87-.08-1.31.3-1.67.6-.29.24-.49.42-.95.41-.45.02-.65-.17-.94-.41-.36-.31-.81-.69-1.69-.6-.82.1-1.24.53-1.58.88-.29.29-.51.52-.99.6-.25.05-.55-.04-.76-.12-.13-.05-.17-.23-.07-.33,1.54-1.55,3.67-2.52,6.03-2.52Zm-5.09,15.3c-.13-.1-.09-.31.07-.35.38-.09.66-.26.89-.4.34-.21.56-.34,1.08-.3.53.03.78.23,1.12.51.41.33.93.75,1.94.76,1-.01,1.51-.43,1.92-.76.34-.28.59-.48,1.14-.51.51-.04.73.09,1.06.3.23.14.5.31.88.4.16.04.21.25.07.35-1.42,1.07-3.19,1.71-5.1,1.71s-3.67-.64-5.09-1.7Z"/>
</svg>