<?xml version="1.0" encoding="UTF-8"?>
<svg id="Outline" xmlns="http://www.w3.org/2000/svg" viewBox="0 0 24 24">
  <defs>
    <style>
      .cls-1 {
        fill: #282a32;
        stroke-width: 0px;
      }
    </style>
  </defs>
  <path class="cls-1" d="m16.89,4.15c-.6,0-1.14.2-1.58.53-.02.02-.04.02-.07.02s-.06-.01-.08-.04c-.51-.7-1.31-1.16-2.21-1.16-1,0-1.86.56-2.35,1.39-.02.03-.05.05-.09.05-.02,0-.05-.01-.07-.03-.49-.47-1.15-.76-1.87-.76-.91,0-1.71.45-2.21,1.16-.02.03-.06.04-.09.04-.02,0-.04,0-.06-.02-.44-.33-.99-.54-1.58-.54-1.45,0-2.63,1.16-2.63,2.59v6.35c0,1.49,1.17,2.69,2.62,2.69.64,0,1.23-.25,1.69-.65.4.96,1.32,1.63,2.4,1.63.77,0,1.45-.34,1.92-.88.47.72,1.27,1.2,2.18,1.2s1.7-.48,2.17-1.2c.48.54,1.16.88,1.92.88,1.45,0,2.62-1.2,2.62-2.69v-7.98c0-1.43-1.18-2.58-2.63-2.58Zm1.63,10.56c0,.93-.73,1.69-1.62,1.69-.44,0-.86-.19-1.17-.54h0c-.22-.24-.34-.56-.34-.89v-5.02c0-.26-.19-.5-.45-.53-.3-.03-.55.2-.55.5v5.22c0,.3-.09.58-.25.83h0c-.31.47-.8.75-1.33.75s-1.04-.28-1.34-.75h0c-.14-.21-.21-.45-.21-.7v-4.7c0-.26-.19-.5-.45-.53-.3-.03-.55.2-.55.5v4.28c0,.38-.14.74-.38,1.03h0c-.3.35-.71.54-1.17.54-.64,0-1.22-.4-1.48-1.01h0c-.07-.16-.1-.34-.1-.52v-3.72c0-.26-.19-.5-.45-.53-.3-.03-.55.2-.55.5v2.85c0,.4-.17.78-.48,1.05h0c-.3.26-.67.4-1.03.4-.89,0-1.62-.76-1.62-1.69v-6.35c0-.88.73-1.59,1.63-1.59.33,0,.67.11.96.32.15.12.37.24.68.24.38,0,.73-.18.91-.46.33-.47.84-.74,1.39-.74.44,0,.85.17,1.16.47.21.2.49.32.78.32.37,0,.72-.19.92-.5l.02-.02v-.02c.35-.56.9-.9,1.5-.9.54,0,1.05.27,1.38.72.2.3.54.48.91.48.32,0,.54-.11.69-.23.29-.21.61-.32.96-.32.9,0,1.63.71,1.63,1.58v7.98Zm-.31,4.86c-.89,0-1.48-.11-2.76-.11-1.96,0-3.64,1.04-4.77,1.04-.46,0-.83-.17-1.07-.68-.24-.46-.29-1.07-.2-1.49,0,0,.45-.07.98-.36-.13.72-.15,1.29.23,1.49.25.13.93-.15,1.5-.33.91-.31,2.06-.68,3.33-.68.73,0,1.25.03,1.71.06.36.03.68.05,1.05.05,1.25,0,1.97-.21,2.34-.69.42-.54.75-1.82-.02-4.92,0-.01-.01-.03-.01-.04v-3.28c.29.88.7,2,.98,3.08,1.51,6.04-.67,6.85-3.29,6.85Z"/>
</svg>