<?xml version="1.0" encoding="UTF-8"?>
<svg id="Outline" xmlns="http://www.w3.org/2000/svg" viewBox="0 0 24 24">
  <defs>
    <style>
      .cls-1 {
        fill: #282a32;
        stroke-width: 0px;
      }
    </style>
  </defs>
  <path id="_Compound_Path_" data-name="&amp;lt;Compound Path&amp;gt;" class="cls-1" d="m21.45,10.39c-.28-4.19-3.65-7.56-7.84-7.84-.53-.04-1.07-.05-1.61-.05s-1.07.02-1.61.05c-4.19.28-7.56,3.65-7.84,7.84-.07,1.07-.07,2.14,0,3.21.28,4.19,3.65,7.56,7.84,7.84.53.04,1.07.05,1.61.05s1.07-.02,1.6-.05c4.19-.28,7.56-3.65,7.84-7.84.07-1.07.07-2.14,0-3.21ZM3.55,13.54c-.07-1.02-.07-2.06,0-3.08.11-1.66.78-3.18,1.81-4.36.24-.27.66-.27.9,0,.38.43.73.9,1.02,1.4h0c-.21,0-.41.13-.47.33-.11.35.14.67.47.67h.5c.4.93.64,1.94.7,3h-.45c-.26,0-.49.19-.52.45-.03.3.21.55.5.55h.47c-.06,1.06-.3,2.07-.7,3h-.48c-.26,0-.49.19-.52.45-.03.3.21.55.5.55h0c-.29.5-.63.97-1.02,1.4-.24.27-.66.27-.9,0-1.04-1.19-1.7-2.7-1.82-4.37Zm9.99,6.91c-.51.03-1.03.05-1.54.05s-1.03-.02-1.54-.05c-1.18-.08-2.29-.44-3.26-1.02-.32-.19-.4-.63-.15-.91.53-.61.99-1.29,1.36-2.02h.84c.26,0,.49-.19.52-.45.03-.3-.2-.55-.5-.55h-.42c.36-.94.57-1.95.62-3h.51c.26,0,.49-.19.52-.45.03-.3-.2-.55-.5-.55h-.53c-.05-1.05-.27-2.06-.63-3h.4c.26,0,.49-.19.52-.45.03-.3-.2-.55-.5-.55h-.87c-.37-.73-.83-1.4-1.36-2.01-.25-.28-.18-.72.15-.91.97-.58,2.08-.94,3.27-1.02.51-.03,1.03-.05,1.54-.05s1.03.02,1.54.05c1.19.08,2.29.44,3.26,1.02.32.19.4.63.15.91-.53.61-.99,1.29-1.36,2.02h-.84c-.26,0-.49.19-.52.45-.03.3.21.55.5.55h.42c-.36.94-.57,1.95-.62,3h-.5c-.26,0-.49.19-.52.45-.03.3.21.55.5.55h.53c.05,1.05.27,2.06.62,3h-.4c-.26,0-.49.19-.52.45-.03.3.21.55.5.55h.87c.37.73.83,1.4,1.36,2.01.25.28.18.72-.15.91-.97.58-2.08.94-3.26,1.02Zm6.91-6.91c-.11,1.66-.78,3.18-1.82,4.36-.24.27-.66.27-.9,0-.38-.43-.73-.9-1.02-1.4h0c.21,0,.41-.13.47-.33.11-.35-.14-.67-.47-.67h-.5c-.4-.93-.64-1.94-.7-3h.45c.26,0,.49-.19.52-.45.03-.3-.2-.55-.5-.55h-.47c.06-1.06.3-2.07.7-3h.48c.26,0,.49-.19.52-.45.03-.3-.2-.55-.5-.55h-.01c.29-.5.64-.97,1.02-1.4.24-.27.66-.27.89,0,1.04,1.19,1.7,2.7,1.82,4.37.07,1.02.07,2.05,0,3.08Z"/>
</svg>