<?xml version="1.0" encoding="UTF-8"?>
<svg id="Outline" xmlns="http://www.w3.org/2000/svg" viewBox="0 0 24 24">
  <defs>
    <style>
      .cls-1 {
        fill: #282a32;
        stroke-width: 0px;
      }
    </style>
  </defs>
  <path class="cls-1" d="m12,3.5c4.69,0,8.5,3.81,8.5,8.5s-3.81,8.5-8.5,8.5S3.5,16.69,3.5,12,7.31,3.5,12,3.5m0-1C6.75,2.5,2.5,6.75,2.5,12s4.25,9.5,9.5,9.5,9.5-4.25,9.5-9.5S17.25,2.5,12,2.5h0Zm-4.17,8.73h.92l-.36,1.54h-.92l-.19.83h.63l-.32,1.4h-1.88l-.71-.87.33-1.43.92-.73-.59-.71.32-1.4,1.12-.86h1.87l-.32,1.4h-.63l-.19.83Zm3.45,2.46l-.92-1.39-1.44,1.3h-.54l-.32,1.4h1.78l1.44-1.3Zm-.08-4.7h-1.76l-.32,1.4h.52l3.05,4.6h1.77l.32-1.4h-.52l-3.05-4.6Zm2.85,0l-1.44,1.3.92,1.39,1.44-1.29h.55l.32-1.4h-1.79Zm4.21,0h-1.95l-.32,1.4h.69l-.19.83h-.93l-.34,1.48h.93l-.21.9h-.69l-.32,1.4h1.95l1.15-.87.34-1.45-.6-.72.94-.75.31-1.33-.74-.88Zm-2.74,1.4"/>
</svg>