<?xml version="1.0" encoding="UTF-8"?>
<svg id="Outline" xmlns="http://www.w3.org/2000/svg" viewBox="0 0 24 24">
  <defs>
    <style>
      .cls-1 {
        fill: #282a32;
        stroke-width: 0px;
      }
    </style>
  </defs>
  <path class="cls-1" d="m22,20.5c0,.27-.22.5-.5.5H2.5c-.28,0-.5-.22-.5-.5v-.5c0-.28.23-.5.5-.5h0c.44,0,.86-.09,1.24-.27l1.84-.86c1.04-.48,2.29-.48,3.33,0l1.85.86c.78.37,1.71.37,2.48,0l1.85-.86c1.04-.48,2.29-.48,3.33,0l1.85.86c.37.18.8.27,1.24.27h0c.28,0,.5.22.5.5v.51Zm-.5-8.68c.04,2.28-.72,4.38-2.02,6.04l-1.13-.56-.22-2.81-1.94-.63-3.69,2.68v1.91c-.33.06-.67.06-1,0v-1.91l-3.69-2.68-1.93.63-.23,2.81-1.12.55c-1.23-1.57-1.99-3.54-2.03-5.67-.1-5.39,4.29-9.78,9.68-9.68,5.08.1,9.23,4.24,9.32,9.32Zm-5.81-7.06l.71,1.16,1.31.32c.2.04.34-.2.19-.34-.57-.56-1.23-1.04-1.94-1.42-.18-.09-.37.11-.27.28Zm-7.17,1.57l1.2,1.65h4.56l1.2-1.65-1.44-2.35c-.1-.17-.27-.29-.47-.33-.51-.09-1.03-.15-1.57-.15s-1.06.06-1.57.15c-.2.04-.37.16-.47.33l-1.44,2.35Zm-2.23-.09l1.32-.32.71-1.16c.1-.17-.09-.38-.26-.28-.72.38-1.38.86-1.96,1.42-.14.14-.01.38.19.34Zm-1.4,8.04l-.92-1.07c-.13-.16-.38-.04-.35.16.14.85.41,1.66.78,2.41.09.18.36.13.38-.07l.11-1.43Zm4.02-5.71l-1.19-1.65-2.71.65c-.19.05-.35.17-.45.34-.49.9-.83,1.89-.98,2.94-.03.2.03.4.16.55l1.83,2.13,1.93-.62,1.41-4.34Zm6.6,4.54l-1.34-4.13h-4.34l-1.34,4.13,3.51,2.55,3.51-2.55Zm2.93.43l1.82-2.13c.13-.15.19-.35.16-.55-.14-1.06-.48-2.06-.98-2.95-.1-.18-.26-.3-.46-.35l-2.69-.64-1.2,1.65,1.41,4.34,1.94.63Zm1.94-.17c.04-.2-.21-.32-.35-.17l-.92,1.08.12,1.42c.01.21.28.26.37.08.38-.75.65-1.56.78-2.41Z"/>
</svg>