<?xml version="1.0" encoding="UTF-8"?>
<svg id="Outline" xmlns="http://www.w3.org/2000/svg" viewBox="0 0 24 24">
  <defs>
    <style>
      .cls-1 {
        fill: #282a32;
        stroke-width: 0px;
      }
    </style>
  </defs>
  <path class="cls-1" d="m12.18,2.5c-5.39-.1-9.78,4.29-9.68,9.68.04,2.13.8,4.1,2.03,5.67l.94-.44c-.41-.48-.76-1.02-1.05-1.6-.17-.33-.04-.73.27-.91l.69-.4,2.93,1.7.56,1.15s.02.01.03.01l1.4.65-.96-1.96,1.5-.87,1.16-.68,1.16.68,1.5.87-.95,1.95,1.37-.64s.05-.02.07-.03l.55-1.13,2.93-1.7.68.4c.31.18.44.58.27.91-.29.57-.64,1.11-1.05,1.61l.95.44c1.3-1.66,2.06-3.76,2.02-6.04-.09-5.08-4.24-9.22-9.32-9.32Zm-2.51,1.34c1.57-.45,3.18-.43,4.66,0,.17.04.2.28.04.36l-.69.39h-3.37l-.68-.39c-.16-.08-.13-.31.04-.36Zm-4.79,9.79l-.48.28c-.3.17-.68.01-.74-.33-.2-1.06-.19-2.13,0-3.16.07-.33.45-.5.74-.33l.48.28v3.26Zm-.18-4.52c-.32-.19-.44-.59-.28-.92.73-1.44,1.85-2.68,3.3-3.52.21-.12.48-.12.69,0l1.12.63-1.22,2.51-2.93,1.69-.68-.39Zm6.8,4.53l-1.22.71-1.59.92-2.81-1.63v-3.27l2.81-1.63,1.6.93,1.21.7v3.27Zm-.64-4.8l-1.52-.88,1.16-2.37h3.01l1.15,2.37-1.51.88-1.15.66-1.14-.66Zm7.26,4.8l-2.81,1.63-1.58-.92-1.23-.71v-3.27l1.21-.7,1.6-.93,2.81,1.63v3.27Zm.5-4.14l-2.92-1.69-1.23-2.52,1.11-.62c.22-.12.48-.12.7,0,1.38.81,2.55,2.01,3.31,3.52.16.33.03.73-.28.91l-.69.4Zm.98,4.41l-.47-.27v-3.28l.47-.27c.3-.17.68-.01.74.33.21,1.06.2,2.13,0,3.16-.06.33-.44.5-.74.33Zm1.9,5.58c-.45,0-.87-.09-1.24-.27l-1.85-.86c-1.04-.48-2.29-.48-3.33,0l-1.85.86c-.77.37-1.7.37-2.48,0l-1.85-.86c-1.04-.48-2.28-.48-3.32,0l-1.84.86c-.38.18-.8.27-1.24.27-.28,0-.5.23-.5.5v.51c0,.27.22.5.5.5h19c.27,0,.5-.22.5-.5v-.51c0-.27-.22-.5-.5-.5Z"/>
</svg>