<?xml version="1.0" encoding="UTF-8"?>
<svg id="Outline" xmlns="http://www.w3.org/2000/svg" viewBox="0 0 24 24">
  <defs>
    <style>
      .cls-1 {
        fill: #282a32;
        stroke-width: 0px;
      }
    </style>
  </defs>
  <path class="cls-1" d="m12.18,2.5c-5.39-.1-9.78,4.29-9.68,9.68.04,2.13.8,4.1,2.03,5.67l.94-.44c-1.01-1.19-1.67-2.67-1.89-4.29-.04-.31.12-.61.41-.74.67-.3,1.38-.52,2.11-.65.33,1.96.98,3.77,1.87,5.34.32.05.64.15.94.29l.58.27c-1.16-1.67-2.01-3.73-2.4-6.03,1.49-.11,3.01.13,4.46.76.25,2.11,1.29,4.37,2.43,5.52,3.15-2.08,4.99-5.12,5.83-7.85,0-.04.02-.08.04-.13.05-.19.33-.19.38.01.18.67.27,1.37.27,2.09,0,2.06-.73,3.95-1.95,5.42l.93.44c1.3-1.66,2.06-3.76,2.02-6.04-.09-5.08-4.24-9.22-9.32-9.32Zm-6.09,3.41c1.53-1.49,3.61-2.41,5.91-2.41,1.17,0,2.29.25,3.3.68.3.13.48.44.42.77l-.09.51c-.1.57-.25,1.11-.45,1.64-1.93-.76-3.93-1.19-5.87-1.19-.96,0-1.91.1-2.82.29-.07.02-.14.03-.22.05-.19.05-.33-.19-.18-.34Zm1.71,4.66c-1.25,0-2.48.25-3.63.69-.3.12-.62-.13-.58-.45.12-.83.35-1.62.69-2.35.16-.35.43-.62.78-.76.51-.21,1.05-.4,1.64-.52,2.56-.54,5.39-.23,8.1.83-.66,1.34-1.64,2.51-2.87,3.42-1.35-.58-2.75-.86-4.13-.86Zm11.05-.83c-.77,2.53-2.44,4.88-4.71,6.75-.85-1.24-1.41-2.69-1.6-4.27,2.16-1.61,3.61-3.93,4.08-6.59.03-.22.22-.35.42-.35.09,0,.19.03.27.09.62.5,1.17,1.09,1.63,1.75.22.31.31.7.26,1.07-.07.51-.19,1.03-.35,1.55Zm3.15,10.76c0,.27-.22.5-.5.5H2.5c-.28,0-.5-.22-.5-.5v-.5c0-.28.23-.5.5-.5h0c.44,0,.86-.09,1.24-.27l1.84-.86c1.04-.48,2.29-.48,3.33,0l1.85.86c.78.37,1.71.37,2.48,0l1.85-.86c1.04-.48,2.29-.48,3.33,0l1.85.86c.37.18.8.27,1.24.27h0c.28,0,.5.22.5.5v.51Z"/>
</svg>