<?xml version="1.0" encoding="UTF-8"?>
<svg id="Outline" xmlns="http://www.w3.org/2000/svg" viewBox="0 0 24 24">
  <defs>
    <style>
      .cls-1 {
        fill: #282a32;
        stroke-width: 0px;
      }
    </style>
  </defs>
  <path class="cls-1" d="m10.38,2.63c-3.93.65-7.1,3.82-7.75,7.75-1.07,6.49,4.46,12.05,10.97,10.99,3.94-.64,7.12-3.82,7.77-7.77,1.06-6.51-4.49-12.04-10.99-10.97Zm8.76,13.37c.15,0,.26.17.18.3-1.48,2.5-4.2,4.2-7.32,4.2s-5.84-1.69-7.33-4.19c-.08-.13.02-.31.18-.31h2.68c-.28-.3-.52-.64-.73-1h-2.39c-.22,0-.42-.14-.48-.34-.28-.84-.43-1.73-.43-2.66s.15-1.83.43-2.66c.07-.2.26-.34.48-.34h2.39c.21-.36.45-.7.73-1h-2.68c-.15,0-.26-.17-.18-.3,1.49-2.51,4.21-4.2,7.33-4.2s5.84,1.68,7.32,4.2c.08.13-.02.3-.18.3h-2.68c.28.3.53.64.73,1h2.39c.21,0,.41.13.48.33.28.84.44,1.73.44,2.67s-.16,1.82-.44,2.66c-.07.2-.27.34-.48.34h-2.39c-.2.36-.45.7-.73,1h2.68Zm-7.96-5c-.08-.11-.12-.23-.12-.38,0-.14.04-.27.12-.38.08-.1.19-.19.33-.25.14-.06.3-.09.48-.09s.35.03.49.09c.14.06.25.15.33.25.08.11.12.24.12.38,0,.15-.04.27-.12.38-.08.1-.2.19-.34.25-.14.06-.3.09-.48.09s-.34-.03-.48-.09c-.14-.06-.25-.14-.33-.25Zm1.73,1.82c.1.12.14.26.14.44,0,.17-.04.32-.14.45-.09.12-.22.21-.38.28-.16.07-.34.1-.54.1s-.38-.03-.54-.1c-.16-.07-.29-.16-.38-.28-.1-.13-.14-.28-.14-.45,0-.18.04-.32.14-.44.09-.12.22-.22.38-.28.16-.07.34-.1.54-.1s.38.03.54.1c.16.06.29.16.38.28Zm-.91-5.82c-2.74,0-4.96,2.19-5,4.93s2.27,5.06,4.99,5.07c2.76,0,5.01-2.24,5.01-5s-2.24-5-5-5Zm2.44,7.26c-.2.3-.5.54-.91.72-.41.18-.92.27-1.54.27-.46,0-.86-.06-1.21-.16-.35-.11-.63-.25-.86-.43-.22-.18-.39-.39-.5-.63-.12-.24-.17-.5-.17-.77,0-.33.08-.62.26-.88.17-.25.38-.45.65-.58-.22-.14-.39-.32-.5-.52-.12-.21-.18-.45-.18-.73,0-.34.09-.64.27-.91.18-.27.46-.49.83-.65.37-.16.84-.24,1.41-.24s1.04.07,1.41.23c.37.16.64.38.82.65.18.27.27.57.27.91,0,.27-.06.51-.17.73-.12.21-.28.39-.49.53.28.13.5.32.67.58.17.26.25.56.25.89,0,.36-.1.69-.31.99Z"/>
</svg>