<?xml version="1.0" encoding="UTF-8"?>
<svg id="Outline" xmlns="http://www.w3.org/2000/svg" viewBox="0 0 24 24">
  <defs>
    <style>
      .cls-1 {
        fill: #282a32;
        stroke-width: 0px;
      }
    </style>
  </defs>
  <path class="cls-1" d="m17,4c1.65,0,3,1.35,3,3v10c0,1.65-1.35,3-3,3H7c-1.65,0-3-1.35-3-3V7c0-1.65,1.35-3,3-3h10m0-1H7c-2.21,0-4,1.79-4,4v10c0,2.21,1.79,4,4,4h10c2.21,0,4-1.79,4-4V7c0-2.21-1.79-4-4-4h0Zm-9.23,2.17c-.7,0-1.26.56-1.26,1.26s.56,1.26,1.26,1.26,1.26-.56,1.26-1.26-.56-1.26-1.26-1.26Zm2.69,1.53c-.7,0-1.26.56-1.26,1.26s.56,1.26,1.26,1.26,1.26-.56,1.26-1.26-.56-1.26-1.26-1.26Zm2.69,1.53c-.7,0-1.26.56-1.26,1.26s.56,1.26,1.26,1.26,1.26-.56,1.26-1.26-.56-1.26-1.26-1.26Zm2.69,1.53c-.7,0-1.26.56-1.26,1.26s.56,1.26,1.26,1.26,1.26-.56,1.26-1.26-.56-1.26-1.26-1.26Zm1.43,7.9c.14-.06.25-.17.29-.32.27-.9.16-2.95-2.24-4.33l-8.46-4.85c-.24-.14-.55-.05-.68.19-.14.24-.05.54.19.68l8.46,4.85c1.44.82,1.78,1.83,1.83,2.49l-9.91-5.68c-.24-.14-.55-.05-.68.19s-.05.54.19.68l10.59,6.07c.08.04.16.07.25.07.06,0,.12-.01.18-.04Zm.96.56c.07-.12.03-.27-.09-.34-.12-.07-.27-.03-.34.09-.19.33-.62.44-.95.25l-3.45-1.99c-.12-.07-.27-.03-.34.09-.07.12-.03.27.09.34l3.45,2c.19.11.39.16.59.16.41,0,.82-.21,1.04-.6Zm-8.35-3.73c.07-.12.03-.27-.09-.34l-3.71-2.14c-.12-.07-.27-.03-.34.09s-.03.27.09.34l3.71,2.14s.08.03.12.03c.09,0,.17-.04.22-.12Z"/>
</svg>