<?xml version="1.0" encoding="UTF-8"?>
<svg id="Outline" xmlns="http://www.w3.org/2000/svg" viewBox="0 0 24 24">
  <defs>
    <style>
      .cls-1 {
        fill: #282a32;
        stroke-width: 0px;
      }
    </style>
  </defs>
  <path class="cls-1" d="m12,3.5c4.69,0,8.5,3.81,8.5,8.5s-3.81,8.5-8.5,8.5S3.5,16.69,3.5,12,7.31,3.5,12,3.5m0-1C6.75,2.5,2.5,6.75,2.5,12s4.25,9.5,9.5,9.5,9.5-4.25,9.5-9.5S17.25,2.5,12,2.5h0Zm0,9.75c-.97,0-1.75.78-1.75,1.75s.78,1.75,1.75,1.75,1.75-.78,1.75-1.75-.78-1.75-1.75-1.75Zm-3.43-5.42c-.91.33-1.45,1.12-1.22,1.77s1.16.91,2.07.58,1.45-1.12,1.22-1.77-1.16-.91-2.07-.58Zm4.78.58c-.24.65.31,1.44,1.22,1.77s1.84.07,2.07-.58-.31-1.44-1.22-1.77-1.84-.07-2.07.58Z"/>
</svg>