<?xml version="1.0" encoding="UTF-8"?>
<svg id="Outline" xmlns="http://www.w3.org/2000/svg" viewBox="0 0 24 24">
  <defs>
    <style>
      .cls-1 {
        fill: #282a32;
        stroke-width: 0px;
      }
    </style>
  </defs>
  <path class="cls-1" d="m12,4c2.36,0,4.59.81,6.28,2.28.05.04.08.11.1.2.09.41.32.81.65,1.14.23.23.5.42.78.54.06.03.12.09.17.17.66,1.12,1.01,2.39,1.01,3.68s-.35,2.56-1.01,3.68c-.05.08-.11.14-.18.17-.28.12-.55.3-.78.53-.33.33-.56.73-.65,1.14-.02.09-.06.16-.1.2-1.7,1.47-3.93,2.28-6.28,2.28s-4.58-.81-6.28-2.27c-.05-.04-.09-.12-.11-.21-.09-.4-.32-.81-.65-1.14-.23-.23-.5-.41-.78-.54-.06-.03-.12-.09-.17-.17-.66-1.12-1.01-2.4-1.01-3.68s.35-2.56,1.01-3.68c.05-.08.11-.14.17-.17.28-.12.55-.3.79-.54.33-.33.56-.73.65-1.13.02-.09.06-.17.11-.21,1.7-1.47,3.92-2.27,6.28-2.27m0-1c-2.69,0-5.13.96-6.93,2.52-.22.19-.36.46-.43.75-.05.21-.18.45-.38.65-.15.15-.31.25-.47.32-.27.12-.49.33-.64.58-.74,1.25-1.15,2.68-1.15,4.19s.41,2.93,1.15,4.19c.15.25.37.47.64.58.16.07.32.18.47.32.2.2.33.44.38.65.06.29.21.55.43.75,1.8,1.55,4.24,2.52,6.93,2.52s5.14-.96,6.94-2.52c.22-.19.36-.45.42-.74.05-.21.18-.45.38-.65.15-.15.31-.25.47-.32.27-.12.49-.33.64-.58.74-1.25,1.15-2.68,1.15-4.19s-.41-2.93-1.15-4.19c-.15-.25-.37-.47-.64-.58-.16-.07-.32-.18-.47-.32-.2-.2-.33-.44-.38-.65-.06-.29-.2-.55-.42-.74-1.8-1.56-4.24-2.52-6.94-2.52h0Zm-4.41,3.4c-.24-.26-.7-.17-1.03.19s-.41.86-.17,1.12.7.17,1.03-.19.41-.86.17-1.12Zm2.46.05c-.26-.28-.72-.24-1.03.09s-.35.84-.09,1.12.72.24,1.03-.09.35-.84.09-1.12Zm2.46.05c-.28-.31-.75-.31-1.03,0s-.28.81,0,1.12.75.31,1.03,0,.28-.81,0-1.12Zm2.46.05c-.31-.33-.77-.38-1.03-.09s-.22.78.09,1.12.77.38,1.03.09.22-.78-.09-1.12Zm2.46.05c-.33-.36-.79-.44-1.03-.19s-.16.76.17,1.12.79.44,1.03.19.16-.76-.17-1.12Zm-1.03,11.01c.24.26.7.17,1.03-.19s.41-.86.17-1.12-.7-.17-1.03.19-.41.86-.17,1.12Zm-2.46-.05c.26.28.72.24,1.03-.09s.35-.84.09-1.12-.72-.24-1.03.09-.35.84-.09,1.12Zm-2.46-.05c.28.31.75.31,1.03,0s.28-.81,0-1.12-.75-.31-1.03,0-.28.81,0,1.12Zm-2.46-.05c.31.33.77.38,1.03.09s.22-.78-.09-1.12-.77-.38-1.03-.09-.22.78.09,1.12Zm-2.46-.05c.33.36.79.44,1.03.19s.16-.76-.17-1.12-.79-.44-1.03-.19-.16.76.17,1.12Z"/>
</svg>