<?xml version="1.0" encoding="UTF-8"?>
<svg id="Outline" xmlns="http://www.w3.org/2000/svg" viewBox="0 0 24 24">
  <defs>
    <style>
      .cls-1 {
        fill: #282a32;
        stroke-width: 0px;
      }
    </style>
  </defs>
  <path id="_Compound_Path_" data-name="&amp;lt;Compound Path&amp;gt;" class="cls-1" d="m5.9,14.39l4.15,4.19-2.39,2.43-4.17-4.2,2.41-2.42m.69-.72c-.38-.38-1-.38-1.39,0l-2.42,2.43c-.38.39-.38,1.02,0,1.4l4.17,4.21h0c.38.39,1,.39,1.39,0l2.42-2.43c.38-.39.38-1.01,0-1.4l-4.17-4.21h0Zm12.82,1.78c-2.46,2.48-6.46,2.48-7.5,2.44-.08-.27-.24-.5-.44-.71l-.28-.28c2.74.16,5.63-.23,7.8-2.42,1.4-1.42,2.6-2.56.13-7.01-1-1.81-2.47-4.5-4.1-4.47-.42,0-1.01.17-1.53.62-.56.49-.83,1.23-.83,1.97,0,.87.22,2.21,1.27,3.76,2.23,3.3,4.38,2.87,4.47,2.85.26-.06.53.11.59.37.06.26-.1.53-.36.59-.1.02-2.08.47-4.29-1.76-.4-.41-.81-.9-1.22-1.5-.38-.57-.66-1.11-.87-1.62-.35.98-.92,2.02-1.66,2.77-.18.19-.48.21-.68.05-.22-.19-.23-.53-.03-.73,1.2-1.21,1.92-3.23,1.85-4.14-.02-.23-.03-.5-.03-.74,0-.27-.21-.49-.48-.51-.77-.03-1.58.03-2.09.54-2.42,2.45-1.63,6.53-1.24,8.01l-.57-.58c-.19-.19-.42-.34-.65-.43-.32-2.43-.65-5.26,1.77-7.7,1.18-1.19,2.79-.83,3.54-.79.65-1.42,2.03-2,3.08-2.05,2.24-.06,3.8,2.95,4.93,4.98,3.03,5.45.86,7.04-.56,8.47Z"/>
</svg>