<?xml version="1.0" encoding="UTF-8"?>
<svg id="Outline" xmlns="http://www.w3.org/2000/svg" viewBox="0 0 24 24">
  <defs>
    <style>
      .cls-1 {
        fill: #282a32;
        stroke-width: 0px;
      }
    </style>
  </defs>
  <path class="cls-1" d="m13.39,15.52l.71.71c-4.58,4.19-9.31,6.24-10.93,4.61-1.63-1.63.42-6.36,4.61-10.93l.71.71c-4.16,4.54-5.54,8.58-4.61,9.52.93.93,4.98-.45,9.52-4.61Zm7.81,4.71l-.97.97c-.35.35-.91.4-1.31.1-.3-.22-.59-.48-.88-.77-1.28-1.28-1.99-2.74-1.82-3.61L7.07,7.78c-.87.16-2.32-.54-3.61-1.82-.29-.29-.54-.58-.77-.88-.3-.4-.25-.96.1-1.31l.97-.97c.35-.35.91-.4,1.31-.1.29.22.59.48.88.77,1.28,1.28,1.99,2.74,1.82,3.61l1.4,1.4C13.96,3.82,19.13,1.44,20.84,3.16c1.71,1.71-.66,6.88-5.31,11.66l1.4,1.4c.87-.16,2.32.54,3.61,1.82.29.29.54.58.77.88.3.4.25.95-.1,1.31Zm-7.8-7.54c1.46-1.63,1.78-3.17,1.43-3.52-.35-.35-1.9-.02-3.52,1.43l2.09,2.09Zm1.42,1.42c4.69-4.83,6.29-9.27,5.31-10.25-.99-.99-5.42.62-10.25,5.31l.72.72c1.87-1.7,4.02-2.35,4.94-1.44s.26,3.06-1.44,4.94l.72.72Zm-5.58-2.74c-1.2,1.67-1.57,3.37-.78,4.16.79.79,2.49.42,4.16-.78l-.72-.72c-1.31.92-2.44,1.08-2.73.79-.29-.29-.13-1.41.79-2.73l-.72-.72Z"/>
</svg>