<?xml version="1.0" encoding="UTF-8"?>
<svg id="Outline" xmlns="http://www.w3.org/2000/svg" viewBox="0 0 24 24">
  <defs>
    <style>
      .cls-1 {
        fill: #282a32;
        stroke-width: 0px;
      }
    </style>
  </defs>
  <path class="cls-1" d="m20.09,6.2c-1.04-.88-2.15-1.2-3.2-1.2-1.13,0-2.19.36-3.03.78.13.33.17.7.1,1.07.78-.43,1.83-.85,2.93-.85.95,0,1.79.32,2.56.96.67.57,1.04,1.36,1.05,2.29.02,1.52-.89,3.25-2.44,4.63-.81.71-1.35,1.45-1.7,2.12h1.15c.3-.44.69-.91,1.22-1.38,3.11-2.77,3.65-6.49,1.36-8.42Zm-12.98-1.2c-1.05,0-2.16.32-3.2,1.2-2.29,1.93-1.75,5.65,1.36,8.42.53.47.92.94,1.22,1.38h1.15c-.35-.67-.89-1.41-1.7-2.12-1.55-1.38-2.46-3.11-2.44-4.63.01-.93.38-1.72,1.05-2.29.77-.64,1.61-.96,2.56-.96,1.09,0,2.14.41,2.92.84-.06-.34-.03-.71.11-1.06-.84-.42-1.9-.78-3.03-.78Zm9.3,4c.89,0,1.02.43,1.06.57.27.89-1.1,2.27-2.2,3.38-.45.46-.89.9-1.27,1.34v-3.11c0-1.05.85-1.98,1.99-2.15.14-.02.29-.03.42-.03m0-1c-.19,0-.38.02-.57.04-1.68.25-2.84,1.63-2.84,3.14v4.82h1.03c.98-2,5.11-4.41,4.4-6.72-.28-.91-1.09-1.28-2.02-1.28h0Zm-8.82,1c.13,0,.27.01.42.03,1.13.17,1.99,1.09,1.99,2.15v3.11c-.38-.44-.82-.88-1.27-1.34-1.1-1.11-2.47-2.49-2.2-3.38.04-.14.18-.57,1.06-.57m0-1c-.93,0-1.74.37-2.02,1.28-.71,2.31,3.43,4.72,4.4,6.72h1.03s0-4.81,0-4.81c0-1.51-1.16-2.89-2.84-3.14-.19-.03-.38-.04-.57-.04h0Zm8.91,10c.28,0,.5.22.5.5v1.5H7v-1.5c0-.28.22-.5.5-.5h9m0-1H7.5c-.83,0-1.5.67-1.5,1.5v1.5c0,.55.45,1,1,1h10c.55,0,1-.45,1-1v-1.5c0-.83-.67-1.5-1.5-1.5h0Zm-3.5-10.49c0,.55-.45,1-1,1s-1-.45-1-1,.45-1,1-1,1,.45,1,1Zm1-3.3v1.6l-2-.3-2,.3v-1.6l1.41.21-.21-1.41h1.6l-.21,1.41,1.41-.21Z"/>
</svg>