<?xml version="1.0" encoding="UTF-8"?>
<svg id="Outline" xmlns="http://www.w3.org/2000/svg" viewBox="0 0 24 24">
  <defs>
    <style>
      .cls-1 {
        fill: #282a32;
        stroke-width: 0px;
      }
    </style>
  </defs>
  <path class="cls-1" d="m17,4c1.65,0,3,1.35,3,3v10c0,1.65-1.35,3-3,3H7c-1.65,0-3-1.35-3-3V7c0-1.65,1.35-3,3-3h10m0-1H7c-2.21,0-4,1.79-4,4v10c0,2.21,1.79,4,4,4h10c2.21,0,4-1.79,4-4V7c0-2.21-1.79-4-4-4h0Zm-1,7.63c0,.35.28.63.63.63s.63-.28.63-.63c0-.35-.28-.63-.63-.63s-.63.28-.63.63Zm-9.26,1.74c0,.35.28.63.63.63s.63-.28.63-.63-.28-.63-.63-.63-.63.28-.63.63Zm-.74-5.74c0,.35.28.63.63.63s.63-.28.63-.63c0-.35-.28-.63-.63-.63s-.63.28-.63.63Zm9.74,11.74c0,.35.28.63.63.63s.63-.28.63-.63c0-.35-.28-.63-.63-.63s-.63.28-.63.63Zm1-12.75c0,.35.28.63.63.63s.63-.28.63-.63-.28-.63-.63-.63-.63.28-.63.63Zm-4.08.42c.53.63.45,1.58-.18,2.11s-1.58.45-2.11-.18-.45-1.58.18-2.11,1.58-.45,2.11.18Zm3.27,1.45c.31-.52-.48-1.04-.84-.55-.8,1.06-1.96,1.83-3.25,2.2-.84.23-1.89.42-2.62.03-.13-.1-.17-.18-.17-.42.02-.23-.08-.47-.32-.56-1-.22-.86,1.4-.25,1.85.68.46,1.47.64,2.26.62-.15,2.2-1.16,3.95-2.15,5.39-.33.08-.58.36-.58.72v1c0,.41.34.75.75.75s.75-.34.75-.75v-1.07c.96-.91,1.8-2.03,2.39-3.27.32-.02,1.64.33,1.69.6.11.63-.33,1.56-1.04,2.37-.27.31-.08.82.27,1.02l.86.5c.36.21.82.08,1.02-.27.21-.36.08-.82-.27-1.02l-.53-.31c.29-.46.54-.95.8-1.43.28-.52.59-1.45-.19-2.02-.26-.19-1.45-.93-1.99-1.12.1-.33.25-1.08.34-1.59,1.3-.57,2.44-1.56,3.06-2.66Z"/>
</svg>