<?xml version="1.0" encoding="UTF-8"?>
<svg id="Outline" xmlns="http://www.w3.org/2000/svg" viewBox="0 0 24 24">
  <defs>
    <style>
      .cls-1 {
        fill: #282a32;
        stroke-width: 0px;
      }
    </style>
  </defs>
  <path class="cls-1" d="m21.74,10.83c-.21-.23-.39-.49-.45-.79-.91-4.3-4.71-7.53-9.28-7.53S3.62,5.73,2.72,10.03c-.06.3-.24.56-.45.79-.16.18-.26.41-.26.67v1c0,.26.1.5.26.67.21.23.39.49.45.79.91,4.3,4.71,7.53,9.28,7.53s8.38-3.23,9.28-7.53c.06-.3.24-.56.45-.79.16-.18.26-.41.26-.67v-1c0-.26-.1-.5-.26-.67Zm-18.04-.58c.06-.26.12-.52.2-.77.07-.03.15-.06.2-.13l.18-.2c.02.07.06.14.11.2.1.11.23.16.36.16s.26-.05.36-.16l.18-.2c.02.07.06.14.11.2.1.11.23.16.36.16s.26-.05.36-.16l.18-.2c.02.07.06.14.11.2.1.11.23.16.36.16s.26-.05.36-.16l.18-.2c.02.07.06.14.11.2.1.11.23.16.36.16s.26-.05.36-.16l.18-.2c.02.07.06.14.11.2.1.11.23.16.36.16s.26-.05.36-.16l.18-.2c.02.07.06.14.11.2.1.11.23.16.36.16s.26-.05.36-.16l.18-.2c.02.07.06.14.11.2.1.11.23.16.36.16s.26-.05.36-.16l.18-.2c.02.07.06.14.11.2.1.11.23.16.36.16s.26-.05.36-.16l.18-.2c.02.07.06.14.11.2.1.11.23.16.36.16s.26-.05.36-.16l.18-.2c.02.07.06.14.11.2.1.11.23.16.36.16s.26-.05.36-.16l.18-.2c.02.07.06.14.11.2.1.11.23.16.36.16s.26-.05.36-.16l.18-.2c.02.07.06.14.11.2.1.11.23.16.36.16s.26-.05.36-.16l.18-.2c.02.07.06.14.11.2.1.11.23.16.36.16s.26-.05.36-.16l.18-.2c.02.07.06.14.11.2.1.11.23.16.36.16s.26-.05.36-.16l.18-.2c.02.07.06.14.11.2.1.11.23.16.36.16s.26-.05.36-.16l.18-.2c.02.07.06.14.11.2.1.11.23.16.36.16.07,0,.14-.02.2-.05.08.26.15.52.21.79.09.44.32.85.69,1.26H3c.37-.41.6-.82.69-1.26ZM12,3.5c3.23,0,6.12,1.85,7.55,4.63-.09-.08-.2-.13-.31-.13-.13,0-.26.05-.36.16l-.18.2c-.02-.07-.06-.14-.11-.2-.1-.11-.23-.16-.36-.16s-.26.05-.36.16l-.18.2c-.02-.07-.06-.14-.11-.2-.1-.11-.23-.16-.36-.16s-.26.05-.36.16l-.18.2c-.02-.07-.06-.14-.11-.2-.1-.11-.23-.16-.36-.16s-.26.05-.36.16l-.18.2c-.02-.07-.06-.14-.11-.2-.1-.11-.23-.16-.36-.16s-.26.05-.36.16l-.18.2c-.02-.07-.06-.14-.11-.2-.1-.11-.23-.16-.36-.16s-.26.05-.36.16l-.18.2c-.02-.07-.06-.14-.11-.2-.1-.11-.23-.16-.36-.16s-.26.05-.36.16l-.18.2c-.02-.07-.06-.14-.11-.2-.1-.11-.23-.16-.36-.16s-.26.05-.36.16l-.18.2c-.02-.07-.06-.14-.11-.2-.1-.11-.23-.16-.36-.16s-.26.05-.36.16l-.18.2c-.02-.07-.06-.14-.11-.2-.1-.11-.23-.16-.36-.16s-.26.05-.36.16l-.18.2c-.02-.07-.06-.14-.11-.2-.1-.11-.23-.16-.36-.16s-.26.05-.36.16l-.18.2c-.02-.07-.06-.14-.11-.2-.1-.11-.23-.16-.36-.16s-.26.05-.36.16l-.18.2c-.02-.07-.06-.14-.11-.2-.1-.11-.23-.16-.36-.16s-.26.05-.36.16l-.18.2c-.02-.07-.06-.14-.11-.2-.1-.11-.23-.16-.36-.16s-.26.05-.36.16l-.18.2c-.02-.07-.06-.14-.11-.2-.1-.11-.23-.16-.36-.16s-.26.05-.36.16l-.18.2c-.02-.07-.06-.14-.11-.2,0,0-.02-.01-.02-.02,1.42-2.78,4.33-4.64,7.56-4.64Zm9,9c-.37.41-.6.82-.69,1.26-.06.27-.13.53-.21.79-.06-.03-.13-.05-.2-.05-.13,0-.26.05-.36.16-.05.06-.09.13-.11.2l-.18-.2c-.1-.11-.23-.16-.36-.16s-.26.05-.36.16c-.05.06-.09.13-.11.2l-.18-.2c-.1-.11-.23-.16-.36-.16s-.26.05-.36.16c-.05.06-.09.13-.11.2l-.18-.2c-.1-.11-.23-.16-.36-.16s-.26.05-.36.16c-.05.06-.09.13-.11.2l-.18-.2c-.1-.11-.23-.16-.36-.16s-.26.05-.36.16c-.05.06-.09.13-.11.2l-.18-.2c-.1-.11-.23-.16-.36-.16s-.26.05-.36.16c-.05.06-.09.13-.11.2l-.18-.2c-.1-.11-.23-.16-.36-.16s-.26.05-.36.16c-.05.06-.09.13-.11.2l-.18-.2c-.1-.11-.23-.16-.36-.16s-.26.05-.36.16c-.05.06-.09.13-.11.2l-.18-.2c-.1-.11-.23-.16-.36-.16s-.26.05-.36.16c-.05.06-.09.13-.11.2l-.18-.2c-.1-.11-.23-.16-.36-.16s-.26.05-.36.16c-.05.06-.09.13-.11.2l-.18-.2c-.1-.11-.23-.16-.36-.16s-.26.05-.36.16c-.05.06-.09.13-.11.2l-.18-.2c-.1-.11-.23-.16-.36-.16s-.26.05-.36.16c-.05.06-.09.13-.11.2l-.18-.2c-.1-.11-.23-.16-.36-.16s-.26.05-.36.16c-.05.06-.09.13-.11.2l-.18-.2c-.1-.11-.23-.16-.36-.16s-.26.05-.36.16c-.05.06-.09.13-.11.2l-.18-.2c-.1-.11-.23-.16-.36-.16s-.26.05-.36.16c-.05.06-.09.13-.11.2l-.18-.2c-.1-.11-.23-.16-.36-.16s-.26.05-.36.16c-.05.06-.09.13-.11.2l-.18-.2c-.06-.06-.13-.1-.2-.13-.08-.25-.15-.51-.2-.77-.09-.44-.32-.85-.69-1.26h18Zm-9,8c-3.23,0-6.14-1.86-7.56-4.64,0,0,.02,0,.02-.02.05-.06.09-.13.11-.2l.18.2c.1.11.23.16.36.16s.26-.05.36-.16c.05-.06.09-.13.11-.2l.18.2c.1.11.23.16.36.16s.26-.05.36-.16c.05-.06.09-.13.11-.2l.18.2c.1.11.23.16.36.16s.26-.05.36-.16c.05-.06.09-.13.11-.2l.18.2c.1.11.23.16.36.16s.26-.05.36-.16c.05-.06.09-.13.11-.2l.18.2c.1.11.23.16.36.16s.26-.05.36-.16c.05-.06.09-.13.11-.2l.18.2c.1.11.23.16.36.16s.26-.05.36-.16c.05-.06.09-.13.11-.2l.18.2c.1.11.23.16.36.16s.26-.05.36-.16c.05-.06.09-.13.11-.2l.18.2c.1.11.23.16.36.16s.26-.05.36-.16c.05-.06.09-.13.11-.2l.18.2c.1.11.23.16.36.16s.26-.05.36-.16c.05-.06.09-.13.11-.2l.18.2c.1.11.23.16.36.16s.26-.05.36-.16c.05-.06.09-.13.11-.2l.18.2c.1.11.23.16.36.16s.26-.05.36-.16c.05-.06.09-.13.11-.2l.18.2c.1.11.23.16.36.16s.26-.05.36-.16c.05-.06.09-.13.11-.2l.18.2c.1.11.23.16.36.16s.26-.05.36-.16c.05-.06.09-.13.11-.2l.18.2c.1.11.23.16.36.16s.26-.05.36-.16c.05-.06.09-.13.11-.2l.18.2c.1.11.23.16.36.16.11,0,.22-.05.31-.13-1.43,2.77-4.33,4.63-7.55,4.63Z"/>
</svg>