<?xml version="1.0" encoding="UTF-8"?>
<svg id="Outline" xmlns="http://www.w3.org/2000/svg" viewBox="0 0 24 24">
  <defs>
    <style>
      .cls-1 {
        fill: #282a32;
        stroke-width: 0px;
      }
    </style>
  </defs>
  <path class="cls-1" d="m19.05,9.49c-.28.37-.68.64-1.11.64,1.47.41,2.56,1.77,2.56,3.37v.7H3.5v-.7c0-1.6,1.09-2.96,2.56-3.37-.43,0-.82-.27-1.11-.63-1.45.74-2.45,2.26-2.45,4v2.5c0,2.76,2.24,5,5,5h9c2.76,0,5-2.24,5-5v-2.5c0-1.74-.99-3.26-2.45-4.01Zm-2.55,10.51H7.5c-2.2,0-4-1.79-4-4v-.8h17v.8c0,2.21-1.79,4-4,4ZM5.74,8c1.15-.8,3.52-1.5,6.26-1.5.51,0,1,.03,1.48.07.45.04.82-.37.71-.82-.11-.44-.51-.76-.97-.76h-5.22c-.57,0-1.04-.48-1-1.07.03-.53.5-.93,1.03-.93h4.61c.82,0,1.55.5,1.86,1.26l.53,1.32c.31.79.95,1.41,1.74,1.7.61.22,1.12.47,1.49.73.44.31.21,1-.32,1H6.06c-.53,0-.76-.69-.32-1Z"/>
</svg>