<?xml version="1.0" encoding="UTF-8"?>
<svg id="Outline" xmlns="http://www.w3.org/2000/svg" viewBox="0 0 24 24">
  <defs>
    <style>
      .cls-1 {
        fill: #282a32;
        stroke-width: 0px;
      }
    </style>
  </defs>
  <path class="cls-1" d="m17,4c1.65,0,3,1.35,3,3v10c0,1.65-1.35,3-3,3H7c-1.65,0-3-1.35-3-3V7c0-1.65,1.35-3,3-3h10m0-1H7c-2.21,0-4,1.79-4,4v10c0,2.21,1.79,4,4,4h10c2.21,0,4-1.79,4-4V7c0-2.21-1.79-4-4-4h0Zm-.75,9.35c-1.52,0-2.75,1.23-2.75,2.75s1.23,2.75,2.75,2.75,2.75-1.23,2.75-2.75-1.23-2.75-2.75-2.75Zm0,4.5c-.97,0-1.75-.79-1.75-1.75s.79-1.75,1.75-1.75,1.75.79,1.75,1.75-.79,1.75-1.75,1.75Zm-8.5-4.49c-1.52,0-2.75,1.23-2.75,2.75s1.23,2.75,2.75,2.75,2.75-1.23,2.75-2.75-1.23-2.75-2.75-2.75Zm0,4.49c-.96,0-1.75-.78-1.75-1.75s.78-1.75,1.75-1.75,1.75.78,1.75,1.75-.78,1.75-1.75,1.75Zm7-9.2c0-.83.67-1.5,1.5-1.5s1.5.67,1.5,1.5-.67,1.5-1.5,1.5-1.5-.67-1.5-1.5Zm-1.35,5.32c.03.55-.49,1.2-.73,1.66-.34.55-.67,1.11-1.03,1.65-.16.23-.47.29-.7.13-.19-.13-.26-.36-.2-.57.29-.9.7-1.89,1.03-2.76-.03-.01-.09-.04-.09-.04-.29-.11-1.06-.47-1.35-.6-1.23-.55-1.34-2.42-.2-3.13.53-.33,1.23-.66,1.77-.96.38-.22.95-.48,1.43-.36.51.06.97.49,1.19.89.62.82,1.68,1.35,2.87,1.46.59.05.59.95,0,1-1.39.14-2.98-.31-4.03-1.49-.36-.45-.23-.25-.27-.27-.15.17-1.72,1.02-1.96,1.19-.02.01,0,.06,0,.07.94.52,2.28.82,2.26,2.13Z"/>
</svg>