<?xml version="1.0" encoding="UTF-8"?>
<svg id="Outline" xmlns="http://www.w3.org/2000/svg" viewBox="0 0 24 24">
  <defs>
    <style>
      .cls-1 {
        fill: #282a32;
        stroke-width: 0px;
      }
    </style>
  </defs>
  <path class="cls-1" d="m19.84,6.64l-.73.72c.88,1.33,1.39,2.93,1.39,4.64,0,4.69-3.82,8.5-8.5,8.5S3.5,16.69,3.5,12,7.31,3.5,12,3.5c1.71,0,3.31.51,4.64,1.38l.72-.72c-1.53-1.04-3.37-1.66-5.36-1.66-2.63,0-5,1.07-6.72,2.78-1.72,1.72-2.78,4.1-2.78,6.72s1.06,5,2.78,6.72,4.09,2.78,6.72,2.78,4.99-1.06,6.71-2.78,2.79-4.09,2.79-6.72c0-1.98-.61-3.83-1.66-5.36Zm-1.94,1.93l-.73.74c.42.8.66,1.72.66,2.69,0,1.6-.65,3.06-1.7,4.12-1.07,1.07-2.54,1.72-4.13,1.72s-3.07-.65-4.13-1.72c-1.06-1.06-1.71-2.52-1.71-4.12s.65-3.05,1.7-4.11c1.07-1.08,2.54-1.72,4.14-1.72.96,0,1.88.23,2.69.66l.74-.73c-1.01-.59-2.19-.93-3.43-.93-1.88,0-3.59.76-4.84,2-1.24,1.24-2,2.95-2,4.83s.76,3.59,2,4.83,2.96,2.01,4.84,2.01,3.58-.76,4.83-2.01,2-2.95,2-4.83c0-1.25-.34-2.42-.93-3.43Zm-1.99,2l-.81.8c.04.2.06.41.06.63,0,.87-.35,1.66-.92,2.24-.6.6-1.41.93-2.24.93s-1.65-.33-2.25-.93c-.57-.58-.92-1.37-.92-2.24s.35-1.65.92-2.23c.6-.6,1.41-.93,2.25-.93.21,0,.41.02.62.06h0l.8-.8c-.45-.17-.93-.26-1.43-.26-1.13,0-2.18.45-2.95,1.22-.77.76-1.22,1.81-1.22,2.94s.45,2.18,1.22,2.95,1.82,1.22,2.95,1.22,2.17-.45,2.94-1.22c.77-.77,1.22-1.82,1.22-2.95,0-.5-.09-.98-.25-1.43Zm6.03-6.39l-1.48,1.48c-.24.24-.58.34-.9.27l-.36-.07-5.77,5.77c.13.5.02,1.04-.37,1.43-.59.59-1.54.59-2.12,0s-.59-1.54,0-2.12c.39-.39.93-.49,1.43-.37l5.77-5.77-.07-.36c-.07-.33.04-.67.27-.9l1.48-1.48c.11-.11.31-.05.34.1l.22,1.07c.04.2.19.35.39.39l1.07.21c.16.03.22.22.1.34Z"/>
</svg>