<?xml version="1.0" encoding="UTF-8"?>
<svg id="Outline" xmlns="http://www.w3.org/2000/svg" viewBox="0 0 24 24">
  <defs>
    <style>
      .cls-1 {
        fill: #282a32;
        stroke-width: 0px;
      }
    </style>
  </defs>
  <path class="cls-1" d="m16.95,21H7.05c-.63,0-1.14-.4-1.14-.89v-.22c0-.49.51-.89,1.14-.89h9.89c.63,0,1.14.4,1.14.89v.22c0,.49-.51.89-1.14.89Zm-.89-12c-1.38,2.71-2.54,2.91-2.54,5s2.54,1,2.54,3.99h-1.01c0-.99-.6-1.39-.93-1.57-.6-.34-1.6-.9-1.6-2.42,0-1.6.59-2.38,1.27-3.29.41-.55.87-1.17,1.38-2.16.71-1.4.84-2.82.88-4.03.01-.19-.08-.31-.14-.37-.05-.06-.17-.15-.37-.15h-7.06c-.18,0-.3.09-.37.15s-.15.18-.14.37c.04,1.21.17,2.63.89,4.03.5.99.96,1.61,1.37,2.15.68.91,1.26,1.7,1.26,3.3,0,1.51-.99,2.08-1.59,2.41-.33.19-.93.59-.93,1.58h-1.01c0-2.99,2.53-1.93,2.53-3.99s-1.15-2.29-2.53-5c-.75-1.49-.94-2.97-.99-4.45-.03-.85.66-1.55,1.52-1.55h7.06c.86,0,1.55.7,1.52,1.55-.05,1.48-.24,2.96-.99,4.45Zm4.89-1.59c-.21.93-.66,1.85-1.64,2.78-1.57,1.5-3.45,2.11-4.61,2.83.13-.35.37-.66.71-1.13.14-.19.29-.39.45-.61.9-.46,1.89-.99,2.75-1.81.73-.69,1.16-1.42,1.36-2.28.08-.39-.09-.68-.2-.81-.19-.25-.49-.39-.8-.39h-.98c.04-.34.06-.68.08-1h.9c1.29,0,2.27,1.18,1.99,2.42Zm-12.36,4.48c.34.46.57.77.7,1.12-1.16-.71-3.02-1.33-4.6-2.82-.97-.93-1.43-1.85-1.64-2.78-.28-1.24.7-2.42,1.99-2.42h.91c.01.32.04.66.08,1h-.99c-.31,0-.61.14-.8.39-.11.13-.28.42-.19.81.19.86.63,1.59,1.36,2.28.85.82,1.84,1.35,2.74,1.81.15.22.3.42.45.61Z"/>
</svg>