<?xml version="1.0" encoding="UTF-8"?>
<svg id="Outline" xmlns="http://www.w3.org/2000/svg" viewBox="0 0 24 24">
  <defs>
    <style>
      .cls-1 {
        fill: #282a32;
        stroke-width: 0px;
      }
    </style>
  </defs>
  <path class="cls-1" d="m18.93,16.27c.13.24.19.51.19.81v.03h-3.24v-.03c0-.31.06-.58.19-.81.13-.24.31-.43.55-.56.24-.14.53-.21.87-.21s.63.07.88.21c.24.14.43.33.56.56Zm3.07,1.23c0,2.48-2.01,4.5-4.5,4.5s-4.5-2.01-4.5-4.5,2.02-4.5,4.5-4.5,4.5,2.01,4.5,4.5Zm-1.75-.09c0-.54-.11-1-.32-1.4s-.52-.71-.93-.93c-.41-.22-.91-.33-1.51-.33-.54,0-1,.1-1.4.3-.4.2-.71.48-.94.84-.23.36-.36.79-.39,1.27,0,.09-.01.2-.01.34s0,.25.01.34c.05.75.31,1.34.79,1.77s1.13.65,1.95.65c.4,0,.76-.05,1.08-.14s.59-.21.8-.35c.22-.14.38-.29.5-.43.12-.15.18-.27.19-.37,0-.07-.01-.12-.06-.16-.05-.04-.11-.06-.18-.06h-.58c-.09,0-.15,0-.19.03-.04.02-.09.07-.17.15-.04.05-.12.13-.24.22-.12.09-.27.17-.46.25-.19.07-.43.11-.71.11-.32,0-.6-.07-.85-.22-.24-.15-.42-.34-.55-.59-.13-.24-.2-.5-.21-.78v-.09h4.09c.08,0,.14-.02.2-.06s.08-.1.08-.17v-.17Zm1.12-6.89c-.37-2.4-1.66-4.68-3.88-6.28-3.24-2.33-7.73-2.33-10.97,0-5.36,3.84-5.36,11.67,0,15.51,1.21.87,2.59,1.41,4.01,1.62,1,.15,1.9-.71,1.73-1.71-.34-1.87-1.32-3.64-2.4-4.82l2.14-2.14,1.27,1.27c.22-.26.45-.49.71-.71l-1.27-1.27,2.14-2.14c1.2,1.09,2.78,2,4.73,2.37,1.03.2,1.96-.68,1.79-1.71Zm-15.16,6.57c-.31.31-.82.26-1.08-.1-.74-1.02-1.23-2.18-1.46-3.37-.1-.5.37-.94.87-.82,1.45.34,2.79,1.04,3.91,2.05l-2.24,2.24Zm4.99,2.38c.12.5-.33.96-.84.86-1.19-.23-2.33-.72-3.35-1.46-.35-.26-.4-.77-.09-1.07l2.24-2.25c1,1.12,1.7,2.47,2.04,3.92Zm-2.04-5.33c-1.41-1.27-3.13-2.11-4.98-2.43-.37-.07-.65-.38-.6-.75.17-1.4.69-2.77,1.56-3.95.26-.35.76-.41,1.07-.1l5.08,5.09-2.13,2.14Zm2.84-2.85l-5.08-5.08c-.32-.31-.26-.82.1-1.08,1.18-.86,2.54-1.38,3.94-1.55.36-.05.68.23.75.6.32,1.85,1.16,3.57,2.43,4.98l-2.14,2.13Zm.8-6.75c-.12-.5.32-.97.82-.87,1.19.23,2.35.72,3.37,1.46.36.26.41.77.1,1.08l-2.24,2.24c-1.01-1.12-1.71-2.46-2.05-3.91Zm6.67,6.66c-1.45-.34-2.8-1.04-3.92-2.04l2.24-2.24c.31-.31.83-.26,1.09.1.74,1.02,1.23,2.16,1.46,3.35.1.5-.37.95-.87.83Z"/>
</svg>