<?xml version="1.0" encoding="UTF-8"?>
<svg id="Outline" xmlns="http://www.w3.org/2000/svg" viewBox="0 0 24 24">
  <defs>
    <style>
      .cls-1 {
        fill: #282a32;
        stroke-width: 0px;
      }
    </style>
  </defs>
  <path class="cls-1" d="m20.41,7.79l-4.2-4.2h0c-2.13-2.13-6.67-1.03-10.16,2.45-3.48,3.49-4.58,8.03-2.45,10.16l4.2,4.21c1.24,1.24,3.29,1.39,5.48.61-.22-.26-.42-.55-.58-.85-1.72.56-3.29.45-4.2-.46l-1.76-1.76c-.24-.24-.09-.66.25-.68,2.13-.16,4.65-1.39,6.77-3.52,2.13-2.12,3.36-4.64,3.52-6.77.02-.34.44-.49.68-.25l1.76,1.76c.91.91,1.02,2.48.45,4.21.31.16.59.35.86.58.78-2.19.63-4.25-.61-5.49Zm-7.36,5.26c-3.04,3.04-7.05,4.16-8.76,2.45-1.71-1.7-.58-5.72,2.45-8.76,3.04-3.03,7.06-4.16,8.76-2.45,1.71,1.71.59,5.72-2.45,8.76Zm5.88,3.22c.13.24.19.51.19.81v.03h-3.24v-.03c0-.31.06-.58.19-.81.13-.24.31-.43.55-.57.24-.14.53-.21.87-.21s.63.07.88.21c.24.14.43.33.56.57Zm3.07,1.23c0,2.49-2.01,4.5-4.5,4.5s-4.5-2.01-4.5-4.5,2.02-4.5,4.5-4.5,4.5,2.01,4.5,4.5Zm-1.75-.09c0-.54-.11-1.01-.32-1.41s-.52-.71-.93-.93c-.41-.22-.91-.33-1.51-.33-.54,0-1,.1-1.4.3-.4.2-.71.48-.94.84-.23.36-.36.79-.39,1.27,0,.09-.01.2-.01.34s0,.25.01.34c.05.75.31,1.34.79,1.77s1.13.65,1.95.65c.4,0,.76-.05,1.08-.14s.59-.21.8-.35c.22-.14.38-.29.5-.43.12-.15.18-.27.19-.37,0-.07-.01-.12-.06-.16-.05-.04-.11-.06-.18-.06h-.58c-.09,0-.15,0-.19.03-.04.02-.09.07-.17.15-.04.05-.12.13-.24.22-.12.09-.27.17-.46.25-.19.08-.43.11-.71.11-.32,0-.61-.07-.85-.22-.24-.15-.42-.34-.55-.59-.13-.24-.2-.5-.21-.78v-.09h4.09c.08,0,.14-.02.2-.06s.08-.1.08-.17v-.17Z"/>
</svg>