<?xml version="1.0" encoding="UTF-8"?>
<svg id="Outline" xmlns="http://www.w3.org/2000/svg" viewBox="0 0 24 24">
  <defs>
    <style>
      .cls-1 {
        fill: #282a32;
        stroke-width: 0px;
      }
    </style>
  </defs>
  <path class="cls-1" d="m7.4,7.68l-2.4,8.64h1l2.39-8.64h-.99Zm1.64,0l-2.4,8.64h.99l2.39-8.64h-.98Zm1.89,0l-2.4,8.64h1.61l2.38-8.64h-1.59Zm2.25,0l-2.41,8.64h1.37c.13-.65.39-1.26.73-1.79l1.9-6.85h-1.59Zm2.51,0l-1.51,5.44c1-.77,2.27-1.18,3.61-1.1l1.21-4.34h-3.31Zm-8.29,0l-2.4,8.64h1l2.39-8.64h-.99Zm1.64,0l-2.4,8.64h.99l2.39-8.64h-.98Zm1.89,0l-2.4,8.64h1.61l2.38-8.64h-1.59Zm2.25,0l-2.41,8.64h1.37c.13-.65.39-1.26.73-1.79l1.9-6.85h-1.59Zm2.51,0l-1.51,5.44c1-.77,2.27-1.18,3.61-1.1l1.21-4.34h-3.31Zm3.11-4.68h-10.37c-1.44,0-2.7.96-3.08,2.34l-3.23,11.6c-.57,2.04.97,4.06,3.08,4.06h8.06c-.26-.31-.48-.64-.66-1h-7.4c-.69,0-1.33-.31-1.75-.87-.42-.55-.55-1.25-.37-1.92l3.23-11.6c.26-.95,1.13-1.61,2.12-1.61h10.37c.69,0,1.33.32,1.75.87.42.55.55,1.25.37,1.92l-1.54,5.55c.33.11.63.25.92.43l1.58-5.71c.57-2.04-.96-4.06-3.08-4.06Zm-3.11,4.68l-1.51,5.44c1-.77,2.27-1.18,3.61-1.1l1.21-4.34h-3.31Zm-4.76,0l-2.4,8.64h1.61l2.38-8.64h-1.59Zm2.25,0l-2.41,8.64h1.37c.13-.65.39-1.26.73-1.79l1.9-6.85h-1.59Zm-5.78,0l-2.4,8.64h1l2.39-8.64h-.99Zm1.64,0l-2.4,8.64h.99l2.39-8.64h-.98Zm9.89,8.59c.13.24.19.51.19.81v.03h-3.24v-.03c0-.31.06-.58.19-.81.13-.24.31-.43.55-.57.24-.14.53-.21.87-.21s.63.07.88.21c.24.14.43.33.56.57Zm3.07,1.23c0,2.49-2.01,4.5-4.5,4.5s-4.5-2.01-4.5-4.5,2.02-4.5,4.5-4.5,4.5,2.01,4.5,4.5Zm-1.75-.09c0-.54-.11-1-.32-1.41s-.52-.71-.93-.93c-.41-.22-.91-.33-1.51-.33-.54,0-1,.1-1.4.3-.4.2-.71.48-.94.84-.23.36-.36.79-.39,1.27,0,.09-.01.2-.01.34s0,.25.01.34c.05.75.31,1.34.79,1.77s1.13.65,1.95.65c.4,0,.76-.05,1.08-.14s.59-.21.8-.35c.22-.14.38-.29.5-.43.12-.15.18-.27.19-.37,0-.07-.01-.12-.06-.16-.05-.04-.11-.06-.18-.06h-.58c-.09,0-.15,0-.19.03-.04.02-.09.07-.17.15-.04.05-.12.13-.24.22-.12.09-.27.17-.46.25-.19.08-.43.11-.71.11-.32,0-.6-.07-.85-.22-.24-.15-.42-.34-.55-.59-.13-.24-.2-.5-.21-.78v-.09h4.09c.08,0,.14-.02.2-.06s.08-.1.08-.17v-.17Z"/>
</svg>