<?xml version="1.0" encoding="UTF-8"?>
<svg id="Outline" xmlns="http://www.w3.org/2000/svg" viewBox="0 0 24 24">
  <defs>
    <style>
      .cls-1 {
        fill: #282a32;
        stroke-width: 0px;
      }
    </style>
  </defs>
  <path class="cls-1" d="m18.93,16.27c.13.24.19.51.19.81v.03h-3.24v-.03c0-.31.06-.58.19-.81.13-.24.31-.43.55-.57.24-.14.53-.21.87-.21s.63.07.88.21c.24.14.43.33.56.57Zm3.07,1.23c0,2.49-2.01,4.5-4.5,4.5s-4.5-2.01-4.5-4.5,2.02-4.5,4.5-4.5,4.5,2.01,4.5,4.5Zm-1.75-.09c0-.54-.11-1.01-.32-1.41s-.52-.71-.93-.93c-.41-.22-.91-.33-1.51-.33-.54,0-1,.1-1.4.3-.4.2-.71.48-.94.84-.23.36-.36.79-.39,1.27,0,.09-.01.2-.01.34s0,.25.01.34c.05.75.31,1.34.79,1.77s1.13.65,1.95.65c.4,0,.76-.05,1.08-.14s.59-.21.8-.35c.22-.14.38-.29.5-.43.12-.15.18-.27.19-.37,0-.07-.01-.12-.06-.16-.05-.04-.11-.06-.18-.06h-.58c-.09,0-.15,0-.19.03-.04.02-.09.07-.17.15-.04.05-.12.13-.24.22-.12.09-.27.17-.46.25-.19.08-.43.11-.71.11-.32,0-.6-.07-.85-.22-.24-.15-.42-.34-.55-.59-.13-.24-.2-.5-.21-.78v-.09h4.09c.08,0,.14-.02.2-.06s.08-.1.08-.17v-.17Zm-2.77-13.16c-3.24-2.33-7.73-2.33-10.97,0-5.35,3.84-5.35,11.68,0,15.52,1.35.97,2.91,1.54,4.52,1.7.98.1,1.79-.76,1.64-1.74-.35-2.3-1.38-4.17-2.79-5.6-1.61-1.6-3.62-2.53-5.71-2.81-.35-.05-.61-.35-.55-.69.27-1.7,1.06-3.32,2.37-4.63,1.3-1.3,2.92-2.09,4.61-2.37.35-.05.65.21.7.55.28,2.09,1.22,4.11,2.82,5.71,1.4,1.4,3.4,2.5,5.62,2.8.98.13,1.81-.7,1.7-1.69-.27-2.57-1.59-5.06-3.97-6.76ZM4.25,12.34c1.8.29,3.53,1.11,4.92,2.5s2.21,3.12,2.5,4.92c.06.39-.26.73-.66.68-1.83-.21-3.62-1.01-5.02-2.43-1.4-1.39-2.2-3.16-2.42-4.98-.05-.4.28-.77.68-.7Zm15.49-.66c-1.8-.29-3.53-1.11-4.91-2.5-1.39-1.38-2.22-3.11-2.51-4.91-.06-.4.3-.73.7-.69,1.83.22,3.59,1.02,4.99,2.42,1.4,1.41,2.21,3.19,2.42,5.03.04.4-.29.72-.69.65Z"/>
</svg>