<?xml version="1.0" encoding="UTF-8"?>
<svg id="Outline" xmlns="http://www.w3.org/2000/svg" viewBox="0 0 24 24">
  <defs>
    <style>
      .cls-1 {
        fill: #282a32;
        stroke-width: 0px;
      }
    </style>
  </defs>
  <path class="cls-1" d="m11.82,2.5c-5.08.1-9.22,4.24-9.32,9.32-.1,5.39,4.29,9.78,9.68,9.68.48-.01.95-.05,1.41-.13-.27-.28-.52-.59-.73-.92-.28.04-.57.05-.86.05-2.73,0-5.16-1.29-6.72-3.3-.19-.25-.2-.59-.02-.84.43-.59.91-1.14,1.47-1.62,1.56,1.92,3.46,3.44,5.53,4.41-.13-.4-.21-.82-.24-1.25-1.67-.89-3.2-2.18-4.5-3.76,1.23-.85,2.68-1.41,4.26-1.6.43.57.9,1.09,1.42,1.54.2-.26.43-.5.68-.72-.48-.42-.92-.9-1.31-1.43.58-1.34.87-2.75.87-4.13,0-1.25-.26-2.48-.7-3.63-.11-.3.13-.62.45-.58.83.12,1.62.35,2.36.69.34.16.61.44.75.78.22.51.4,1.05.52,1.64.37,1.7.35,3.52,0,5.35.33-.05.67-.06,1.01-.03.18-.91.27-1.82.27-2.71,0-.96-.09-1.91-.29-2.82-.01-.07-.03-.14-.05-.22-.05-.19.2-.33.34-.18,1.49,1.53,2.41,3.61,2.41,5.91,0,.29,0,.58-.04.87.33.2.63.45.91.72.08-.46.12-.93.13-1.41.1-5.39-4.29-9.78-9.68-9.68Zm-.93,1.08c.3-.04.61.12.73.41.3.68.53,1.38.66,2.11-3.29.55-6.13,1.99-8.16,3.93-.14.14-.38,0-.33-.19.87-3.29,3.66-5.8,7.1-6.26Zm.76,7.97c-2.76.33-5.15,1.72-6.81,3.72-.21.24-.6.18-.72-.12-.29-.72-.48-1.49-.57-2.29-.04-.39.09-.79.34-1.1,1.88-2.3,4.9-4.06,8.52-4.67.11,1.49-.13,3.01-.76,4.46Zm7.28,4.72c.13.24.19.51.19.81v.03h-3.24v-.03c0-.31.06-.58.19-.81.13-.24.31-.43.55-.57.24-.14.53-.21.87-.21s.63.07.88.21c.24.14.43.33.56.57Zm3.07,1.23c0,2.48-2.01,4.5-4.5,4.5s-4.5-2.01-4.5-4.5,2.01-4.5,4.5-4.5,4.5,2.01,4.5,4.5Zm-1.75-.09c0-.54-.11-1-.32-1.41s-.52-.71-.93-.93c-.41-.22-.91-.33-1.51-.33-.54,0-1,.1-1.4.3-.4.2-.71.48-.94.84-.23.36-.36.79-.39,1.27,0,.09-.01.2-.01.34s0,.25.01.34c.05.75.31,1.34.79,1.77s1.13.65,1.95.65c.4,0,.76-.05,1.08-.14s.59-.21.8-.35c.22-.14.38-.29.5-.43.12-.15.18-.27.19-.37,0-.07-.01-.12-.06-.16-.05-.04-.11-.06-.18-.06h-.58c-.09,0-.15,0-.19.03-.04.02-.09.07-.17.15-.04.05-.12.13-.24.22-.12.09-.27.17-.46.25-.19.07-.43.11-.71.11-.32,0-.6-.07-.85-.22-.24-.15-.42-.34-.55-.59-.13-.24-.2-.5-.21-.78v-.09h4.09c.08,0,.14-.02.2-.06s.08-.1.08-.17v-.17Z"/>
</svg>