<?xml version="1.0" encoding="UTF-8"?>
<svg id="Outline" xmlns="http://www.w3.org/2000/svg" viewBox="0 0 24 24">
  <defs>
    <style>
      .cls-1 {
        fill: #282a32;
        stroke-width: 0px;
      }
    </style>
  </defs>
  <path class="cls-1" d="m18.91,11.81l-2.74-4.14-.19.09c-.08.04-1.91.89-3.66,3.87-.48-.28-.86-.72-1.11-1.26-.15-.44-.32-.88-.71-1.18-.41-.37-1-.45-1.54-.44l-2.11-.02c-1.48-.11-2.47,1.81-1.45,2.94.46.47,1.84,1.34,1.92,1.77,0,.03,0,.07,0,.1-1.14-.08-2.02-.3-2.04-.31-.13-.03-.27.04-.31.18-.04.13.04.27.18.31.09.02.92.24,2.02.33-.21.37-.66.88-1.55,1.63-.32.27-.25.78.06,1.06l.73.66c.31.28.78.25,1.06-.05s.25-.78-.05-1.06l-.35-.32c.8-.67,1.34-1.37,1.61-1.91,1.17-.08,2.39-.39,3.28-1.2.71.22,1.46.24,2.18,0,.54-.19.26-1.07-.3-.95-.38.07-.74.03-1.07-.07,1.34-2.26,2.72-3.23,3.21-3.51l2.5,3.78c.06.09.05.22-.02.3l-.36.42c-.08.09-.21.12-.32.05l-1.47-.88c-.19-.11-.42-.14-.63-.07-.21.07-.37.23-.45.43-.29.73-.76,2.15-.61,3.44.01.13.12.22.25.22,0,0,.02,0,.03,0,.14-.02.24-.14.22-.28-.14-1.17.31-2.5.58-3.19.03-.07.08-.12.15-.14.07-.03.15-.02.21.02l1.47.88c.31.19.72.12.95-.16l.36-.42c.22-.25.24-.62.06-.9Zm-10.03,1.72s.01-.05.01-.08c.11-.54-.33-1.34-.69-1.58l-1.45-1.34s0,.01.01,0c0-.01,0,0,0,0,.31,0,2.28-.02,2.58-.03.45.97,1.22,1.72,2.11,2.15-.72.55-1.65.8-2.57.88Zm4.9-5.61c0,.83-.67,1.5-1.5,1.5s-1.5-.67-1.5-1.5.67-1.5,1.5-1.5,1.5.67,1.5,1.5Zm3.23-3.92c1.65,0,3,1.35,3,3v10c0,1.65-1.35,3-3,3H7c-1.65,0-3-1.35-3-3V7c0-1.65,1.35-3,3-3h10m0-1H7c-2.21,0-4,1.79-4,4v10c0,2.21,1.79,4,4,4h10c2.21,0,4-1.79,4-4V7c0-2.21-1.79-4-4-4h0Z"/>
</svg>