<?xml version="1.0" encoding="UTF-8"?>
<svg id="Outline" xmlns="http://www.w3.org/2000/svg" viewBox="0 0 24 24">
  <defs>
    <style>
      .cls-1 {
        fill: #282a32;
        stroke-width: 0px;
      }
    </style>
  </defs>
  <path class="cls-1" d="m16.79,12.09c0,.33-.27.6-.6.6s-.6-.27-.6-.6.27-.6.6-.6.6.27.6.6Zm-7.29-2.09h-1v-1c0-.28-.22-.5-.5-.5s-.5.22-.5.5v1h-1c-.28,0-.5.22-.5.5s.22.5.5.5h1v1c0,.28.22.5.5.5s.5-.22.5-.5v-1h1c.28,0,.5-.22.5-.5s-.22-.5-.5-.5Zm5.1-.1c-.33,0-.6.27-.6.6s.27.6.6.6.6-.27.6-.6-.27-.6-.6-.6Zm5.43,9.1c-1.28,0-2.64-1.04-3.69-2.65-.55-.84-1.49-1.35-2.5-1.35h-3.67c-1.01,0-1.95.51-2.5,1.35-1.06,1.6-2.41,2.65-3.69,2.65-2.1,0-2.44-4.22-1.41-7.89,1.19-4.24,3.77-6.11,5.39-6.11,1.89,0,1.9,1,4.05,1s2.16-1,4.05-1c1.62,0,4.2,1.87,5.39,6.11,1.03,3.67.69,7.89-1.41,7.89Zm.45-7.62c-1.14-4.07-3.47-5.38-4.42-5.38-.68,0-.98.15-1.44.37-.57.28-1.27.63-2.61.63s-2.05-.35-2.61-.63c-.46-.22-.76-.37-1.44-.37-.95,0-3.28,1.32-4.42,5.38-.81,2.88-.56,6.4.45,6.62.84.18,1.96-.84,2.86-2.2.74-1.13,1.99-1.8,3.34-1.8h3.67c1.35,0,2.6.67,3.34,1.8.89,1.36,2.02,2.38,2.86,2.2,1.01-.22,1.26-3.74.45-6.62Zm-2.69-1.48c-.33,0-.6.27-.6.6s.27.6.6.6.6-.27.6-.6-.27-.6-.6-.6Zm-1.59-1.59c-.33,0-.6.27-.6.6s.27.6.6.6.6-.27.6-.6-.27-.6-.6-.6Zm-3.84-3.45c.23-.22.55-.73.09-1.59-.06-.12-.16-.34-.09-.41.2-.19.2-.51.01-.71-.19-.2-.51-.2-.71-.01-.28.27-.53.77-.09,1.59.09.17.15.36.09.41-.2.19-.2.51-.01.71.1.1.23.15.36.15s.25-.05.35-.14Z"/>
</svg>