<?xml version="1.0" encoding="UTF-8"?>
<svg id="Outline" xmlns="http://www.w3.org/2000/svg" viewBox="0 0 24 24">
  <defs>
    <style>
      .cls-1 {
        fill: #282a32;
        stroke-width: 0px;
      }
    </style>
  </defs>
  <path class="cls-1" d="m12,3.5c4.69,0,8.5,3.81,8.5,8.5s-3.81,8.5-8.5,8.5S3.5,16.69,3.5,12,7.31,3.5,12,3.5m0-1C6.75,2.5,2.5,6.75,2.5,12s4.25,9.5,9.5,9.5,9.5-4.25,9.5-9.5S17.25,2.5,12,2.5h0Zm-4.94,8.79c.03-2.82,1.5-3.7,2.3-3.7,1.12,0,1.58.85,1.65,1.23.08.38.5.68.63.06.14-.62,1.45-2.5,3.06-2.5,1.48,0,1.99,1.52,1.94,2.82-.12,3.53-4.66,6.34-5.26,8.12-.53-1.08-4.36-2.63-4.32-6.03Zm8.17-5.79c-1.33,0-2.9.98-3.84,2.61-.26-.59-1.17-1.23-2.25-1.23-.87,0-3.33,1.09-3.33,4.62,0,4.55,4.61,5.49,5.54,6.91.06.1.27.17.35-.06.74-2.19,6.5-4.67,6.5-9.14,0-2.5-1.63-3.71-2.96-3.71h0Z"/>
</svg>