<?xml version="1.0" encoding="UTF-8"?>
<svg id="Outline" xmlns="http://www.w3.org/2000/svg" viewBox="0 0 24 24">
  <defs>
    <style>
      .cls-1 {
        fill: #282a32;
        stroke-width: 0px;
      }
    </style>
  </defs>
  <path class="cls-1" d="m7.47,7.33c-.34-.4-.28-1,.12-1.34.41-.34,1.01-.29,1.35.11.22.27.26.62.15.93l2.31,2.74-.63.75-2.41-2.87c-.32.05-.66-.05-.89-.32Zm9.11,8.26l-1.07-1.28.87-.72c.23-.2.23-.57,0-.75-.74-.54-1.74-.61-2.54-.17l-1.21-1.43,3.02-3.59c.32.05.66-.04.89-.31.34-.4.29-1.01-.12-1.35s-1.01-.29-1.35.12c-.23.27-.26.62-.15.93l-4.73,5.64c-.81-.44-1.8-.37-2.54.17-.25.18-.24.55-.01.75l.87.73-1.07,1.27c-.25.3-.21.76.09,1.01.3.25.76.21,1.01-.09l1.07-1.27.87.73c.23.2.6.13.73-.14.4-.82.3-1.81-.28-2.53l1.09-1.3,1.09,1.3c-.57.72-.68,1.71-.27,2.53.13.27.5.34.73.14l.87-.73,1.06,1.28c.26.3.71.34,1.01.09.31-.26.35-.71.09-1.01ZM12,3c.11,0,.22.02.32.05l7.08,2.39c.18.06.3.2.33.35.18.99.26,1.99.26,2.99,0,5.89-2.72,10.2-7.66,12.15-.1.04-.22.06-.34.06s-.23-.02-.34-.07c-4.87-1.92-7.66-6.35-7.66-12.15,0-1,.09-2.01.26-2.98.03-.16.16-.3.34-.36l7.08-2.39c.11-.04.22-.05.32-.05m0-1c-.21,0-.43.04-.64.11l-7.08,2.39c-.51.17-.9.59-1,1.12-.18,1.01-.28,2.07-.28,3.17,0,5.97,2.77,10.9,8.29,13.08.23.09.47.14.71.14s.48-.05.71-.14c5.53-2.18,8.29-7.11,8.29-13.08,0-1.1-.1-2.16-.28-3.17-.1-.53-.49-.95-1-1.12l-7.08-2.39c-.21-.07-.43-.11-.64-.11h0Z"/>
</svg>