<?xml version="1.0" encoding="UTF-8"?>
<svg id="Outline" xmlns="http://www.w3.org/2000/svg" viewBox="0 0 24 24">
  <defs>
    <style>
      .cls-1 {
        fill: #282a32;
        stroke-width: 0px;
      }
    </style>
  </defs>
  <path class="cls-1" d="m14.12,16.44c.1.36-.21.76-.69.89-.48.13-.95-.06-1.04-.42-.1-.36.21-.76.69-.88.48-.13.95.06,1.04.42Zm-2.5-9.34c-.1-.36-.56-.55-1.04-.42-.48.13-.79.52-.69.88.1.36.56.55,1.04.42.48-.13.79-.52.69-.88Zm-1.7,8.51c-.43-.25-.93-.19-1.12.13-.19.32.01.79.44,1.03.43.25.93.19,1.12-.13s-.01-.79-.44-1.03Zm4.84-8.38c-.43-.25-.93-.19-1.12.13s.01.79.44,1.03c.43.25.93.19,1.12-.13s-.01-.79-.44-1.03Zm-6.78,5.85c-.13-.48-.52-.79-.89-.69-.36.1-.55.56-.42,1.04.13.48.52.79.88.69.36-.1.55-.56.42-1.04Zm7.62,1c-.25.43-.19.93.13,1.12s.79-.01,1.03-.44.19-.93-.13-1.12c-.32-.19-.79.01-1.03.44Zm.83-4.2c-.36.1-.55.56-.42,1.04.13.48.52.79.88.69.36-.1.55-.56.42-1.04-.13-.48-.52-.79-.89-.69Zm-8.04.04c.25-.43.19-.93-.13-1.12s-.79.01-1.03.44c-.25.43-.19.93.13,1.12.32.19.79-.01,1.03-.44Zm-2.83,4.93c-.24.14-.26.54-.06.9.21.36.57.54.81.4.24-.14.27-.54.06-.9-.21-.36-.57-.54-.81-.4Zm-.06-6.6c-.21.36-.18.76.06.9.24.14.6-.04.81-.4.21-.36.18-.76-.06-.9-.24-.14-.6.04-.81.4Zm6.5-2.75c.41,0,.75-.22.75-.5s-.34-.5-.75-.5-.75.22-.75.5.34.5.75.5Zm-7,5.75c-.28,0-.5.34-.5.75s.22.75.5.75.5-.34.5-.75-.22-.75-.5-.75Zm3.75-4.88c.36-.21.54-.57.4-.81-.14-.24-.54-.27-.9-.06-.36.21-.54.57-.4.81.14.24.54.27.9.06Zm6.5,0c.36.21.76.18.9-.06.14-.24-.04-.6-.4-.81-.36-.21-.76-.18-.9.06-.14.24.04.6.4.81Zm-6.5,11.26c-.36-.21-.76-.18-.9.06-.14.24.04.6.4.81.36.21.76.18.9-.06s-.04-.6-.4-.81Zm8.88-2.38c-.21.36-.18.76.06.9s.6-.04.81-.4c.21-.36.18-.76-.06-.9-.24-.14-.6.04-.81.4Zm-5.63,3.25c-.41,0-.75.22-.75.5s.34.5.75.5.75-.22.75-.5-.34-.5-.75-.5Zm7-7.25c-.28,0-.5.34-.5.75s.22.75.5.75.5-.34.5-.75-.22-.75-.5-.75Zm-3.75,6.38c-.36.21-.54.57-.4.81.14.24.54.27.9.06.36-.21.54-.57.4-.81s-.54-.27-.9-.06Zm3.19-8.48c.24-.14.27-.54.06-.9-.21-.36-.57-.54-.81-.4-.24.14-.27.54-.06.9.21.36.57.54.81.4Zm2.92,4.52c-.02.14-.12.26-.24.33-.11.06-.2.19-.25.36-.04.17-.03.32.04.43.07.12.1.27.05.41-.37,1.04-.94,2.04-1.69,2.92-.09.11-.23.16-.37.17-.12,0-.27.07-.39.19s-.18.26-.19.39c0,.14-.06.28-.16.37-.89.75-1.88,1.32-2.92,1.7-.05.02-.1.03-.15.03-.09,0-.18-.03-.26-.07-.07-.04-.15-.06-.25-.06-.06,0-.12,0-.18.02-.17.04-.3.14-.36.25-.07.12-.19.22-.33.24-.56.1-1.13.15-1.7.15s-1.12-.05-1.67-.15c-.14-.03-.26-.12-.33-.24-.06-.11-.19-.2-.36-.25-.06-.02-.12-.02-.18-.02-.1,0-.18.02-.25.06-.08.05-.17.07-.26.07-.05,0-.1,0-.15-.03-1.05-.37-2.04-.94-2.92-1.69-.11-.09-.16-.23-.17-.37,0-.12-.07-.27-.19-.39-.12-.12-.26-.18-.39-.19-.14,0-.28-.05-.37-.16-.75-.89-1.32-1.88-1.7-2.92-.05-.14-.03-.28.05-.41.06-.11.08-.27.03-.43s-.14-.29-.25-.36c-.12-.07-.22-.19-.24-.33-.2-1.12-.2-2.26,0-3.37.03-.14.12-.26.24-.33.11-.06.2-.19.25-.36s.03-.33-.04-.43c-.07-.12-.1-.27-.05-.41.37-1.04.94-2.04,1.69-2.92.09-.11.23-.16.37-.17.12,0,.27-.07.39-.19.12-.12.18-.26.19-.39,0-.14.05-.28.16-.37.89-.75,1.88-1.32,2.92-1.7.05-.02.1-.03.15-.03.09,0,.18.03.26.07.07.04.15.06.25.06.06,0,.12,0,.18-.02.17-.04.29-.14.36-.25.07-.12.19-.22.33-.24.56-.1,1.13-.15,1.7-.15s1.12.05,1.67.15c.14.03.26.12.33.24.06.11.19.2.36.25.06.02.12.02.18.02.1,0,.18-.02.25-.06.08-.05.17-.07.26-.07.05,0,.1,0,.15.03,1.05.37,2.04.94,2.92,1.69.11.09.16.23.17.37,0,.12.07.27.19.39.12.12.26.18.39.18.14,0,.28.05.37.16.75.89,1.32,1.88,1.7,2.92.05.13.03.28-.05.41-.06.11-.08.27-.03.43.04.17.14.29.25.36.12.07.22.19.24.33.2,1.12.2,2.26,0,3.37Zm-.93-2.81c-.01-.11-.06-.2-.14-.28-.18-.19-.32-.44-.4-.71-.07-.27-.08-.56-.02-.81.02-.1.02-.21-.02-.31-.29-.7-.67-1.35-1.14-1.95-.06-.08-.15-.14-.25-.17-.25-.08-.5-.22-.69-.42-.2-.2-.34-.44-.42-.69-.03-.1-.09-.19-.17-.25-.6-.47-1.26-.84-1.95-1.13-.1-.04-.21-.04-.31-.02-.12.03-.24.04-.37.04-.15,0-.29-.02-.44-.06-.28-.07-.52-.21-.72-.4-.08-.07-.17-.12-.28-.14-.37-.05-.74-.07-1.11-.07s-.76.03-1.14.08c-.1.01-.2.06-.28.14-.19.18-.44.32-.71.4-.15.04-.3.06-.45.06-.13,0-.26-.01-.38-.04-.1-.02-.21-.02-.31.02-.7.29-1.35.67-1.95,1.13-.08.06-.14.15-.17.25-.08.25-.22.49-.42.69-.2.2-.44.34-.69.42-.1.03-.19.09-.25.17-.47.6-.85,1.26-1.13,1.95-.04.1-.05.2-.02.3.06.26.06.55-.01.82-.07.27-.21.52-.39.71-.07.08-.12.17-.14.28-.1.75-.1,1.5,0,2.24.01.11.06.2.14.28.18.19.32.44.4.71.07.27.08.56.02.81-.02.1-.02.21.02.31.29.7.67,1.35,1.14,1.95.06.08.15.14.25.17.25.08.49.22.69.42.2.2.34.44.42.69.03.1.09.19.17.25.6.46,1.25.84,1.95,1.13.1.04.21.04.31.02.12-.03.24-.04.37-.04.15,0,.29.02.44.06.28.07.52.21.72.4.08.07.17.12.28.14.37.05.74.07,1.11.07s.76-.03,1.14-.08c.1-.01.2-.06.28-.14.19-.18.44-.32.71-.4.15-.04.3-.06.44-.06.13,0,.25.02.38.04.1.02.21.02.3-.02.7-.29,1.35-.67,1.95-1.14.08-.06.14-.15.17-.25.08-.25.22-.49.42-.69.2-.2.44-.34.69-.42.1-.03.19-.09.25-.17.46-.6.84-1.26,1.13-1.95.04-.1.05-.2.02-.3-.06-.26-.06-.54.01-.82.07-.28.21-.52.39-.72.07-.08.12-.17.14-.28.1-.75.1-1.5,0-2.25Z"/>
</svg>