<?xml version="1.0" encoding="UTF-8"?>
<svg id="Outline" xmlns="http://www.w3.org/2000/svg" viewBox="0 0 24 24">
  <defs>
    <style>
      .cls-1 {
        fill: #282a32;
        stroke-width: 0px;
      }
    </style>
  </defs>
  <path class="cls-1" d="m16.41,7.02c0,.83-.67,1.5-1.5,1.5s-1.5-.67-1.5-1.5.67-1.5,1.5-1.5,1.5.67,1.5,1.5Zm1.46,1.98c.43-.45-.26-1.14-.71-.71-.91.78-2.56,1.21-3.64.72-1.16-.64-2.11-2.03-3.11-2.98-.18-.19-.5-.21-.71-.02-.18.17-.2.45-.06.66.43.64.89,1.25,1.39,1.85.36.52.81.92,1.28,1.23-.44.27-.92.51-1.39.64-1.13.22-2.33-.3-3.06-1.2-.16-.2-.3-.42-.42-.66-.05-.11,0-.24.12-.27s.22-.1.3-.18c.29-.29.29-.77,0-1.06l-1.07-1.06c-.29-.29-.77-.29-1.07,0-.29.29-.29.77,0,1.06l.36.36c-.1.79.43,2.14.72,2.55,1.05,1.59,2.59,2.28,4.21,2.16.74.41,1.34,1.1,1.6,1.94.05.15.08.3.11.45.12.75-.23,1.45-.62,2.1-.07.11-.1.24-.1.37h0c0,.42.34.75.75.75h1.51c.42,0,.75-.34.75-.75h0c0-.42-.34-.75-.75-.75h-.55c.5-1.53.13-3.31-.93-4.54.66-.28,1.3-.69,1.9-1.22,1.13-.03,2.27-.49,3.19-1.44Zm-2.85,9.27h0c0-.14-.11-.25-.25-.25h-2.52c-.14,0-.25.11-.25.25h0c0,.14.11.25.25.25h2.52c.14,0,.25-.11.25-.25Zm1.98-14.26c1.65,0,3,1.35,3,3v10c0,1.65-1.35,3-3,3H7c-1.65,0-3-1.35-3-3V7c0-1.65,1.35-3,3-3h10m0-1H7c-2.21,0-4,1.79-4,4v10c0,2.21,1.79,4,4,4h10c2.21,0,4-1.79,4-4V7c0-2.21-1.79-4-4-4h0Z"/>
</svg>