<?xml version="1.0" encoding="UTF-8"?>
<svg id="Outline" xmlns="http://www.w3.org/2000/svg" viewBox="0 0 24 24">
  <defs>
    <style>
      .cls-1 {
        fill: #282a32;
        stroke-width: 0px;
      }
    </style>
  </defs>
  <path class="cls-1" d="m12,3.5c4.69,0,8.5,3.81,8.5,8.5s-3.81,8.5-8.5,8.5S3.5,16.69,3.5,12,7.31,3.5,12,3.5m0-1C6.75,2.5,2.5,6.75,2.5,12s4.25,9.5,9.5,9.5,9.5-4.25,9.5-9.5S17.25,2.5,12,2.5h0Zm0,6.24c-.82,0-1.49.67-1.49,1.5s.67,1.5,1.49,1.5,1.49-.67,1.49-1.5-.67-1.5-1.49-1.5Zm-4.14,8.35c-.63-.53-1.28-.79-1.46-.58s.19.81.82,1.34,1.28.79,1.46.58-.19-.81-.82-1.34Zm7.46,1.34c.18.21.83-.05,1.46-.58s1-1.13.82-1.34-.83.05-1.46.58-1,1.13-.82,1.34ZM6.92,9.31c-.53-.14-1.13.39-1.34,1.19s.04,1.56.57,1.7,1.13-.39,1.34-1.19-.04-1.56-.57-1.7Zm9.6,1.7c.21.8.81,1.33,1.34,1.19s.78-.9.57-1.7-.81-1.33-1.34-1.19-.78.9-.57,1.7Zm-4.51-6.51c-.82,0-1.49.45-1.49,1s.67,1,1.49,1,1.49-.45,1.49-1-.67-1-1.49-1Zm0,9.97c-.82,0-1.49.56-1.49,1.25s.67,1.25,1.49,1.25,1.49-.56,1.49-1.25-.67-1.25-1.49-1.25Z"/>
</svg>