<?xml version="1.0" encoding="UTF-8"?>
<svg id="Outline" xmlns="http://www.w3.org/2000/svg" viewBox="0 0 24 24">
  <defs>
    <style>
      .cls-1 {
        fill: #282a32;
        stroke-width: 0px;
      }
    </style>
  </defs>
  <path id="_Compound_Path_" data-name="&amp;lt;Compound Path&amp;gt;" class="cls-1" d="m12.18,2.5c-5.39-.1-9.78,4.29-9.68,9.68.09,5.08,4.24,9.22,9.32,9.32,5.39.1,9.78-4.29,9.68-9.68-.09-5.08-4.24-9.22-9.32-9.32Zm-7.29,7.22l-.93,1.08c-.13.15-.38.04-.35-.16.14-.85.41-1.67.78-2.41.09-.18.36-.13.38.07l.12,1.42Zm.67.74l1.94.63,1.41,4.34-1.2,1.65-2.69-.64c-.19-.05-.36-.17-.45-.34-.5-.9-.84-1.89-.99-2.95-.03-.2.03-.4.16-.55l1.82-2.13Zm2.93.43l3.51-2.55,3.51,2.55-1.34,4.13h-4.34l-1.34-4.13Zm8.01.2l1.93-.62,1.83,2.13c.13.15.19.35.16.55-.14,1.05-.49,2.04-.98,2.94-.1.17-.26.3-.45.34l-2.71.65-1.19-1.65,1.41-4.34Zm2.61-1.37l.11-1.43c.02-.2.29-.26.38-.08.37.75.64,1.56.78,2.41.03.2-.22.31-.35.16l-.92-1.07Zm-.76-3.02l-.23,2.81-1.93.63-3.69-2.68v-2.03l2.63-1.09c.19-.08.4-.07.58.02.93.45,1.75,1.07,2.46,1.81.14.15.21.34.19.54Zm-5-2.72l-1.35.56-1.35-.56c-.19-.08-.15-.35.05-.38.42-.07.86-.11,1.3-.11s.88.04,1.3.11c.2.03.23.3.05.38Zm-4.48.35l2.63,1.09v2.03l-3.69,2.68-1.94-.63-.22-2.81c-.02-.2.05-.39.19-.54.7-.74,1.53-1.36,2.46-1.81.18-.09.39-.09.58-.02Zm-2.58,13.43l1.31.32.7,1.16c.11.17-.08.38-.26.28-.71-.38-1.37-.86-1.94-1.42-.15-.14,0-.38.19-.34Zm3.67,2.26l-1.44-2.35,1.2-1.65h4.56l1.2,1.65-1.44,2.35c-.1.17-.27.29-.47.32-.51.1-1.04.15-1.57.15s-1.06-.05-1.57-.15c-.19-.04-.36-.15-.47-.32Zm5.72-.78l.71-1.16,1.32-.32c.2-.05.33.2.19.34-.58.56-1.24,1.04-1.96,1.42-.18.09-.37-.11-.26-.28Z"/>
</svg>