<?xml version="1.0" encoding="UTF-8"?>
<svg id="Outline" xmlns="http://www.w3.org/2000/svg" viewBox="0 0 24 24">
  <defs>
    <style>
      .cls-1 {
        fill: #282a32;
        stroke-width: 0px;
      }
    </style>
  </defs>
  <path class="cls-1" d="m12,3.5c4.69,0,8.5,3.81,8.5,8.5s-3.81,8.5-8.5,8.5S3.5,16.69,3.5,12,7.31,3.5,12,3.5m0-1C6.75,2.5,2.5,6.75,2.5,12s4.25,9.5,9.5,9.5,9.5-4.25,9.5-9.5S17.25,2.5,12,2.5h0Zm4.03,7.25l-1.06,1.12h-4.54c-.41,0-.8.17-1.1.47l-2.82,2.9h-1.51l3.59-3.7c.5-.52,1.15-.8,1.84-.8h5.6Zm-5.17,2.25c-.41,0-.81.17-1.1.47l-1.73,1.78h1.51l.94-.97c.11-.1.23-.16.37-.16h2l1.05-1.12h-3.05Zm6.66-2.25l-4.23,4.5h1.47l4.23-4.5h-1.47Z"/>
</svg>