<?xml version="1.0" encoding="UTF-8"?>
<svg id="Outline" xmlns="http://www.w3.org/2000/svg" viewBox="0 0 24 24">
  <defs>
    <style>
      .cls-1 {
        fill: #282a32;
        stroke-width: 0px;
      }
    </style>
  </defs>
  <path class="cls-1" d="m17,4c1.65,0,3,1.35,3,3v10c0,1.65-1.35,3-3,3H7c-1.65,0-3-1.35-3-3V7c0-1.65,1.35-3,3-3h10m0-1H7c-2.21,0-4,1.79-4,4v10c0,2.21,1.79,4,4,4h10c2.21,0,4-1.79,4-4V7c0-2.21-1.79-4-4-4h0ZM7.87,15.01c-.8-.2-1.62.29-1.82,1.09-.2.8.29,1.62,1.09,1.82.8.2,1.62-.29,1.82-1.09.2-.8-.29-1.62-1.09-1.82Zm10.44-6.05l-6.84-3.95c-.12-.07-.27-.03-.34.09-.07.12-.03.27.09.34l2.82,1.63-.16.28c-.12.21,0,.53-.02.82l-5.07-2.93c-.12-.07-.27-.03-.34.09-.07.12-.03.27.09.34l1.66.96-.13.22c-.09.15-.1.32-.08.48h0c.39,1.93-.35,5.6-.96,6.09-1.17-.45-2.51-.49-3.68-.06-.58.18-.36,1.08.24.97,1.38-.25,2.81-.07,3.83.73,1.08.82,1.54,2.15,1.63,3.5.02.24.2.43.45.46,1.05.03.46-2.28.24-2.92-.15-.43-.38-.8-.64-1.14.56-.33,1.11-.85,1.49-1.14,1.12-1,2.04-2.31,2.31-3.81.04-.23.06-.43.07-.62l.41.24c.2.12.35.3.41.53.06.22.03.46-.09.66-.07.12-.03.27.09.34.04.02.08.03.12.03.09,0,.17-.04.22-.12.18-.32.23-.69.14-1.04-.1-.35-.32-.65-.64-.83l-.04-.02c.33.11.7,0,.89-.32l.16-.28,1.43.83c.42.24.56.77.32,1.19-.07.12-.03.27.09.34.04.02.08.03.12.03.09,0,.17-.04.22-.12.38-.65.15-1.49-.5-1.87Zm-6.77,2.88c.11-1.18-.04-2.73-.16-3.37l.25.15c.36.21.82.08,1.02-.27l.13-.22,1.1.63c-.13,1.42-1.52,2.61-2.34,3.08Z"/>
</svg>