<?xml version="1.0" encoding="UTF-8"?>
<svg id="Outline" xmlns="http://www.w3.org/2000/svg" viewBox="0 0 24 24">
  <defs>
    <style>
      .cls-1 {
        fill: #282a32;
        stroke-width: 0px;
      }
    </style>
  </defs>
  <path class="cls-1" d="m11.82,21.5c5.39.1,9.78-4.29,9.68-9.68-.09-5.08-4.24-9.22-9.32-9.32-5.39-.1-9.78,4.29-9.68,9.68.09,5.08,4.24,9.22,9.32,9.32Zm-6.29-4c-1-1.17-1.69-2.62-1.93-4.21-.04-.26,0-.52.09-.76.88-2.21,2.23-3.15,2.74-3.42l5.08,2.65v5.58c-1.81.76-3.61.82-4.98.69-.39-.04-.75-.22-1-.52Zm2.12,1.58c1.3,0,2.82-.21,4.36-.88,1.54.67,3.05.88,4.36.88.1,0,.14.13.05.19-1.29.78-2.79,1.24-4.41,1.24s-3.12-.45-4.41-1.24c-.09-.05-.05-.19.05-.19Zm4.86-1.75v-5.58l5.08-2.65c.5.27,1.85,1.19,2.74,3.37.1.24.13.51.09.77-.24,1.61-.93,3.07-1.93,4.26-.25.3-.61.48-1,.52-1.36.14-3.16.08-4.98-.69Zm7.56-7.32c-.81-1.06-1.65-1.6-2.06-1.82-.21-.99-.57-1.96-1.05-2.86-.05-.09.06-.19.15-.13,1.53,1.15,2.66,2.81,3.14,4.72.03.1-.11.17-.18.08Zm-4.92-5.66c.88,1.08,1.55,2.5,1.87,3.92l-5,2.61-5.01-2.62c.31-1.41.97-2.83,1.84-3.91.19-.23.44-.41.72-.49.77-.24,1.59-.37,2.44-.37s1.65.13,2.42.36c.28.09.53.26.72.49Zm-8.1.99c-.48.9-.84,1.87-1.05,2.85-.41.21-1.24.76-2.06,1.82-.07.09-.2.02-.18-.08.48-1.91,1.6-3.57,3.13-4.72.09-.06.2.03.15.13Z"/>
</svg>