<?xml version="1.0" encoding="UTF-8"?>
<svg id="Outline" xmlns="http://www.w3.org/2000/svg" viewBox="0 0 24 24">
  <defs>
    <style>
      .cls-1 {
        fill: #282a32;
        stroke-width: 0px;
      }
    </style>
  </defs>
  <path class="cls-1" d="m12,2.5C6.75,2.5,2.5,6.75,2.5,12s4.25,9.5,9.5,9.5,9.5-4.25,9.5-9.5S17.25,2.5,12,2.5Zm-4.68,14c-.65-.67-1.13-1.47-1.44-2.33,1.81.2,3.88.33,6.12.33s4.3-.12,6.11-.33c-.31.87-.79,1.67-1.44,2.33H7.32Zm8.76,1v1.57c0,.23-.12.44-.32.54-.28.13-.55.26-.83.36-.25.09-.52-.08-.54-.34-.06-.75-.15-1.46-.25-2.13h1.94Zm-2.67,2.5c.01.21-.14.4-.34.42-.35.05-.7.08-1.07.08s-.72-.03-1.07-.08c-.21-.02-.36-.22-.34-.43.06-.92.15-1.75.26-2.49h2.29c.12.74.21,1.58.27,2.5Zm-3.57-2.5c-.09.67-.16,1.38-.22,2.13-.02.26-.29.43-.54.34-.29-.1-.56-.22-.83-.36-.2-.1-.33-.31-.33-.54v-1.57h1.92Zm6.83-10c.65.66,1.13,1.46,1.44,2.33-1.81-.21-3.88-.33-6.11-.33s-4.31.13-6.12.33c.31-.86.79-1.66,1.44-2.33h9.35Zm-8.75-1v-1.57c0-.23.13-.44.33-.54.27-.14.54-.26.83-.36.25-.09.52.08.54.34.06.75.13,1.46.22,2.13h-1.92Zm8.16-1.57v1.57h-1.94c.1-.67.19-1.38.25-2.13.02-.26.29-.43.54-.34.28.1.55.23.83.36.2.1.32.31.32.54Zm-2.67-.93c-.06.92-.15,1.76-.27,2.5h-2.29c-.11-.74-.2-1.57-.26-2.49-.02-.21.13-.41.34-.43.35-.05.71-.08,1.07-.08s.72.03,1.07.08c.2.02.35.21.34.42Zm4.98,6.87c.07.37.11.75.11,1.13s-.04.76-.11,1.13c-1.73.22-3.84.37-6.39.37s-4.67-.15-6.4-.37c-.07-.37-.1-.75-.1-1.13s.03-.76.1-1.13c1.73-.22,3.84-.37,6.4-.37s4.66.15,6.39.37ZM6.92,6.5c-1.49,1.36-2.42,3.32-2.42,5.5s.93,4.14,2.42,5.5v.89c0,.17-.19.26-.32.15-1.9-1.56-3.1-3.91-3.1-6.54s1.2-4.98,3.1-6.54c.13-.11.32-.02.32.15v.89Zm10.16,11c1.49-1.36,2.42-3.32,2.42-5.5s-.93-4.14-2.42-5.5v-.89c0-.16.2-.26.33-.15,1.88,1.56,3.09,3.91,3.09,6.54s-1.21,4.98-3.09,6.54c-.13.11-.33.01-.33-.15v-.89Z"/>
</svg>