<?xml version="1.0" encoding="UTF-8"?>
<svg id="Outline" xmlns="http://www.w3.org/2000/svg" viewBox="0 0 24 24">
  <defs>
    <style>
      .cls-1 {
        fill: #282a32;
        stroke-width: 0px;
      }
    </style>
  </defs>
  <path id="_Compound_Path_" data-name="&amp;lt;Compound Path&amp;gt;" class="cls-1" d="m12,2C7.31,2,3.5,5.81,3.5,10.5c0,3.21,1.78,6,4.4,7.44.02-.03.04-.05.06-.07.28-.28.65-.43,1.04-.43.07,0,.14.01.21.02-2.75-1.11-4.71-3.81-4.71-6.96,0-4.13,3.37-7.5,7.5-7.5s7.5,3.37,7.5,7.5c0,3.15-1.95,5.85-4.71,6.96.07,0,.14-.02.21-.02.44,0,.84.19,1.11.5,2.62-1.45,4.39-4.23,4.39-7.44,0-4.69-3.8-8.5-8.5-8.5Zm2.83,11.72c.29.29.29.77,0,1.06s-.77.29-1.06,0-.29-.77,0-1.06.77-.29,1.06,0Zm.89-1.95c-.29.29-.29.77,0,1.06s.77.29,1.06,0,.29-.77,0-1.06-.77-.29-1.06,0Zm-.97-2.92c-.29.29-.29.77,0,1.06s.77.29,1.06,0,.29-.77,0-1.06-.77-.29-1.06,0Zm-1.94,1.94c-.29.29-.29.77,0,1.06s.77.29,1.06,0,.29-.77,0-1.06-.77-.29-1.06,0Zm-1.94,1.94c-.29.29-.29.77,0,1.06s.77.29,1.06,0,.29-.77,0-1.06-.77-.29-1.06,0Zm4.64,6.27c0,.22-.14.41-.35.48,0,0,0,0-.01,0-.68.22-1.14.85-1.14,1.57h0c0,.52-.42.94-.94.94h-2.13c-.52,0-.94-.42-.94-.94h0c0-.71-.46-1.35-1.14-1.57,0,0-.01,0-.02,0-.21-.07-.34-.26-.34-.48h0c0-.34.34-.58.66-.47.89.3,1.85.46,2.84.46s1.94-.16,2.84-.46c.33-.11.66.13.66.47h0Z"/>
</svg>