<?xml version="1.0" encoding="UTF-8"?>
<svg id="Outline" xmlns="http://www.w3.org/2000/svg" viewBox="0 0 24 24">
  <defs>
    <style>
      .cls-1 {
        fill: #282a32;
        stroke-width: 0px;
      }
    </style>
  </defs>
  <path class="cls-1" d="m12,3.5c4.69,0,8.5,3.81,8.5,8.5s-3.81,8.5-8.5,8.5S3.5,16.69,3.5,12,7.31,3.5,12,3.5m0-1C6.75,2.5,2.5,6.75,2.5,12s4.25,9.5,9.5,9.5,9.5-4.25,9.5-9.5S17.25,2.5,12,2.5h0Zm-2.73,11.22v1.94h5.43v-1.94h-5.43Zm5.96,2.4h-6.48l-1.31,1.47h9.09l-1.3-1.47Zm1.78-3.38c-.43-.43-4.76-4.91-5.42-5.61-.55-.57-.51-1.78-.48-2.19,0,0,0-.02-.02-.03-.03-.01-.04.01-.04.01l-4.29,6.76s-.02.06,0,.07c.02.02.05.01.1-.04.96-.97,2.22-.78,2.78-.62.57.16,5.42,1.65,6.25,2.01.87.38.63,1.42-.12,1.39-.35-.02-.74-.01-.74-.01v.8s1.12.01,1.39-.01c.37-.02.76-.3.95-.73.3-.65.1-1.33-.37-1.8Zm0,0c-.43-.43-4.76-4.91-5.42-5.61-.55-.57-.51-1.78-.48-2.19,0,0,0-.02-.02-.03-.03-.01-.04.01-.04.01l-4.29,6.76s-.02.06,0,.07c.02.02.05.01.1-.04.96-.97,2.22-.78,2.78-.62.57.16,5.42,1.65,6.25,2.01.87.38.63,1.42-.12,1.39-.35-.02-.74-.01-.74-.01v.8s1.12.01,1.39-.01c.37-.02.76-.3.95-.73.3-.65.1-1.33-.37-1.8Zm-1.78,3.38h-6.48l-1.31,1.47h9.09l-1.3-1.47Zm-5.96-2.4v1.94h5.43v-1.94h-5.43Zm0,0v1.94h5.43v-1.94h-5.43Zm5.96,2.4h-6.48l-1.31,1.47h9.09l-1.3-1.47Zm1.78-3.38c-.43-.43-4.76-4.91-5.42-5.61-.55-.57-.51-1.78-.48-2.19,0,0,0-.02-.02-.03-.03-.01-.04.01-.04.01l-4.29,6.76s-.02.06,0,.07c.02.02.05.01.1-.04.96-.97,2.22-.78,2.78-.62.57.16,5.42,1.65,6.25,2.01.87.38.63,1.42-.12,1.39-.35-.02-.74-.01-.74-.01v.8s1.12.01,1.39-.01c.37-.02.76-.3.95-.73.3-.65.1-1.33-.37-1.8Zm0,0c-.43-.43-4.76-4.91-5.42-5.61-.55-.57-.51-1.78-.48-2.19,0,0,0-.02-.02-.03-.03-.01-.04.01-.04.01l-4.29,6.76s-.02.06,0,.07c.02.02.05.01.1-.04.96-.97,2.22-.78,2.78-.62.57.16,5.42,1.65,6.25,2.01.87.38.63,1.42-.12,1.39-.35-.02-.74-.01-.74-.01v.8s1.12.01,1.39-.01c.37-.02.76-.3.95-.73.3-.65.1-1.33-.37-1.8Zm-8.26,3.38l-1.31,1.47h9.09l-1.3-1.47h-6.48Zm.52-2.4v1.94h5.43v-1.94h-5.43Zm7.74-.98c-.43-.43-4.76-4.91-5.42-5.61-.55-.57-.51-1.78-.48-2.19,0,0,0-.02-.02-.03-.03-.01-.04.01-.04.01l-4.29,6.76s-.02.06,0,.07c.02.02.05.01.1-.04.96-.97,2.22-.78,2.78-.62.57.16,5.42,1.65,6.25,2.01.87.38.63,1.42-.12,1.39-.35-.02-.74-.01-.74-.01v.8s1.12.01,1.39-.01c.37-.02.76-.3.95-.73.3-.65.1-1.33-.37-1.8Zm-8.26,3.38l-1.31,1.47h9.09l-1.3-1.47h-6.48Zm.52-2.4v1.94h5.43v-1.94h-5.43Zm0,0v1.94h5.43v-1.94h-5.43Zm5.96,2.4h-6.48l-1.31,1.47h9.09l-1.3-1.47Zm1.78-3.38c-.43-.43-4.76-4.91-5.42-5.61-.55-.57-.51-1.78-.48-2.19,0,0,0-.02-.02-.03-.03-.01-.04.01-.04.01l-4.29,6.76s-.02.06,0,.07c.02.02.05.01.1-.04.96-.97,2.22-.78,2.78-.62.57.16,5.42,1.65,6.25,2.01.87.38.63,1.42-.12,1.39-.35-.02-.74-.01-.74-.01v.8s1.12.01,1.39-.01c.37-.02.76-.3.95-.73.3-.65.1-1.33-.37-1.8Zm0,0c-.43-.43-4.76-4.91-5.42-5.61-.55-.57-.51-1.78-.48-2.19,0,0,0-.02-.02-.03-.03-.01-.04.01-.04.01l-4.29,6.76s-.02.06,0,.07c.02.02.05.01.1-.04.96-.97,2.22-.78,2.78-.62.57.16,5.42,1.65,6.25,2.01.87.38.63,1.42-.12,1.39-.35-.02-.74-.01-.74-.01v.8s1.12.01,1.39-.01c.37-.02.76-.3.95-.73.3-.65.1-1.33-.37-1.8Zm-1.78,3.38h-6.48l-1.31,1.47h9.09l-1.3-1.47Zm-5.96-2.4v1.94h5.43v-1.94h-5.43Zm0,0v1.94h5.43v-1.94h-5.43Zm5.96,2.4h-6.48l-1.31,1.47h9.09l-1.3-1.47Zm1.78-3.38c-.43-.43-4.76-4.91-5.42-5.61-.55-.57-.51-1.78-.48-2.19,0,0,0-.02-.02-.03-.03-.01-.04.01-.04.01l-4.29,6.76s-.02.06,0,.07c.02.02.05.01.1-.04.96-.97,2.22-.78,2.78-.62.57.16,5.42,1.65,6.25,2.01.87.38.63,1.42-.12,1.39-.35-.02-.74-.01-.74-.01v.8s1.12.01,1.39-.01c.37-.02.76-.3.95-.73.3-.65.1-1.33-.37-1.8Zm0,0c-.43-.43-4.76-4.91-5.42-5.61-.55-.57-.51-1.78-.48-2.19,0,0,0-.02-.02-.03-.03-.01-.04.01-.04.01l-4.29,6.76s-.02.06,0,.07c.02.02.05.01.1-.04.96-.97,2.22-.78,2.78-.62.57.16,5.42,1.65,6.25,2.01.87.38.63,1.42-.12,1.39-.35-.02-.74-.01-.74-.01v.8s1.12.01,1.39-.01c.37-.02.76-.3.95-.73.3-.65.1-1.33-.37-1.8Zm-7.74.98v1.94h5.43v-1.94h-5.43Zm5.96,2.4h-6.48l-1.31,1.47h9.09l-1.3-1.47Zm0,0h-6.48"/>
</svg>