<?xml version="1.0" encoding="UTF-8"?>
<svg id="Outline" xmlns="http://www.w3.org/2000/svg" viewBox="0 0 24 24">
  <defs>
    <style>
      .cls-1 {
        fill: #282a32;
        stroke-width: 0px;
      }
    </style>
  </defs>
  <path class="cls-1" d="m13.73,5.82c-.44-.1-.82.28-.72.72.05.22.23.4.45.45.43.09.82-.29.72-.72-.05-.23-.23-.4-.45-.45Zm8.24,3.44c-.27-.73-4.21-2.38-6.11-4.17-1.89-1.79-3.59-1.85-3.59-1.85,0,0-.17-1.24-1.38-1.24-2.31,0-3.44,1.24-3.84,1.83-.11.15-.05.36.12.44l1.04.49s-2.41,1.88-4.33,5.47c-.91,1.72-1.42,3.12-1.71,4.47.35.03.68.08.99.16.29-1.32.8-2.65,1.61-4.16,1.78-3.34,4.04-5.14,4.06-5.15l1.02-.8c.12-.09.1-.27-.04-.34l-1.28-.61s-.04-.06,0-.08c.49-.37,1.25-.72,2.37-.72.09,0,.32,0,.39.38l.1.65c.01.09.09.16.19.17l.66.04c.06.01,1.4.11,2.96,1.58,1.07,1.02,2.71,1.96,4.02,2.72.45.26.99.58,1.39.83.09.06.09.19,0,.25-.43.3-1.13.6-1.83.6-.16,0-.3-.01-.44-.04-.51-.11-.98-.28-1.49-.46-.89-.31-1.81-.64-2.9-.64-.47,0-.93.06-1.4.18-2.46.65-3.95,3.85-3.64,7.8.04.51.06,1.09.07,1.73.3.2.61.36.94.5.04-.17.06-.34.06-.52-.01-.59-.03-1.21-.08-1.79-.25-3.17.85-6.21,2.91-6.75.4-.11.78-.15,1.14-.15,1.48,0,2.69.75,4.18,1.08.21.04.43.06.65.06,1.71,0,3.45-1.31,3.21-1.96Zm-15.62,8.74c-1.3-1.15-2.49-2.21-4.33-2.31-.18,1.92.59,3.4,2.83,4.3.84.34,1.52.62,2.08.85.95.38,1.95.06,2.53-.65-1.22-.52-2.18-1.36-3.11-2.19Z"/>
</svg>