<?xml version="1.0" encoding="UTF-8"?>
<svg id="Outline" xmlns="http://www.w3.org/2000/svg" viewBox="0 0 24 24">
  <defs>
    <style>
      .cls-1 {
        fill: #282a32;
        stroke-width: 0px;
      }
    </style>
  </defs>
  <path class="cls-1" d="m10,6h-2v-2c0-.55.45-1,1-1h0c.55,0,1,.45,1,1v2Zm5-3h0c-.55,0-1,.45-1,1v2s2,0,2,0v-2c0-.55-.45-1-1-1Zm6,5H3c0,.56.09,1.1.27,1.63l.34,1.03c.07.2.26.34.47.34h15.84c.22,0,.41-.14.47-.34l.34-1.03c.18-.53.27-1.08.27-1.63m0-1c.55,0,1,.45,1,1,0,.66-.11,1.32-.32,1.95l-.34,1.03c-.2.61-.78,1.03-1.42,1.03H4.08c-.65,0-1.22-.41-1.42-1.03l-.34-1.03c-.21-.63-.32-1.29-.32-1.95,0-.55.45-1,1-1h18Zm-1.51,14h-3.4c-.33,0-.6-.27-.6-.6v-1.9c0-1.93-1.5-3.5-3.5-3.5s-3.5,1.57-3.5,3.5v1.9c0,.33-.27.6-.6.6h-3.4c-.37,0-.61-.39-.45-.72l1.68-3.35c.29-.6.34-1.28.13-1.91l-.67-2.02h1.06l.56,1.7c.3.89.23,1.84-.19,2.67l-1.31,2.63h2.19v-1.5c0-2.52,1.98-4.5,4.5-4.5s4.5,1.98,4.5,4.5v1.5h2.19l-1.31-2.63c-.42-.83-.49-1.78-.19-2.67l.57-1.7h1.05l-.67,2.02c-.21.63-.16,1.31.13,1.91l1.68,3.35c.16.33-.08.72-.45.72Z"/>
</svg>