<?xml version="1.0" encoding="UTF-8"?>
<svg id="Outline" xmlns="http://www.w3.org/2000/svg" viewBox="0 0 24 24">
  <defs>
    <style>
      .cls-1 {
        fill: #282a32;
        stroke-width: 0px;
      }
    </style>
  </defs>
  <path class="cls-1" d="m12.18,2.5c-5.39-.1-9.78,4.29-9.68,9.68.09,5.08,4.24,9.22,9.32,9.32,5.39.1,9.78-4.29,9.68-9.68-.09-5.08-4.24-9.22-9.32-9.32Zm-1.89,7.16l1.21.7v3.27l-1.23.71-1.58.92-2.81-1.63v-3.27l2.81-1.63,1.6.93Zm-.95-1.71l1.16-2.37h3.01l1.16,2.37-1.51.88-1.15.66-1.15-.66-1.51-.88Zm1.5,7.21l1.16-.67,1.16.67,1.5.87-1.15,2.37h-3.01l-1.15-2.37,1.5-.87Zm2.89-.83l-1.23-.71v-3.27l1.21-.7,1.6-.93,2.81,1.63v3.27l-2.81,1.63-1.58-.92Zm1.97-6.54l-1.22-2.51,1.11-.62c.22-.12.48-.12.69,0,1.39.81,2.55,2.01,3.31,3.52.16.33.04.73-.28.91l-.69.4-2.92-1.7Zm-2.01-3.22h-3.37l-.69-.39c-.15-.09-.13-.32.04-.37,1.57-.45,3.18-.43,4.66,0,.17.05.2.28.05.37l-.69.39Zm-4.15.71l-1.22,2.51-2.93,1.7-.68-.4c-.32-.19-.44-.59-.28-.92.72-1.44,1.85-2.67,3.3-3.52.21-.12.48-.12.69,0l1.12.63Zm-4.65,5.07v3.27l-.48.28c-.3.17-.68,0-.74-.33-.2-1.06-.19-2.13,0-3.16.06-.34.45-.51.74-.33l.48.28Zm.5,4.13l2.93,1.7,1.22,2.51-1.11.63c-.22.12-.48.12-.69,0-1.39-.81-2.55-2.01-3.31-3.52-.16-.33-.04-.73.28-.91l.68-.4Zm4.93,4.92h3.38l.68.38c.15.09.13.32-.04.37-1.57.45-3.18.43-4.66,0-.17-.05-.2-.28-.05-.37l.68-.38Zm4.17-.71l1.22-2.51,2.93-1.7.68.39c.32.19.44.59.28.92-.72,1.44-1.85,2.68-3.3,3.52-.21.12-.48.12-.69,0l-1.11-.63Zm4.65-5.08v-3.27l.48-.28c.3-.17.68,0,.74.33.2,1.06.19,2.13,0,3.16-.06.34-.45.51-.74.33l-.47-.28Z"/>
</svg>