<?xml version="1.0" encoding="UTF-8"?>
<svg id="Outline" xmlns="http://www.w3.org/2000/svg" viewBox="0 0 24 24">
  <defs>
    <style>
      .cls-1 {
        fill: #282a32;
        stroke-width: 0px;
      }
    </style>
  </defs>
  <path class="cls-1" d="m12.87,20.69c.08.13-.01.31-.17.31h-2.71c-3.94,0-6.98-3.49-6.42-7.4.15-1.07.38-2.05.66-2.88.04-.11.2-.08.19.04-.14,1.75.08,3.82,2.36,5.95,2.22,2.08,5.49,3.01,6.09,3.98Zm.57-.89s0,0,0,0c.33.36.53.75.53,1.19,0-.01.01-.01.01-.02-.01-.46-.2-.84-.53-1.18Zm7.85-7.58c-1.26-1.7-.75-1.71-2.05-3.58-.98-1.41-.46-1.54-.93-2.23-.49-.71-1.05-1.25-1.65-1.66-.19-.12-.26-.38-.13-.56.52-.75.55-1.58.52-2.02-.01-.1-.09-.17-.18-.17-.03,0-.07.01-.1.04-.22.17-.62.43-1.34.67-.77.25-1.06.67-1.24.91-.09.12-.24.18-.38.18-.02,0-.03,0-.04-.01-.12,0-.24-.01-.35-.01-1.7,0-3.53.67-4.96,1.97-1.35,1.22-2.26,2.34-2.84,3.35,0,0-.26,1.29-.22,2.67.73-2.08,2.41-4.13,3.69-5.24,1.05-.91,2.34-1.75,4.33-1.75.09,0,.19.01.29.01h.06s.04.01.04.01c.47,0,.9-.21,1.2-.61.13-.18.27-.36.65-.5-.18.29-.24.63-.17.97.07.37.29.71.61.93.53.35,1,.82,1.38,1.38q.06.1.09.28c.07.49.19,1.01.85,1.96.58.83.75,1.23.93,1.65.21.49.42,1,1.13,1.95.02.02.05.14,0,.31-.12.32-.53.63-1.13.84-.07.03-.13.04-.18.04-.09,0-.11-.04-.12-.04,0-.86-.35-1.34-.81-1.6-.44-.27-.99-.33-1.37-.37-.9-.11-1.92-.22-3.03-1.58l-.92-1.12-.72,1.25c-1.19,2.03-.17,3.44.65,4.58.73,1.02,1.81,2.41.6,4.68,0,0,0,0,0,0,.33.36.53.75.53,1.19,0-.01.01-.01.01-.02,3.32-5.98-2.91-6.53-.92-9.94,2.5,3.06,4.99,1.06,4.99,2.92,0,.52.45,1.04,1.12,1.04.16,0,.33-.03.52-.09,1.99-.72,2.03-2.12,1.61-2.69Zm-5.62-3.83l-.13-.72c-.03-.15.1-.28.25-.25l.72.13c.21.04.29.3.14.45l-.54.54c-.15.15-.41.07-.45-.14Z"/>
</svg>