<?xml version="1.0" encoding="UTF-8"?>
<svg id="Outline" xmlns="http://www.w3.org/2000/svg" viewBox="0 0 24 24">
  <defs>
    <style>
      .cls-1 {
        fill: #282a32;
        stroke-width: 0px;
      }
    </style>
  </defs>
  <path class="cls-1" d="m21.44,10.34c-.29-4.18-3.65-7.5-7.84-7.79-.53-.04-1.07-.05-1.61-.05s-1.05.02-1.58.05c-4.2.28-7.58,3.64-7.87,7.84-.07,1.09-.07,2.18,0,3.27.29,4.18,3.65,7.5,7.84,7.78.53.04,1.07.05,1.61.05s1.06-.02,1.59-.05c4.19-.28,7.57-3.65,7.85-7.84.07-1.09.07-2.18,0-3.26ZM10.46,3.55c.51-.03,1.03-.05,1.54-.05s1.03.02,1.54.05c3.69.25,6.66,3.22,6.91,6.91.04.56.05,1.12.05,1.69-.13,1.96-1.29,2.96-3.44,2.96-2.26,0-3.63-1.96-4.46-3.13l-.37-.53c-.81-1.16-2.5-3.56-5.28-3.56-1.05,0-1.92.21-2.61.62-.16.09-.35-.07-.28-.24,1.03-2.61,3.49-4.52,6.41-4.72Zm3.08,16.9c-.51.03-1.03.05-1.54.05s-1.03-.02-1.54-.05c-3.69-.25-6.66-3.22-6.91-6.91-.04-.56-.05-1.13-.05-1.7.14-1.95,1.3-2.94,3.44-2.94,2.26,0,3.69,2.04,4.47,3.14l.37.53c.87,1.24,2.5,3.55,5.27,3.55,1.04,0,1.92-.21,2.61-.6.16-.09.35.07.28.24-1.03,2.61-3.49,4.51-6.4,4.7Z"/>
</svg>