<?xml version="1.0" encoding="UTF-8"?>
<svg id="Outline" xmlns="http://www.w3.org/2000/svg" viewBox="0 0 24 24">
  <defs>
    <style>
      .cls-1 {
        fill: #282a32;
        stroke-width: 0px;
      }
    </style>
  </defs>
  <path class="cls-1" d="m16.21,3.59s0,0,0,0c-2.13-2.13-6.67-1.03-10.17,2.45-3.48,3.49-4.58,8.03-2.45,10.17l4.2,4.21c2.13,2.13,6.68,1.03,10.17-2.45s4.59-8.04,2.45-10.17l-4.21-4.21s0,0,0,0Zm-9.47,3.15c3.04-3.03,7.06-4.16,8.76-2.45,1.71,1.71.59,5.72-2.45,8.76-3.04,3.04-7.06,4.16-8.76,2.45-1.71-1.71-.58-5.72,2.45-8.76Zm10.52,10.52c-3.04,3.04-7.05,4.17-8.77,2.45l-1.76-1.76c-.24-.24-.09-.66.26-.68,2.12-.16,4.64-1.39,6.77-3.51,2.12-2.12,3.36-4.64,3.51-6.77.03-.34.44-.5.68-.26l1.76,1.76c1.71,1.71.59,5.72-2.45,8.77Z"/>
</svg>