<?xml version="1.0" encoding="UTF-8"?>
<svg id="Outline" xmlns="http://www.w3.org/2000/svg" viewBox="0 0 24 24">
  <defs>
    <style>
      .cls-1 {
        fill: #282a32;
        stroke-width: 0px;
      }
    </style>
  </defs>
  <path class="cls-1" d="m19,3h-10.93c-1.64,0-3.06,1.14-3.41,2.74l-.03.12c.12-.02.25-.03.37-.03.21,0,.4.02.55.06l.1.02c.27-1.12,1.26-1.91,2.42-1.91h10.93c.61,0,1.18.27,1.56.75.38.48.52,1.09.39,1.69l-.58,2.6.25.05c.25.05.49.14.71.26l.6-2.7c.42-1.87-1.01-3.65-2.93-3.65Zm-1.24,16.19c-.46.51-1.11.81-1.83.81H5c-.61,0-1.18-.27-1.56-.75-.38-.47-.52-1.09-.39-1.68l.32-1.43c-.35-.08-.66-.22-.94-.41l-.36,1.62c-.41,1.87,1.01,3.65,2.93,3.65h10.93c1.22,0,2.31-.63,2.95-1.61-.15,0-.29-.03-.44-.05l-.68-.15ZM8.49,6.61s.03,0,.05,0c.12.03.2.14.17.26l-.05.22,3.29.7.3-.34c.2-.22.46-.33.71-.33.39,0,.77.24.91.67l.14.43,3.29.7.05-.22c.02-.1.11-.17.22-.17.02,0,.03,0,.05,0,.12.03.2.14.17.26l-.28,1.3c-.02.1-.11.17-.22.17-.02,0-.03,0-.05,0-.12-.03-.2-.14-.17-.26l.05-.22-2.8-.6.4,1.28c.09.29.26.54.47.75h0c.14-.15.17-.36.11-.56-.02-.08-.02-.16,0-.25.06-.19.24-.31.43-.31.03,0,.07,0,.1.01l.41.09c.27.06.43.34.31.61-.07.17-.24.26-.42.26-.03,0-.07,0-.1-.01-.01,0-.03,0-.04,0-.05,0-.1.02-.14.06l-.33.37c.16.1.33.17.52.21l1.33.28s.04,0,.06,0c.14,0,.26-.1.29-.24l.11-.5c.07-.32.35-.54.67-.54.05,0,.1,0,.14.02l1.54.33c.37.08.61.44.53.81l-1.06,4.99c-.07.32-.35.54-.67.54-.05,0-.1,0-.14-.02l-1.54-.33c-.37-.08-.61-.44-.53-.81l.09-.45c.03-.16-.06-.31-.21-.35l-2.02-.55s-.09-.02-.13-.02c-.18,0-.34.09-.43.25l-.21.36c-.13.22-.35.34-.59.34-.05,0-.09,0-.14-.01l-3.48-.74c-.29-.06-.5-.3-.53-.6l-.04-.41c-.02-.23-.2-.41-.42-.44l-2.09-.32s-.03,0-.05,0c-.14,0-.26.1-.29.24l-.09.45c-.07.32-.35.54-.67.54-.05,0-.1,0-.14-.02l-1.54-.33c-.37-.08-.61-.44-.53-.81l1.06-4.99c.07-.32.35-.54.67-.54.05,0,.1,0,.14.02l1.54.33c.37.08.61.44.53.82l-.11.5c-.03.16.07.32.23.36l1.33.28c.11.02.22.03.32.03.08,0,.17,0,.25-.02l-.14-.44c-.03-.08-.09-.14-.17-.15-.25-.05-.41-.31-.33-.57.06-.19.24-.3.43-.3.03,0,.07,0,.1.01l.39.08c.23.05.39.26.37.49-.01.09-.05.17-.1.23-.13.15-.18.36-.12.55h0c.27-.1.52-.26.72-.49l.89-1-2.8-.6-.05.22c-.02.1-.11.17-.22.17-.02,0-.03,0-.05,0-.12-.03-.2-.14-.17-.26l.28-1.3c.02-.1.11-.17.22-.17m0-1h0c-.57,0-1.07.41-1.19.97l-.15.7c-.08-.03-.17-.06-.26-.08l-1.54-.33c-.12-.02-.23-.04-.35-.04-.79,0-1.48.56-1.65,1.34l-1.06,4.99c-.19.91.39,1.81,1.3,2l1.54.33c.12.02.23.04.35.04.72,0,1.36-.47,1.59-1.14l1.07.17v.03c.08.73.61,1.32,1.32,1.47l3.48.74c.11.02.23.04.35.04.6,0,1.15-.32,1.46-.84l.02-.03,1.02.28c-.03.37.06.75.27,1.07.25.38.62.64,1.06.73l1.54.33c.12.02.23.04.35.04.79,0,1.48-.56,1.65-1.34l1.06-4.99c.09-.44.01-.89-.24-1.27-.25-.38-.62-.64-1.06-.73l-1.54-.33c-.09-.02-.18-.03-.27-.04l.15-.7c.07-.32,0-.65-.17-.92-.18-.27-.45-.46-.77-.53l-.1-.02h-.15c-.28,0-.54.09-.75.26l-2.02-.43c-.29-.75-1.01-1.25-1.82-1.25-.51,0-1.01.21-1.37.57l-2.02-.43s-.04-.07-.06-.1c-.18-.27-.45-.46-.77-.53l-.1-.02h-.15Z"/>
</svg>