<?xml version="1.0" encoding="UTF-8"?>
<svg id="Outline" xmlns="http://www.w3.org/2000/svg" viewBox="0 0 24 24">
  <defs>
    <style>
      .cls-1 {
        fill: #282a32;
        stroke-width: 0px;
      }
    </style>
  </defs>
  <path class="cls-1" d="m17,4c1.65,0,3,1.35,3,3v10c0,1.65-1.35,3-3,3H7c-1.65,0-3-1.35-3-3V7c0-1.65,1.35-3,3-3h10m0-1H7c-2.21,0-4,1.79-4,4v10c0,2.21,1.79,4,4,4h10c2.21,0,4-1.79,4-4V7c0-2.21-1.79-4-4-4h0Zm1.77,3.23l-.36-.18c-.29-.15-.65-.02-.8.27-.15.29-.02.65.27.8h0c-.62.84-1.25,1.65-1.71,2.56-.15-.22-.28-.47-.39-.76-.26-.62-.39-1.32-.32-1.88,0-.04.11-.32.11-.45,0-.33-.27-.59-.59-.59h-.4c-.33,0-.59.27-.59.59,0,.27.19.49.43.56-.53,1.78.39,3.58,1.15,5.06l-1.65,1.46s-2.68-3.72-3.41-4.58c-.92-1.09-3.05.43-3.66,1.31-.29.44-.49,1.11-.35,1.73.04.14.09.27.13.39-.12,1.43-1.3,3.44-1.72,4.59-.09.25.05.54.31.67l.36.18c.29.15.65.02.8-.27.15-.29.02-.65-.27-.8h-.01c.62-.84,1.25-1.66,1.71-2.57.15.22.28.47.39.76.26.62.39,1.32.32,1.88,0,.04-.11.33-.11.46,0,.33.27.59.59.59h.4c.33,0,.59-.27.59-.59,0-.27-.18-.49-.43-.56.54-1.79-.39-3.59-1.15-5.07l1.65-1.46s2.66,3.74,3.41,4.58c.97,1.09,3.05-.43,3.66-1.31.29-.44.49-1.11.35-1.73-.04-.14-.09-.27-.13-.39.12-1.43,1.31-3.43,1.72-4.58.09-.25-.06-.54-.31-.66Zm-6.08,2.28c.47-.56.4-1.4-.16-1.87-.56-.47-1.4-.4-1.87.16s-.4,1.4.16,1.87,1.4.4,1.87-.16Zm-1.38,6.96c-.47.56-.4,1.4.16,1.87s1.4.4,1.87-.16c.47-.56.4-1.4-.16-1.87s-1.4-.4-1.87.16Z"/>
</svg>