<?xml version="1.0" encoding="UTF-8"?>
<svg id="Outline" xmlns="http://www.w3.org/2000/svg" viewBox="0 0 24 24">
  <defs>
    <style>
      .cls-1 {
        fill: #282a32;
        stroke-width: 0px;
      }
    </style>
  </defs>
  <path class="cls-1" d="m19,4H5c-1.66,0-3,1.34-3,3v10c0,1.66,1.34,3,3,3h14c1.66,0,3-1.34,3-3V7c0-1.66-1.34-3-3-3Zm2,3h0s-8.5,0-8.5,0v-2h6.5c1.1,0,2,.9,2,2Zm-1.5,9v-8h1.5v8h-1.5Zm-16.5,0v-8h1.5v8h-1.5Zm2.5-8h1.5v8h-1.5v-8Zm2.5,0h3.5v8h-3.5v-8Zm4.5,0h3.5v8h-3.5v-8Zm4.5,0h1.5v8h-1.5v-8Zm-12-3h6.5v2H3c0-1.1.9-2,2-2Zm-2,12h8.5v2h-6.5c-1.1,0-2-.9-2-2Zm16,2h-6.5v-2h8.5c0,1.1-.9,2-2,2Z"/>
</svg>