<?xml version="1.0" encoding="UTF-8"?>
<svg id="Outline" xmlns="http://www.w3.org/2000/svg" viewBox="0 0 24 24">
  <defs>
    <style>
      .cls-1 {
        fill: #282a32;
        stroke-width: 0px;
      }
    </style>
  </defs>
  <path class="cls-1" d="m12.02,7.5c0,.83-.67,1.5-1.5,1.5s-1.5-.67-1.5-1.5.67-1.5,1.5-1.5,1.5.67,1.5,1.5Zm5.74,8.87h-.85c-1.96-1.18-5.96-2.42-5.82-5.03,1.85.4,3.96.25,5.74-.3.59-.17.37-1.07-.24-.94-3.58.61-8.97.46-8.99-4.28,0-.65-.99-.66-.99,0-.14,2.42.95,3.97,2.57,4.84,0,0,0,0,0,.01-.11.75.03,1.59.37,2.31-1.09.02-2.17.2-2.91,1.1-.49.74-.19,1.61.18,2.3h-.58c-.41,0-.74.33-.74.73s.33.73.74.73h1.48c.41,0,.74-.33.74-.73,0-.31-.25-.48-.47-.68-.4-.36-.45-.93-.48-1.31,0-.37.1-.47.51-.63.8-.26,1.81-.16,2.71-.07,1.4,1.21,3.03,1.75,4.71,2.42.11.04.1.2.1.27,0,.4.33.73.74.73h1.48c.41,0,.74-.33.74-.73s-.33-.73-.74-.73Zm-.76-12.37c1.65,0,3,1.35,3,3v10c0,1.65-1.35,3-3,3H7c-1.65,0-3-1.35-3-3V7c0-1.65,1.35-3,3-3h10m0-1H7c-2.21,0-4,1.79-4,4v10c0,2.21,1.79,4,4,4h10c2.21,0,4-1.79,4-4V7c0-2.21-1.79-4-4-4h0Z"/>
</svg>