<?xml version="1.0" encoding="UTF-8"?>
<svg id="Outline" xmlns="http://www.w3.org/2000/svg" viewBox="0 0 24 24">
  <defs>
    <style>
      .cls-1 {
        fill: #282a32;
        stroke-width: 0px;
      }
    </style>
  </defs>
  <path class="cls-1" d="m18.64,4.57c-.89-1-2.15-1.57-3.48-1.57h-6.25c-1.33,0-2.6.57-3.48,1.57-.61.7-.99,1.55-1.11,2.45.08-.02.15-.02.23-.02.26,0,.52.05.76.15.09-.71.39-1.38.87-1.92.69-.78,1.69-1.23,2.73-1.23h6.25c1.04,0,2.04.45,2.73,1.23.47.54.77,1.2.87,1.9.22-.09.45-.13.69-.13.1,0,.2,0,.3.02-.11-.9-.5-1.76-1.11-2.45Zm-3.43,14.88c-1.9,1.39-4.45,1.39-6.35,0-1.02-.75-1.8-1.77-2.26-2.93-.26.21-.58.36-.92.42.54,1.31,1.43,2.46,2.59,3.31,1.12.83,2.44,1.25,3.76,1.25s2.64-.42,3.77-1.25c1.15-.84,2.05-2,2.59-3.3-.34-.05-.66-.19-.93-.39-.46,1.15-1.24,2.15-2.25,2.89Zm5.26-10.24s-.31,1.3-.5,2.88c-.2,1.58-.22,2.9-.22,2.92,0,.54-.47.98-1.04.98h0s-.06,0-.09,0c-.47-.04-.8-.48-.74-.95l.82-6.29c.06-.48.52-.82.99-.72,0,0,0,0,.01,0,.56.12.91.66.78,1.19Zm-14.29,5.75c.06.5-.3.98-.8,1.02-.03,0-.06,0-.08,0h-.01c-.57,0-1.03-.44-1.04-.98,0-.02-.02-1.34-.21-2.92-.2-1.58-.51-2.87-.51-2.88-.13-.53.22-1.07.78-1.19,0,0,0,0,.01,0,.51-.11,1,.26,1.07.77l.8,6.17Zm9.54-4.99c.16,0,.22.02.31.08.04.29-.65,1.32-1.87,2.12-.64.42-1.49,1.08-1.58,2.06-.08.95.58,1.57,1.02,1.98l.06.05c.18.17.29.33.33.42-.17.09-.67.29-1.96.29s-1.8-.2-1.96-.29c.04-.1.15-.25.33-.42l.06-.05c.44-.41,1.1-1.03,1.02-1.98-.09-.98-.94-1.65-1.58-2.06-1.22-.8-1.91-1.82-1.89-2.07.11-.1.16-.12.33-.12.21,0,.52.05.88.12.66.12,1.57.27,2.81.27s2.14-.16,2.81-.27c.36-.06.67-.12.88-.12m0-1c-.77,0-1.81.39-3.69.39s-2.93-.39-3.69-.39c-.38,0-.7.1-1.01.39-.94.88.5,2.65,2.02,3.64,1.87,1.22,1,1.93.36,2.54-.94.88-1.44,2.44,2.32,2.44s3.25-1.56,2.31-2.44c-.64-.6-1.51-1.32.36-2.54,1.52-.99,2.97-2.76,2.03-3.64-.31-.29-.63-.39-1.01-.39h0Z"/>
</svg>