<?xml version="1.0" encoding="UTF-8"?>
<svg id="Outline" xmlns="http://www.w3.org/2000/svg" viewBox="0 0 24 24">
  <defs>
    <style>
      .cls-1 {
        fill: #282a32;
        stroke-width: 0px;
      }
    </style>
  </defs>
  <path class="cls-1" d="m9.05,16.51l-1.06-10.28c-.03-.23.05-.44.18-.63.51-.78.43-1.83-.25-2.51-.39-.39-.91-.59-1.42-.59s-1.02.2-1.41.59c-.69.68-.77,1.73-.25,2.51.12.19.2.4.18.63l-1.07,10.28c-.52.03-.94.46-.94.99v2.5c0,.55.45,1,1,1h5c.55,0,1-.45,1-1v-2.5c0-.53-.42-.96-.95-.99Zm-3.03-10.18c.03-.3-.01-.76-.35-1.28-.26-.4-.21-.92.13-1.26.19-.18.44-.29.7-.29s.52.11.71.29c.33.34.39.86.13,1.26-.35.52-.38.98-.35,1.28l1.05,10.17h-3.08l1.06-10.17Zm2.98,13.67h-5v-2.5h5v2.5Zm11.05-3.49l-1.06-10.28c-.03-.23.05-.44.18-.63.51-.78.43-1.83-.25-2.51-.39-.39-.91-.59-1.42-.59s-1.02.2-1.41.59c-.69.68-.77,1.73-.25,2.51.12.19.2.4.18.63l-1.07,10.28c-.52.03-.94.46-.94.99v2.5c0,.55.45,1,1,1h5c.55,0,1-.45,1-1v-2.5c0-.53-.42-.96-.95-.99Zm-3.03-10.18c.03-.3-.01-.76-.35-1.28-.26-.4-.21-.92.13-1.26.19-.18.44-.29.7-.29s.52.11.71.29c.33.34.39.86.13,1.26-.35.52-.38.98-.35,1.28l1.05,10.17h-3.08l1.06-10.17Zm2.98,13.67h-5v-2.5h5v2.5Zm-6-10c0,1.1-.9,2-2,2s-2-.9-2-2,.9-2,2-2,2,.9,2,2Z"/>
</svg>