<?xml version="1.0" encoding="UTF-8"?>
<svg id="Outline" xmlns="http://www.w3.org/2000/svg" viewBox="0 0 24 24">
  <defs>
    <style>
      .cls-1 {
        fill: #282a32;
        stroke-width: 0px;
      }
    </style>
  </defs>
  <path class="cls-1" d="m20.07,19.5c0,1.1-.9,2-2,2s-2-.9-2-2,.9-2,2-2,2,.9,2,2ZM11.93,7.05c-.23.07-.58.17-.87.24.08-.3.16-.58.26-.87.39-.15.75-.3,1.1-.48-.18.35-.34.72-.49,1.11Zm-.49,1.83c-.18.03-.54.12-.8.18.07-.24.12-.49.18-.72.25-.04.58-.12.76-.15-.05.22-.1.45-.14.69Zm4.11-3.84c-.18.15-.36.29-.56.43h0c-.51.38-1.09.75-1.73,1.05.3-.64.67-1.22,1.04-1.73h0c.04-.06.07-.11.11-.15.37.09.77.23,1.14.41Zm-4.59,5.82h0c-.41.18-.81.37-1.19.59.22-.4.39-.81.52-1.21.3-.11.67-.23.95-.29-.07.31-.16.61-.27.91Zm-3.46,5.15c-.26-.44-.46-1.33.77-2.56l.15-.15c.63-.42,1.34-.74,1.91-1.04-.39.73-.86,1.41-1.34,2.04h0c-.49.63-.99,1.21-1.47,1.7Zm9.78-9.84c-.27.24-.56.48-.88.71h0c-.51.38-1.09.75-1.73,1.05.3-.64.67-1.22,1.04-1.73h0c.2-.27.39-.53.59-.75.35.2.68.45.98.73Zm1.27,1.53c-.23.2-.48.39-.75.59h0c-.51.38-1.09.75-1.73,1.05.3-.64.67-1.22,1.04-1.73h0c.23-.32.47-.62.71-.89.27.3.52.63.72.98Zm-7.86,7.89l-.15.15c-1.23,1.23-2.11,1.03-2.56.77.49-.48,1.07-.99,1.7-1.47h0c.63-.49,1.3-.96,2.03-1.35-.3.56-.62,1.28-1.03,1.91Zm3.06-1.87c-.39.13-.8.3-1.21.52.23-.38.42-.78.58-1.19h0c.3-.12.6-.21.91-.28-.06.28-.18.65-.29.95Zm1.89-.52c-.23.05-.47.11-.72.17.06-.26.15-.62.18-.8.24-.04.47-.09.69-.14-.04.18-.11.52-.16.77Zm3.72-3.61s-.11.08-.15.11h0c-.51.38-1.09.75-1.73,1.05.3-.64.67-1.22,1.04-1.73h0c.14-.2.28-.39.43-.56.18.37.32.75.42,1.13Zm-1.81,3.11c-.27.11-.56.18-.86.25.07-.3.17-.65.24-.87.39-.15.75-.3,1.11-.49-.18.35-.34.72-.49,1.11Zm0,0c-.27.11-.56.18-.86.25.07-.3.17-.65.24-.87.39-.15.75-.3,1.11-.49-.18.35-.34.72-.49,1.11Zm1.81-3.11s-.11.08-.15.11h0c-.51.38-1.09.75-1.73,1.05.3-.64.67-1.22,1.04-1.73h0c.14-.2.28-.39.43-.56.18.37.32.75.42,1.13Zm-3.72,3.61c-.23.05-.47.11-.72.17.06-.26.15-.62.18-.8.24-.04.47-.09.69-.14-.04.18-.11.52-.16.77Zm-1.89.52c-.39.13-.8.3-1.21.52.23-.38.42-.78.58-1.19h0c.3-.12.6-.21.91-.28-.06.28-.18.65-.29.95Zm-3.06,1.87l-.15.15c-1.23,1.23-2.11,1.03-2.56.77.49-.48,1.07-.99,1.7-1.47h0c.63-.49,1.3-.96,2.03-1.35-.3.56-.62,1.28-1.03,1.91Zm7.86-7.89c-.23.2-.48.39-.75.59h0c-.51.38-1.09.75-1.73,1.05.3-.64.67-1.22,1.04-1.73h0c.23-.32.47-.62.71-.89.27.3.52.63.72.98Zm-1.27-1.53c-.27.24-.56.48-.88.71h0c-.51.38-1.09.75-1.73,1.05.3-.64.67-1.22,1.04-1.73h0c.2-.27.39-.53.59-.75.35.2.68.45.98.73ZM7.51,16c-.26-.44-.46-1.33.77-2.56l.15-.15c.63-.42,1.34-.74,1.91-1.04-.39.73-.86,1.41-1.34,2.04h0c-.49.63-.99,1.21-1.47,1.7Zm3.46-5.15h0c-.41.18-.81.37-1.19.59.22-.4.39-.81.52-1.21.3-.11.67-.23.95-.29-.07.31-.16.61-.27.91Zm4.59-5.82c-.18.15-.36.29-.56.43h0c-.51.38-1.09.75-1.73,1.05.3-.64.67-1.22,1.04-1.73h0c.04-.06.07-.11.11-.15.37.09.77.23,1.14.41Zm-4.11,3.84c-.18.03-.54.12-.8.18.07-.24.12-.49.18-.72.25-.04.58-.12.76-.15-.05.22-.1.45-.14.69Zm.49-1.83c-.23.07-.58.17-.87.24.08-.3.16-.58.26-.87.39-.15.75-.3,1.1-.48-.18.35-.34.72-.49,1.11Zm0,0c-.23.07-.58.17-.87.24.08-.3.16-.58.26-.87.39-.15.75-.3,1.1-.48-.18.35-.34.72-.49,1.11Zm-.49,1.83c-.18.03-.54.12-.8.18.07-.24.12-.49.18-.72.25-.04.58-.12.76-.15-.05.22-.1.45-.14.69Zm4.11-3.84c-.18.15-.36.29-.56.43h0c-.51.38-1.09.75-1.73,1.05.3-.64.67-1.22,1.04-1.73h0c.04-.06.07-.11.11-.15.37.09.77.23,1.14.41Zm-4.59,5.82h0c-.41.18-.81.37-1.19.59.22-.4.39-.81.52-1.21.3-.11.67-.23.95-.29-.07.31-.16.61-.27.91Zm-3.46,5.15c-.26-.44-.46-1.33.77-2.56l.15-.15c.63-.42,1.34-.74,1.91-1.04-.39.73-.86,1.41-1.34,2.04h0c-.49.63-.99,1.21-1.47,1.7Zm9.78-9.84c-.27.24-.56.48-.88.71h0c-.51.38-1.09.75-1.73,1.05.3-.64.67-1.22,1.04-1.73h0c.2-.27.39-.53.59-.75.35.2.68.45.98.73Zm1.27,1.53c-.23.2-.48.39-.75.59h0c-.51.38-1.09.75-1.73,1.05.3-.64.67-1.22,1.04-1.73h0c.23-.32.47-.62.71-.89.27.3.52.63.72.98Zm-7.86,7.89l-.15.15c-1.23,1.23-2.11,1.03-2.56.77.49-.48,1.07-.99,1.7-1.47h0c.63-.49,1.3-.96,2.03-1.35-.3.56-.62,1.28-1.03,1.91Zm3.06-1.87c-.39.13-.8.3-1.21.52.23-.38.42-.78.58-1.19h0c.3-.12.6-.21.91-.28-.06.28-.18.65-.29.95Zm1.89-.52c-.23.05-.47.11-.72.17.06-.26.15-.62.18-.8.24-.04.47-.09.69-.14-.04.18-.11.52-.16.77Zm3.72-3.61s-.11.08-.15.11h0c-.51.38-1.09.75-1.73,1.05.3-.64.67-1.22,1.04-1.73h0c.14-.2.28-.39.43-.56.18.37.32.75.42,1.13Zm-1.81,3.11c-.27.11-.56.18-.86.25.07-.3.17-.65.24-.87.39-.15.75-.3,1.11-.49-.18.35-.34.72-.49,1.11Zm0,0c-.27.11-.56.18-.86.25.07-.3.17-.65.24-.87.39-.15.75-.3,1.11-.49-.18.35-.34.72-.49,1.11Zm1.81-3.11s-.11.08-.15.11h0c-.51.38-1.09.75-1.73,1.05.3-.64.67-1.22,1.04-1.73h0c.14-.2.28-.39.43-.56.18.37.32.75.42,1.13Zm-3.72,3.61c-.23.05-.47.11-.72.17.06-.26.15-.62.18-.8.24-.04.47-.09.69-.14-.04.18-.11.52-.16.77Zm-1.89.52c-.39.13-.8.3-1.21.52.23-.38.42-.78.58-1.19h0c.3-.12.6-.21.91-.28-.06.28-.18.65-.29.95Zm-3.06,1.87l-.15.15c-1.23,1.23-2.11,1.03-2.56.77.49-.48,1.07-.99,1.7-1.47h0c.63-.49,1.3-.96,2.03-1.35-.3.56-.62,1.28-1.03,1.91Zm7.86-7.89c-.23.2-.48.39-.75.59h0c-.51.38-1.09.75-1.73,1.05.3-.64.67-1.22,1.04-1.73h0c.23-.32.47-.62.71-.89.27.3.52.63.72.98Zm-1.27-1.53c-.27.24-.56.48-.88.71h0c-.51.38-1.09.75-1.73,1.05.3-.64.67-1.22,1.04-1.73h0c.2-.27.39-.53.59-.75.35.2.68.45.98.73ZM7.51,16c-.26-.44-.46-1.33.77-2.56l.15-.15c.63-.42,1.34-.74,1.91-1.04-.39.73-.86,1.41-1.34,2.04h0c-.49.63-.99,1.21-1.47,1.7Zm3.46-5.15h0c-.41.18-.81.37-1.19.59.22-.4.39-.81.52-1.21.3-.11.67-.23.95-.29-.07.31-.16.61-.27.91Zm4.59-5.82c-.18.15-.36.29-.56.43h0c-.51.38-1.09.75-1.73,1.05.3-.64.67-1.22,1.04-1.73h0c.04-.06.07-.11.11-.15.37.09.77.23,1.14.41Zm-4.11,3.84c-.18.03-.54.12-.8.18.07-.24.12-.49.18-.72.25-.04.58-.12.76-.15-.05.22-.1.45-.14.69Zm.49-1.83c-.23.07-.58.17-.87.24.08-.3.16-.58.26-.87.39-.15.75-.3,1.1-.48-.18.35-.34.72-.49,1.11Zm0,0c-.23.07-.58.17-.87.24.08-.3.16-.58.26-.87.39-.15.75-.3,1.1-.48-.18.35-.34.72-.49,1.11Zm-.49,1.83c-.18.03-.54.12-.8.18.07-.24.12-.49.18-.72.25-.04.58-.12.76-.15-.05.22-.1.45-.14.69Zm4.11-3.84c-.18.15-.36.29-.56.43h0c-.51.38-1.09.75-1.73,1.05.3-.64.67-1.22,1.04-1.73h0c.04-.06.07-.11.11-.15.37.09.77.23,1.14.41Zm-4.59,5.82h0c-.41.18-.81.37-1.19.59.22-.4.39-.81.52-1.21.3-.11.67-.23.95-.29-.07.31-.16.61-.27.91Zm-3.46,5.15c-.26-.44-.46-1.33.77-2.56l.15-.15c.63-.42,1.34-.74,1.91-1.04-.39.73-.86,1.41-1.34,2.04h0c-.49.63-.99,1.21-1.47,1.7Zm9.78-9.84c-.27.24-.56.48-.88.71h0c-.51.38-1.09.75-1.73,1.05.3-.64.67-1.22,1.04-1.73h0c.2-.27.39-.53.59-.75.35.2.68.45.98.73Zm1.27,1.53c-.23.2-.48.39-.75.59h0c-.51.38-1.09.75-1.73,1.05.3-.64.67-1.22,1.04-1.73h0c.23-.32.47-.62.71-.89.27.3.52.63.72.98Zm-7.86,7.89l-.15.15c-1.23,1.23-2.11,1.03-2.56.77.49-.48,1.07-.99,1.7-1.47h0c.63-.49,1.3-.96,2.03-1.35-.3.56-.62,1.28-1.03,1.91Zm3.06-1.87c-.39.13-.8.3-1.21.52.23-.38.42-.78.58-1.19h0c.3-.12.6-.21.91-.28-.06.28-.18.65-.29.95Zm1.89-.52c-.23.05-.47.11-.72.17.06-.26.15-.62.18-.8.24-.04.47-.09.69-.14-.04.18-.11.52-.16.77Zm3.72-3.61s-.11.08-.15.11h0c-.51.38-1.09.75-1.73,1.05.3-.64.67-1.22,1.04-1.73h0c.14-.2.28-.39.43-.56.18.37.32.75.42,1.13Zm-1.81,3.11c-.27.11-.56.18-.86.25.07-.3.17-.65.24-.87.39-.15.75-.3,1.11-.49-.18.35-.34.72-.49,1.11Zm0,0c-.27.11-.56.18-.86.25.07-.3.17-.65.24-.87.39-.15.75-.3,1.11-.49-.18.35-.34.72-.49,1.11Zm1.81-3.11s-.11.08-.15.11h0c-.51.38-1.09.75-1.73,1.05.3-.64.67-1.22,1.04-1.73h0c.14-.2.28-.39.43-.56.18.37.32.75.42,1.13Zm-3.72,3.61c-.23.05-.47.11-.72.17.06-.26.15-.62.18-.8.24-.04.47-.09.69-.14-.04.18-.11.52-.16.77Zm-1.89.52c-.39.13-.8.3-1.21.52.23-.38.42-.78.58-1.19h0c.3-.12.6-.21.91-.28-.06.28-.18.65-.29.95Zm-3.06,1.87l-.15.15c-1.23,1.23-2.11,1.03-2.56.77.49-.48,1.07-.99,1.7-1.47h0c.63-.49,1.3-.96,2.03-1.35-.3.56-.62,1.28-1.03,1.91Zm7.86-7.89c-.23.2-.48.39-.75.59h0c-.51.38-1.09.75-1.73,1.05.3-.64.67-1.22,1.04-1.73h0c.23-.32.47-.62.71-.89.27.3.52.63.72.98Zm-1.27-1.53c-.27.24-.56.48-.88.71h0c-.51.38-1.09.75-1.73,1.05.3-.64.67-1.22,1.04-1.73h0c.2-.27.39-.53.59-.75.35.2.68.45.98.73ZM7.51,16c-.26-.44-.46-1.33.77-2.56l.15-.15c.63-.42,1.34-.74,1.91-1.04-.39.73-.86,1.41-1.34,2.04h0c-.49.63-.99,1.21-1.47,1.7Zm3.46-5.15h0c-.41.18-.81.37-1.19.59.22-.4.39-.81.52-1.21.3-.11.67-.23.95-.29-.07.31-.16.61-.27.91Zm4.59-5.82c-.18.15-.36.29-.56.43h0c-.51.38-1.09.75-1.73,1.05.3-.64.67-1.22,1.04-1.73h0c.04-.06.07-.11.11-.15.37.09.77.23,1.14.41Zm-4.11,3.84c-.18.03-.54.12-.8.18.07-.24.12-.49.18-.72.25-.04.58-.12.76-.15-.05.22-.1.45-.14.69Zm.49-1.83c-.23.07-.58.17-.87.24.08-.3.16-.58.26-.87.39-.15.75-.3,1.1-.48-.18.35-.34.72-.49,1.11Zm0,0c-.23.07-.58.17-.87.24.08-.3.16-.58.26-.87.39-.15.75-.3,1.1-.48-.18.35-.34.72-.49,1.11Zm-.49,1.83c-.18.03-.54.12-.8.18.07-.24.12-.49.18-.72.25-.04.58-.12.76-.15-.05.22-.1.45-.14.69Zm4.11-3.84c-.18.15-.36.29-.56.43h0c-.51.38-1.09.75-1.73,1.05.3-.64.67-1.22,1.04-1.73h0c.04-.06.07-.11.11-.15.37.09.77.23,1.14.41Zm-4.59,5.82h0c-.41.18-.81.37-1.19.59.22-.4.39-.81.52-1.21.3-.11.67-.23.95-.29-.07.31-.16.61-.27.91Zm-3.46,5.15c-.26-.44-.46-1.33.77-2.56l.15-.15c.63-.42,1.34-.74,1.91-1.04-.39.73-.86,1.41-1.34,2.04h0c-.49.63-.99,1.21-1.47,1.7Zm9.78-9.84c-.27.24-.56.48-.88.71h0c-.51.38-1.09.75-1.73,1.05.3-.64.67-1.22,1.04-1.73h0c.2-.27.39-.53.59-.75.35.2.68.45.98.73Zm1.27,1.53c-.23.2-.48.39-.75.59h0c-.51.38-1.09.75-1.73,1.05.3-.64.67-1.22,1.04-1.73h0c.23-.32.47-.62.71-.89.27.3.52.63.72.98Zm-7.86,7.89l-.15.15c-1.23,1.23-2.11,1.03-2.56.77.49-.48,1.07-.99,1.7-1.47h0c.63-.49,1.3-.96,2.03-1.35-.3.56-.62,1.28-1.03,1.91Zm3.06-1.87c-.39.13-.8.3-1.21.52.23-.38.42-.78.58-1.19h0c.3-.12.6-.21.91-.28-.06.28-.18.65-.29.95Zm1.89-.52c-.23.05-.47.11-.72.17.06-.26.15-.62.18-.8.24-.04.47-.09.69-.14-.04.18-.11.52-.16.77Zm3.72-3.61s-.11.08-.15.11h0c-.51.38-1.09.75-1.73,1.05.3-.64.67-1.22,1.04-1.73h0c.14-.2.28-.39.43-.56.18.37.32.75.42,1.13Zm-1.81,3.11c-.27.11-.56.18-.86.25.07-.3.17-.65.24-.87.39-.15.75-.3,1.11-.49-.18.35-.34.72-.49,1.11Zm0,0c-.27.11-.56.18-.86.25.07-.3.17-.65.24-.87.39-.15.75-.3,1.11-.49-.18.35-.34.72-.49,1.11Zm1.81-3.11s-.11.08-.15.11h0c-.51.38-1.09.75-1.73,1.05.3-.64.67-1.22,1.04-1.73h0c.14-.2.28-.39.43-.56.18.37.32.75.42,1.13Zm-3.72,3.61c-.23.05-.47.11-.72.17.06-.26.15-.62.18-.8.24-.04.47-.09.69-.14-.04.18-.11.52-.16.77Zm-1.89.52c-.39.13-.8.3-1.21.52.23-.38.42-.78.58-1.19h0c.3-.12.6-.21.91-.28-.06.28-.18.65-.29.95Zm-3.06,1.87l-.15.15c-1.23,1.23-2.11,1.03-2.56.77.49-.48,1.07-.99,1.7-1.47h0c.63-.49,1.3-.96,2.03-1.35-.3.56-.62,1.28-1.03,1.91Zm7.86-7.89c-.23.2-.48.39-.75.59h0c-.51.38-1.09.75-1.73,1.05.3-.64.67-1.22,1.04-1.73h0c.23-.32.47-.62.71-.89.27.3.52.63.72.98Zm-1.27-1.53c-.27.24-.56.48-.88.71h0c-.51.38-1.09.75-1.73,1.05.3-.64.67-1.22,1.04-1.73h0c.2-.27.39-.53.59-.75.35.2.68.45.98.73ZM7.51,16c-.26-.44-.46-1.33.77-2.56l.15-.15c.63-.42,1.34-.74,1.91-1.04-.39.73-.86,1.41-1.34,2.04h0c-.49.63-.99,1.21-1.47,1.7Zm3.46-5.15h0c-.41.18-.81.37-1.19.59.22-.4.39-.81.52-1.21.3-.11.67-.23.95-.29-.07.31-.16.61-.27.91Zm4.59-5.82c-.18.15-.36.29-.56.43h0c-.51.38-1.09.75-1.73,1.05.3-.64.67-1.22,1.04-1.73h0c.04-.06.07-.11.11-.15.37.09.77.23,1.14.41Zm-4.11,3.84c-.18.03-.54.12-.8.18.07-.24.12-.49.18-.72.25-.04.58-.12.76-.15-.05.22-.1.45-.14.69Zm.49-1.83c-.23.07-.58.17-.87.24.08-.3.16-.58.26-.87.39-.15.75-.3,1.1-.48-.18.35-.34.72-.49,1.11Zm0,0c-.23.07-.58.17-.87.24.08-.3.16-.58.26-.87.39-.15.75-.3,1.1-.48-.18.35-.34.72-.49,1.11Zm-.49,1.83c-.18.03-.54.12-.8.18.07-.24.12-.49.18-.72.25-.04.58-.12.76-.15-.05.22-.1.45-.14.69Zm4.11-3.84c-.18.15-.36.29-.56.43h0c-.51.38-1.09.75-1.73,1.05.3-.64.67-1.22,1.04-1.73h0c.04-.06.07-.11.11-.15.37.09.77.23,1.14.41Zm-4.59,5.82h0c-.41.18-.81.37-1.19.59.22-.4.39-.81.52-1.21.3-.11.67-.23.95-.29-.07.31-.16.61-.27.91Zm-3.46,5.15c-.26-.44-.46-1.33.77-2.56l.15-.15c.63-.42,1.34-.74,1.91-1.04-.39.73-.86,1.41-1.34,2.04h0c-.49.63-.99,1.21-1.47,1.7Zm9.78-9.84c-.27.24-.56.48-.88.71h0c-.51.38-1.09.75-1.73,1.05.3-.64.67-1.22,1.04-1.73h0c.2-.27.39-.53.59-.75.35.2.68.45.98.73Zm1.27,1.53c-.23.2-.48.39-.75.59h0c-.51.38-1.09.75-1.73,1.05.3-.64.67-1.22,1.04-1.73h0c.23-.32.47-.62.71-.89.27.3.52.63.72.98Zm-7.86,7.89l-.15.15c-1.23,1.23-2.11,1.03-2.56.77.49-.48,1.07-.99,1.7-1.47h0c.63-.49,1.3-.96,2.03-1.35-.3.56-.62,1.28-1.03,1.91Zm3.06-1.87c-.39.13-.8.3-1.21.52.23-.38.42-.78.58-1.19h0c.3-.12.6-.21.91-.28-.06.28-.18.65-.29.95Zm1.89-.52c-.23.05-.47.11-.72.17.06-.26.15-.62.18-.8.24-.04.47-.09.69-.14-.04.18-.11.52-.16.77Zm3.72-3.61s-.11.08-.15.11h0c-.51.38-1.09.75-1.73,1.05.3-.64.67-1.22,1.04-1.73h0c.14-.2.28-.39.43-.56.18.37.32.75.42,1.13Zm-1.81,3.11c-.27.11-.56.18-.86.25.07-.3.17-.65.24-.87.39-.15.75-.3,1.11-.49-.18.35-.34.72-.49,1.11Zm2.59.94c-3,1.97-5.67.98-8.19,3.51-.35.35-.69.65-1.01.91l-.77-.77c.34-.19.7-.46,1.08-.84,1.6-1.6,3.24-1.96,4.81-2.32,1.21-.27,2.34-.51,3.54-1.3.61-.42.82-1.15.87-1.7.18-1.73-.71-3.89-2.2-5.39s-3.66-2.38-5.38-2.2c-.54.05-1.29.25-1.7.87-.79,1.2-1.03,2.33-1.31,3.53-.36,1.58-.73,3.22-2.32,4.82-.37.37-.65.73-.84,1.08l-.77-.77c.26-.32.56-.65.91-1.01,2.53-2.53,1.53-5.2,3.51-8.2,1.48-2.25,5.88-1.55,8.6,1.17s3.43,7.13,1.18,8.61Zm-11,4.03l.97.97c-1.27.79-2.27.86-3.01.68-.51-.13-1.03.02-1.4.39l-1.52,1.52c-.39.39-1.02.39-1.41,0s-.39-1.02,0-1.41l1.52-1.52c.37-.37.51-.89.39-1.4-.18-.74-.11-1.74.68-3.01l.97.97c-.18,1.08.37,1.85.66,2.14s1.07.84,2.15.67Zm2.77-10.6c-.23.07-.58.17-.87.24.08-.3.16-.58.26-.87.39-.15.75-.3,1.1-.48-.18.35-.34.72-.49,1.11Zm-.49,1.83c-.18.03-.54.12-.8.18.07-.24.12-.49.18-.72.25-.04.58-.12.76-.15-.05.22-.1.45-.14.69Zm4.11-3.84c-.18.15-.36.29-.56.43h0c-.51.38-1.09.75-1.73,1.05.3-.64.67-1.22,1.04-1.73h0c.04-.06.07-.11.11-.15.37.09.77.23,1.14.41Zm-4.59,5.82h0c-.41.18-.81.37-1.19.59.22-.4.39-.81.52-1.21.3-.11.67-.23.95-.29-.07.31-.16.61-.27.91Zm-3.46,5.15c-.26-.44-.46-1.33.77-2.56l.15-.15c.63-.42,1.34-.74,1.91-1.04-.39.73-.86,1.41-1.34,2.04h0c-.49.63-.99,1.21-1.47,1.7Zm9.78-9.84c-.27.24-.56.48-.88.71h0c-.51.38-1.09.75-1.73,1.05.3-.64.67-1.22,1.04-1.73h0c.2-.27.39-.53.59-.75.35.2.68.45.98.73Zm1.27,1.53c-.23.2-.48.39-.75.59h0c-.51.38-1.09.75-1.73,1.05.3-.64.67-1.22,1.04-1.73h0c.23-.32.47-.62.71-.89.27.3.52.63.72.98Zm-7.86,7.89l-.15.15c-1.23,1.23-2.11,1.03-2.56.77.49-.48,1.07-.99,1.7-1.47h0c.63-.49,1.3-.96,2.03-1.35-.3.56-.62,1.28-1.03,1.91Zm3.06-1.87c-.39.13-.8.3-1.21.52.23-.38.42-.78.58-1.19h0c.3-.12.6-.21.91-.28-.06.28-.18.65-.29.95Zm1.89-.52c-.23.05-.47.11-.72.17.06-.26.15-.62.18-.8.24-.04.47-.09.69-.14-.04.18-.11.52-.16.77Zm3.72-3.61s-.11.08-.15.11h0c-.51.38-1.09.75-1.73,1.05.3-.64.67-1.22,1.04-1.73h0c.14-.2.28-.39.43-.56.18.37.32.75.42,1.13Zm-1.81,3.11c-.27.11-.56.18-.86.25.07-.3.17-.65.24-.87.39-.15.75-.3,1.11-.49-.18.35-.34.72-.49,1.11Zm0,0c-.27.11-.56.18-.86.25.07-.3.17-.65.24-.87.39-.15.75-.3,1.11-.49-.18.35-.34.72-.49,1.11Zm1.81-3.11s-.11.08-.15.11h0c-.51.38-1.09.75-1.73,1.05.3-.64.67-1.22,1.04-1.73h0c.14-.2.28-.39.43-.56.18.37.32.75.42,1.13Zm-3.72,3.61c-.23.05-.47.11-.72.17.06-.26.15-.62.18-.8.24-.04.47-.09.69-.14-.04.18-.11.52-.16.77Zm-1.89.52c-.39.13-.8.3-1.21.52.23-.38.42-.78.58-1.19h0c.3-.12.6-.21.91-.28-.06.28-.18.65-.29.95Zm-3.06,1.87l-.15.15c-1.23,1.23-2.11,1.03-2.56.77.49-.48,1.07-.99,1.7-1.47h0c.63-.49,1.3-.96,2.03-1.35-.3.56-.62,1.28-1.03,1.91Zm7.86-7.89c-.23.2-.48.39-.75.59h0c-.51.38-1.09.75-1.73,1.05.3-.64.67-1.22,1.04-1.73h0c.23-.32.47-.62.71-.89.27.3.52.63.72.98Zm-1.27-1.53c-.27.24-.56.48-.88.71h0c-.51.38-1.09.75-1.73,1.05.3-.64.67-1.22,1.04-1.73h0c.2-.27.39-.53.59-.75.35.2.68.45.98.73ZM7.51,16c-.26-.44-.46-1.33.77-2.56l.15-.15c.63-.42,1.34-.74,1.91-1.04-.39.73-.86,1.41-1.34,2.04h0c-.49.63-.99,1.21-1.47,1.7Zm3.46-5.15h0c-.41.18-.81.37-1.19.59.22-.4.39-.81.52-1.21.3-.11.67-.23.95-.29-.07.31-.16.61-.27.91Zm4.59-5.82c-.18.15-.36.29-.56.43h0c-.51.38-1.09.75-1.73,1.05.3-.64.67-1.22,1.04-1.73h0c.04-.06.07-.11.11-.15.37.09.77.23,1.14.41Zm-4.11,3.84c-.18.03-.54.12-.8.18.07-.24.12-.49.18-.72.25-.04.58-.12.76-.15-.05.22-.1.45-.14.69Zm.49-1.83c-.23.07-.58.17-.87.24.08-.3.16-.58.26-.87.39-.15.75-.3,1.1-.48-.18.35-.34.72-.49,1.11Zm0,0c-.23.07-.58.17-.87.24.08-.3.16-.58.26-.87.39-.15.75-.3,1.1-.48-.18.35-.34.72-.49,1.11Zm-.49,1.83c-.18.03-.54.12-.8.18.07-.24.12-.49.18-.72.25-.04.58-.12.76-.15-.05.22-.1.45-.14.69Zm4.11-3.84c-.18.15-.36.29-.56.43h0c-.51.38-1.09.75-1.73,1.05.3-.64.67-1.22,1.04-1.73h0c.04-.06.07-.11.11-.15.37.09.77.23,1.14.41Zm-4.59,5.82h0c-.41.18-.81.37-1.19.59.22-.4.39-.81.52-1.21.3-.11.67-.23.95-.29-.07.31-.16.61-.27.91Zm-3.46,5.15c-.26-.44-.46-1.33.77-2.56l.15-.15c.63-.42,1.34-.74,1.91-1.04-.39.73-.86,1.41-1.34,2.04h0c-.49.63-.99,1.21-1.47,1.7Zm9.78-9.84c-.27.24-.56.48-.88.71h0c-.51.38-1.09.75-1.73,1.05.3-.64.67-1.22,1.04-1.73h0c.2-.27.39-.53.59-.75.35.2.68.45.98.73Zm1.27,1.53c-.23.2-.48.39-.75.59h0c-.51.38-1.09.75-1.73,1.05.3-.64.67-1.22,1.04-1.73h0c.23-.32.47-.62.71-.89.27.3.52.63.72.98Zm-7.86,7.89l-.15.15c-1.23,1.23-2.11,1.03-2.56.77.49-.48,1.07-.99,1.7-1.47h0c.63-.49,1.3-.96,2.03-1.35-.3.56-.62,1.28-1.03,1.91Zm3.06-1.87c-.39.13-.8.3-1.21.52.23-.38.42-.78.58-1.19h0c.3-.12.6-.21.91-.28-.06.28-.18.65-.29.95Zm1.89-.52c-.23.05-.47.11-.72.17.06-.26.15-.62.18-.8.24-.04.47-.09.69-.14-.04.18-.11.52-.16.77Zm3.72-3.61s-.11.08-.15.11h0c-.51.38-1.09.75-1.73,1.05.3-.64.67-1.22,1.04-1.73h0c.14-.2.28-.39.43-.56.18.37.32.75.42,1.13Zm-1.81,3.11c-.27.11-.56.18-.86.25.07-.3.17-.65.24-.87.39-.15.75-.3,1.11-.49-.18.35-.34.72-.49,1.11Zm0,0c-.27.11-.56.18-.86.25.07-.3.17-.65.24-.87.39-.15.75-.3,1.11-.49-.18.35-.34.72-.49,1.11Zm1.81-3.11s-.11.08-.15.11h0c-.51.38-1.09.75-1.73,1.05.3-.64.67-1.22,1.04-1.73h0c.14-.2.28-.39.43-.56.18.37.32.75.42,1.13Zm-3.72,3.61c-.23.05-.47.11-.72.17.06-.26.15-.62.18-.8.24-.04.47-.09.69-.14-.04.18-.11.52-.16.77Zm-1.89.52c-.39.13-.8.3-1.21.52.23-.38.42-.78.58-1.19h0c.3-.12.6-.21.91-.28-.06.28-.18.65-.29.95Zm-3.06,1.87l-.15.15c-1.23,1.23-2.11,1.03-2.56.77.49-.48,1.07-.99,1.7-1.47h0c.63-.49,1.3-.96,2.03-1.35-.3.56-.62,1.28-1.03,1.91Zm7.86-7.89c-.23.2-.48.39-.75.59h0c-.51.38-1.09.75-1.73,1.05.3-.64.67-1.22,1.04-1.73h0c.23-.32.47-.62.71-.89.27.3.52.63.72.98Zm-1.27-1.53c-.27.24-.56.48-.88.71h0c-.51.38-1.09.75-1.73,1.05.3-.64.67-1.22,1.04-1.73h0c.2-.27.39-.53.59-.75.35.2.68.45.98.73ZM7.51,16c-.26-.44-.46-1.33.77-2.56l.15-.15c.63-.42,1.34-.74,1.91-1.04-.39.73-.86,1.41-1.34,2.04h0c-.49.63-.99,1.21-1.47,1.7Zm3.46-5.15h0c-.41.18-.81.37-1.19.59.22-.4.39-.81.52-1.21.3-.11.67-.23.95-.29-.07.31-.16.61-.27.91Zm4.59-5.82c-.18.15-.36.29-.56.43h0c-.51.38-1.09.75-1.73,1.05.3-.64.67-1.22,1.04-1.73h0c.04-.06.07-.11.11-.15.37.09.77.23,1.14.41Zm-4.11,3.84c-.18.03-.54.12-.8.18.07-.24.12-.49.18-.72.25-.04.58-.12.76-.15-.05.22-.1.45-.14.69Zm.49-1.83c-.23.07-.58.17-.87.24.08-.3.16-.58.26-.87.39-.15.75-.3,1.1-.48-.18.35-.34.72-.49,1.11Zm0,0c-.23.07-.58.17-.87.24.08-.3.16-.58.26-.87.39-.15.75-.3,1.1-.48-.18.35-.34.72-.49,1.11Zm-.49,1.83c-.18.03-.54.12-.8.18.07-.24.12-.49.18-.72.25-.04.58-.12.76-.15-.05.22-.1.45-.14.69Zm4.11-3.84c-.18.15-.36.29-.56.43h0c-.51.38-1.09.75-1.73,1.05.3-.64.67-1.22,1.04-1.73h0c.04-.06.07-.11.11-.15.37.09.77.23,1.14.41Zm-4.59,5.82h0c-.41.18-.81.37-1.19.59.22-.4.39-.81.52-1.21.3-.11.67-.23.95-.29-.07.31-.16.61-.27.91Zm-3.46,5.15c-.26-.44-.46-1.33.77-2.56l.15-.15c.63-.42,1.34-.74,1.91-1.04-.39.73-.86,1.41-1.34,2.04h0c-.49.63-.99,1.21-1.47,1.7Zm9.78-9.84c-.27.24-.56.48-.88.71h0c-.51.38-1.09.75-1.73,1.05.3-.64.67-1.22,1.04-1.73h0c.2-.27.39-.53.59-.75.35.2.68.45.98.73Zm1.27,1.53c-.23.2-.48.39-.75.59h0c-.51.38-1.09.75-1.73,1.05.3-.64.67-1.22,1.04-1.73h0c.23-.32.47-.62.71-.89.27.3.52.63.72.98Zm-7.86,7.89l-.15.15c-1.23,1.23-2.11,1.03-2.56.77.49-.48,1.07-.99,1.7-1.47h0c.63-.49,1.3-.96,2.03-1.35-.3.56-.62,1.28-1.03,1.91Zm3.06-1.87c-.39.13-.8.3-1.21.52.23-.38.42-.78.58-1.19h0c.3-.12.6-.21.91-.28-.06.28-.18.65-.29.95Zm1.89-.52c-.23.05-.47.11-.72.17.06-.26.15-.62.18-.8.24-.04.47-.09.69-.14-.04.18-.11.52-.16.77Zm3.72-3.61s-.11.08-.15.11h0c-.51.38-1.09.75-1.73,1.05.3-.64.67-1.22,1.04-1.73h0c.14-.2.28-.39.43-.56.18.37.32.75.42,1.13Zm-1.81,3.11c-.27.11-.56.18-.86.25.07-.3.17-.65.24-.87.39-.15.75-.3,1.11-.49-.18.35-.34.72-.49,1.11Zm0,0c-.27.11-.56.18-.86.25.07-.3.17-.65.24-.87.39-.15.75-.3,1.11-.49-.18.35-.34.72-.49,1.11Zm1.81-3.11s-.11.08-.15.11h0c-.51.38-1.09.75-1.73,1.05.3-.64.67-1.22,1.04-1.73h0c.14-.2.28-.39.43-.56.18.37.32.75.42,1.13Zm-3.72,3.61c-.23.05-.47.11-.72.17.06-.26.15-.62.18-.8.24-.04.47-.09.69-.14-.04.18-.11.52-.16.77Zm-1.89.52c-.39.13-.8.3-1.21.52.23-.38.42-.78.58-1.19h0c.3-.12.6-.21.91-.28-.06.28-.18.65-.29.95Zm-3.06,1.87l-.15.15c-1.23,1.23-2.11,1.03-2.56.77.49-.48,1.07-.99,1.7-1.47h0c.63-.49,1.3-.96,2.03-1.35-.3.56-.62,1.28-1.03,1.91Zm7.86-7.89c-.23.2-.48.39-.75.59h0c-.51.38-1.09.75-1.73,1.05.3-.64.67-1.22,1.04-1.73h0c.23-.32.47-.62.71-.89.27.3.52.63.72.98Zm-1.27-1.53c-.27.24-.56.48-.88.71h0c-.51.38-1.09.75-1.73,1.05.3-.64.67-1.22,1.04-1.73h0c.2-.27.39-.53.59-.75.35.2.68.45.98.73ZM7.51,16c-.26-.44-.46-1.33.77-2.56l.15-.15c.63-.42,1.34-.74,1.91-1.04-.39.73-.86,1.41-1.34,2.04h0c-.49.63-.99,1.21-1.47,1.7Zm3.46-5.15h0c-.41.18-.81.37-1.19.59.22-.4.39-.81.52-1.21.3-.11.67-.23.95-.29-.07.31-.16.61-.27.91Zm4.59-5.82c-.18.15-.36.29-.56.43h0c-.51.38-1.09.75-1.73,1.05.3-.64.67-1.22,1.04-1.73h0c.04-.06.07-.11.11-.15.37.09.77.23,1.14.41Zm-4.11,3.84c-.18.03-.54.12-.8.18.07-.24.12-.49.18-.72.25-.04.58-.12.76-.15-.05.22-.1.45-.14.69Zm.49-1.83c-.23.07-.58.17-.87.24.08-.3.16-.58.26-.87.39-.15.75-.3,1.1-.48-.18.35-.34.72-.49,1.11Zm0,0c-.23.07-.58.17-.87.24.08-.3.16-.58.26-.87.39-.15.75-.3,1.1-.48-.18.35-.34.72-.49,1.11Zm-.49,1.83c-.18.03-.54.12-.8.18.07-.24.12-.49.18-.72.25-.04.58-.12.76-.15-.05.22-.1.45-.14.69Zm4.11-3.84c-.18.15-.36.29-.56.43h0c-.51.38-1.09.75-1.73,1.05.3-.64.67-1.22,1.04-1.73h0c.04-.06.07-.11.11-.15.37.09.77.23,1.14.41Zm-4.59,5.82h0c-.41.18-.81.37-1.19.59.22-.4.39-.81.52-1.21.3-.11.67-.23.95-.29-.07.31-.16.61-.27.91Zm-3.46,5.15c-.26-.44-.46-1.33.77-2.56l.15-.15c.63-.42,1.34-.74,1.91-1.04-.39.73-.86,1.41-1.34,2.04h0c-.49.63-.99,1.21-1.47,1.7Zm9.78-9.84c-.27.24-.56.48-.88.71h0c-.51.38-1.09.75-1.73,1.05.3-.64.67-1.22,1.04-1.73h0c.2-.27.39-.53.59-.75.35.2.68.45.98.73Zm1.27,1.53c-.23.2-.48.39-.75.59h0c-.51.38-1.09.75-1.73,1.05.3-.64.67-1.22,1.04-1.73h0c.23-.32.47-.62.71-.89.27.3.52.63.72.98Zm-7.86,7.89l-.15.15c-1.23,1.23-2.11,1.03-2.56.77.49-.48,1.07-.99,1.7-1.47h0c.63-.49,1.3-.96,2.03-1.35-.3.56-.62,1.28-1.03,1.91Zm3.06-1.87c-.39.13-.8.3-1.21.52.23-.38.42-.78.58-1.19h0c.3-.12.6-.21.91-.28-.06.28-.18.65-.29.95Zm1.89-.52c-.23.05-.47.11-.72.17.06-.26.15-.62.18-.8.24-.04.47-.09.69-.14-.04.18-.11.52-.16.77Zm3.72-3.61s-.11.08-.15.11h0c-.51.38-1.09.75-1.73,1.05.3-.64.67-1.22,1.04-1.73h0c.14-.2.28-.39.43-.56.18.37.32.75.42,1.13Zm-1.81,3.11c-.27.11-.56.18-.86.25.07-.3.17-.65.24-.87.39-.15.75-.3,1.11-.49-.18.35-.34.72-.49,1.11Zm0,0c-.27.11-.56.18-.86.25.07-.3.17-.65.24-.87.39-.15.75-.3,1.11-.49-.18.35-.34.72-.49,1.11Zm1.81-3.11s-.11.08-.15.11h0c-.51.38-1.09.75-1.73,1.05.3-.64.67-1.22,1.04-1.73h0c.14-.2.28-.39.43-.56.18.37.32.75.42,1.13Zm-3.72,3.61c-.23.05-.47.11-.72.17.06-.26.15-.62.18-.8.24-.04.47-.09.69-.14-.04.18-.11.52-.16.77Zm-1.89.52c-.39.13-.8.3-1.21.52.23-.38.42-.78.58-1.19h0c.3-.12.6-.21.91-.28-.06.28-.18.65-.29.95Zm-3.06,1.87l-.15.15c-1.23,1.23-2.11,1.03-2.56.77.49-.48,1.07-.99,1.7-1.47h0c.63-.49,1.3-.96,2.03-1.35-.3.56-.62,1.28-1.03,1.91Zm7.86-7.89c-.23.2-.48.39-.75.59h0c-.51.38-1.09.75-1.73,1.05.3-.64.67-1.22,1.04-1.73h0c.23-.32.47-.62.71-.89.27.3.52.63.72.98Zm-1.27-1.53c-.27.24-.56.48-.88.71h0c-.51.38-1.09.75-1.73,1.05.3-.64.67-1.22,1.04-1.73h0c.2-.27.39-.53.59-.75.35.2.68.45.98.73ZM7.51,16c-.26-.44-.46-1.33.77-2.56l.15-.15c.63-.42,1.34-.74,1.91-1.04-.39.73-.86,1.41-1.34,2.04h0c-.49.63-.99,1.21-1.47,1.7Zm3.46-5.15h0c-.41.18-.81.37-1.19.59.22-.4.39-.81.52-1.21.3-.11.67-.23.95-.29-.07.31-.16.61-.27.91Zm4.59-5.82c-.18.15-.36.29-.56.43h0c-.51.38-1.09.75-1.73,1.05.3-.64.67-1.22,1.04-1.73h0c.04-.06.07-.11.11-.15.37.09.77.23,1.14.41Zm-4.11,3.84c-.18.03-.54.12-.8.18.07-.24.12-.49.18-.72.25-.04.58-.12.76-.15-.05.22-.1.45-.14.69Zm.49-1.83c-.23.07-.58.17-.87.24.08-.3.16-.58.26-.87.39-.15.75-.3,1.1-.48-.18.35-.34.72-.49,1.11Zm0,0c-.23.07-.58.17-.87.24.08-.3.16-.58.26-.87.39-.15.75-.3,1.1-.48-.18.35-.34.72-.49,1.11Zm-.49,1.83c-.18.03-.54.12-.8.18.07-.24.12-.49.18-.72.25-.04.58-.12.76-.15-.05.22-.1.45-.14.69Zm4.11-3.84c-.18.15-.36.29-.56.43h0c-.51.38-1.09.75-1.73,1.05.3-.64.67-1.22,1.04-1.73h0c.04-.06.07-.11.11-.15.37.09.77.23,1.14.41Zm-4.59,5.82h0c-.41.18-.81.37-1.19.59.22-.4.39-.81.52-1.21.3-.11.67-.23.95-.29-.07.31-.16.61-.27.91Zm-3.46,5.15c-.26-.44-.46-1.33.77-2.56l.15-.15c.63-.42,1.34-.74,1.91-1.04-.39.73-.86,1.41-1.34,2.04h0c-.49.63-.99,1.21-1.47,1.7Zm9.78-9.84c-.27.24-.56.48-.88.71h0c-.51.38-1.09.75-1.73,1.05.3-.64.67-1.22,1.04-1.73h0c.2-.27.39-.53.59-.75.35.2.68.45.98.73Zm1.27,1.53c-.23.2-.48.39-.75.59h0c-.51.38-1.09.75-1.73,1.05.3-.64.67-1.22,1.04-1.73h0c.23-.32.47-.62.71-.89.27.3.52.63.72.98Zm-7.86,7.89l-.15.15c-1.23,1.23-2.11,1.03-2.56.77.49-.48,1.07-.99,1.7-1.47h0c.63-.49,1.3-.96,2.03-1.35-.3.56-.62,1.28-1.03,1.91Zm3.06-1.87c-.39.13-.8.3-1.21.52.23-.38.42-.78.58-1.19h0c.3-.12.6-.21.91-.28-.06.28-.18.65-.29.95Zm1.89-.52c-.23.05-.47.11-.72.17.06-.26.15-.62.18-.8.24-.04.47-.09.69-.14-.04.18-.11.52-.16.77Zm3.72-3.61s-.11.08-.15.11h0c-.51.38-1.09.75-1.73,1.05.3-.64.67-1.22,1.04-1.73h0c.14-.2.28-.39.43-.56.18.37.32.75.42,1.13Zm-1.81,3.11c-.27.11-.56.18-.86.25.07-.3.17-.65.24-.87.39-.15.75-.3,1.11-.49-.18.35-.34.72-.49,1.11Zm0,0c-.27.11-.56.18-.86.25.07-.3.17-.65.24-.87.39-.15.75-.3,1.11-.49-.18.35-.34.72-.49,1.11Zm1.81-3.11s-.11.08-.15.11h0c-.51.38-1.09.75-1.73,1.05.3-.64.67-1.22,1.04-1.73h0c.14-.2.28-.39.43-.56.18.37.32.75.42,1.13Zm-3.72,3.61c-.23.05-.47.11-.72.17.06-.26.15-.62.18-.8.24-.04.47-.09.69-.14-.04.18-.11.52-.16.77Zm-1.89.52c-.39.13-.8.3-1.21.52.23-.38.42-.78.58-1.19h0c.3-.12.6-.21.91-.28-.06.28-.18.65-.29.95Zm-3.06,1.87l-.15.15c-1.23,1.23-2.11,1.03-2.56.77.49-.48,1.07-.99,1.7-1.47h0c.63-.49,1.3-.96,2.03-1.35-.3.56-.62,1.28-1.03,1.91Zm7.86-7.89c-.23.2-.48.39-.75.59h0c-.51.38-1.09.75-1.73,1.05.3-.64.67-1.22,1.04-1.73h0c.23-.32.47-.62.71-.89.27.3.52.63.72.98Zm-1.27-1.53c-.27.24-.56.48-.88.71h0c-.51.38-1.09.75-1.73,1.05.3-.64.67-1.22,1.04-1.73h0c.2-.27.39-.53.59-.75.35.2.68.45.98.73ZM7.51,16c-.26-.44-.46-1.33.77-2.56l.15-.15c.63-.42,1.34-.74,1.91-1.04-.39.73-.86,1.41-1.34,2.04h0c-.49.63-.99,1.21-1.47,1.7Zm3.46-5.15h0c-.41.18-.81.37-1.19.59.22-.4.39-.81.52-1.21.3-.11.67-.23.95-.29-.07.31-.16.61-.27.91Zm4.59-5.82c-.18.15-.36.29-.56.43h0c-.51.38-1.09.75-1.73,1.05.3-.64.67-1.22,1.04-1.73h0c.04-.06.07-.11.11-.15.37.09.77.23,1.14.41Zm-4.11,3.84c-.18.03-.54.12-.8.18.07-.24.12-.49.18-.72.25-.04.58-.12.76-.15-.05.22-.1.45-.14.69Zm.49-1.83c-.23.07-.58.17-.87.24.08-.3.16-.58.26-.87.39-.15.75-.3,1.1-.48-.18.35-.34.72-.49,1.11Zm.71,4.3c-.31.07-.61.16-.91.27h0c-.18.44-.38.85-.61,1.25.4-.23.82-.44,1.25-.61h0c.11-.3.2-.61.27-.92Zm1.75-.35c-.22.05-.45.1-.69.14-.04.24-.1.48-.16.71.23-.06.46-.11.7-.15h0c.04-.25.09-.48.14-.7Zm-1.41-1.41c-.22.05-.45.1-.69.14h0c-.04.25-.09.48-.15.71.23-.06.47-.12.71-.16.04-.24.09-.47.14-.69Zm.84-2.25c-.35.18-.72.34-1.11.49-.09.27-.16.56-.23.85.3-.07.58-.14.85-.23.15-.39.3-.75.49-1.11Zm1.41,1.41c-.35.18-.72.34-1.11.49-.09.27-.16.56-.23.85.3-.07.58-.14.85-.23.15-.39.3-.75.49-1.11Zm1.41,1.41c-.35.18-.72.34-1.11.49-.09.27-.16.56-.23.85.3-.07.58-.14.85-.23.15-.39.3-.75.49-1.11Zm2.85.88c0-.08.01-.14.02-.22-.13.1-.25.2-.35.26,0,0-.25.57-.48,1.15.13-.07.25-.16.38-.24.32-.21.41-.74.42-.95Zm-7.48-6.11c-.08.13-.17.25-.24.38.58-.23,1.15-.48,1.15-.48.06-.09.16-.22.26-.35-.08,0-.14.01-.22.02-.21.01-.74.11-.95.42Z"/>
</svg>