<?xml version="1.0" encoding="UTF-8"?>
<svg id="Outline" xmlns="http://www.w3.org/2000/svg" viewBox="0 0 24 24">
  <defs>
    <style>
      .cls-1 {
        fill: #282a32;
        stroke-width: 0px;
      }
    </style>
  </defs>
  <path class="cls-1" d="m19.98,20c0,.55-.45,1-1,1H5.02c-.55,0-1-.45-1-1s.45-1,1-1h5.64l.77-8.2c-.25-.18-.42-.46-.42-.8,0-.55.45-1,1-1s1,.45,1,1c0,.33-.17.62-.43.8l.77,8.2h5.64c.55,0,1,.45,1,1Zm.37-8.5l-2.88,5c-.54.93-1.53,1.5-2.59,1.5h-.63l-.1-1h.73c.71,0,1.38-.38,1.73-1l2.88-5c.36-.62.36-1.38,0-2l-2.88-5c-.35-.62-1.02-1-1.73-1h-5.76c-.71,0-1.38.38-1.73,1l-2.88,5c-.36.62-.36,1.38,0,2l2.88,5c.35.62,1.02,1,1.73,1h.73l-.1,1h-.63c-1.07,0-2.05-.57-2.59-1.5l-2.88-5c-.53-.93-.53-2.07,0-3l2.88-5c.54-.93,1.53-1.5,2.59-1.5h5.76c1.07,0,2.05.57,2.59,1.5l2.88,5c.53.93.53,2.07,0,3Zm-8.36-5.5c0,1.11-.89,2-1.99,2s-1.99-.89-1.99-2,.9-2,1.99-2,1.99.9,1.99,2Zm-1,0c0-.55-.44-1-1-1s-1,.45-1,1,.45,1,1,1,1-.45,1-1Zm-.53,6c0,.35-.09.68-.25.97-.34.61-.99,1.03-1.75,1.03-1.1,0-1.99-.89-1.99-2s.9-2,1.99-2c.89,0,1.64.58,1.9,1.38.07.19.1.4.1.62Zm-1,0c0-.55-.45-1-1-1s-1,.45-1,1,.45,1,1,1,1-.45,1-1Zm8.51-2c0,1.11-.89,2-1.99,2s-1.99-.89-1.99-2c0-.41.13-.8.35-1.12-.78-.27-1.35-1.01-1.35-1.88,0-1.1.9-2,1.99-2s1.99.9,1.99,2c0,.42-.12.8-.34,1.12.78.27,1.34,1.01,1.34,1.88Zm-2.99-2c.56,0,1-.45,1-1s-.44-1-1-1-1,.45-1,1,.45,1,1,1Zm1.99,2c0-.55-.44-1-1-1s-1,.45-1,1,.45,1,1,1,1-.45,1-1Z"/>
</svg>