<?xml version="1.0" encoding="UTF-8"?>
<svg id="Outline" xmlns="http://www.w3.org/2000/svg" viewBox="0 0 24 24">
  <defs>
    <style>
      .cls-1 {
        fill: #282a32;
        stroke-width: 0px;
      }
    </style>
  </defs>
  <path class="cls-1" d="m17,4c1.65,0,3,1.35,3,3v10c0,1.65-1.35,3-3,3H7c-1.65,0-3-1.35-3-3V7c0-1.65,1.35-3,3-3h10m0-1H7c-2.21,0-4,1.79-4,4v10c0,2.21,1.79,4,4,4h10c2.21,0,4-1.79,4-4V7c0-2.21-1.79-4-4-4h0Zm-9.5,3c-.83,0-1.5.67-1.5,1.5s.67,1.5,1.5,1.5,1.5-.67,1.5-1.5-.67-1.5-1.5-1.5Zm7.56,10.89c.13-.05.19-.2.14-.33-.05-.13-.2-.19-.33-.13-.25.11-.54.09-.78-.05l-6.51-3.76c-.12-.07-.27-.03-.34.09-.07.12-.03.27.09.34l6.51,3.76c.21.12.45.19.69.19.18,0,.36-.04.53-.11Zm-6.59-7.03c-1.18-.72-2.22,1.08-1.01,1.74,0,0,9.81,5.08,9.81,5.08.55.3,1.03-.55.5-.87l-9.3-5.95h0Z"/>
</svg>