<?xml version="1.0" encoding="UTF-8"?>
<svg id="Outline" xmlns="http://www.w3.org/2000/svg" viewBox="0 0 24 24">
  <defs>
    <style>
      .cls-1 {
        fill: #282a32;
        stroke-width: 0px;
      }
    </style>
  </defs>
  <path class="cls-1" d="m12,2.5C6.75,2.5,2.5,6.75,2.5,12s4.25,9.5,9.5,9.5,9.5-4.25,9.5-9.5S17.25,2.5,12,2.5Zm7.66,5.83c.13.27-.02.59-.31.68l-2.13.69-4.72-3.43v-2.2c0-.3.26-.54.55-.5,2.92.36,5.38,2.21,6.61,4.76Zm-3.11,2.12l-1.74,5.35h-5.62l-1.74-5.35,4.55-3.3,4.55,3.3Zm-5.6-6.88c.29-.04.55.21.55.5v2.2l-4.72,3.43-2.13-.69c-.28-.09-.43-.41-.31-.68,1.23-2.55,3.69-4.4,6.61-4.76ZM3.5,12c0-.57.06-1.13.17-1.67.06-.29.37-.45.65-.36l2.15.7,1.8,5.55-1.36,1.88c-.17.24-.53.29-.74.08-1.64-1.55-2.66-3.74-2.66-6.17Zm4.21,6.69l1.37-1.88h5.84l1.37,1.88c.17.24.11.58-.15.73-1.23.69-2.64,1.09-4.14,1.09s-2.92-.4-4.14-1.09c-.26-.14-.32-.49-.15-.73Zm10.13-.52c-.22.2-.57.16-.74-.08l-1.37-1.88,1.8-5.55,2.15-.7c.28-.09.59.07.65.36.11.54.17,1.1.17,1.67,0,2.43-1.02,4.62-2.66,6.17Z"/>
</svg>