<?xml version="1.0" encoding="UTF-8"?>
<svg id="Outline" xmlns="http://www.w3.org/2000/svg" viewBox="0 0 24 24">
  <defs>
    <style>
      .cls-1 {
        fill: #282a32;
        stroke-width: 0px;
      }
    </style>
  </defs>
  <path class="cls-1" d="m12,3h0c.65,0,1.27.21,1.79.59l6.01,4.48c1.05.78,1.47,2.14,1.05,3.38l-2.23,6.53c-.41,1.21-1.55,2.03-2.83,2.03h-7.55c-1.28,0-2.42-.81-2.83-2.03l-2.23-6.53c-.42-1.24,0-2.59,1.04-3.37l6.01-4.48c.52-.39,1.14-.59,1.79-.59m0-1c-.84,0-1.68.26-2.38.79L3.61,7.27c-1.39,1.04-1.96,2.86-1.39,4.5l2.23,6.53c.55,1.62,2.07,2.7,3.78,2.7h7.55c1.71,0,3.23-1.09,3.78-2.7l2.23-6.53c.56-1.64,0-3.46-1.39-4.5l-6.01-4.48c-.71-.53-1.55-.79-2.38-.79h0Zm.5,8.4h-1v-1h3.49c.28,0,.5-.22.5-.5h0c0-.28-.22-.5-.5-.5h-3.99c-.28,0-.5.22-.5.5v2c0,.28.22.5.5.5h1.5c1.65,0,2.99,1.34,2.99,3h0c0,1.66-1.34,3-2.99,3h-3.49c-.28,0-.5.22-.5.5h0c0,.28.22.5.5.5h3.49c2.21,0,3.99-1.79,3.99-4h0c0-2.21-1.79-4-3.99-4Zm2,4c0-1.1-.89-2-2-2h-2.5c-.28,0-.5-.22-.5-.5v-4c0-.28.22-.5.5-.5h4.99c.28,0,.5-.22.5-.5h0c0-.28-.22-.5-.5-.5h-5.49c-.55,0-1,.45-1,1v5c0,.55.45,1,1,1h2.99c.55,0,1,.45,1,1h0c0,.55-.45,1-1,1h-3.49c-.28,0-.5.22-.5.5h0c0,.28.22.5.5.5h3.49c1.1,0,2-.89,2-2h0Z"/>
</svg>