<?xml version="1.0" encoding="UTF-8"?>
<svg id="Outline" xmlns="http://www.w3.org/2000/svg" viewBox="0 0 24 24">
  <defs>
    <style>
      .cls-1 {
        fill: #282a32;
        stroke-width: 0px;
      }
    </style>
  </defs>
  <path class="cls-1" d="m17,4c1.65,0,3,1.35,3,3v10c0,1.65-1.35,3-3,3H7c-1.65,0-3-1.35-3-3V7c0-1.65,1.35-3,3-3h10m0-1H7c-2.21,0-4,1.79-4,4v10c0,2.21,1.79,4,4,4h10c2.21,0,4-1.79,4-4V7c0-2.21-1.79-4-4-4h0Zm.38,8.78c-.57-.1-1.1.03-1.53.29l-.72-.72c.53-.38,1.17-.6,1.87-.6.12,0,.24,0,.36.02.22.03.43-.08.55-.26h0c.05-.09.08-.19.07-.3-.08-1.67-1.34-2.24-2.2-2.44-.28-.06-.49.27-.3.49.24.31.38.69.38,1.08,0,.24-.17.44-.4.49l-.34.07c-.17.03-.35-.02-.46-.15-.67-.72-1.32-.69-1.32-.69h-1.28c-.73,0-1.22.67-1.46,1.11-.11.21-.36.31-.59.23l-.92-.3c-.22-.07-.39-.24-.46-.47l-.13-.46c-.05-.17-.18-.3-.35-.35l-1.62-.43c-.27-.07-.55.14-.55.42,0,.39.18.76.47,1l3.66,3.05c.2.16.23.43.1.64h-1.01c-.25-1.08-1.27-1.87-2.45-1.73-1.03.12-1.86.95-1.97,1.97-.15,1.36.91,2.51,2.24,2.51,1.07,0,1.96-.75,2.19-1.75h.33l.22.54c.15.38.52.63.92.63h3.55c-.29-.49-.46-1.06-.46-1.67,0-.73.25-1.4.66-1.95l.71.71c-.25.38-.39.84-.37,1.34.05,1.19,1.05,2.15,2.25,2.15,1.3,0,2.34-1.1,2.24-2.42-.07-1.02-.85-1.87-1.86-2.05Zm-10.38,3.47c-.71,0-1.28-.59-1.25-1.3.03-.66.58-1.19,1.24-1.2.52,0,.96.31,1.15.75h-1.12c-.26,0-.49.19-.52.45-.03.3.21.55.5.55h1.15c-.19.44-.63.75-1.14.75Zm10.01,0c-.61,0-1.14-.45-1.24-1.05-.04-.25,0-.49.09-.7l.84.84c.18.18.48.21.69.05.23-.19.24-.53.04-.74l-.82-.82c.13-.04.25-.08.39-.08.69,0,1.25.56,1.25,1.25s-.56,1.25-1.24,1.25Z"/>
</svg>