<?xml version="1.0" encoding="UTF-8"?>
<svg id="Outline" xmlns="http://www.w3.org/2000/svg" viewBox="0 0 24 24">
  <defs>
    <style>
      .cls-1 {
        fill: #282a32;
        stroke-width: 0px;
      }
    </style>
  </defs>
  <path class="cls-1" d="m18.8,4c.69,0,1.33.32,1.75.87.42.55.55,1.25.37,1.92l-3.23,11.6c-.26.95-1.14,1.61-2.12,1.61H5.2c-.69,0-1.33-.32-1.75-.87-.42-.55-.55-1.25-.37-1.92l3.23-11.6c.26-.95,1.14-1.61,2.12-1.61h10.37m0-1h-10.37c-1.44,0-2.7.96-3.08,2.34l-3.23,11.6c-.57,2.04.97,4.06,3.08,4.06h10.37c1.44,0,2.7-.96,3.08-2.34l3.23-11.6c.57-2.04-.97-4.06-3.08-4.06h0Zm.2,4.68h-3.31l-2.4,8.63h3.31l2.4-8.63Zm-8.07,0l-2.41,8.64h1.61l2.39-8.64h-1.59Zm2.25,0l-2.41,8.64h1.61l2.39-8.64h-1.59s0,0,0,0Zm-5.78,0l-2.4,8.64h1l2.39-8.64h-.99Zm1.64,0l-2.4,8.64h1l2.39-8.64h-.99Z"/>
</svg>