<?xml version="1.0" encoding="UTF-8"?>
<svg id="Outline" xmlns="http://www.w3.org/2000/svg" viewBox="0 0 24 24">
  <defs>
    <style>
      .cls-1 {
        fill: #282a32;
        stroke-width: 0px;
      }
    </style>
  </defs>
  <path class="cls-1" d="m12.18,2.5c-5.39-.1-9.78,4.29-9.68,9.68.09,5.08,4.24,9.22,9.32,9.32,5.39.1,9.78-4.29,9.68-9.68-.09-5.08-4.24-9.22-9.32-9.32Zm1.8,14.37c.19-.08.4-.13.6-.13.25,0,.51.06.75.17.47.23.97.35,1.48.4.06.3.1.61.1.94,0,.12,0,.25-.02.37-.02.22-.14.42-.32.53-.58.37-1.2.67-1.86.89-.25.09-.52-.09-.53-.36-.03-.82-.1-1.81-.21-2.81Zm2.86-.53c-.37-.04-.73-.15-1.07-.32-.37-.18-.78-.28-1.19-.28s-.79.09-1.16.27c-.44.22-.93.34-1.43.34s-.99-.12-1.44-.34c-.36-.18-.75-.26-1.14-.26s-.81.1-1.18.28c-.35.17-.71.28-1.08.32-.64-.71-1.08-1.55-1.36-2.46,2,.08,4.1.12,6.21.12s4.2-.04,6.19-.12c-.27.9-.71,1.74-1.36,2.45Zm-9.76,1.91c0-.32.04-.63.1-.93.51-.05,1.02-.16,1.49-.4.24-.12.49-.17.74-.17.2,0,.41.05.6.13-.11,1.01-.17,2-.21,2.81-.01.27-.28.45-.53.36-.66-.22-1.29-.52-1.86-.89-.18-.12-.3-.31-.32-.53,0-.12-.01-.25-.01-.37Zm-1.5-5.38c-.04-.29-.08-.58-.08-.87s.04-.59.08-.87c4.11-.17,8.73-.17,12.84,0,.04.29.08.58.08.88s-.04.59-.08.88c-4.07.16-8.78.16-12.84,0Zm.22-2.76c.27-.9.71-1.74,1.35-2.45.38.04.75.15,1.08.31.37.18.79.28,1.19.28s.79-.09,1.15-.27c.44-.22.93-.34,1.43-.34s.99.12,1.42.33c.36.18.75.28,1.16.28s.82-.1,1.2-.28c.32-.16.69-.27,1.07-.31.64.71,1.08,1.55,1.35,2.45-3.99-.15-8.42-.15-12.39,0Zm4.21-2.98c-.19.08-.39.13-.59.13-.25,0-.51-.06-.75-.18-.48-.23-.98-.37-1.5-.42-.06-.3-.1-.6-.1-.91,0-.13,0-.26.02-.38.02-.21.14-.41.32-.52.58-.37,1.2-.67,1.86-.89.25-.09.52.09.53.36.03.82.1,1.8.21,2.81Zm6.9-1.38c0,.31-.04.62-.09.91-.51.05-1.03.18-1.5.42-.24.12-.5.18-.75.18-.2,0-.4-.05-.59-.13.11-1,.17-2,.21-2.81.01-.27.28-.45.53-.36.66.22,1.28.52,1.86.89.18.12.3.31.32.53.01.12.02.25.02.37Zm-3.72-1.7c-.03,1.01-.1,1.92-.19,2.73-.33-.08-.67-.13-1.01-.13s-.68.05-1.01.13c-.09-.81-.16-1.71-.19-2.72,0-.26.19-.49.45-.52.25-.02.5-.04.75-.04s.5.01.75.04c.26.03.46.25.45.52ZM3.5,12c0-2.23.87-4.26,2.28-5.78.12-.13.33-.05.34.12.03.28.07.56.14.84-1.1,1.31-1.76,2.99-1.76,4.82s.66,3.53,1.76,4.83c-.06.27-.11.55-.14.83-.02.17-.23.24-.34.12-1.41-1.52-2.28-3.55-2.28-5.78Zm7.3,7.95c.03-1.01.1-1.92.18-2.73.33.08.67.13,1.01.13s.68-.05,1.02-.13c.09.8.15,1.72.18,2.73,0,.26-.19.49-.45.52-.25.02-.49.04-.75.04s-.5-.01-.75-.04c-.26-.03-.46-.25-.45-.52Zm7.08-2.29c-.03-.28-.07-.56-.14-.83,1.1-1.3,1.76-2.99,1.76-4.82s-.66-3.51-1.76-4.82c.06-.27.11-.55.14-.84.02-.17.23-.24.34-.12,1.41,1.52,2.28,3.55,2.28,5.78s-.87,4.26-2.28,5.78c-.12.13-.33.05-.34-.12Z"/>
</svg>