<?xml version="1.0" encoding="UTF-8"?>
<svg id="Outline" xmlns="http://www.w3.org/2000/svg" viewBox="0 0 24 24">
  <defs>
    <style>
      .cls-1 {
        fill: #282a32;
        stroke-width: 0px;
      }
    </style>
  </defs>
  <path class="cls-1" d="m17,4c1.65,0,3,1.35,3,3v10c0,1.65-1.35,3-3,3H7c-1.65,0-3-1.35-3-3V7c0-1.65,1.35-3,3-3h10m0-1H7c-2.21,0-4,1.79-4,4v10c0,2.21,1.79,4,4,4h10c2.21,0,4-1.79,4-4V7c0-2.21-1.79-4-4-4h0Zm-3.5,4c0-.83.67-1.5,1.5-1.5s1.5.67,1.5,1.5-.67,1.5-1.5,1.5-1.5-.67-1.5-1.5Zm5.5,8.13c0,.76-.62,1.37-1.37,1.37h-6.63c-.29.21-.58.42-.9.6.24.13.4.37.4.65v.25h3.13c.48,0,.87-.39.87-.87,0-.14.11-.25.25-.25s.25.11.25.25c0,.76-.61,1.37-1.37,1.37H5.25c-.14,0-.25-.11-.25-.25s.11-.25.25-.25h2.25v-.25c0-.31.2-.58.47-.69,1.3-.55,4.58-4.18,5-6.09.06-.27-.15-.52-.42-.5-1.12.1-2.52.9-2.94,1.8l.49.28c.12.07.16.22.09.34-.05.08-.13.12-.22.12-.04,0-.09-.01-.12-.03l-.43-.25c-.24.35-.86.27-.91-.23,0-.1,0-.2,0-.3l-3.38-1.95c-.12-.07-.16-.22-.09-.34.07-.12.22-.16.34-.09l3.21,1.85c.85-3.21,7.58-4.68,5.98-.01,1.36.64,2.31,1.84.91,3.34h.28c.41,0,.75.34.75.75v.25h1.13c.48,0,.87-.39.87-.87,0-.14.11-.25.25-.25s.25.11.25.25Zm-5.5.87v-.25c0-.32.19-.6.48-.7.39-.13.96-.81.96-1.4,0-.39-.91-.68-.91-.68-.57,1.16-1.41,2.18-2.4,3.02h1.87Z"/>
</svg>