<?xml version="1.0" encoding="UTF-8"?>
<svg id="Outline" xmlns="http://www.w3.org/2000/svg" viewBox="0 0 24 24">
  <defs>
    <style>
      .cls-1 {
        fill: #282a32;
        stroke-width: 0px;
      }
    </style>
  </defs>
  <path class="cls-1" d="m12,10.86c.17,0,.34.04.49.13l7.26,4.03c.16.09.26.26.26.44v4.15c0,.11-.12.19-.22.13l-6.32-3.51c-.44-.25-.95-.38-1.46-.38s-1.01.13-1.46.38l-6.32,3.51c-.1.06-.22-.02-.22-.13v-4.15c0-.18.1-.35.26-.44l7.26-4.03c.15-.08.32-.13.49-.13m0-1c-.33,0-.67.08-.97.25l-7.26,4.03c-.48.26-.77.77-.77,1.31v4.75c0,.47.38.8.8.8.13,0,.26-.03.39-.1l6.84-3.8c.3-.17.64-.25.97-.25s.67.08.97.25l6.84,3.8c.13.07.26.1.39.1.42,0,.8-.33.8-.8v-4.75c0-.54-.3-1.05-.77-1.31l-7.26-4.03c-.3-.17-.64-.25-.97-.25h0Zm0-5.86c.17,0,.34.04.49.13l7.26,4.03c.16.09.26.26.26.44v1.16c0,.11-.12.19-.22.13l-6.32-3.51c-.44-.25-.95-.38-1.46-.38s-1.01.13-1.46.38l-6.32,3.51c-.1.06-.22-.02-.22-.13v-1.16c0-.18.1-.35.26-.44l7.26-4.03c.15-.08.32-.13.49-.13h0Zm0-1c-.33,0-.67.08-.97.25L3.77,7.28c-.48.26-.77.77-.77,1.31v1.93c0,.41.33.7.7.7.11,0,.23-.03.34-.09l6.99-3.88c.3-.17.64-.25.97-.25s.67.08.97.25l6.99,3.88c.11.06.23.09.34.09.37,0,.7-.29.7-.7v-1.93c0-.55-.3-1.05-.77-1.31l-7.26-4.03c-.3-.17-.64-.25-.97-.25h0Z"/>
</svg>