<?xml version="1.0" encoding="UTF-8"?>
<svg id="Outline" xmlns="http://www.w3.org/2000/svg" viewBox="0 0 24 24">
  <defs>
    <style>
      .cls-1 {
        fill: #282a32;
        stroke-width: 0px;
      }
    </style>
  </defs>
  <path class="cls-1" d="m12,2.5C6.75,2.5,2.5,6.75,2.5,12s4.25,9.5,9.5,9.5,9.5-4.25,9.5-9.5S17.25,2.5,12,2.5Zm0,18c-4.69,0-8.5-3.81-8.5-8.5S7.31,3.5,12,3.5s8.5,3.81,8.5,8.5-3.81,8.5-8.5,8.5Zm5-11.5c-1.21,0-2.22.86-2.45,2-.02,0-.03,0-.05,0s-.03,0-.05,0c-.23-1.14-1.24-2-2.45-2s-2.22.86-2.45,2c-.02,0-.03,0-.05,0s-.03,0-.05,0c-.23-1.14-1.24-2-2.45-2-1.38,0-2.5,1.12-2.5,2.5s1.12,2.5,2.5,2.5c.02,0,.03,0,.05,0,.23,1.14,1.24,2,2.45,2s2.22-.86,2.45-2c.02,0,.03,0,.05,0s.03,0,.05,0c.23,1.14,1.24,2,2.45,2s2.22-.86,2.45-2c.02,0,.03,0,.05,0,1.38,0,2.5-1.12,2.5-2.5s-1.12-2.5-2.5-2.5Zm-5,1c.73,0,1.34.53,1.47,1.23-.72.33-1.26.98-1.42,1.77-.02,0-.03,0-.05,0s-.03,0-.05,0c-.16-.79-.7-1.44-1.42-1.77.13-.7.74-1.23,1.47-1.23Zm-6.5,1.5c0-.83.67-1.5,1.5-1.5.73,0,1.34.53,1.47,1.23-.72.33-1.26.98-1.42,1.77-.02,0-.03,0-.05,0-.83,0-1.5-.67-1.5-1.5Zm4,3.5c-.73,0-1.34-.53-1.47-1.23.72-.33,1.26-.98,1.42-1.77.02,0,.03,0,.05,0s.03,0,.05,0c.16.79.7,1.44,1.42,1.77-.13.7-.74,1.23-1.47,1.23Zm5,0c-.73,0-1.34-.53-1.47-1.23.72-.33,1.26-.98,1.42-1.77.02,0,.03,0,.05,0s.03,0,.05,0c.16.79.7,1.44,1.42,1.77-.13.7-.74,1.23-1.47,1.23Zm2.5-2s-.03,0-.05,0c-.16-.79-.7-1.44-1.42-1.77.13-.7.74-1.23,1.47-1.23.83,0,1.5.67,1.5,1.5s-.67,1.5-1.5,1.5Z"/>
</svg>