<?xml version="1.0" encoding="UTF-8"?>
<svg id="Outline" xmlns="http://www.w3.org/2000/svg" viewBox="0 0 24 24">
  <defs>
    <style>
      .cls-1 {
        fill: #282a32;
        stroke-width: 0px;
      }
    </style>
  </defs>
  <path class="cls-1" d="m12,2.5C6.75,2.5,2.5,6.75,2.5,12c0,3.4,1.79,6.39,4.49,8.08l.4-.95c-2.34-1.51-3.89-4.14-3.89-7.13C3.5,7.31,7.31,3.5,12,3.5s8.5,3.81,8.5,8.5c0,2.99-1.55,5.62-3.89,7.13l.4.95c2.7-1.69,4.49-4.68,4.49-8.08,0-5.25-4.25-9.5-9.5-9.5Zm4.13,18.07c-1.25.59-2.65.93-4.13.93s-2.88-.34-4.13-.93l.62-1.47h1.25c.24-.37.22-.44.63-.48.94-.05,1.07-.17,1.07-.86,0-.63-.28-1.79-.31-2.25-.03-.58.06-.79.06-1.19s-.28-.87-.33-1.82c-.05-.95.18-1.64.18-1.64-.2-.03-.44-.17-.51-.34-.1-.24-.42-1.54-.42-2.05,0-.23.02-.41.07-.55.22-.54.88-.45,1.18-.78.09-.1.14-.1.15-.49-.15-.2-.2-.51-.2-.97,0-.38.29-.68.69-.68s.69.3.69.68c0,.46-.05.77-.2.97,0,.39.06.39.15.49.3.33.96.24,1.18.78.05.14.07.32.07.55,0,.51-.31,1.81-.41,2.05-.08.17-.32.31-.52.34,0,0,.22.69.17,1.64-.04.95-.31,1.41-.31,1.82s.07.61.05,1.19c-.03.46-.31,1.62-.31,2.25,0,.69.13.81,1.07.86.41.04.38.11.63.48h1.24l.63,1.47Z"/>
</svg>