<?xml version="1.0" encoding="UTF-8"?>
<svg id="Outline" xmlns="http://www.w3.org/2000/svg" viewBox="0 0 24 24">
  <defs>
    <style>
      .cls-1 {
        fill: #282a32;
        stroke-width: 0px;
      }
    </style>
  </defs>
  <path class="cls-1" d="m14.87,13.17l1.76-2.72c.17-.26.58-.26.74,0l1.76,2.72c.17.26-.04.58-.37.58h-3.51c-.33,0-.54-.33-.37-.58Zm-5.87-.29v-1.75c0-.48-.39-.87-.87-.87h-1.75c-.48,0-.87.39-.87.87v1.75c0,.48.39.87.87.87h1.75c.48,0,.87-.39.87-.87Zm3-2.88c-1.1,0-2,.9-2,2s.9,2,2,2,2-.9,2-2-.9-2-2-2Zm0-6.5C7.31,3.5,3.5,7.31,3.5,12s3.81,8.5,8.5,8.5,8.5-3.81,8.5-8.5S16.69,3.5,12,3.5m0-1c5.25,0,9.5,4.25,9.5,9.5s-4.25,9.5-9.5,9.5S2.5,17.25,2.5,12,6.75,2.5,12,2.5h0Z"/>
</svg>