<?xml version="1.0" encoding="UTF-8"?>
<svg id="Outline" xmlns="http://www.w3.org/2000/svg" viewBox="0 0 24 24">
  <defs>
    <style>
      .cls-1 {
        fill: #282a32;
        stroke-width: 0px;
      }
    </style>
  </defs>
  <path class="cls-1" d="m19.02,17.49c-1.11,0-2,.9-2,2s.89,2.01,2,2.01,2.01-.9,2.01-2.01-.9-2-2.01-2Zm-5.69-6.84c-.19-.19-.51-.19-.7,0-.2.2-.2.52,0,.71.19.2.51.2.7,0,.2-.19.2-.51,0-.71Zm.71-3.53c-.19-.2-.51-.2-.71,0-.19.19-.19.51,0,.71.2.19.52.19.71,0,.2-.2.2-.52,0-.71Zm.35-1.77c-.19-.19-.51-.19-.7,0-.2.2-.2.51,0,.71.19.19.51.19.7,0,.2-.2.2-.51,0-.71Zm-1.41,7.07c-.19-.19-.51-.19-.71,0-.19.2-.19.51,0,.71.2.19.52.19.71,0,.2-.2.2-.51,0-.71Zm2.12-2.12c-.19-.2-.51-.2-.71,0-.19.2-.19.51,0,.71.2.19.52.19.71,0,.2-.2.2-.51,0-.71Zm4.07-5.46c-2.12-2.12-6.31-4.08-9.93.23-.33.39-.58.78-.78,1.2-.44.81-.73,1.72-.87,2.63.34-.09.69-.04.99.13.14-.83.4-1.62.77-2.32.18-.37.39-.69.65-1,1.18-1.4,2.49-2.14,3.89-2.21,2.25-.09,4.06,1.54,4.57,2.05.49.5,2.13,2.31,2.03,4.56-.06,1.4-.8,2.71-2.21,3.89-.3.26-.64.48-1.03.68-.67.36-1.45.61-2.28.76.18.29.22.65.13.99.91-.14,1.82-.43,2.63-.87.42-.2.82-.47,1.2-.79,4.32-3.62,2.35-7.82.24-9.93Zm-3.72,3.69c-.19-.19-.51-.19-.7,0-.2.2-.2.51,0,.71.19.19.51.19.7,0,.2-.2.2-.51,0-.71Zm-.7,3.54c-.2-.2-.51-.2-.71,0-.19.19-.19.51,0,.7.2.2.51.2.71,0,.19-.19.19-.51,0-.7Zm-2.48-4.6c-.19-.19-.51-.19-.7,0-.2.2-.2.51,0,.71.19.19.51.19.7,0,.2-.2.2-.51,0-.71Zm-.7,3.54c-.2-.2-.51-.2-.71,0-.19.19-.19.51,0,.7.2.2.51.2.71,0,.19-.19.19-.51,0-.7Zm1.06-5.31c-.2-.19-.51-.19-.71,0-.19.2-.19.52,0,.71.2.2.51.2.71,0,.19-.19.19-.51,0-.71Zm-.71,3.54c-.19-.2-.51-.2-.71,0-.19.19-.19.51,0,.71.2.19.52.19.71,0,.2-.2.2-.52,0-.71Zm1.77-.35c-.2-.2-.51-.2-.71,0s-.19.51,0,.7c.2.2.51.2.71,0,.19-.19.19-.51,0-.7Zm4.59,2.47c-.2-.19-.51-.19-.71,0-.19.2-.19.51,0,.71.2.19.51.19.71,0,.19-.2.19-.51,0-.71Zm-.71-4.95c-.19-.19-.51-.19-.7,0-.2.2-.2.51,0,.71s.51.19.7,0c.2-.2.2-.51,0-.71Zm1.42,1.42c-.2-.2-.52-.2-.71,0-.2.19-.2.51,0,.7.19.2.51.2.71,0,.19-.19.19-.51,0-.7Zm-.36,1.76c-.19-.19-.51-.19-.7,0-.2.2-.2.51,0,.71.19.2.51.2.7,0,.2-.2.2-.51,0-.71Zm-1.76.36c-.2-.2-.51-.2-.71,0-.19.19-.19.51,0,.7.2.2.51.2.71,0s.19-.51,0-.7Zm-.36,1.76c-.19-.19-.51-.19-.7,0-.2.2-.2.52,0,.71.19.2.51.2.7,0,.2-.19.2-.51,0-.71Zm-.35-6.71c-.19-.2-.51-.2-.71,0-.19.19-.19.51,0,.7.2.2.52.2.71,0,.2-.19.2-.51,0-.7Zm-.35,1.77c-.2-.2-.51-.2-.71,0-.19.19-.19.51,0,.7.2.2.51.2.71,0,.19-.19.19-.51,0-.7Zm1.41,1.41c-.2-.2-.51-.2-.71,0-.19.19-.19.51,0,.71.2.19.51.19.71,0,.2-.2.2-.52,0-.71Zm-3.26,7.59c-.87-.56-2.12-1.44-3.25-2.57-.86-.87-1.69-1.92-2.47-3.15-.22-.34-.73-.19-.74.2,0,.52.01,1.03.07,1.51.25,1.88-.45,3.73-1.84,5.02l-2.86,2.67c-.48.46-.5,1.23-.02,1.71.46.46,1.22.45,1.67,0l.03-.03,2.67-2.86c1.28-1.38,3.13-2.1,5-1.84.49.06,1,.09,1.53.08.4-.02.54-.53.21-.74Zm-3.45-.47c-.45.01-.91.04-1.38.09-.31.05-.58-.22-.55-.54.07-.47.1-.92.1-1.37,0-.38.46-.54.7-.27.21.26.43.49.65.71.24.24.48.47.75.69.27.24.1.69-.27.69Z"/>
</svg>