<?xml version="1.0" encoding="UTF-8"?>
<svg id="Outline" xmlns="http://www.w3.org/2000/svg" viewBox="0 0 24 24">
  <defs>
    <style>
      .cls-1 {
        fill: #282a32;
        stroke-width: 0px;
      }
    </style>
  </defs>
  <path class="cls-1" d="m12.18,2.5c-5.39-.1-9.78,4.29-9.68,9.68.09,5.08,4.24,9.22,9.32,9.32,5.39.1,9.78-4.29,9.68-9.68-.09-5.08-4.24-9.22-9.32-9.32Zm-.18,18c-.59,0-1.16-.06-1.71-.18-1.01-.21-1.87-.86-2.35-1.77-.95-1.79-1.44-4.17-1.44-6.56,0-4.64,4.21-5,5.5-5s5.5.36,5.5,5c0,2.38-.49,4.77-1.44,6.56-.48.91-1.34,1.56-2.35,1.77-.55.12-1.13.18-1.71.18Zm5.69-2.21c-.16.14-.4-.03-.32-.22.74-1.79,1.13-3.93,1.13-6.07,0-4.42-3.36-6-6.5-6s-6.5,1.58-6.5,6c0,2.14.38,4.28,1.13,6.07.08.2-.16.37-.32.22-1.8-1.63-2.9-4-2.8-6.63.17-4.26,3.52-7.78,7.78-8.13,5.01-.41,9.21,3.55,9.21,8.47,0,2.5-1.09,4.74-2.81,6.29Z"/>
</svg>