<?xml version="1.0" encoding="UTF-8"?>
<svg id="Outline" xmlns="http://www.w3.org/2000/svg" viewBox="0 0 24 24">
  <defs>
    <style>
      .cls-1 {
        fill: #282a32;
        stroke-width: 0px;
      }
    </style>
  </defs>
  <path class="cls-1" d="m12.95,15.39h-1.9c-.13,0-.19-.15-.12-.25l.9-1.04c.1-.11.25-.11.33,0l.9,1.05c.08.09.02.25-.11.25Zm-.72-6.72c-.14-.08-.32-.08-.46,0-.71.43-2.77,1.84-2.77,3.5,0,1.91,2.08,1.91,2.77.96.12-.16.33-.16.45,0,.7.95,2.78.95,2.78-.96,0-1.65-2.08-3.07-2.77-3.5Zm9.27,3.15c.1,5.39-4.29,9.78-9.68,9.68-5.08-.09-9.22-4.24-9.32-9.32-.1-5.39,4.29-9.78,9.68-9.68,5.08.09,9.22,4.24,9.32,9.32Zm-6.01-7.56c-.25-.11-.54,0-.65.25l-.34.72c-.15.32-.05.7.24.91l1.93,1.4c.13.1.28.15.43.15.18,0,.36-.07.5-.2l.6-.56c.21-.19.21-.51.02-.71-.77-.82-1.7-1.49-2.74-1.96Zm-9.78,2.03c-.19.21-.18.52.03.71l.58.53c.14.13.32.2.5.2.15,0,.3-.05.43-.14l1.93-1.41c.29-.2.39-.58.24-.9l-.33-.73c-.12-.25-.42-.36-.67-.24-1.03.48-1.94,1.16-2.7,1.99Zm-1.09,9.92c.14.24.44.33.68.19l.66-.37c.31-.18.45-.54.34-.87l-.73-2.28c-.1-.3-.39-.51-.7-.51-.03,0-.06,0-.09,0l-.78.09c-.27.03-.47.28-.44.55.14,1.15.5,2.23,1.05,3.19Zm7.38,4.29c.59,0,1.16-.07,1.71-.18.27-.06.44-.32.39-.59l-.15-.75c-.07-.35-.37-.6-.73-.6h-2.39c-.35,0-.65.25-.72.6l-.15.77c-.05.27.12.53.39.59.53.11,1.08.17,1.65.17Zm6.14-2.62c.23-.24.17-.62-.12-.78l-.48-.27c-.72-.41-1.06-1.27-.8-2.06l.74-2.27c.23-.72.89-1.2,1.65-1.2.07,0,.13,0,.2,0l.53.06c.32.04.6-.24.55-.57-.14-1.01-.46-1.97-.93-2.83-.15-.29-.54-.35-.78-.13l-.42.39c-.32.29-.74.46-1.18.46-.37,0-.72-.12-1.02-.34l-1.93-1.4c-.67-.49-.9-1.38-.56-2.13l.22-.48c.14-.3-.04-.65-.36-.7-.47-.08-.96-.13-1.45-.13-.53,0-1.05.05-1.55.15-.32.06-.49.41-.36.7l.23.51c.34.75.11,1.65-.56,2.13l-1.93,1.41c-.3.21-.65.33-1.02.33-.44,0-.86-.17-1.18-.46l-.37-.35c-.24-.22-.63-.16-.78.13-.46.87-.77,1.82-.9,2.83-.04.32.23.6.56.56l.53-.06c.07,0,.14,0,.21,0,.75,0,1.41.48,1.65,1.2l.73,2.28c.26.78-.08,1.64-.8,2.05l-.43.24c-.29.16-.35.55-.12.78.69.71,1.51,1.3,2.41,1.73.29.14.64-.04.71-.36l.1-.52c.16-.81.88-1.4,1.7-1.4h2.39c.83,0,1.55.59,1.71,1.4l.1.5c.06.32.41.5.71.35.9-.44,1.71-1.04,2.4-1.75Zm1.86-5.48l-.79-.09s-.05,0-.08,0c-.32,0-.6.2-.7.51l-.74,2.27c-.11.34.03.7.34.87l.7.39c.24.14.55.05.68-.2.54-.97.9-2.05,1.03-3.2.03-.27-.17-.51-.44-.55Z"/>
</svg>