<?xml version="1.0" encoding="UTF-8"?>
<svg id="Outline" xmlns="http://www.w3.org/2000/svg" viewBox="0 0 24 24">
  <defs>
    <style>
      .cls-1 {
        fill: #282a32;
        stroke-width: 0px;
      }
    </style>
  </defs>
  <path class="cls-1" d="m18,6h-.5v-.88c0-.57-.31-1.09-.82-1.34l-1.69-.84c-.03-.52-.46-.94-.99-.94s-1,.45-1,1,.45,1,1,1c.2,0,.38-.07.54-.17l1.69.84c.17.09.27.26.27.45v.88H7.5v-.88c0-.19.11-.36.28-.45l1.69-.84c.16.1.33.17.53.17.56,0,1-.45,1-1s-.44-1-1-1c-.52,0-.95.42-.98.94l-1.69.84c-.51.25-.83.77-.83,1.34v.88h-.5c-.55,0-1,.45-1,1v3c0,.55.45,1,1,1h12c.56,0,1-.45,1-1v-3c0-.55-.44-1-1-1Zm0,4H6v-3h12v3Zm0,10c0,.55-.45,1-1,1H7c-.55,0-1-.45-1-1s.45-1,1-1h10c.55,0,1,.45,1,1Zm-10-2l-1-6h1.02l1,6h-1.02Zm9-6l-1,6h-1.01l1-6h1.01Z"/>
</svg>