<?xml version="1.0" encoding="UTF-8"?>
<svg id="Outline" xmlns="http://www.w3.org/2000/svg" viewBox="0 0 24 24">
  <defs>
    <style>
      .cls-1 {
        fill: #282a32;
        stroke-width: 0px;
      }
    </style>
  </defs>
  <path class="cls-1" d="m12,3.5c4.69,0,8.5,3.81,8.5,8.5s-3.81,8.5-8.5,8.5S3.5,16.69,3.5,12,7.31,3.5,12,3.5m0-1C6.75,2.5,2.5,6.75,2.5,12s4.25,9.5,9.5,9.5,9.5-4.25,9.5-9.5S17.25,2.5,12,2.5h0Zm-.49,8.76c.14.06.31.09.49.09.17,0,.33-.03.47-.09.15-.07.26-.15.34-.26.08-.1.12-.23.12-.37,0-.15-.04-.27-.11-.38-.08-.11-.19-.19-.34-.25-.14-.06-.3-.09-.48-.09s-.35.03-.49.09-.25.14-.33.25c-.08.11-.12.23-.12.38,0,.14.04.27.12.38s.19.19.33.25Zm1.03,1.28c-.16-.06-.34-.1-.54-.1s-.38.04-.55.1c-.16.07-.29.16-.38.28-.09.12-.14.27-.14.45,0,.17.05.32.14.44.09.13.22.22.38.29.17.06.35.1.55.1s.38-.04.54-.1c.15-.07.28-.16.37-.29.1-.12.15-.27.15-.44,0-.18-.05-.33-.15-.45-.09-.12-.22-.21-.37-.28Zm-.54-5.54c-2.76,0-5,2.24-5,5s2.24,5,5,5,5-2.24,5-5-2.24-5-5-5Zm2.45,7.27c-.21.3-.51.54-.92.72-.4.17-.92.26-1.53.26-.47,0-.87-.05-1.22-.16-.34-.1-.63-.24-.85-.43-.23-.18-.4-.39-.51-.63-.11-.24-.17-.49-.17-.76,0-.34.09-.63.26-.88s.39-.45.65-.59c-.22-.14-.39-.31-.5-.52-.12-.2-.17-.45-.17-.72,0-.34.09-.64.27-.91.18-.28.45-.49.82-.65.37-.17.84-.25,1.42-.25s1.03.08,1.4.24.64.38.82.65.27.57.27.91c0,.27-.06.51-.17.72-.11.22-.27.39-.49.53.28.14.51.33.67.59.17.26.25.55.25.88,0,.37-.1.7-.3,1Z"/>
</svg>