<?xml version="1.0" encoding="UTF-8"?>
<svg id="Outline" xmlns="http://www.w3.org/2000/svg" viewBox="0 0 24 24">
  <defs>
    <style>
      .cls-1 {
        fill: #282a32;
        stroke-width: 0px;
      }
    </style>
  </defs>
  <path class="cls-1" d="m10.51,10.92c-.02.25-.21.45-.46.46-.53.03-1.45.01-1.99-.42-.5-.39-.56-1.05-.54-1.48.02-.25.21-.45.47-.47.53-.03,1.45-.01,1.98.43.51.4.57,1.05.54,1.48Zm5.51-1.91c-.53-.03-1.46-.01-2,.43-.5.4-.56,1.05-.53,1.48,0,.25.21.45.46.46.53.03,1.45.01,1.99-.42.5-.39.56-1.05.54-1.48,0-.25-.21-.45-.46-.47Zm-2.2,9.49h-3.64c-.68,0-1.19-.67-.95-1.3.44-1.18,1.51-1.7,2.77-1.7s2.33.52,2.78,1.7c.23.63-.28,1.3-.96,1.3Zm-3.43-12.02c-.14-.14-.06-.38.14-.41l.77-.12c.06,0,.11-.04.14-.1l.34-.71c.09-.18.35-.18.44,0l.34.71c.03.06.08.1.14.1l.78.12c.19.03.27.27.13.41l-.56.57c-.05.04-.07.1-.06.16l.14.79c.03.2-.18.35-.35.26l-.69-.37c-.06-.03-.12-.03-.18,0l-.69.37c-.17.09-.38-.06-.35-.26l.14-.79c0-.06-.01-.12-.06-.16l-.56-.57Zm1.61,6.02c.83,0,1.5.45,1.5,1s-.67,1-1.5,1-1.49-.45-1.49-1,.66-1,1.49-1Zm7.7-2.72l-.68,5.26c-.13,1.05-.49,2.05-1.04,2.94-.55.9-1.29,1.69-2.17,2.32-1.13.8-2.48,1.2-3.81,1.2s-2.68-.4-3.81-1.2c-1.77-1.26-2.93-3.16-3.21-5.26l-.68-5.27c-.46-3.59,2.32-6.77,5.93-6.77h3.54c3.61,0,6.4,3.19,5.93,6.78Zm-2.18-4.08c-.95-1.08-2.32-1.7-3.75-1.7h-3.54c-1.43,0-2.79.62-3.74,1.7-.95,1.08-1.38,2.52-1.2,3.94l.68,5.27c.05.4.15.79.28,1.17l1.92-1.92c.19-.2.51-.2.7,0,.2.19.2.51,0,.71l-2.2,2.21c.49.94,1.2,1.77,2.1,2.41.92.65,2.07,1.01,3.23,1.01s2.31-.36,3.23-1.01c.78-.56,1.42-1.24,1.9-2.03.08-.12.14-.25.21-.38l-2.22-2.22c-.19-.19-.19-.5,0-.69l.02-.02c.19-.19.5-.19.69,0l1.93,1.94c.12-.38.22-.77.27-1.17l.68-5.27c.19-1.43-.25-2.87-1.19-3.95Zm-2.74,11.5c.23.63-.28,1.3-.96,1.3h-3.64c-.68,0-1.19-.67-.95-1.3.44-1.18,1.51-1.7,2.77-1.7s2.33.52,2.78,1.7Zm-4.39-10.72c-.14-.14-.06-.38.14-.41l.77-.12c.06,0,.11-.04.14-.1l.34-.71c.09-.18.35-.18.44,0l.34.71c.03.06.08.1.14.1l.78.12c.19.03.27.27.13.41l-.56.57c-.05.04-.07.1-.06.16l.14.79c.03.2-.18.35-.35.26l-.69-.37c-.06-.03-.12-.03-.18,0l-.69.37c-.17.09-.38-.06-.35-.26l.14-.79c0-.06-.01-.12-.06-.16l-.56-.57Zm1.61,6.02c.83,0,1.5.45,1.5,1s-.67,1-1.5,1-1.49-.45-1.49-1,.66-1,1.49-1Zm1.82,6h-3.64c-.68,0-1.19-.67-.95-1.3.44-1.18,1.51-1.7,2.77-1.7s2.33.52,2.78,1.7c.23.63-.28,1.3-.96,1.3Zm-.32-5c0,.55-.67,1-1.5,1s-1.49-.45-1.49-1,.66-1,1.49-1,1.5.45,1.5,1Zm-.45-6.45c-.05.04-.07.1-.06.16l.14.79c.03.2-.18.35-.35.26l-.69-.37c-.06-.03-.12-.03-.18,0l-.69.37c-.17.09-.38-.06-.35-.26l.14-.79c0-.06-.01-.12-.06-.16l-.56-.57c-.14-.14-.06-.38.14-.41l.77-.12c.06,0,.11-.04.14-.1l.34-.71c.09-.18.35-.18.44,0l.34.71c.03.06.08.1.14.1l.78.12c.19.03.27.27.13.41l-.56.57Z"/>
</svg>