<?xml version="1.0" encoding="UTF-8"?>
<svg id="Outline" xmlns="http://www.w3.org/2000/svg" viewBox="0 0 24 24">
  <defs>
    <style>
      .cls-1 {
        fill: #282a32;
        stroke-width: 0px;
      }
    </style>
  </defs>
  <path class="cls-1" d="m11.26,17.46c-2.39-.06-1.81-1.17-4.3-2.02-.35-.12-.77-.2-1.21-.21-.86-.02-1.82.19-2.53.72-.11.08-.18.21-.18.35h0c0,.34.34.56.65.41.86-.41,1.53-.49,2.04-.47.33,0,.65.07.9.15.93.31,1.3.64,1.71.99.71.62,1.33,1.05,2.9,1.09,1.14.03,2.14.55,3.3,1.17,1.38.73,3.23,1.69,5.96,1.86.29.02.53-.2.54-.49h0c0-.27-.2-.49-.46-.51-4.16-.29-6.38-2.96-9.31-3.04Zm10.48-4.46c-.82-1.2-2.36-2.55-4.84-3.45-.18-1.44-1.55-3.06-2.34-3.89-.33-.35-.74-.62-1.2-.78-3.19-1.1-6.04-1.64-7.54-1.87-.09-.01-.18-.02-.27-.02-.58,0-1.13.29-1.47.79l-1.84,2.76c-.34.51-.33,1.18.03,1.68l1.3,1.82c-.07.12-.13.25-.17.38-.57,1.54.24,3.26,1.79,3.82.33.12.68.18,1.03.18.9,0,1.74-.41,2.3-1.07l4.58,1.63c0,.44.08.88.27,1.29.34.72.94,1.27,1.69,1.54.33.12.68.18,1.03.18.92,0,1.77-.42,2.33-1.11l.41.15c1.04.37,2.18-.16,2.56-1.19l.52-1.43c.17-.47.12-1-.16-1.41Zm-15.52.43c-.23,0-.46-.04-.68-.12-1.04-.38-1.57-1.51-1.2-2.55.3-.81,1.06-1.31,1.88-1.31.23,0,.46.04.68.12,1.04.38,1.57,1.51,1.2,2.55-.3.81-1.06,1.31-1.88,1.31Zm9.87,3.57c-.23,0-.46-.04-.68-.12-1.04-.38-1.57-1.51-1.2-2.55.3-.81,1.06-1.31,1.88-1.31.23,0,.46.04.68.12,1.04.38,1.57,1.51,1.2,2.55-.3.81-1.06,1.31-1.88,1.31Zm4.87-2.93l-.52,1.42c-.19.51-.76.78-1.28.6l-.25-.09c.54-1.53-.26-3.23-1.8-3.78-.33-.12-.68-.18-1.03-.18-1.25,0-2.38.78-2.82,1.95l-4.24-1.51s0,0,0-.01c.27-.75.24-1.56-.1-2.28-.34-.72-.94-1.27-1.69-1.54-.33-.12-.68-.18-1.03-.18-.75,0-1.46.29-2,.77l-1.13-1.58c-.12-.17-.12-.39,0-.56l1.84-2.76c.14-.22.38-.34.63-.34.04,0,.08,0,.12,0,1.39.22,4.18.74,7.31,1.81.33.11.63.3.87.55,1.2,1.25,1.97,2.49,2.07,3.32l.07.6.58.21c2.62.95,3.85,2.33,4.36,3.07.1.14.11.33.05.52Zm-6.22-4.82c.08.24-.15.46-.39.37-.86-.32-2.69-.98-4.49-1.64-.3-.11-.42-.46-.25-.73l.51-.81c.16-.26.47-.39.76-.31.57.15,1.19.33,1.82.55.29.11.56.29.76.52.39.44,1.02,1.23,1.28,2.04Z"/>
</svg>