<?xml version="1.0" encoding="UTF-8"?>
<svg id="Outline" xmlns="http://www.w3.org/2000/svg" viewBox="0 0 24 24">
  <defs>
    <style>
      .cls-1 {
        fill: #282a32;
        stroke-width: 0px;
      }
    </style>
  </defs>
  <path class="cls-1" d="m12,3.5c4.69,0,8.5,3.81,8.5,8.5s-3.81,8.5-8.5,8.5S3.5,16.69,3.5,12,7.31,3.5,12,3.5m0-1C6.75,2.5,2.5,6.75,2.5,12s4.25,9.5,9.5,9.5,9.5-4.25,9.5-9.5S17.25,2.5,12,2.5h0Zm0,7c1.38,0,2.5,1.12,2.5,2.5s-1.12,2.5-2.5,2.5-2.5-1.12-2.5-2.5,1.12-2.5,2.5-2.5m0-1c-1.93,0-3.5,1.57-3.5,3.5s1.57,3.5,3.5,3.5,3.5-1.57,3.5-3.5-1.57-3.5-3.5-3.5h0Zm-6,2.25c-.69,0-1.25.56-1.25,1.25s.56,1.25,1.25,1.25,1.25-.56,1.25-1.25-.56-1.25-1.25-1.25Zm12,0c-.69,0-1.25.56-1.25,1.25s.56,1.25,1.25,1.25,1.25-.56,1.25-1.25-.56-1.25-1.25-1.25Zm-10.08,5.82c-.35.6-.14,1.36.46,1.71s1.36.14,1.71-.46.14-1.36-.46-1.71-1.36-.14-1.71.46Zm6-10.39c-.35.6-.14,1.36.46,1.71s1.36.14,1.71-.46.14-1.36-.46-1.71-1.36-.14-1.71.46Zm0,11.64c.35.6,1.11.8,1.71.46s.8-1.11.46-1.71-1.11-.8-1.71-.46-.8,1.11-.46,1.71ZM7.92,7.43c.35.6,1.11.8,1.71.46s.8-1.11.46-1.71-1.11-.8-1.71-.46-.8,1.11-.46,1.71Z"/>
</svg>