<?xml version="1.0" encoding="UTF-8"?>
<svg id="Outline" xmlns="http://www.w3.org/2000/svg" viewBox="0 0 24 24">
  <defs>
    <style>
      .cls-1 {
        fill: #282a32;
        stroke-width: 0px;
      }
    </style>
  </defs>
  <path class="cls-1" d="m6.53,6.53c-4.29,4.29-5.32,10.21-2.29,13.24,3.02,3.02,8.94,2,13.24-2.29,4.29-4.29,5.32-10.21,2.29-13.24-3.02-3.02-8.94-2-13.24,2.29Zm13.79.68c.72,2.8-.58,6.58-3.55,9.55-2.97,2.97-6.76,4.27-9.55,3.55-.19-.05-.22-.32-.03-.38,2.12-.69,4.91-2.56,7.55-5.2,2.64-2.64,4.5-5.44,5.2-7.55.06-.19.33-.16.38.03Zm-6.28,6.82c-4.57,4.57-8.4,5.72-9.09,5.03-.55-.55.08-3.12,2.71-6.47l.25.25c.19.19.51.19.71,0s.19-.51,0-.71l-1.06-1.06c-.2-.2-.51-.2-.71,0s-.2.51,0,.71l.1.1c-1.4,1.78-2.41,3.51-2.88,4.93-.06.19-.33.16-.38-.03-.72-2.79.58-6.58,3.55-9.55,2.97-2.97,6.76-4.27,9.55-3.55.19.05.22.32.03.38-1.42.47-3.15,1.47-4.93,2.88l-.1-.1c-.2-.2-.51-.2-.71,0s-.2.51,0,.71l1.06,1.06c.19.19.51.19.71,0s.19-.51,0-.71l-.25-.25c3.34-2.62,5.92-3.26,6.47-2.71.69.69-.46,4.52-5.03,9.09Zm-5.26-4.55l1.06,1.06c.2.2.2.51,0,.71s-.51.2-.71,0l-1.06-1.06c-.19-.19-.19-.51,0-.71s.51-.19.71,0Zm1.41-1.41l1.06,1.06c.2.2.2.51,0,.71s-.51.2-.71,0l-1.06-1.06c-.19-.19-.19-.51,0-.71s.51-.19.71,0Z"/>
</svg>