<?xml version="1.0" encoding="UTF-8"?>
<svg id="Outline" xmlns="http://www.w3.org/2000/svg" viewBox="0 0 24 24">
  <defs>
    <style>
      .cls-1 {
        fill: #282a32;
        stroke-width: 0px;
      }
    </style>
  </defs>
  <path class="cls-1" d="m15.21,8.86c.17.2.14.5-.05.69l-.69.69.34.34c.18.18.21.48.05.69-.19.23-.53.24-.74.04l-.35-.35-1.06,1.06.34.34c.18.18.21.48.05.68-.19.23-.53.24-.74.04l-.35-.35-1.06,1.06.34.34c.18.18.21.48.05.68-.19.23-.53.24-.74.04l-.35-.35-.69.69c-.18.18-.48.21-.69.05-.23-.19-.24-.53-.04-.74l.71-.71-.34-.34c-.18-.18-.21-.48-.05-.68.19-.23.53-.24.74-.04l.35.35,1.06-1.06-.34-.34c-.18-.18-.21-.48-.05-.68.19-.23.53-.24.74-.04l.35.35,1.06-1.06-.34-.34c-.18-.18-.21-.48-.05-.69.19-.23.53-.24.74-.04l.35.35.71-.71c.21-.21.55-.19.74.04Zm2.26,8.61c-4.29,4.29-10.22,5.32-13.24,2.29-3.02-3.02-1.99-8.95,2.29-13.24,4.29-4.29,10.22-5.32,13.24-2.29s1.99,8.95-2.29,13.24Zm-7.85,2.63c-1.15-.63-2.26-1.44-3.27-2.45-1.01-1.01-1.83-2.12-2.45-3.26-.09-.17-.35-.12-.37.08-.17,1.81.27,3.46,1.41,4.6,1.14,1.14,2.79,1.59,4.61,1.41.19-.02.25-.28.08-.37Zm9.79-9.65c-.6-1.19-1.42-2.34-2.47-3.39s-2.21-1.87-3.4-2.47c-.81-.41-1.78-.43-2.6-.03-1.29.63-2.56,1.52-3.71,2.67-1.15,1.15-2.05,2.42-2.67,3.71-.4.82-.38,1.79.03,2.6.6,1.19,1.42,2.34,2.47,3.39s2.21,1.87,3.4,2.47c.81.41,1.78.43,2.6.03,1.29-.63,2.56-1.52,3.71-2.67s2.05-2.42,2.67-3.71c.4-.82.38-1.79-.03-2.6Zm1.06-.9c.18-1.82-.27-3.47-1.41-4.61-1.14-1.14-2.79-1.59-4.61-1.41-.19.02-.25.28-.08.37,1.15.63,2.26,1.44,3.27,2.45,1.01,1.01,1.83,2.13,2.45,3.27.09.17.35.12.37-.08Z"/>
</svg>