<?xml version="1.0" encoding="UTF-8"?>
<svg id="Outline" xmlns="http://www.w3.org/2000/svg" viewBox="0 0 24 24">
  <defs>
    <style>
      .cls-1 {
        fill: #282a32;
        stroke-width: 0px;
      }
    </style>
  </defs>
  <path class="cls-1" d="m11.82,2.54s-.11-.04-.16-.04c-.22,0-.39.24-.28.46,1.04,2.08,3.07,7.06.84,10.53h1.16c1.47-2.84.75-6.31-.16-8.8,4.75,3.51,5.01,6.96,4.69,8.8h1.01c.36-2.43-.21-6.83-7.1-10.96Zm-1.14,1.52c-.1,0-.2.04-.26.14l-5.74,9.3h1.19l4.13-6.7v6.7h1V4.38c0-.2-.16-.32-.32-.32Zm11.26,14.39c-.13-.25-.43-.34-.68-.21-.64.35-1.4.35-2.05,0l-1.59-.86c-.94-.5-2.06-.5-3,0l-1.59.86c-.65.35-1.41.35-2.05,0l-1.6-.86c-.94-.5-2.06-.5-3,0l-1.59.86c-.64.35-1.41.35-2.05,0-.24-.13-.55-.04-.68.21-.13.24-.04.54.2.67.94.51,2.06.51,3,0l1.6-.86c.64-.34,1.41-.34,2.05,0l1.59.86c.94.51,2.06.51,3,0l1.6-.86c.64-.34,1.4-.34,2.05,0l1.59.86c.47.26.98.38,1.5.38s1.03-.12,1.5-.38c.24-.13.33-.43.2-.67Zm0,1.99c-.13-.24-.43-.33-.68-.2-.64.35-1.4.35-2.05,0l-1.59-.86c-.94-.5-2.06-.5-3,0l-1.59.86c-.65.35-1.41.35-2.05,0l-1.6-.86c-.94-.5-2.06-.5-3,0l-1.59.86c-.64.35-1.41.35-2.05,0-.24-.13-.55-.04-.68.2-.13.25-.04.55.2.68.94.51,2.06.51,3,0l1.6-.86c.64-.34,1.41-.34,2.05,0l1.59.86c.94.51,2.06.51,3,0l1.6-.86c.64-.34,1.4-.34,2.05,0l1.59.86c.47.26.98.38,1.5.38s1.03-.12,1.5-.38c.24-.13.33-.43.2-.68Zm-.94-5.94H3c-.41,0-.65.47-.4.8l1.51,2.01c.24-.03.46-.11.68-.22l.29-.15-1.08-1.44h16l-1.08,1.44.29.15c.21.11.44.19.68.22l1.51-2.01c.25-.33.01-.8-.4-.8Z"/>
</svg>