<?xml version="1.0" encoding="UTF-8"?>
<svg id="Outline" xmlns="http://www.w3.org/2000/svg" viewBox="0 0 24 24">
  <defs>
    <style>
      .cls-1 {
        fill: #282a32;
        stroke-width: 0px;
      }
    </style>
  </defs>
  <path class="cls-1" d="m12.18,2.5c-5.39-.1-9.78,4.29-9.68,9.68.09,5.08,4.24,9.22,9.32,9.32,5.39.1,9.78-4.29,9.68-9.68-.09-5.08-4.24-9.22-9.32-9.32Zm8.32,9.5c0,1.67-.49,3.23-1.33,4.55-.14.23-.49.17-.55-.09-.05-.23-.11-.46-.16-.69.65-1.11,1.04-2.39,1.04-3.77,0-2.17-.93-4.11-2.39-5.48.14-.09.27-.18.41-.26.29-.17.66-.11.88.15,1.31,1.5,2.1,3.45,2.1,5.59Zm-17,0c0-.26.02-.51.04-.76.02-.21.24-.33.42-.24.84.38,1.82.71,2.9.95-.43.97-.79,1.95-1.08,2.91-.58-.16-1.13-.35-1.66-.56-.22-.08-.38-.27-.43-.5-.13-.58-.2-1.18-.2-1.81Zm8.23-6.48c1.56,1.47,3.54,4.82,3.96,5.68-1.03.16-2.17.26-3.39.27-.66-1.18-2.07-3.35-3.8-4.93.94-.61,2.04-.98,3.23-1.03Zm6.61,5.05c-.5.17-1.03.32-1.62.44-.47-.97-.98-1.89-1.54-2.76.37-.42.75-.78,1.12-1.11,1,.89,1.73,2.07,2.03,3.42Zm-.58,4.4c-1.77.41-4.34.71-6.84.65.24-.66,1.22-2.77,1.41-3.14.67.03,4.27-.21,6.15-.91.09,1.27-.25,2.51-.72,3.4Zm-3.16-7.55c-.6-.86-1.23-1.65-1.9-2.37.38-.38.78-.72,1.18-1.03.18-.14.42-.19.64-.12.83.26,1.61.64,2.32,1.13.17.12.17.39-.01.5-.73.45-1.48,1.09-2.22,1.9Zm-6.9-.26c.38.33.77.7,1.15,1.13-.56.86-1.08,1.77-1.55,2.73-.58-.12-1.11-.27-1.61-.43.3-1.35,1.02-2.53,2.01-3.42Zm1.82,1.92c.67.86,1.32,1.85,1.91,2.92-.51,1.02-1.51,3.06-2.2,5.86-1.06-.51-1.96-1.29-2.61-2.26.56-2.53,2.12-5.46,2.9-6.52Zm1.06,7.54c.47.03.94.05,1.42.05s.96-.02,1.43-.05c.17.55.31,1.07.42,1.58-.59.18-1.21.3-1.85.3s-1.26-.1-1.85-.28c.12-.52.25-1.05.43-1.61Zm3.86-.08c1.07-.1,2.1-.27,3.08-.49.15.56.26,1.1.36,1.65.04.24-.04.48-.22.64-.63.57-1.35,1.04-2.14,1.39-.18.08-.39-.03-.42-.23-.13-.93-.34-1.93-.66-2.96Zm-2.44-13.04s.1,0,.14,0c.27,0,.4.34.2.52-.17.16-.34.32-.49.48-3.47.07-6.35,2.48-7.13,5.73-.12-.05-.24-.1-.36-.16-.33-.15-.5-.52-.38-.87,1.16-3.32,4.31-5.71,8.02-5.71Zm-7.11,12.12c.23.08.47.15.7.21,1.31,2.19,3.67,3.67,6.41,3.67.71,0,1.4-.12,2.05-.31.02.13.04.25.06.38.05.37-.19.72-.55.78-.5.1-1.02.15-1.55.15-3.22,0-6.02-1.8-7.47-4.45-.13-.24.1-.52.36-.43Z"/>
</svg>