<?xml version="1.0" encoding="UTF-8"?>
<svg id="Outline" xmlns="http://www.w3.org/2000/svg" viewBox="0 0 24 24">
  <defs>
    <style>
      .cls-1 {
        fill: #282a32;
        stroke-width: 0px;
      }
    </style>
  </defs>
  <path class="cls-1" d="m2.5,6v-2.05c0-.8.65-1.45,1.45-1.45h2.05c.28,0,.5.22.5.5s-.22.5-.5.5h-2.05c-.24,0-.45.21-.45.45v2.05c0,.28-.22.5-.5.5s-.5-.22-.5-.5Zm18.5,11.5c-.28,0-.5.22-.5.5v2.05c0,.25-.2.45-.45.45h-2.05c-.28,0-.5.22-.5.5s.22.5.5.5h2.05c.8,0,1.45-.65,1.45-1.45v-2.05c0-.28-.22-.5-.5-.5Zm-15,3h-2.05c-.25,0-.45-.2-.45-.45v-2.05c0-.28-.22-.5-.5-.5s-.5.22-.5.5v2.05c0,.8.65,1.45,1.45,1.45h2.05c.28,0,.5-.22.5-.5s-.22-.5-.5-.5ZM18,3.5h2.05c.25,0,.45.2.45.45v2.05c0,.28.22.5.5.5s.5-.22.5-.5v-2.05c0-.8-.65-1.45-1.45-1.45h-2.05c-.28,0-.5.22-.5.5s.22.5.5.5Zm4,8.5c0,.28-.22.5-.5.5h-1.52c-.25,4.02-3.46,7.23-7.48,7.48v1.52c0,.28-.22.5-.5.5s-.5-.22-.5-.5v-1.52c-4.02-.25-7.23-3.46-7.47-7.48h-1.53c-.27,0-.5-.22-.5-.5s.23-.5.5-.5h1.53c.25-4.02,3.46-7.22,7.47-7.47v-1.53c0-.27.23-.5.5-.5s.5.23.5.5v1.53c4.02.25,7.23,3.46,7.48,7.47h1.52c.28,0,.5.23.5.5Zm-3,0c0-3.86-3.14-7-7-7s-7,3.14-7,7,3.14,7,7,7,7-3.14,7-7Zm-2,0c0,2.76-2.24,5-5,5s-5-2.24-5-5,2.24-5,5-5,5,2.24,5,5Zm-1,0c0-2.21-1.79-4-4-4s-4,1.79-4,4,1.79,4,4,4,4-1.79,4-4Zm-4-2c-1.1,0-2,.9-2,2s.9,2,2,2,2-.9,2-2-.9-2-2-2Z"/>
</svg>