<?xml version="1.0" encoding="UTF-8"?>
<svg id="Outline" xmlns="http://www.w3.org/2000/svg" viewBox="0 0 24 24">
  <defs>
    <style>
      .cls-1 {
        fill: #282a32;
        stroke-width: 0px;
      }
    </style>
  </defs>
  <path class="cls-1" d="m18,8c0,.83-.67,1.5-1.5,1.5s-1.5-.67-1.5-1.5.67-1.5,1.5-1.5,1.5.67,1.5,1.5Zm-1-4H7c-1.65,0-3,1.35-3,3v10c0,1.65,1.35,3,3,3h10c1.65,0,3-1.35,3-3V7c0-1.65-1.35-3-3-3m0-1c2.21,0,4,1.79,4,4v10c0,2.21-1.79,4-4,4H7c-2.21,0-4-1.79-4-4V7c0-2.21,1.79-4,4-4h10Zm-.95,8.18c-1.1-2.91-4.7-3.76-7.39-2.81-.61.18-.39,1.12.24,1,1.35-.29,2.62-.21,3.67.22-.81.46-2.35,1.37-2.68,1.75-.41.4-.33,1.23-.27,1.65.13.9-1.12,1.89-2.01,2.61-.23-.03-.47.03-.65.21-.2.2-.26.49-.19.75l-.68.48c-.12.08-.14.24-.06.36.05.07.13.11.21.11.05,0,.1-.02.15-.05l.68-.48c.3.21.71.2.98-.07.12-.12.17-.26.2-.42.87-.56,1.72-1.17,2.38-2.03.37-.39.57-1.24.53-1.85,1.76.5,2.77,1.58.93,2.76-.26-.08-.56-.03-.77.18-.2.2-.26.49-.19.75l-.68.48c-.12.08-.14.24-.06.36.05.07.13.11.21.11.05,0,.1-.02.15-.05l.68-.48c.3.21.71.2.98-.07.09-.1.15-.21.18-.33.38-.21.76-.45,1.1-.81,1.38-1.48.4-2.94-.97-3.81.59-.27,1.22-.54,1.69-.75.62.78,1,1.8,1.05,3.06.02.25.22.46.48.48.28.02.53-.2.55-.48.06-.93-.06-1.9-.43-2.82Z"/>
</svg>