<?xml version="1.0" encoding="UTF-8"?>
<svg id="Outline" xmlns="http://www.w3.org/2000/svg" viewBox="0 0 24 24">
  <defs>
    <style>
      .cls-1 {
        fill: #282a32;
        stroke-width: 0px;
      }
    </style>
  </defs>
  <path class="cls-1" d="m17,4c1.65,0,3,1.35,3,3v10c0,1.65-1.35,3-3,3H7c-1.65,0-3-1.35-3-3V7c0-1.65,1.35-3,3-3h10m0-1H7c-2.21,0-4,1.79-4,4v10c0,2.21,1.79,4,4,4h10c2.21,0,4-1.79,4-4V7c0-2.21-1.79-4-4-4h0Zm-1.14,15.06c-.12.2-.31.35-.53.41-.23.06-.46.03-.66-.09l-.85-.49c.36-.23.5-.82,0-1.1l-1.32-.75s1.51-.83,2.08-1.27c.55-.43.7-1.38-.09-1.74-2.47-1.53-3.99-5.97-4.01-7.34,0-.28-.19-.53-.47-.64-.37-.13-.78.06-.91.42l-.49,1.32c-.14.36.06.77.43.9.19.07.39.05.56-.03.16,1.24.55,2.23,1.09,3.36-1.37-.89-3.1-2.26-3.29-3.26-.06-.33-.11-.67-.44-.79-.37-.13-.78.06-.91.42l-.49,1.32c-.13.36.06.77.43.9.37.13.77-.05.91-.41,1.23,2.32,3.43,4.03,5.83,5.2-.01,0-.02.01-.03.02-.45.31-.82.4-1.28.86-.27.32-.31.75-.19,1.13l-3.74-2.15c-.12-.07-.27-.03-.34.09-.07.12-.03.27.09.34l7.18,4.13c.21.12.45.18.69.18.12,0,.24-.02.36-.05.35-.09.65-.32.84-.64.07-.12.03-.27-.09-.34-.12-.07-.27-.03-.34.09Zm1.14-4.56c-.83,0-1.5.67-1.5,1.5s.67,1.5,1.5,1.5,1.5-.67,1.5-1.5-.67-1.5-1.5-1.5Z"/>
</svg>