<?xml version="1.0" encoding="UTF-8"?>
<svg id="Outline" xmlns="http://www.w3.org/2000/svg" viewBox="0 0 24 24">
  <defs>
    <style>
      .cls-1 {
        fill: #282a32;
        stroke-width: 0px;
      }
    </style>
  </defs>
  <path class="cls-1" d="m17,4c1.65,0,3,1.35,3,3v10c0,1.65-1.35,3-3,3H7c-1.65,0-3-1.35-3-3V7c0-1.65,1.35-3,3-3h10m0-1H7c-2.21,0-4,1.79-4,4v10c0,2.21,1.79,4,4,4h10c2.21,0,4-1.79,4-4V7c0-2.21-1.79-4-4-4h0Zm1.51,5.86c0,.83-.67,1.5-1.5,1.5s-1.5-.67-1.5-1.5.67-1.5,1.5-1.5,1.5.67,1.5,1.5Zm.22,3.64l-1.03-.6c.49-.25.25-.89-.31-.73-1.19.27-2.21-.37-2.36-1.76-.08-.71-.92-1.27-1.82-1.39-.76-.1-1.51-.12-2.26-.02l-3.93-2.27c-.12-.07-.27-.03-.34.09-.07.12-.03.27.09.34l3.43,1.98c-.13.03-.26.06-.4.1-.94.3-1.27,1.25-.6,1.84.53.46,1.62.77,2.18,1.05,0,0-1.42,1.2-2.17,1.39-.4.1-.68.2-.83.47l-.14.25-2.74-1.58c-.12-.07-.27-.03-.34.09-.07.12-.03.27.09.34l10.41,6.01c.21.12.45.18.68.18.12,0,.24-.02.36-.05.35-.09.65-.32.83-.64.07-.12.03-.27-.09-.34s-.27-.03-.34.09c-.12.2-.3.35-.53.41-.23.06-.46.03-.66-.09l-5.07-2.93.14-.25c.21-.36.08-.82-.27-1.02l-.52-.3c.87-.41,2.69-1.08,2.69-2,0-.75-.69-1.24-1.03-1.42.47-.01,1.31,0,1.83.03.12,1.68,1.89,2.56,3.36,2.32l1.44.83s.08.03.12.03c.09,0,.17-.04.22-.12.07-.12.03-.27-.09-.34Z"/>
</svg>