<?xml version="1.0" encoding="UTF-8"?>
<svg id="Outline" xmlns="http://www.w3.org/2000/svg" viewBox="0 0 24 24">
  <defs>
    <style>
      .cls-1 {
        fill: #282a32;
        stroke-width: 0px;
      }
    </style>
  </defs>
  <path class="cls-1" d="m17,4c1.65,0,3,1.35,3,3v10c0,1.65-1.35,3-3,3H7c-1.65,0-3-1.35-3-3V7c0-1.65,1.35-3,3-3h10m0-1H7c-2.21,0-4,1.79-4,4v10c0,2.21,1.79,4,4,4h10c2.21,0,4-1.79,4-4V7c0-2.21-1.79-4-4-4h0Zm-.13,2.5c-.83,0-1.5.67-1.5,1.5s.67,1.5,1.5,1.5,1.5-.67,1.5-1.5-.67-1.5-1.5-1.5Zm1.8,3.75c-.14-.01-.26.09-.27.22-.03.28-.19.53-.43.67l-7.82,4.51-.15-.21c-.2-.35-.66-.48-1.01-.28.45-.71.96-1.39,1.53-2,1.13-1.22,2.48-2.19,3.95-2.96.9-.37.77-1.94-.65-1.75-2.27.3-4.52.65-6.75,1.23-.55.13-.45,1,.12.99,1.22.01,2.42-.04,3.62-.12-1.96,1.75-2.89,3.44-3.8,6-.14.44.05.75.21.79l-1.99,1.15c-.12.07-.16.22-.09.34.05.08.13.12.22.12.04,0,.08-.01.12-.03l12.73-7.35c.38-.22.64-.61.68-1.05.01-.14-.09-.26-.22-.27Z"/>
</svg>