<?xml version="1.0" encoding="UTF-8"?>
<svg id="Outline" xmlns="http://www.w3.org/2000/svg" viewBox="0 0 24 24">
  <defs>
    <style>
      .cls-1 {
        fill: #282a32;
        stroke-width: 0px;
      }
    </style>
  </defs>
  <path class="cls-1" d="m17,4c1.65,0,3,1.35,3,3v10c0,1.65-1.35,3-3,3H7c-1.65,0-3-1.35-3-3V7c0-1.65,1.35-3,3-3h10m0-1H7c-2.21,0-4,1.79-4,4v10c0,2.21,1.79,4,4,4h10c2.21,0,4-1.79,4-4V7c0-2.21-1.79-4-4-4h0Zm-2.53,3.28c-.53.63-.45,1.58.18,2.11s1.58.45,2.11-.18.45-1.58-.18-2.11-1.58-.45-2.11.18Zm3.78,2.75c-1.72,1.3-2.86.9-4.37-.52-1.71-1.58-3.54-2.3-5.58-.82l-2.82-1.63c-.12-.07-.27-.03-.34.09-.07.12-.03.27.09.34l2.67,1.54c-.23.39.21.96.69.68.08-.06.16-.1.24-.14l.68.39s.08.03.12.03c.09,0,.17-.04.22-.12.07-.12.03-.27-.09-.34l-.4-.23c.99-.4,1.86-.2,2.72.39-.36.22-1.57.95-1.84,1.13-1.11.75-.98,2.26.19,2.62.34.13,1.05.4,1.58.6-2.46,1.67-3.08,1.64-3.29,2-.05.08-.14.23-.14.23l-3.23-1.86c-.12-.07-.27-.03-.34.09-.07.12-.03.27.09.34l8.69,5.02c.18.1.37.15.56.15.39,0,.76-.2.97-.56.07-.12.03-.27-.09-.34-.12-.07-.27-.03-.34.09-.17.3-.55.4-.85.23l-2.84-1.64s.08-.16.11-.24c.17-.4.08-.82-.27-1.02l-.59-.34c.8-.26,2.4-1.11,2.75-1.32,1.04-.64,1.02-1.49.39-1.88-.24-.15-1.7-.86-1.7-.86.44-.25,1.26-.72,1.83-1.05.7.54,1.65.83,2.63.83.49,0,1.03-.18,1.51-.42v7.28c0,.14.11.25.25.25s.25-.11.25-.25v-7.56c.19-.12.36-.24.48-.35.5-.37-.08-1.17-.58-.8Z"/>
</svg>