<?xml version="1.0" encoding="UTF-8"?>
<svg id="Outline" xmlns="http://www.w3.org/2000/svg" viewBox="0 0 24 24">
  <defs>
    <style>
      .cls-1 {
        fill: #282a32;
        stroke-width: 0px;
      }
    </style>
  </defs>
  <path class="cls-1" d="m20.87,13.74l-5.09-9.03c-.83-1.48-2.3-2.21-3.78-2.21s-2.95.73-3.78,2.21L3.14,13.74c-1.83,3.24.51,7.26,4.22,7.26h9.29c3.72,0,6.05-4.02,4.23-7.26Zm-.9,4.34c-.7,1.2-1.94,1.92-3.33,1.92H7.35c-1.38,0-2.63-.72-3.33-1.92-.7-1.2-.71-2.64-.02-3.85l5.08-9.03c.61-1.07,1.69-1.7,2.91-1.7s2.31.63,2.91,1.7l5.09,9.03c.68,1.21.67,2.65-.03,3.85Zm-3.59-4.68c-.1,0-.19.02-.29.03.36-.45.59-1.01.59-1.63,0-1.43-1.17-2.6-2.59-2.6-.02,0-.05,0-.07,0,.35-.44.57-1,.57-1.61,0-1.43-1.16-2.6-2.59-2.6s-2.59,1.17-2.59,2.6c0,.61.22,1.17.57,1.61-.02,0-.04,0-.07,0-1.42,0-2.59,1.17-2.59,2.6,0,.62.23,1.18.59,1.63-.09-.01-.19-.03-.29-.03-1.43,0-2.59,1.17-2.59,2.6s1.17,2.6,2.59,2.6c.93,0,1.73-.49,2.19-1.23.46.74,1.27,1.23,2.19,1.23s1.73-.49,2.19-1.23c.46.74,1.27,1.23,2.19,1.23,1.43,0,2.59-1.16,2.59-2.6s-1.17-2.6-2.59-2.6Zm-4.38-7.4c.89,0,1.59.72,1.59,1.6s-.71,1.6-1.59,1.6-1.59-.71-1.59-1.6.72-1.6,1.59-1.6Zm-4.38,11.6c-.88,0-1.59-.71-1.59-1.6s.72-1.6,1.59-1.6,1.59.72,1.59,1.6-.71,1.6-1.59,1.6Zm2.29-4.2c-.88,0-1.59-.71-1.59-1.6s.72-1.6,1.59-1.6,1.58.71,1.59,1.58v.04c0,.88-.72,1.58-1.59,1.58Zm2.09,4.2c-.88,0-1.59-.71-1.59-1.6s.72-1.6,1.59-1.6,1.59.72,1.59,1.6-.71,1.6-1.59,1.6Zm2.09-4.2c-.88,0-1.58-.7-1.59-1.58v-.04c.01-.87.72-1.58,1.59-1.58s1.59.72,1.59,1.6-.72,1.6-1.59,1.6Zm2.29,4.2c-.88,0-1.59-.71-1.59-1.6s.72-1.6,1.59-1.6,1.59.72,1.59,1.6-.71,1.6-1.59,1.6Z"/>
</svg>