<?xml version="1.0" encoding="UTF-8"?>
<svg id="Outline" xmlns="http://www.w3.org/2000/svg" viewBox="0 0 24 24">
  <defs>
    <style>
      .cls-1 {
        fill: #282a32;
        stroke-width: 0px;
      }
    </style>
  </defs>
  <path class="cls-1" d="m17,4c1.65,0,3,1.35,3,3v10c0,1.65-1.35,3-3,3H7c-1.65,0-3-1.35-3-3V7c0-1.65,1.35-3,3-3h10m0-1H7c-2.21,0-4,1.79-4,4v10c0,2.21,1.79,4,4,4h10c2.21,0,4-1.79,4-4V7c0-2.21-1.79-4-4-4h0Zm-.11,5.77c-.12-.07-.27-.03-.33.09-.07.12-.03.27.09.34.17.1.29.25.34.44.05.19.02.39-.07.55l-.39.67-.29-.17c-.36-.21-.82-.08-1.02.27l-.29.5c-1.2-.97-2.83-1.18-4.32-.79.14-.16.55-.56.89-.88,1.54.57,3.43.28,4.59-.91.44-.41-.17-1.13-.65-.76-2.35,1.63-5.47.32-5.54-2.64-.01-.26-.22-.47-.48-.48-1.03.03-.36,2.33-.04,2.94.12.26.28.48.45.69-.61.56-1.24,1.23-1.6,2.18-.18.55-.39,1.21-.05,1.74.31.54,1.08.72,1.61.43.69.66,1.76,1.67,2.22,3.62.07.29.08.61.36.77l.32.19-.34.6c-.2.35-.64.47-.99.27-.12-.07-.27-.03-.33.09-.07.12-.03.27.09.34.19.11.4.16.6.16.42,0,.83-.22,1.05-.61l4.56-7.96c.33-.58.14-1.33-.44-1.67Zm-3.27,6.43c-.29-.17-.63-.11-.87.1-.3-1.1-.77-2.3-1.49-3.15,1.13-.42,2.72.05,3.72.71.06.04.18.11.29.19l-1.34,2.33-.31-.18Zm-1.05-7.2c.83,0,1.5-.67,1.5-1.5s-.67-1.5-1.5-1.5-1.5.67-1.5,1.5.67,1.5,1.5,1.5Z"/>
</svg>