<?xml version="1.0" encoding="UTF-8"?>
<svg id="Outline" xmlns="http://www.w3.org/2000/svg" viewBox="0 0 24 24">
  <defs>
    <style>
      .cls-1 {
        fill: #282a32;
        stroke-width: 0px;
      }
    </style>
  </defs>
  <path class="cls-1" d="m10.39,2.55c-4.19.28-7.56,3.65-7.84,7.84-.04.53-.05,1.07-.05,1.61s.02,1.07.05,1.61c.28,4.19,3.65,7.56,7.84,7.84,1.07.07,2.14.07,3.21,0,4.19-.28,7.56-3.65,7.84-7.84.04-.53.05-1.07.05-1.61s-.02-1.07-.05-1.6c-.28-4.19-3.65-7.56-7.84-7.84-1.07-.07-2.14-.07-3.21,0Zm3.14,17.89c-1.02.07-2.06.07-3.08,0-1.66-.11-3.18-.78-4.36-1.81-.27-.24-.27-.66,0-.9.43-.38.9-.73,1.4-1.02h0c0,.22.13.41.33.48.35.11.67-.14.67-.47v-.5c.93-.4,1.94-.64,3-.7v.45c0,.26.19.49.45.52.3.03.55-.21.55-.5v-.47c1.06.06,2.07.3,3,.7v.48c0,.26.19.49.45.52.3.03.55-.21.55-.5h0c.5.29.97.63,1.4,1.01.27.24.27.66,0,.9-1.19,1.04-2.7,1.7-4.37,1.82Zm6.91-9.99c.03.51.05,1.03.05,1.54s-.02,1.03-.05,1.54c-.08,1.18-.44,2.29-1.02,3.26-.19.32-.63.4-.91.15-.61-.53-1.29-.99-2.02-1.36v-.84c0-.26-.19-.49-.45-.52-.3-.03-.55.2-.55.5v.42c-.94-.36-1.95-.57-3-.62v-.51c0-.26-.19-.49-.45-.52-.3-.03-.55.2-.55.5v.53c-1.05.05-2.06.27-3,.63v-.4c0-.26-.19-.49-.45-.52-.3-.03-.55.2-.55.5v.87c-.73.37-1.4.83-2.01,1.36-.28.25-.72.18-.91-.15-.58-.97-.94-2.08-1.02-3.27-.03-.51-.05-1.03-.05-1.54s.02-1.03.05-1.54c.08-1.19.44-2.29,1.02-3.26.19-.32.63-.4.91-.15.61.53,1.29.99,2.02,1.36v.84c0,.26.19.49.45.52.3.03.55-.21.55-.5v-.42c.94.36,1.95.57,3,.62v.5c0,.26.19.49.45.52.3.03.55-.21.55-.5v-.53c1.05-.05,2.06-.27,3-.62v.4c0,.26.19.49.45.52.3.03.55-.21.55-.5v-.87c.73-.37,1.4-.83,2.01-1.36.28-.25.72-.18.91.15.58.97.94,2.08,1.02,3.26Zm-6.91-6.91c1.66.11,3.18.78,4.36,1.82.27.24.27.66,0,.9-.43.38-.9.73-1.4,1.02h0c0-.22-.13-.41-.33-.48-.35-.11-.67.14-.67.47v.5c-.93.4-1.94.64-3,.7v-.45c0-.26-.19-.49-.45-.52-.3-.03-.55.2-.55.5v.47c-1.06-.06-2.07-.3-3-.7v-.48c0-.26-.19-.49-.45-.52-.3-.03-.55.2-.55.5h0c-.5-.28-.97-.63-1.4-1.01-.27-.24-.27-.66,0-.89,1.19-1.04,2.7-1.7,4.37-1.82,1.02-.07,2.05-.07,3.08,0Z"/>
</svg>