<?xml version="1.0" encoding="UTF-8"?>
<svg id="Outline" xmlns="http://www.w3.org/2000/svg" viewBox="0 0 24 24">
  <defs>
    <style>
      .cls-1 {
        fill: #282a32;
        stroke-width: 0px;
      }
    </style>
  </defs>
  <path class="cls-1" d="m8.85,15.21c-.41.48-1,.79-1.68.79-1.2,0-2.17-.98-2.17-2.18,0-.44.13-.84.35-1.18,1.01.16,1.78.98,2.4,1.73.3.37.68.65,1.1.83Zm10.15-1.39c0,1.2-.97,2.18-2.17,2.18s-2.17-.97-2.17-2.18c0-.78.42-1.46,1.04-1.85l-.6-1.65c-1.26.12-1.94,1.48-2.35,2.21-.68,1.22-.98,1.94-2.36,1.94h-.4c-.58,0-1.13-.26-1.5-.72-.63-.75-1.6-1.87-3.05-2.08-.21-.03-.32-.27-.2-.45l.4-.6c.18-.27.48-.43.8-.43h3.76c.26,0,.5-.1.68-.28l.59-.59c.18-.18.43-.28.68-.28h2.47l-.51-1.4c-.09-.25.04-.53.29-.62.25-.09.53.04.62.29l1.58,4.35c.07,0,.14-.02.22-.02,1.2,0,2.17.97,2.17,2.18Zm-.97,0c0-.62-.47-1.11-1.07-1.18l.38,1.04c.09.25-.04.53-.29.62-.25.09-.53-.04-.62-.29l-.4-1.09c-.25.22-.42.54-.42.9,0,.67.54,1.21,1.21,1.21s1.21-.54,1.21-1.21Zm2.97-6.82v10c0,2.21-1.79,4-4,4H7c-2.21,0-4-1.79-4-4V7c0-2.21,1.79-4,4-4h10c2.21,0,4,1.79,4,4Zm-1,0c0-1.65-1.34-3-3-3H7c-1.65,0-3,1.35-3,3v10c0,1.66,1.35,3,3,3h10c1.66,0,3-1.34,3-3V7Z"/>
</svg>