<?xml version="1.0" encoding="UTF-8"?>
<svg id="Outline" xmlns="http://www.w3.org/2000/svg" viewBox="0 0 24 24">
  <defs>
    <style>
      .cls-1 {
        fill: #282a32;
        stroke-width: 0px;
      }
    </style>
  </defs>
  <path class="cls-1" d="m14.34,3.25c.54,0,1.17.33,1.36,1.06.26,1.02,1.18,1.73,2.24,1.73h.21c.46,0,.88.22,1.14.61.28.4.33.89.16,1.35-.1.27-.15.55-.15.82,0,.79.39,1.52,1.05,1.96.42.28.65.72.65,1.21s-.24.94-.65,1.21c-.65.44-1.05,1.17-1.05,1.96,0,.27.05.55.15.83.06.17.1.35.1.53,0,.68-.53,1.42-1.39,1.42h-.08s-.03,0-.03,0h-.09c-1.07,0-2,.72-2.26,1.74-.2.74-.83,1.07-1.36,1.07-.32,0-.62-.11-.87-.31-.41-.35-.94-.54-1.47-.54s-1.06.19-1.47.53c-.25.21-.55.32-.87.32-.54,0-1.17-.33-1.36-1.06-.26-1.03-1.19-1.74-2.25-1.74h-.2c-.46,0-.88-.22-1.14-.6-.28-.4-.33-.89-.16-1.35.1-.27.15-.55.15-.82,0-.79-.39-1.52-1.05-1.96-.42-.28-.65-.72-.65-1.21s.24-.94.66-1.21c.65-.44,1.04-1.17,1.04-1.96,0-.27-.05-.55-.15-.83-.06-.17-.1-.35-.1-.53,0-.79.64-1.43,1.42-1.43h.12s.08,0,.08,0c1.05,0,1.96-.71,2.23-1.73.19-.73.84-1.07,1.36-1.07.32,0,.62.11.88.33.41.33.93.51,1.46.51s1.04-.18,1.46-.52c.26-.21.56-.32.88-.32m0-1c-.52,0-1.05.17-1.51.55-.24.19-.54.29-.83.29s-.59-.1-.83-.29c-.45-.37-.98-.55-1.51-.55-1.03,0-2.03.68-2.33,1.81-.15.58-.67.98-1.26.98h-.08s-.08,0-.12,0c-1.38,0-2.42,1.14-2.42,2.43,0,.29.05.59.16.88.06.16.09.32.09.48,0,.45-.22.87-.6,1.12-.73.49-1.1,1.27-1.1,2.04s.37,1.56,1.1,2.05c.38.25.6.68.6,1.12,0,.15-.03.31-.09.48-.6,1.6.56,3.3,2.24,3.3h.2c.6,0,1.13.41,1.28.99.3,1.14,1.3,1.81,2.33,1.81.52,0,1.05-.17,1.51-.55.24-.2.54-.3.83-.3s.59.1.83.3c.46.37.99.55,1.51.55,1.04,0,2.03-.68,2.33-1.81.15-.59.68-.99,1.29-.99h.06s.09,0,.14,0c1.36,0,2.39-1.14,2.39-2.42,0-.29-.05-.59-.16-.88-.06-.16-.09-.32-.09-.48,0-.45.22-.87.6-1.12.73-.49,1.1-1.27,1.1-2.05s-.37-1.56-1.1-2.04c-.38-.25-.6-.68-.6-1.12,0-.15.03-.31.09-.48.61-1.61-.57-3.31-2.24-3.31h-.21c-.6,0-1.12-.4-1.27-.98-.3-1.13-1.29-1.81-2.33-1.81h0Zm-2.34,4.75c2.76,0,5,2.24,5,5s-2.24,5-5,5-5-2.24-5-5,2.24-5,5-5m0-1c-3.31,0-6,2.69-6,6s2.69,6,6,6,6-2.69,6-6-2.69-6-6-6h0Zm2.68,5.48c.24-.24.1-.64-.23-.69l-1.28-.2c-.1-.02-.2-.08-.24-.17l-.57-1.19c-.15-.31-.59-.31-.73,0l-.57,1.19c-.05.09-.13.16-.24.17l-1.28.2c-.33.05-.47.46-.23.69l.94.94c.07.08.1.18.09.28l-.22,1.32c-.05.34.29.59.58.44l1.15-.62c.09-.05.2-.05.29,0l1.14.62c.3.15.64-.1.58-.44l-.22-1.32c-.02-.1.02-.2.09-.28l.94-.94Z"/>
</svg>