<?xml version="1.0" encoding="UTF-8"?>
<svg id="Outline" xmlns="http://www.w3.org/2000/svg" viewBox="0 0 24 24">
  <defs>
    <style>
      .cls-1 {
        fill: #282a32;
        stroke-width: 0px;
      }
    </style>
  </defs>
  <path class="cls-1" d="m19,9.12c0,.83-.67,1.5-1.5,1.5s-1.5-.67-1.5-1.5.67-1.5,1.5-1.5,1.5.67,1.5,1.5Zm-3.86.46c-.79-.56-3.22-2.03-4.19-2.62-.23-.14-.53-.07-.68.15h0c-.16.23-.1.54.12.7l2.5,1.77c-1.29,0-1.8.43-2.25,1.36-.53,1.1-2.1,1.46-3.14.79-.25-.16-.56-.22-.84-.06-.32.19-1.3.75-1.3.75-.36.21-.48.67-.27,1.02s.67.48,1.02.27l1.45-.84c1.69.74,3.5.31,4.44-1.2.32.43.35.76.14,1.11-.47.67-1.44,1.38-2.31,1.95-.24.16-.34.38-.34.6-.01.43.35.78.78.78h1.45c.4,0,.75-.3.78-.69s-.26-.72-.63-.78c1.45-.88,2.1-2.08,1.63-3.25l1.09.07c1.12.04,1.4-1.29.55-1.89Zm-2.7,7.29h0c0-.14-.11-.25-.25-.25h-2.5c-.14,0-.25.11-.25.25h0c0,.14.11.25.25.25h2.5c.14,0,.25-.11.25-.25Zm4.55-12.87c1.65,0,3,1.35,3,3v10c0,1.65-1.35,3-3,3H7c-1.65,0-3-1.35-3-3V7c0-1.65,1.35-3,3-3h10m0-1H7c-2.21,0-4,1.79-4,4v10c0,2.21,1.79,4,4,4h10c2.21,0,4-1.79,4-4V7c0-2.21-1.79-4-4-4h0Z"/>
</svg>