<?xml version="1.0" encoding="UTF-8"?>
<svg id="Outline" xmlns="http://www.w3.org/2000/svg" viewBox="0 0 24 24">
  <defs>
    <style>
      .cls-1 {
        fill: #282a32;
        stroke-width: 0px;
      }
    </style>
  </defs>
  <path class="cls-1" d="m21.46,19.01c-.2-2.02-1.09-3.6-2.33-4.78.86-.93,1.37-2.04,1.37-3.23,0-2.29-1.83-4.29-4.51-5.3-.02.33-.09.66-.18.99,2.21.87,3.69,2.48,3.69,4.31,0,.74-.25,1.45-.69,2.09-.26.38-.84.24-.92-.21-.14-.77-.43-1.49-.86-2.15-.15-.23-.46-.3-.69-.15-.23.15-.3.46-.15.69.35.54.58,1.14.7,1.77.08.44-.1.87-.49,1.09-.79.45-2.36.87-4.4.87s-3.63-.42-4.42-.88c-.38-.22-.56-.66-.47-1.09.12-.62.35-1.21.7-1.75.15-.23.09-.54-.15-.69-.23-.15-.54-.08-.69.15-.43.66-.72,1.38-.86,2.15-.09.45-.65.58-.92.21-.44-.64-.69-1.34-.69-2.09,0-1.83,1.48-3.43,3.69-4.3-.09-.33-.16-.67-.18-1-2.68,1.01-4.51,3.01-4.51,5.3,0,1.2.51,2.3,1.36,3.23-1.23,1.19-2.11,2.76-2.32,4.78-.19,1.82.38,2.49,1.13,2.49.69,0,1.53-.56,2.07-1.32.65-.91,1.41-1.42,2.25-1.73,1.07.96,2.47,1.55,4.01,1.55s2.95-.59,4.01-1.55c.85.31,1.6.82,2.25,1.73.54.76,1.38,1.32,2.07,1.32.75,0,1.32-.67,1.13-2.49Zm-16.54.59c-.42.59-1,.9-1.27.91-.06-.06-.23-.45-.13-1.4.17-1.65,1.04-3.3,2.5-4.54.11,1.16.55,2.22,1.23,3.1-.85.38-1.64.96-2.33,1.93Zm7.96-.68c-2.79.49-5.26-1.36-5.79-3.91,1.15.65,3.03.99,4.9.99s3.75-.34,4.9-.99h0c-.39,1.99-2.03,3.58-4.01,3.92Zm7.44,1.58c-.26,0-.84-.31-1.26-.9-.69-.97-1.48-1.55-2.33-1.93.68-.88,1.13-1.95,1.23-3.13,1.47,1.25,2.33,2.91,2.5,4.57.1.95-.07,1.34-.14,1.39Zm-8.33-11.5c1.66,0,3-1.94,3-3.6,0-1.21-.72-1.93-1.76-2.23.16-.12.25-.26.25-.42,0-.41-.67-.75-1.5-.75s-1.5.34-1.5.75c0,.15.09.3.25.42-1.03.3-1.76,1.02-1.76,2.23,0,1.66,1.35,3.6,3,3.6Zm0-5c.91,0,2,.24,2,1.4s-.97,2.6-2,2.6-2-1.47-2-2.6,1.09-1.4,2-1.4Z"/>
</svg>