<?xml version="1.0" encoding="UTF-8"?>
<svg id="Outline" xmlns="http://www.w3.org/2000/svg" viewBox="0 0 24 24">
  <defs>
    <style>
      .cls-1 {
        fill: #282a32;
        stroke-width: 0px;
      }
    </style>
  </defs>
  <path class="cls-1" d="m19.59,4.41c-2.74-2.74-7.24-2.45-10.29.37-1.57,1.46-2.39,2.84-2.65,4.16.34-.07.69,0,.98.21.2-1.04.86-2.25,2.35-3.63,2.7-2.5,6.62-2.67,8.9-.4,2.28,2.28,2.1,6.19-.4,8.9-1.39,1.5-2.6,2.16-3.64,2.35.21.28.28.64.22.99,1.31-.26,2.7-1.08,4.16-2.65,2.82-3.05,3.11-7.55.37-10.29Zm-12.5,5.59l6.9,6.91c.2.2.04.54-.24.52-.68-.05-1.34-.24-1.97-.53-1.22-.58-2.67-.35-3.59.65l-3.26,3.55c-.57.55-1.47.55-2.03-.01s-.56-1.45-.01-2.03l3.55-3.26c1-.91,1.22-2.36.65-3.59-.3-.63-.49-1.29-.53-1.97-.02-.28.32-.44.52-.24Zm13.93,9.49c0,1.11-.9,2.01-2.01,2.01s-2.01-.9-2.01-2.01.9-2.01,2.01-2.01,2.01.9,2.01,2.01Z"/>
</svg>