<?xml version="1.0" encoding="UTF-8"?>
<svg id="Outline" xmlns="http://www.w3.org/2000/svg" viewBox="0 0 24 24">
  <defs>
    <style>
      .cls-1 {
        fill: #282a32;
        stroke-width: 0px;
      }
    </style>
  </defs>
  <path class="cls-1" d="m14.34,10h-4.67l.67-2h3.33l.67,2Zm-2.34,3.99c-.83,0-1.5.67-1.5,1.5s.67,1.5,1.5,1.5,1.5-.67,1.5-1.5-.67-1.5-1.5-1.5m0-1c1.38,0,2.5,1.12,2.5,2.5s-1.12,2.5-2.5,2.5-2.5-1.12-2.5-2.5,1.12-2.5,2.5-2.5h0Zm6-9.5c-.55,0-1,.45-1,1s.45,1,1,1,1-.45,1-1-.45-1-1-1m0-1c1.1,0,2,.9,2,2s-.89,2-2,2-2-.9-2-2,.89-2,2-2h0Zm-11.99,1c-.55,0-1,.45-1,1s.45,1,1,1,1-.45,1-1-.45-1-1-1m0-1c1.1,0,2,.9,2,2s-.89,2-2,2-2-.9-2-2,.89-2,2-2h0Zm2.08,9.27l-.34,5.57c-.02.36.27.66.63.66s.63.28.63.63v1.74c0,.35-.28.63-.63.63H3.65c-.35,0-.64-.28-.64-.63v-1.74c0-.35.29-.63.64-.63s.64-.3.62-.66l-.33-5.57-1.37-4.1c-.24-.72.19-1.44.87-1.62.23.38.55.7.92.95h-.59c-.11,0-.18.06-.22.11-.03.04-.07.13-.03.24l1.21,3.65h2.56l1.21-3.65c.03-.11,0-.2-.04-.24-.04-.05-.11-.11-.22-.11h-.58c.37-.25.68-.57.91-.95.69.18,1.11.9.87,1.62l-1.36,4.1Zm-.9,6.72c-.3-.33-.46-.77-.44-1.21l.32-5.28h-2.11l.31,5.28c.03.44-.13.88-.44,1.21-.22.23-.51.4-.82.47v1.04h4v-1.04c-.31-.07-.6-.24-.82-.47Zm12.89-6.72l-.34,5.57c-.02.36.27.66.63.66s.63.28.63.63v1.74c0,.35-.28.63-.63.63h-4.73c-.35,0-.64-.28-.64-.63v-1.74c0-.35.29-.63.64-.63s.64-.3.62-.66l-.33-5.57-1.37-4.1c-.24-.72.19-1.44.87-1.62.23.38.55.7.92.95h-.59c-.11,0-.18.06-.22.11-.03.04-.07.13-.03.24l1.21,3.65h2.56l1.21-3.65c.03-.11,0-.2-.04-.24-.04-.05-.11-.11-.22-.11h-.58c.37-.25.68-.57.91-.95.69.18,1.11.9.87,1.62l-1.36,4.1Zm-.9,6.72c-.3-.33-.46-.77-.44-1.21l.32-5.28h-2.11l.31,5.28c.03.44-.13.88-.44,1.21-.22.23-.51.4-.82.47v1.04h4v-1.04c-.31-.07-.6-.24-.82-.47Z"/>
</svg>