<?xml version="1.0" encoding="UTF-8"?>
<svg id="Outline" xmlns="http://www.w3.org/2000/svg" viewBox="0 0 24 24">
  <defs>
    <style>
      .cls-1 {
        fill: #282a32;
        stroke-width: 0px;
      }
    </style>
  </defs>
  <path id="_Compound_Path_" data-name="&amp;lt;Compound Path&amp;gt;" class="cls-1" d="m12,2.5C6.75,2.5,2.5,6.75,2.5,12s4.25,9.5,9.5,9.5,9.5-4.25,9.5-9.5S17.25,2.5,12,2.5ZM3.5,12c0-1.99.69-3.81,1.84-5.26.25-.31.72-.31.95.01,1.07,1.48,1.71,3.29,1.71,5.25s-.64,3.77-1.71,5.24c-.23.32-.71.32-.95.01-1.15-1.45-1.83-3.27-1.83-5.26Zm3.55,6.91c-.27-.2-.33-.58-.12-.85,1.29-1.68,2.07-3.78,2.07-6.06s-.78-4.37-2.07-6.06c-.21-.27-.15-.65.12-.85,1.39-1,3.1-1.59,4.95-1.59s3.55.59,4.94,1.59c.27.2.33.58.12.85-1.29,1.68-2.06,3.78-2.06,6.06s.78,4.37,2.07,6.06c.21.27.15.65-.12.85-1.39,1-3.1,1.59-4.95,1.59s-3.55-.59-4.95-1.59Zm11.61-1.65c-.25.31-.72.31-.95-.01-1.07-1.48-1.71-3.28-1.71-5.24s.64-3.77,1.71-5.25c.23-.32.71-.32.95-.01,1.15,1.45,1.84,3.27,1.84,5.26s-.69,3.81-1.84,5.26Z"/>
</svg>