<?xml version="1.0" encoding="UTF-8"?>
<svg id="Outline" xmlns="http://www.w3.org/2000/svg" viewBox="0 0 24 24">
  <defs>
    <style>
      .cls-1 {
        fill: #282a32;
        stroke-width: 0px;
      }
    </style>
  </defs>
  <path class="cls-1" d="m14.5,13.4v2c0,.55-.45,1-1,1h-4.49c-.28,0-.5-.22-.5-.5h0c0-.28.22-.5.5-.5h3.99c.28,0,.5-.22.5-.5v-1c0-.28-.22-.5-.5-.5h-3.99c-.28,0-.5-.22-.5-.5h0c0-.28.22-.5.5-.5h4.49c.55,0,1,.45,1,1Zm0-7h-5.49c-.28,0-.5.22-.5.5h0c0,.28.22.5.5.5h5.49c.55,0,1,.45,1,1v2.47c0,.32-.18.62-.47.76h0c-.22.11-.22.43,0,.54h0c.28.14.46.43.46.75v3.48c0,.55-.45,1-1,1h-5.49c-.28,0-.5.22-.5.5h0c0,.28.22.5.5.5h5.49c1.1,0,2-.89,2-2v-3.65c0-.22-.09-.44-.25-.59l-.11-.11c-.08-.08-.08-.2,0-.28l.11-.11c.16-.16.25-.38.25-.6v-2.65c0-1.1-.89-2-2-2Zm-1,2h-4.49c-.28,0-.5.22-.5.5h0c0,.28.22.5.5.5h3.99c.28,0,.5.22.5.5h0c0,.28-.22.5-.5.5h-3.99c-.28,0-.5.22-.5.5h0c0,.28.22.5.5.5h4.49c.55,0,1-.45,1-1v-1c0-.55-.45-1-1-1Zm-1.5-5.41c-.65,0-1.27.21-1.79.59l-6.01,4.48c-1.05.78-1.47,2.14-1.04,3.37l2.23,6.53c.41,1.21,1.55,2.03,2.83,2.03h7.55c1.28,0,2.42-.81,2.83-2.03l2.23-6.53c.42-1.24,0-2.59-1.05-3.38l-6.01-4.48c-.52-.39-1.14-.59-1.79-.59h0m0-1c.84,0,1.68.26,2.38.79l6.01,4.48c1.39,1.04,1.96,2.86,1.39,4.5l-2.23,6.53c-.55,1.62-2.07,2.7-3.78,2.7h-7.55c-1.71,0-3.23-1.09-3.78-2.7l-2.23-6.53c-.56-1.64,0-3.46,1.39-4.5l6.01-4.48c.71-.53,1.55-.79,2.38-.79h0Z"/>
</svg>