<?xml version="1.0" encoding="UTF-8"?>
<svg id="Outline" xmlns="http://www.w3.org/2000/svg" viewBox="0 0 24 24">
  <defs>
    <style>
      .cls-1 {
        fill: #282a32;
        stroke-width: 0px;
      }
    </style>
  </defs>
  <path class="cls-1" d="m14.9,3.5c.4,0,.78.16,1.06.44l4.1,4.1c.28.28.44.66.44,1.06v5.8c0,.4-.16.78-.44,1.06l-4.1,4.1c-.28.28-.66.44-1.06.44h-5.8c-.4,0-.78-.16-1.06-.44l-4.1-4.1c-.28-.28-.44-.66-.44-1.06v-5.8c0-.4.16-.78.44-1.06l4.1-4.1c.28-.28.66-.44,1.06-.44h5.8m0-1h-5.8c-.66,0-1.3.26-1.77.73L3.23,7.33c-.47.47-.73,1.1-.73,1.77v5.8c0,.66.26,1.3.73,1.77l4.1,4.1c.47.47,1.1.73,1.77.73h5.8c.66,0,1.3-.26,1.77-.73l4.1-4.1c.47-.47.73-1.1.73-1.77v-5.8c0-.66-.26-1.3-.73-1.77l-4.1-4.1c-.47-.47-1.1-.73-1.77-.73h0Zm-8.77,7.07h1.66c-.33,1.19-.66,2.37-.99,3.56-.01.04-.01.09.01.13.04.06.12.09.19.09.09,0,.17,0,.26,0,.09,0,.19,0,.28-.03.06-.02.1-.08.12-.15.33-1.2.67-2.41,1-3.61h1.65c-.35,1.26-.7,2.53-1.05,3.79-.04.13-.07.27-.11.4-.05.16-.13.32-.27.43-.1.08-.22.13-.35.16-.18.04-.36.06-.54.07h-2.14c-.21-.01-.43-.06-.6-.18-.12-.08-.21-.19-.25-.33-.02-.06-.01-.12-.01-.18,0-.07.03-.14.04-.21.36-1.32.73-2.63,1.1-3.95h0Zm4.98,0h3.57c-.1.36-.2.71-.3,1.07-1.19,0-2.38,0-3.57,0,.1-.36.2-.71.3-1.07Zm5.18,0h2.71c-.04.16-.09.32-.13.48-.05.2-.11.39-.16.59-.59,0-1.17,0-1.76,0-.09,0-.18,0-.26.03-.07.03-.1.1-.12.16-.21.77-.43,1.54-.64,2.31-.02.05,0,.1.03.14.05.05.13.07.2.07.64,0,1.28,0,1.92,0-.1.36-.2.71-.3,1.07h-2.71c-.2-.01-.41-.06-.58-.17-.11-.07-.21-.18-.25-.31-.04-.11-.04-.23,0-.34.31-1.11.61-2.21.92-3.32.04-.16.12-.32.24-.44.08-.08.18-.14.29-.17.2-.07.41-.08.62-.1Zm-5.69,1.8c1.19,0,2.38,0,3.57,0-.1.36-.2.71-.3,1.07-.64,0-1.28,0-1.92,0-.18.66-.37,1.32-.55,1.98h.01s-1.66,0-1.66,0c.28-1.02.56-2.03.85-3.05Z"/>
</svg>