<?xml version="1.0" encoding="UTF-8"?>
<svg id="Outline" xmlns="http://www.w3.org/2000/svg" viewBox="0 0 24 24">
  <defs>
    <style>
      .cls-1 {
        fill: #282a32;
        stroke-width: 0px;
      }
    </style>
  </defs>
  <path class="cls-1" d="m7.55,10.51l-.43,2.44c1.01-.53,1.49-.64,2.45-.67-.18,1.01-.27,1.52-.45,2.52-.94.02-1.43.11-2.42.61l-.29,1.64c-.06.3-.34.5-.64.44-.3-.04-.51-.33-.45-.64l1.92-10.89c.06-.31.34-.51.64-.45s.5.34.44.64l-.33,1.91c1.02-.64,1.52-.77,2.47-.84-.18,1.01-.27,1.52-.44,2.52-.95.06-1.44.18-2.46.76Zm7.39-2.05c-.84-.42-1.27-.64-2.17-.93-.18,1.01-.27,1.52-.45,2.54.89.28,1.33.49,2.17.9.18-1,.27-1.5.46-2.51Zm-3.53,6.68c.89.27,1.32.46,2.17.84.18-1,.27-1.5.46-2.51-.84-.39-1.27-.6-2.17-.87-.18,1.01-.27,1.52-.46,2.54Zm-1.4-5.39c-.18,1.01-.27,1.51-.45,2.53.95-.04,1.41.06,2.3.33.18-1.01.27-1.52.45-2.54-.89-.28-1.36-.38-2.31-.32Zm8.68,1.33c.1-.54-.21-1.09-.74-1.24-.29-.08-.58-.21-.97-.38-.18.99-.27,1.48-.45,2.47.79.33,1.18.46,1.92.51l.24-1.36Zm-2.3,6.04c.63.19,1.28-.23,1.39-.87l.24-1.37c-.76-.04-1.14-.17-1.94-.49l-.45,2.47c.29.11.53.2.76.26Zm-1.9-6.16c-.18,1-.27,1.5-.46,2.51.84.39,1.25.61,2.05.92.18-.99.27-1.48.45-2.47-.79-.33-1.2-.55-2.04-.96Zm2.52-6.97H7c-1.65,0-3,1.35-3,3v10c0,1.65,1.35,3,3,3h10c1.65,0,3-1.35,3-3V7c0-1.65-1.35-3-3-3m0-1c2.21,0,4,1.79,4,4v10c0,2.21-1.79,4-4,4H7c-2.21,0-4-1.79-4-4V7c0-2.21,1.79-4,4-4h10Z"/>
</svg>