<?xml version="1.0" encoding="UTF-8"?>
<svg id="Outline" xmlns="http://www.w3.org/2000/svg" viewBox="0 0 24 24">
  <defs>
    <style>
      .cls-1 {
        fill: #282a32;
        stroke-width: 0px;
      }
    </style>
  </defs>
  <path class="cls-1" d="m12.18,2.5c-5.39-.1-9.78,4.29-9.68,9.68.09,5.08,4.24,9.22,9.32,9.32,5.39.1,9.78-4.29,9.68-9.68-.09-5.08-4.24-9.22-9.32-9.32Zm4.73,9.9c-1.48.11-3.01-.13-4.46-.76-.32-2.76-1.72-5.15-3.71-6.81-.25-.21-.18-.6.12-.72.72-.29,1.49-.48,2.29-.56.4-.04.79.08,1.1.33,2.3,1.88,4.06,4.9,4.67,8.52Zm-.7,1.03c1.25,0,2.48-.25,3.63-.7.3-.11.62.13.57.45-.11.83-.35,1.62-.68,2.36-.16.34-.44.61-.78.76-.51.21-1.05.4-1.64.52-2.56.54-5.4.23-8.1-.83.66-1.34,1.64-2.51,2.87-3.43,1.34.58,2.75.87,4.13.87Zm3.81-1.82c-.68.3-1.38.52-2.11.66-.54-3.28-1.99-6.12-3.93-8.16-.14-.14,0-.38.19-.33,3.29.87,5.8,3.66,6.26,7.1.04.31-.12.61-.4.74ZM7.64,5.26c.59.43,1.14.91,1.62,1.47-2.44,1.99-4.23,4.52-5.06,7.24-.01.04-.03.09-.04.13-.06.2-.33.19-.39,0-.17-.67-.27-1.37-.27-2.09,0-2.73,1.3-5.17,3.3-6.72.24-.19.59-.2.84-.02Zm-2.58,11.63c-.22-.31-.31-.7-.26-1.08.07-.51.19-1.02.35-1.55.78-2.53,2.44-4.88,4.72-6.75.85,1.23,1.41,2.69,1.59,4.27-2.16,1.61-3.6,3.93-4.07,6.59h0c-.06.33-.44.47-.69.26-.62-.5-1.17-1.09-1.63-1.75Zm6.94,3.62c-1.17,0-2.29-.24-3.3-.68-.3-.13-.47-.45-.42-.77l.09-.51c.1-.57.25-1.11.45-1.64,1.93.76,3.93,1.19,5.87,1.19.96,0,1.91-.1,2.82-.29.07-.02.14-.03.22-.05.2-.05.34.19.19.34-1.53,1.49-3.62,2.41-5.92,2.41Z"/>
</svg>