<?xml version="1.0" encoding="UTF-8"?>
<svg id="Outline" xmlns="http://www.w3.org/2000/svg" viewBox="0 0 24 24">
  <defs>
    <style>
      .cls-1 {
        fill: #282a32;
        stroke-width: 0px;
      }
    </style>
  </defs>
  <path class="cls-1" d="m12.18,2.5c-5.39-.1-9.78,4.29-9.68,9.68.09,5.08,4.24,9.22,9.32,9.32,5.39.1,9.78-4.29,9.68-9.68-.09-5.08-4.24-9.22-9.32-9.32Zm8.28,10.26c-.06.62-.18,1.22-.36,1.8-.13.41-.44.74-.83.9-1.74.74-4.5,1.97-5.82,1.97-.83,0-1.17-.45-.51-1.74.11-.21-.06-.43-.27-.43-.04,0-.07,0-.11.02-1.55.61-4.7,2.1-6.24,2.1-.85,0-1.21-.45-.54-1.76.11-.21-.06-.43-.27-.43-.04,0-.07,0-.11.02-.18.07-.39.15-.61.25-.26.11-.55-.02-.66-.28-.21-.52-.37-1.06-.48-1.63-.06-.33.12-.66.44-.78.7-.27,1.41-.56,2.04-.83,0,.31.06.62.24.92.22.37.7.8,1.68.8,1.3,0,3.23-.75,5.31-1.66,0,.28.07.57.24.84.22.36.68.78,1.63.78,1.12,0,2.72-.59,4.55-1.35.42-.18.73.05.69.51Zm-5.25-.17c-.82,0-1.16-.45-.51-1.73.11-.21-.06-.43-.27-.43-.04,0-.08,0-.12.03-1.54.66-4.71,2.17-6.27,2.17-.87,0-1.23-.47-.54-1.81.11-.21-.06-.44-.27-.44-.04,0-.08,0-.12.02-.73.29-1.8.78-2.89,1.21-.35.14-.72-.15-.68-.52.11-1.07.43-2.08.9-2.99.08-.16.29-.21.44-.1.22.15.48.24.75.24.16,0,.32-.03.48-.09.7-.26,1.4-.56,2.03-.83,0,.3.06.6.24.89.22.36.69.79,1.67.79,1.28,0,3.21-.75,5.28-1.64,0,.28.07.57.23.84.22.36.68.78,1.63.78.43,0,1.25-.13,2.03-.42.25-.1.54.03.64.28.19.47.34.97.44,1.48.07.32-.11.65-.41.78-1.58.68-3.57,1.5-4.69,1.5Zm-3.22-9.1c2.81,0,5.29,1.37,6.84,3.48.21.28.07.68-.27.77-.52.14-1.05.21-1.36.21-.82,0-1.16-.44-.51-1.72.11-.21-.06-.44-.27-.44-.04,0-.08,0-.12.02-1.55.65-4.72,2.15-6.26,2.15-.85,0-1.21-.46-.53-1.77.11-.21-.06-.44-.27-.44-.04,0-.08,0-.12.02-.84.33-2.13.94-3.38,1.4,0,0,0,0,0,0-.31.11-.57-.27-.37-.53,1.56-1.93,3.94-3.18,6.61-3.18Zm0,17c-1.96,0-3.77-.67-5.21-1.8-.14-.11-.08-.33.1-.35,1.23-.16,2.85-.79,4.68-1.56,0,.3.06.6.23.88.22.36.68.79,1.64.79,1.08,0,3.08-.64,4.99-1.51.19-.09.37.14.24.31-1.56,1.97-3.97,3.25-6.67,3.25Z"/>
</svg>