<?xml version="1.0" encoding="UTF-8"?>
<svg id="Outline" xmlns="http://www.w3.org/2000/svg" viewBox="0 0 24 24">
  <defs>
    <style>
      .cls-1 {
        fill: #282a32;
        stroke-width: 0px;
      }
    </style>
  </defs>
  <g id="_Compound_Path_" data-name="&amp;lt;Compound Path&amp;gt;">
    <path class="cls-1" d="m10.49,2.62c-3.8.59-6.93,3.53-7.75,7.28-.6,2.73.01,5.37,1.39,7.41.23-.03.45-.11.66-.22l.31-.17c-1.01-1.38-1.59-3.08-1.59-4.92,0-2.63,1.2-4.98,3.09-6.54.13-.11.33-.01.33.16v.89c-1.49,1.36-2.42,3.32-2.42,5.5,0,1.67.55,3.21,1.47,4.45l.41-.22c.17-.09.34-.16.52-.21-.44-.55-.78-1.18-1.02-1.85,1.81.21,3.89.33,6.12.33s4.3-.12,6.11-.33c-.24.67-.58,1.29-1.02,1.85.18.05.35.12.52.21l.41.22c.93-1.24,1.48-2.78,1.48-4.45,0-2.18-.93-4.14-2.42-5.5v-.89c0-.17.2-.26.33-.16,1.88,1.56,3.09,3.91,3.09,6.54,0,1.84-.59,3.54-1.59,4.93l.3.16c.21.11.43.19.66.22,1.03-1.51,1.63-3.35,1.63-5.31,0-5.75-5.11-10.3-11.02-9.38Zm4.44,1.41c.28.11.56.23.83.36.2.1.33.31.33.54v1.57h-1.94c.1-.67.18-1.38.24-2.13.02-.27.29-.44.54-.34Zm-2.92-.53c.36,0,.71.03,1.06.07.21.03.36.21.34.42-.06.92-.15,1.76-.27,2.5h-2.29c-.11-.74-.21-1.57-.27-2.5-.01-.21.14-.4.34-.43.35-.05.71-.07,1.08-.07Zm-3.76.89c.27-.14.55-.26.83-.36.25-.09.52.08.54.35.06.75.13,1.46.22,2.13h-1.92v-1.57c0-.23.12-.44.32-.54Zm10.26,7.61c0,.38-.04.76-.11,1.13-1.73.22-3.84.37-6.39.37s-4.67-.15-6.4-.36c-.07-.38-.1-.76-.1-1.14s.03-.76.1-1.13c1.73-.22,3.84-.37,6.4-.37s4.66.15,6.39.37c.07.37.11.75.11,1.13Zm-.39-2.17c-1.81-.21-3.88-.33-6.11-.33s-4.31.13-6.12.33c.31-.86.79-1.66,1.44-2.33h9.35c.65.66,1.13,1.46,1.44,2.33Zm2.12,11.67c-.52,0-1.03-.13-1.5-.38l-1.59-.86c-.64-.35-1.41-.35-2.05,0l-1.59.86c-.94.51-2.06.51-3,0l-1.59-.86c-.64-.35-1.41-.35-2.05,0l-1.59.86c-.94.51-2.06.51-3,0-.24-.13-.33-.43-.2-.68.13-.24.43-.33.68-.2.64.35,1.41.35,2.05,0l1.59-.86c.94-.51,2.06-.51,3,0l1.59.86c.64.35,1.41.35,2.05,0l1.59-.86c.94-.51,2.06-.51,3,0l1.59.86c.64.35,1.41.35,2.05,0,.24-.13.55-.04.68.2.13.24.04.55-.2.68-.47.25-.98.38-1.5.38Zm0-2c-.52,0-1.03-.13-1.5-.38l-1.59-.86c-.64-.35-1.41-.35-2.05,0l-1.59.86c-.94.51-2.06.51-3,0l-1.59-.86c-.64-.35-1.41-.35-2.05,0l-1.59.86c-.94.51-2.06.51-3,0-.24-.13-.33-.43-.2-.68.13-.24.43-.33.68-.2.64.35,1.41.35,2.05,0l1.59-.86c.94-.51,2.06-.51,3,0l1.59.86c.64.35,1.41.35,2.05,0l1.59-.86c.94-.51,2.06-.51,3,0l1.59.86c.64.35,1.41.35,2.05,0,.24-.13.55-.04.68.2.13.24.04.55-.2.68-.47.25-.98.38-1.5.38Z"/>
  </g>
</svg>