<?xml version="1.0" encoding="UTF-8"?>
<svg id="Outline" xmlns="http://www.w3.org/2000/svg" viewBox="0 0 24 24">
  <defs>
    <style>
      .cls-1 {
        fill: #282a32;
        stroke-width: 0px;
      }
    </style>
  </defs>
  <path class="cls-1" d="m10.09,7.36c.28.28-.1,1.12-.85,1.87s-1.59,1.13-1.87.85.1-1.12.85-1.87,1.59-1.13,1.87-.85Zm11.62,12.31c.39.39.39,1.02,0,1.42l-.62.62c-.39.39-1.02.39-1.41,0l-2.69-2.68c.36-.31.71-.64,1.06-.99.34-.34.66-.68.98-1.04l2.68,2.67ZM15.37,2.43l6.04,6.04c1.29,1.29-.55,5.25-4.12,8.82s-7.53,5.42-8.82,4.13l-6.04-6.04c-1.32-1.32.52-5.28,4.09-8.86,3.57-3.57,7.54-5.4,8.85-4.09Zm-4.8,8.15c3.58-3.58,4.68-6.85,4.09-7.44s-3.86.51-7.44,4.09c-3.58,3.58-4.69,6.85-4.09,7.45s3.87-.51,7.44-4.09Zm8.67-2.87c-.16-.16-.44-.1-.5.12-.49,1.8-2.07,4.25-4.37,6.55s-4.74,3.87-6.55,4.37c-.22.06-.28.34-.12.5l1.46,1.46c.49.49,3.61-.32,7.41-4.13,3.81-3.81,4.61-6.92,4.12-7.4l-1.46-1.46Zm-1.45-1.45l-1.66-1.66c-.16-.16-.44-.1-.5.12-.49,1.81-2.06,4.27-4.35,6.56-2.3,2.3-4.75,3.87-6.56,4.35-.22.06-.28.34-.12.5l1.66,1.66c.49.49,3.6-.32,7.41-4.12s4.62-6.92,4.12-7.41Z"/>
</svg>