<?xml version="1.0" encoding="UTF-8"?>
<svg id="Outline" xmlns="http://www.w3.org/2000/svg" viewBox="0 0 24 24">
  <defs>
    <style>
      .cls-1 {
        fill: #282a32;
        stroke-width: 0px;
      }
    </style>
  </defs>
  <path class="cls-1" d="m12,3.5c4.69,0,8.5,3.81,8.5,8.5s-3.81,8.5-8.5,8.5S3.5,16.69,3.5,12,7.31,3.5,12,3.5m0-1C6.75,2.5,2.5,6.75,2.5,12s4.25,9.5,9.5,9.5,9.5-4.25,9.5-9.5S17.25,2.5,12,2.5h0Zm0,3.5c-2.41,0-4.42.65-5.77,1.76.42.09.82.2,1.21.33,1.13-.7,2.71-1.09,4.56-1.09s3.42.39,4.55,1.09c.39-.12.8-.24,1.22-.33-1.34-1.11-3.36-1.76-5.77-1.76Zm7.15,3.52c-.14-.33-.33-.64-.56-.92-.37.07-.73.15-1.08.24-2.44.65-4.39,1.83-5.43,3.33-.04.06-.13.06-.17,0-1.03-1.5-2.99-2.68-5.44-3.33-.35-.09-.71-.18-1.08-.24-.23.28-.42.59-.56.92-.27.57-.41,1.2-.41,1.87,0,3.25,2.1,4.34,4.13,5.41,1.08.56,2.19,1.14,3.07,2.05h0c.2.2.52.2.72,0h0c.88-.91,1.99-1.49,3.07-2.05,2.04-1.07,4.14-2.17,4.14-5.41,0-.67-.14-1.3-.41-1.87Zm-4.78,1.8c-.04.09-.06.18-.06.28,0,.36.26.68.61.74.49.09.89-.28.89-.74,0-.4-.31-.71-.7-.74.28-.15.57-.3.88-.43.37.29.6.74.57,1.25-.04.71-.59,1.31-1.3,1.4-.79.1-1.48-.43-1.66-1.15.23-.22.49-.42.77-.62Zm-6.36-.89c.31.13.61.27.88.43-.42.02-.77.4-.7.85.05.34.34.61.68.64.45.04.81-.32.81-.75,0-.1-.02-.2-.05-.28.28.19.54.39.76.61-.15.67-.74,1.17-1.46,1.17-.82,0-1.5-.67-1.5-1.5,0-.48.23-.9.58-1.17Zm6.95,5.48c-1,.52-2.01,1.04-2.9,1.84-.04.03-.09.03-.13,0-.89-.8-1.91-1.32-2.89-1.84-2.01-1.05-3.6-1.88-3.6-4.52,0-.61.14-1.18.41-1.68.4.1.79.21,1.16.33-.35.43-.57.97-.57,1.56,0,1.38,1.13,2.5,2.5,2.5.95,0,1.77-.53,2.19-1.31.1.15.38.83.6,1.38.1.25.46.25.56,0,.22-.55.5-1.23.6-1.39.48.89,1.47,1.46,2.57,1.29,1.08-.17,1.94-1.04,2.08-2.13.1-.72-.12-1.39-.54-1.89.37-.12.75-.23,1.15-.32.27.5.41,1.06.41,1.66,0,2.64-1.59,3.47-3.6,4.52Z"/>
</svg>