<?xml version="1.0" encoding="UTF-8"?>
<svg id="Outline" xmlns="http://www.w3.org/2000/svg" viewBox="0 0 24 24">
  <defs>
    <style>
      .cls-1 {
        fill: #282a32;
        stroke-width: 0px;
      }
    </style>
  </defs>
  <path class="cls-1" d="m15.91,4h0c-.21,2.85.35,4.76,1.62,5.57-.58,1.18-1.21,3.17-.63,5.65.26,1.14.48,1.95.65,2.61.25.94.39,1.51.46,2.17h-3.84c-.12-2-.47-4.31-2.15-4.31s-2.03,2.31-2.15,4.31h-3.85c.07-.66.21-1.23.46-2.17.17-.66.38-1.47.65-2.61.57-2.48-.06-4.47-.63-5.65,1.27-.82,1.83-2.72,1.62-5.57h.93c.3,3.71,2.28,3.99,2.88,3.99.04,0,.07,0,.1,0,.03,0,.07,0,.1,0,.6,0,2.58-.29,2.87-3.99h.93m0-1h-.93c-.53,0-.96.41-1,.93-.23,2.85-1.5,3.06-1.87,3.06-.07,0-.1,0-.1,0,0,0-.04,0-.1,0-.37,0-1.65-.21-1.87-3.06-.04-.52-.47-.93-1-.93h-.93c-.59,0-1.04.5-1,1.08.11,1.53.08,4.21-1.46,4.8-.29.11-.45.42-.29.7.53.92,1.37,2.88.79,5.42-.65,2.82-1.01,3.68-1.13,4.9-.06.59.41,1.1,1,1.1h3.84c.53,0,.97-.41,1-.93.07-1.27.32-3.38,1.14-3.38s1.07,2.11,1.14,3.38c.03.53.47.93,1,.93h3.84c.59,0,1.06-.51,1-1.1-.12-1.22-.48-2.08-1.13-4.9-.59-2.54.25-4.5.79-5.42.16-.27,0-.58-.29-.7-1.54-.59-1.57-3.27-1.46-4.8.04-.58-.41-1.08-1-1.08h0Zm-3.8,9.77l.82.43c.21.11.46-.07.42-.3l-.16-.92c-.01-.07.01-.14.06-.19l.67-.66c.17-.17.07-.45-.16-.48l-.92-.13c-.07-.01-.14-.06-.17-.12l-.41-.83c-.11-.21-.42-.21-.52,0l-.41.83c-.03.07-.1.11-.17.12l-.92.13c-.24.03-.33.32-.16.48l.67.66c.05.05.08.12.06.19l-.16.92c-.04.23.21.41.42.3l.82-.43c.07-.03.14-.03.21,0Z"/>
</svg>