<?xml version="1.0" encoding="UTF-8"?>
<svg id="Outline" xmlns="http://www.w3.org/2000/svg" viewBox="0 0 24 24">
  <defs>
    <style>
      .cls-1 {
        fill: #282a32;
        stroke-width: 0px;
      }
    </style>
  </defs>
  <path class="cls-1" d="m10.5,6v-1c-3.54,1.58-5.84,5.94-6.66,7.73-.17.36.1.77.49.77h6.17v-1h-5.44c1.19-2.12,2.45-4.5,5.44-6.5Zm10.5,8.5h-8.5v-1h7.51c.4,0,.62-.46.37-.77L12.5,3v-.5c0-.27-.22-.5-.5-.5s-.5.23-.5.5v12H3c-.41,0-.65.47-.4.8l1.51,2.01c.24-.03.46-.11.68-.22l.29-.15-1.08-1.44h16l-1.08,1.44.29.15c.21.11.44.19.68.22l1.51-2.01c.25-.33.01-.8-.4-.8ZM12.5,4.59l6.4,7.91h-6.4v-7.91Zm7.74,16.91c-.52,0-1.03-.13-1.5-.38l-1.59-.86c-.64-.35-1.41-.35-2.05,0l-1.59.86c-.94.51-2.06.51-3,0l-1.59-.86c-.64-.35-1.41-.35-2.05,0l-1.59.86c-.94.51-2.06.51-3,0-.24-.13-.33-.43-.2-.68.13-.24.43-.33.68-.2.64.35,1.41.35,2.05,0l1.59-.86c.94-.51,2.06-.51,3,0l1.59.86c.64.35,1.41.35,2.05,0l1.59-.86c.94-.51,2.06-.51,3,0l1.59.86c.64.35,1.41.35,2.05,0,.24-.13.55-.04.68.2.13.24.04.55-.2.68-.47.25-.98.38-1.5.38Zm0-2c-.52,0-1.03-.13-1.5-.38l-1.59-.86c-.64-.35-1.41-.35-2.05,0l-1.59.86c-.94.51-2.06.51-3,0l-1.59-.86c-.64-.35-1.41-.35-2.05,0l-1.59.86c-.94.51-2.06.51-3,0-.24-.13-.33-.43-.2-.68.13-.24.43-.33.68-.2.64.35,1.41.35,2.05,0l1.59-.86c.94-.51,2.06-.51,3,0l1.59.86c.64.35,1.41.35,2.05,0l1.59-.86c.94-.51,2.06-.51,3,0l1.59.86c.64.35,1.41.35,2.05,0,.24-.13.55-.04.68.2.13.24.04.55-.2.68-.47.25-.98.38-1.5.38Z"/>
</svg>