<?xml version="1.0" encoding="UTF-8"?>
<svg id="Fill" xmlns="http://www.w3.org/2000/svg" viewBox="0 0 24 24">
  <defs>
    <style>
      .cls-1 {
        fill: #282a32;
        stroke-width: 0px;
      }
    </style>
  </defs>
  <path class="cls-1" d="m18.5,6.5v2s-6,0-6,0v-2c0-1.66,1.34-3,3-3h0c1.66,0,3,1.34,3,3Zm1,3h-7.03c.02.16.03.33.03.5v2c1.66,0,3,1.34,3,2.99v.51h4c1.11,0,2-.9,2-2v-2c0-1.11-.89-2-2-2Zm.5,11.5h0c0-.55-.45-1-1-1h-7c-.55,0-1,.45-1,1h0c0,.55.45,1,1,1h7c.55,0,1-.45,1-1ZM8.5,7h0c-1.66,0-3,1.34-3,3v2s6,0,6,0v-2c0-1.66-1.34-3-3-3Zm6,10v-2c0-1.1-.9-2-2-2H4.5c-1.1,0-2,.9-2,2v2c0,1.1.9,2,2,2h8c1.1,0,2-.9,2-2Z"/>
</svg>