<?xml version="1.0" encoding="UTF-8"?>
<svg id="Fill" xmlns="http://www.w3.org/2000/svg" viewBox="0 0 24 24">
  <defs>
    <style>
      .cls-1 {
        fill: #282a32;
        stroke-width: 0px;
      }
    </style>
  </defs>
  <path class="cls-1" d="m9.88,9.88c-2.29,2.29-2.77,5-1.77,6s3.72.52,6-1.77,2.77-5,1.77-6-3.72-.52-6,1.77Zm4.95.71c.2.2.2.51,0,.71s-.51.2-.71,0l-.35-.35-1.06,1.06.35.35c.2.2.2.51,0,.71s-.51.2-.71,0l-.35-.35-1.06,1.06.35.35c.2.2.2.51,0,.71s-.51.2-.71,0l-1.41-1.41c-.19-.19-.2-.51,0-.71s.52-.19.71,0l.35.35,1.06-1.06-.35-.35c-.19-.19-.2-.51,0-.71s.52-.19.71,0l.35.35,1.06-1.06-.35-.35c-.19-.19-.2-.51,0-.71s.52-.19.71,0l1.41,1.41Zm4.16-6.28l-2.79,2.79c-1.67-1.11-4.68-.26-7.02,2.08s-3.19,5.35-2.08,7.02l-2.79,2.79c-.22.22-.59.2-.76-.05-2.13-3.19-.95-8.48,2.97-12.41S15.75,1.41,18.93,3.55c.25.17.27.54.05.75Zm.71.71c.22-.22.58-.2.75.05,2.15,3.19.95,8.48-2.97,12.4-3.93,3.93-9.22,5.12-12.41,2.97-.25-.17-.27-.54-.05-.76l2.79-2.79c1.67,1.11,4.68.26,7.02-2.08,2.34-2.34,3.19-5.35,2.08-7.02l2.79-2.79Z"/>
</svg>