<?xml version="1.0" encoding="UTF-8"?>
<svg id="Fill" xmlns="http://www.w3.org/2000/svg" viewBox="0 0 24 24">
  <defs>
    <style>
      .cls-1 {
        fill: #282a32;
        stroke-width: 0px;
      }
    </style>
  </defs>
  <path class="cls-1" d="m21.38,20.55c-.24.59-.81.95-1.42.95-.19,0-.39-.04-.58-.11-.78-.32-1.35-.73-1.76-1.19l-8.15-1.43.43-.43c.14-.13.25-.28.33-.45l6.68,1.17c-.41-1.03-.39-2.16-.37-3.16.03-1.6.07-3.25-1.24-5.08l2.2-2.2c2.21,2.83,2.15,5.5,2.11,7.35-.05,1.94.05,2.21.94,2.58.78.32,1.16,1.22.83,2Zm-11.89-5.33l8.83-8.83.95.95c.29.29.77.17.9-.21l1.3-3.91c.14-.43-.26-.83-.69-.69l-3.91,1.3c-.38.13-.5.62-.21.9l.95.95-1.47,1.47c-3.1-2.86-6.09-2.81-8.11-2.77-1.94.05-2.21-.05-2.57-.94-.33-.78-1.22-1.16-2.01-.83-.78.32-1.16,1.22-.83,2,.32.78.73,1.35,1.18,1.76l1.44,8.14.42-.42c.14-.14.29-.25.46-.33l-1.18-6.68c1.03.41,2.16.39,3.16.37,1.82-.04,3.71-.05,5.86,1.88l-5.18,5.18h-1.71c-.27,0-.52.11-.71.29l-2.28,2.28c-.19.19-.06.51.21.51h1.6c.28,0,.5.22.5.5v1.6c0,.27.32.4.51.21l2.28-2.28c.19-.19.29-.44.29-.71v-1.71Z"/>
</svg>