<?xml version="1.0" encoding="UTF-8"?>
<svg id="Fill" xmlns="http://www.w3.org/2000/svg" viewBox="0 0 24 24">
  <defs>
    <style>
      .cls-1 {
        fill: #282a32;
        stroke-width: 0px;
      }
    </style>
  </defs>
  <path class="cls-1" d="m14.41,10.64l1.2,1.18-1.31,1.29-1.2-1.18,1.31-1.29Zm-4.81,0l-1.2,1.18,1.31,1.29,1.2-1.18-1.31-1.29Zm1.2,3.54l1.2,1.18,1.2-1.18-1.2-1.18-1.2,1.18Zm10.2-5.5v6.65c0,1.05-.54,2.02-1.43,2.56l-6,3.67c-.96.59-2.17.59-3.14,0l-6-3.67c-.89-.55-1.44-1.52-1.44-2.56v-6.65c0-1.05.54-2.02,1.44-2.56l6-3.67c.96-.59,2.17-.59,3.14,0l6,3.67c.89.55,1.43,1.52,1.43,2.56Zm-2-.17l-2.3,2.25-2.29-2.25h0s0,0,0,0h0s0,0,0,0l-2.4,2.36-2.41-2.36h0s0,0,0,0h0s0,0,0,0l-2.3,2.25-2.3-2.25v2.14l7,6.86,7-6.86v-2.14Z"/>
</svg>