<?xml version="1.0" encoding="UTF-8"?>
<svg id="Fill" xmlns="http://www.w3.org/2000/svg" viewBox="0 0 24 24">
  <defs>
    <style>
      .cls-1 {
        fill: #282a32;
        stroke-width: 0px;
      }
    </style>
  </defs>
  <path class="cls-1" d="m17,3H7c-2.21,0-4,1.79-4,4v10c0,2.21,1.79,4,4,4h10c2.21,0,4-1.79,4-4V7c0-2.21-1.79-4-4-4Zm-1.65,3.6c.53-.63,1.48-.72,2.11-.18s.72,1.48.19,2.11c-.53.63-1.48.72-2.11.18-.63-.53-.72-1.48-.19-2.11Zm1.56,4.82c-.91.51-1.76-.11-2.36-.78-.7.44-1.42.96-2.05,1.51.84.5,1.8,1.07,2.58,1.71.69.56.43,1.39-.44,1.59-.73.16-1.5.2-2.42.14l-.36.8c-.17.38-.62.54-.99.37-.38-.17-.54-.62-.37-.99l.42-.91c.17-.38.63-.56.99-.37.39.2,1.53.02,1.53.02-.62-.29-1.37-.53-2.04-.96-1.03.96-2.46,1.97-3.9,2.77l-.17.99c-.07.41-.46.68-.86.62-.41-.07-.68-.46-.62-.86l.17-1c.07-.41.46-.71.86-.62.46.11,2.76-2.1,3.57-3.25-.04-1.11,1.44-2.16,2.52-2.89-1.17-.32-2.6.42-3.7,1.1-.52.33-1.06-.47-.56-.83,2.88-2.2,4.97-2.39,7.18.66.24.18.27.22.55.13.46-.08,1.08-1.13,1.61-.54.44.62-.61,1.26-1.14,1.6Z"/>
</svg>