<?xml version="1.0" encoding="UTF-8"?>
<svg id="Fill" xmlns="http://www.w3.org/2000/svg" viewBox="0 0 24 24">
  <defs>
    <style>
      .cls-1 {
        fill: #282a32;
        stroke-width: 0px;
      }
    </style>
  </defs>
  <path class="cls-1" d="m17,3H7c-2.21,0-4,1.79-4,4v10c0,2.21,1.79,4,4,4h10c2.2,0,4-1.79,4-4V7c0-2.21-1.8-4-4-4Zm-6.5,4.25c0-.28.22-.5.5-.5s.5.22.5.5v1.5c0,.28-.22.5-.5.5s-.5-.22-.5-.5v-1.5Zm7.49,9.78c-.38.27-.94.48-1.54.48-.33,0-.67-.07-.99-.21-.61-.26-1.36-.9-1.55-2.4-.05-.39-.28-.55-.45-.58-.18-.02-.32.09-.41.3-.27.69-.83,1.14-1.5,1.2-.57.04-1.13-.23-1.42-.71-.31-.52-.25-1.19.17-1.83.28-.43.37-.82.24-1.04-.09-.14-.29-.22-.51-.2-.33.04-.6.27-.72.62-.52,1.43-1.44,1.94-1.95,2.11-.59.2-1.19.17-1.61-.1-.49-.31-.76-.79-.74-1.36.02-.89.71-1.75,1.36-2.11.63-.35.64-.36.64-1.17,0-1.52.91-2.42,2.51-2.52v1c-1.34.1-1.51.86-1.51,1.52,0,1.27-.3,1.56-1.1,2.01-.5.29-.89.86-.9,1.3-.01.21.08.36.27.49.13.08.42.11.76,0,.33-.12.95-.47,1.32-1.5.26-.72.86-1.21,1.57-1.28.61-.06,1.17.19,1.47.67.2.33.43,1.04-.26,2.11-.21.31-.26.58-.15.77.09.15.28.24.48.22.17,0,.47-.11.65-.57.23-.58.73-.93,1.29-.93.06,0,.12,0,.17.01.69.09,1.22.67,1.32,1.44.1.83.43,1.38.96,1.61.56.25,1.2.09,1.55-.17.45-.31.67-.85.57-1.37-.11-.54-.52-.93-1.14-1.07-.86-.2-1.47-.86-1.5-1.61-.03-.81.6-1.5,1.7-1.84.32-.1.69-.29.64-.62-.08-.49-.93-1.2-2.27-1.2h-2.91v-1h2.91c1.84,0,3.1,1.04,3.25,2.05.12.78-.37,1.42-1.32,1.72-.64.2-1.01.52-1,.85,0,.3.32.58.72.67,1.01.24,1.72.93,1.9,1.86.18.9-.2,1.84-.97,2.38Z"/>
</svg>