<?xml version="1.0" encoding="UTF-8"?>
<svg id="Fill" xmlns="http://www.w3.org/2000/svg" viewBox="0 0 24 24">
  <defs>
    <style>
      .cls-1 {
        fill: #282a32;
        stroke-width: 0px;
      }
    </style>
  </defs>
  <path class="cls-1" d="m18.07,9.59l-7.12,10.04c-.27.38-.23.9.1,1.23.43.43.99.64,1.54.64.84,0,1.67-.48,2.03-1.36l4.09-9.92-.64-.63Zm-1.48-1.48l-8.47,8.48c-.37.37-.37.97,0,1.34l.86.86c.41.41,1.1.35,1.44-.13l6.93-9.79-.76-.76Zm-1.47-1.48l-9.79,6.95c-.47.34-.53,1.03-.12,1.44l.87.87c.36.36.96.36,1.33,0L15.89,7.41l-.77-.78Zm-1.34-1.34L3.86,9.38c-1.44.6-1.82,2.47-.72,3.57.18.18.43.28.67.28.2,0,.39-.06.56-.18l10.04-7.13-.63-.63Zm6.68-1.75c-1.36-1.36-3.51-1.41-4.92,0l-1.06,1.06,4.93,4.92,1.05-1.06c1.41-1.4,1.36-3.56,0-4.92Z"/>
</svg>