<?xml version="1.0" encoding="UTF-8"?>
<svg id="Fill" xmlns="http://www.w3.org/2000/svg" viewBox="0 0 24 24">
  <defs>
    <style>
      .cls-1 {
        fill: #282a32;
        stroke-width: 0px;
      }
    </style>
  </defs>
  <path class="cls-1" d="m19.27,17.79c.09-.07.21.05.14.14-1.74,2.17-4.42,3.56-7.41,3.56s-5.7-1.4-7.44-3.59c-.07-.09.04-.21.14-.14.38.28.89.59,1.38.7.98.18,1.52-.16,1.92-.41.32-.21.54-.35,1.04-.3.52.03.76.23,1.09.51.4.33.9.75,1.89.76.96,0,1.46-.43,1.86-.76.34-.28.58-.48,1.11-.52.49-.04.71.1,1.03.3.39.25.93.6,1.94.42.46-.1.95-.4,1.31-.67Zm.36-3.98c-.45.03-.66.22-.94.47-.33.3-.74.68-1.53.75-.85.07-1.29-.29-1.64-.58-.3-.24-.49-.4-.93-.39-.46,0-.66.19-.96.46-.35.32-.78.72-1.62.73-.84-.01-1.28-.41-1.63-.73-.3-.27-.5-.45-.95-.46-.44-.02-.65.16-.93.39-.36.29-.8.65-1.64.58-.8-.07-1.21-.44-1.55-.74-.28-.26-.49-.45-.94-.48-.43-.03-.62.09-.89.26-.1.06-.2.12-.31.17-.21.1-.32.34-.25.57.08.26.17.52.27.77.06.14.17.24.31.28,0,0,0,0,0,0,.84.18,1.27.59,1.66.95.33.31.6.56,1.15.68.48.08.67-.04,1.01-.25.37-.24.89-.57,1.81-.49.91.06,1.39.46,1.78.78.34.29.57.48,1.1.49.5,0,.73-.2,1.08-.49.39-.32.87-.72,1.79-.78.91-.08,1.42.25,1.8.48.34.22.53.34,1.02.25.53-.11.79-.36,1.13-.67.38-.36.81-.77,1.66-.96h0c.13-.04.24-.13.29-.26.11-.27.21-.55.3-.83.06-.2-.04-.42-.24-.51-.12-.06-.23-.12-.33-.19-.27-.17-.46-.29-.89-.26ZM5.92,6.3c.28.16.46.26.88.18.48-.08.71-.31.99-.6.35-.35.77-.78,1.59-.88.88-.08,1.33.3,1.69.6.28.25.48.44.93.42.46,0,.66-.17.95-.42.36-.3.81-.68,1.67-.6.84.1,1.26.54,1.6.88.28.29.51.53.97.6.44.08.62-.02.89-.18.22-.12.48-.27.86-.3.16-.01.25-.21.14-.33-1.73-1.95-4.26-3.17-7.07-3.17s-5.34,1.22-7.08,3.16c-.11.12-.03.32.14.33.38.03.64.18.86.31Zm14.52,1.51c-.23-.35-.52-.58-1.02-.75-.41-.14-.55-.05-.85.11-.32.19-.77.44-1.55.29-.77-.12-1.19-.54-1.52-.88-.3-.31-.51-.53-.99-.59-.43-.04-.61.12-.91.38-.35.29-.77.66-1.6.65-.8,0-1.24-.36-1.58-.65-.31-.26-.49-.42-.93-.38-.46.06-.68.28-.98.59-.33.34-.75.76-1.53.88-.77.15-1.22-.1-1.55-.29-.29-.16-.44-.25-.87-.11-.48.17-.74.43-1.01.75-.32.37-.59,1.21-.73,1.76-.05.18.15.32.3.22.32-.22.78-.48,1.21-.55.84-.11,1.28.21,1.63.47.28.2.48.35.91.33.46-.02.67-.21.96-.48.34-.32.77-.71,1.58-.75.86-.03,1.3.36,1.65.67.29.25.5.43.95.43s.65-.17.94-.43c.36-.31.8-.71,1.64-.67.83.04,1.25.44,1.6.75.3.28.49.46.94.48.44.02.64-.13.91-.33.35-.26.79-.58,1.62-.47.43.06.89.33,1.22.55.15.1.35-.04.3-.22-.14-.54-.5-1.39-.75-1.76ZM2.5,12c0,.35.02.69.05,1.03.02.19.23.29.39.19h0c.31-.2.74-.46,1.49-.4.79.05,1.21.42,1.54.72.29.26.51.45.97.5.43.04.61-.11.91-.36.35-.29.77-.65,1.59-.62.83.02,1.26.41,1.6.73.31.27.51.45.96.46.45-.01.65-.19.95-.46.35-.32.78-.72,1.61-.73.81-.02,1.24.33,1.58.62.3.24.48.39.92.36.45-.05.66-.24.95-.5.33-.3.75-.67,1.54-.72.75-.06,1.17.2,1.48.39h0c.16.11.38.01.4-.18.04-.34.06-.69.06-1.03,0-.12,0-.24,0-.36,0-.19-.13-.35-.3-.42-.31-.14-.54-.33-.73-.5-.28-.24-.49-.43-.95-.49-.42-.06-.59.07-.88.28-.32.24-.76.56-1.55.53-.81-.04-1.24-.43-1.58-.74-.29-.27-.5-.47-.96-.49-.44-.02-.64.16-.94.42-.34.3-.76.66-1.6.68h-.01c-.82,0-1.25-.38-1.6-.68-.3-.26-.5-.44-.94-.42-.45.02-.66.22-.96.49-.34.31-.77.7-1.58.73-.79.05-1.23-.28-1.55-.52-.29-.21-.47-.34-.9-.28-.45.06-.67.25-.95.48-.19.16-.41.36-.72.5-.17.08-.29.24-.3.42,0,.12,0,.24,0,.37Z"/>
</svg>