<?xml version="1.0" encoding="UTF-8"?>
<svg id="Fill" xmlns="http://www.w3.org/2000/svg" viewBox="0 0 24 24">
  <defs>
    <style>
      .cls-1 {
        fill: #282a32;
        stroke-width: 0px;
      }
    </style>
  </defs>
  <path class="cls-1" d="m15.62,19.49c-2.76-.06-4.98,2.03-5.88.37-.45-.82.53-2.34.81-2.72,0-.02.03-.03.04-.05.49.82,1.38,1.38,2.36,1.38,1.03,0,1.91-.55,2.4-1.38.5.66,1.28,1.07,2.19,1.07,1.59,0,2.79-1.25,2.79-2.9v-6.22c.37,1.04.87,2.61,1.18,3.83,2,7.92-2.52,6.67-5.89,6.62Zm1.11-15.35c-.59,0-1.13.2-1.57.52-.05.04-.11.03-.14-.02-.5-.69-1.3-1.14-2.19-1.14-.99,0-1.84.55-2.32,1.36-.04.06-.11.07-.16.03-.49-.47-1.14-.75-1.85-.75-.9,0-1.69.45-2.19,1.14-.04.05-.1.06-.15.02-.43-.33-.97-.53-1.56-.53-1.44,0-2.6,1.14-2.6,2.54v6.91c0,1.12.88,1.98,1.79,1.98s1.79-.87,1.79-1.98v-3.31c0-.27.23-.5.5-.5s.5.23.5.5v4.35c0,1.1.89,1.9,1.79,1.9,1.05,0,1.79-.78,1.79-1.9v-4.9c0-.28.23-.5.5-.5s.5.22.5.5v5.21c0,1.07.89,1.9,1.79,1.9.97,0,1.8-.78,1.8-1.9v-5.84c0-.27.22-.5.5-.5s.5.23.5.5v5.53c0,1.14.81,1.9,1.79,1.9,1.05,0,1.79-.79,1.79-1.9V6.68c0-1.4-1.17-2.54-2.6-2.54Z"/>
</svg>