<?xml version="1.0" encoding="UTF-8"?>
<svg id="Fill" xmlns="http://www.w3.org/2000/svg" viewBox="0 0 24 24">
  <defs>
    <style>
      .cls-1 {
        fill: #282a32;
        stroke-width: 0px;
      }
    </style>
  </defs>
  <path id="_Compound_Path_" data-name="&amp;lt;Compound Path&amp;gt;" class="cls-1" d="m7.28,16.5c-.47.81-1.06,1.54-1.75,2.17-.25.22-.63.21-.85-.04-1.21-1.35-1.99-3.11-2.12-5.03-.08-1.06-.08-2.14,0-3.2.13-1.92.91-3.68,2.12-5.03.22-.25.6-.26.85-.04.69.63,1.28,1.36,1.75,2.17h0c-.27,0-.5.22-.5.5s.23.5.5.5h.52c.4.93.63,1.94.69,3h-.48c-.27,0-.5.22-.5.5s.23.5.5.5h.48c-.06,1.06-.29,2.07-.69,3h-.52c-.27,0-.5.22-.5.5s.23.5.5.5h0Zm8.3,0h-.85c-.27,0-.49-.21-.5-.48s.24-.52.52-.52h.4c-.36-.94-.57-1.95-.62-3h-.53c-.27,0-.5-.22-.5-.5s.23-.5.5-.5h.53c.05-1.05.26-2.06.62-3h-.42c-.27,0-.49-.21-.5-.48s.24-.52.52-.52h.83c.52-1.02,1.2-1.94,2.02-2.72.28-.27.24-.73-.09-.94-1.15-.73-2.47-1.19-3.9-1.29-.54-.03-1.07-.05-1.61-.05s-1.07.02-1.6.05c-1.43.1-2.76.55-3.91,1.29-.33.21-.37.67-.09.94.82.78,1.5,1.7,2.02,2.72h.85c.28,0,.49.21.5.48s-.24.52-.52.52h-.39c.35.94.56,1.95.62,3h.52c.27,0,.49.21.5.48s-.24.52-.52.52h-.5c-.06,1.05-.27,2.06-.62,3h.41c.28,0,.49.21.5.48s-.24.52-.52.52h-.83c-.52,1.02-1.2,1.94-2.02,2.72-.28.27-.24.73.09.94,1.15.73,2.47,1.19,3.91,1.29.53.03,1.07.05,1.6.05s1.07-.02,1.61-.05c1.43-.1,2.75-.55,3.9-1.29.33-.21.37-.67.09-.94-.82-.78-1.5-1.7-2.02-2.72Zm5.87-6.1c-.14-1.92-.92-3.68-2.13-5.03-.22-.25-.6-.26-.85-.04-.69.63-1.28,1.36-1.75,2.17h0c.27,0,.5.22.5.5s-.23.5-.5.5h-.52c-.39.93-.62,1.94-.68,3h.47c.27,0,.49.21.5.48s-.24.52-.52.52h-.45c.06,1.06.29,2.07.68,3h.52c.27,0,.5.22.5.5s-.23.5-.5.5h0c.47.81,1.06,1.54,1.75,2.17.25.22.63.21.85-.04,1.21-1.35,1.99-3.11,2.13-5.03.07-1.06.07-2.14,0-3.2Z"/>
</svg>