<?xml version="1.0" encoding="UTF-8"?>
<svg id="Fill" xmlns="http://www.w3.org/2000/svg" viewBox="0 0 24 24">
  <defs>
    <style>
      .cls-1 {
        fill: #282a32;
        stroke-width: 0px;
      }
    </style>
  </defs>
  <g id="_Compound_Path_" data-name="&amp;lt;Compound Path&amp;gt;">
    <path class="cls-1" d="m7.42,12.63c-.13,1.91-.86,3.66-2,5.07-.3.37-.86.36-1.14-.02-.9-1.22-1.51-2.66-1.76-4.22-.08-.53.28-.96.81-.96h3.97c.07,0,.12.06.12.12Zm-2-6.33c-.3-.37-.86-.36-1.14.02-.92,1.25-1.55,2.74-1.77,4.35-.06.46.24.83.7.83h4.22c-.1-1.96-.85-3.76-2.01-5.2Zm.61-.85c1.41,1.64,2.3,3.74,2.41,6.05h3.06V3.2c0-.44-.39-.76-.83-.7-1.7.24-3.25.91-4.54,1.92-.33.25-.37.71-.1,1.03Zm0,13.1c-.27.31-.22.77.1,1.03,1.29,1,2.84,1.68,4.54,1.92.43.06.83-.26.83-.7v-8.29s-3.06,0-3.06,0c-.11,2.31-1,4.41-2.41,6.05Zm6.47-6.05v8.29c0,.44.39.76.83.7,1.69-.24,3.24-.91,4.53-1.92.33-.25.37-.71.1-1.03-1.41-1.64-2.3-3.74-2.41-6.05h-3.05Zm5.45-7.06c.27-.31.22-.77-.1-1.03-1.29-1-2.84-1.68-4.53-1.92-.43-.06-.83.26-.83.7v8.29s3.05,0,3.05,0c.11-2.31,1-4.41,2.41-6.05Zm.61,12.26c.3.37.86.36,1.14-.02.93-1.25,1.56-2.74,1.79-4.35.06-.43-.26-.83-.7-.83h-4.23c.1,1.96.84,3.76,2.01,5.2Zm2.23-6.21c.44,0,.76-.39.7-.83-.23-1.61-.86-3.1-1.79-4.35-.28-.38-.84-.39-1.14-.02-1.17,1.44-1.9,3.24-2.01,5.2h4.23Z"/>
  </g>
</svg>