<?xml version="1.0" encoding="UTF-8"?>
<svg id="Fill" xmlns="http://www.w3.org/2000/svg" viewBox="0 0 24 24">
  <defs>
    <style>
      .cls-1 {
        fill: #282a32;
        stroke-width: 0px;
      }
    </style>
  </defs>
  <path class="cls-1" d="m12,2.5C6.75,2.5,2.5,6.75,2.5,12s4.25,9.5,9.5,9.5,9.5-4.25,9.5-9.5S17.25,2.5,12,2.5Zm2.05,6.5h1.79l-.32,1.4h-.55l-1.44,1.29-.92-1.39,1.44-1.3Zm-6.46,6h-1.88l-.71-.87.33-1.43.92-.73-.59-.71.32-1.4,1.12-.86h1.87l-.32,1.4h-.63l-.19.83h.92l-.36,1.54h-.92l-.19.83h.63l-.32,1.4Zm2.25,0h-1.78l.32-1.4h.54l1.44-1.3.92,1.39-1.44,1.3Zm4.62,0h-1.77l-3.05-4.6h-.52l.32-1.4h1.76l3.05,4.6h.52l-.32,1.4Zm4.24-3.79l-.94.75.6.72-.34,1.45-1.15.87h-1.95l.32-1.4h.69l.21-.9h-.93l.34-1.48h.93l.19-.83h-.69l.32-1.4h1.95l.73.88-.31,1.32Z"/>
</svg>