<?xml version="1.0" encoding="UTF-8"?>
<svg id="Fill" xmlns="http://www.w3.org/2000/svg" viewBox="0 0 24 24">
  <defs>
    <style>
      .cls-1 {
        fill: #282a32;
        stroke-width: 0px;
      }
    </style>
  </defs>
  <path class="cls-1" d="m6.67,7.19c-1.16.25-2.21.65-3.11,1.19-.32.19-.56.5-.67.85-.2.66-.33,1.36-.39,2.07-.02.31.3.52.58.38,1.45-.72,3.06-1.11,4.7-1.11,1.39,0,2.79.3,4.14.88,1.23-.92,2.2-2.09,2.86-3.44-2.7-1.06-5.53-1.37-8.11-.82Zm-.59,4.55c-1.11.19-2.17.59-3.14,1.16-.24.15-.37.43-.33.71.27,1.59.93,3.05,1.89,4.26l1.08-.51c.72-.33,1.54-.43,2.32-.3-.86-1.56-1.5-3.37-1.82-5.32ZM15.32,3.1c-1.03-.39-2.16-.6-3.33-.6-3.21,0-6.04,1.59-7.77,4.02-.12.17.05.38.24.3.63-.26,1.3-.46,2.01-.61.91-.2,1.86-.29,2.83-.29,1.94,0,3.93.43,5.87,1.19.19-.53.35-1.08.45-1.64.11-.58.15-1.16.15-1.73,0-.29-.18-.54-.45-.64Zm-3.78,9.27c-1.45-.63-2.99-.87-4.47-.76.38,2.26,1.2,4.3,2.32,5.97l1.37.64c.77.37,1.7.37,2.48,0l.7-.33c-1.29-1.52-2.15-3.42-2.4-5.53Zm7.36-6.88c-.45-.49-.97-.94-1.53-1.33-.26-.17-.61,0-.63.31-.02.39-.07.78-.14,1.17-.47,2.66-1.91,4.98-4.07,6.6.18,1.58.74,3.03,1.59,4.26,2.28-1.86,3.95-4.21,4.73-6.75.35-1.13.5-2.24.46-3.29-.02-.36-.16-.7-.41-.97Zm1.72,2.5c-.09-.18-.36-.14-.38.06-.09.66-.23,1.33-.43,1.99-.84,2.74-2.63,5.27-5.08,7.26.05.06.1.11.15.16l.21-.1c1.04-.48,2.28-.48,3.32,0l1.08.5c1.26-1.62,2.01-3.65,2.01-5.84,0-1.44-.32-2.81-.88-4.03Zm1.38,12.51c0,.27-.22.5-.5.5H2.5c-.28,0-.5-.23-.5-.5v-.5c0-.28.23-.5.5-.5h0c.44,0,.86-.09,1.24-.27l1.84-.86c1.04-.48,2.29-.48,3.33,0l1.85.86c.78.37,1.71.37,2.48,0l1.85-.86c1.04-.48,2.29-.48,3.33,0l1.85.86c.37.18.8.27,1.24.27h0c.28,0,.5.22.5.5v.51Z"/>
</svg>