<?xml version="1.0" encoding="UTF-8"?>
<svg id="Fill" xmlns="http://www.w3.org/2000/svg" viewBox="0 0 24 24">
  <defs>
    <style>
      .cls-1 {
        fill: #282a32;
        stroke-width: 0px;
      }
    </style>
  </defs>
  <path class="cls-1" d="m22,20.5c0,.28-.22.5-.5.5H2.5c-.28,0-.5-.23-.5-.5v-.5c0-.28.23-.5.5-.5h0c.44,0,.86-.09,1.24-.27l1.84-.86c1.04-.48,2.29-.48,3.33,0l1.85.86c.78.37,1.71.37,2.48,0l1.85-.86c1.04-.48,2.29-.48,3.33,0l1.85.86c.37.18.8.27,1.24.27h0c.28,0,.5.22.5.5v.51Zm-6.91-11.94l1.41,4.34,1.94.63,2.66-3.11c.15-.17.2-.4.15-.62-.12-.53-.3-1.05-.51-1.55-.09-.21-.27-.36-.48-.41l-3.96-.94-1.2,1.65Zm4.31-1.93c.18.04.32-.16.21-.31-1.12-1.51-2.7-2.69-4.57-3.33-.18-.06-.33.13-.24.29l1.61,2.63,3,.72Zm-1.05,10.71l-.22-2.85-1.94-.63-3.69,2.68v1.91c.25-.03.5-.11.74-.22l1.85-.87c1.02-.47,2.23-.48,3.26-.02ZM9.72,7.98h4.56l1.2-1.65-2.11-3.45c-.11-.19-.31-.31-.53-.33-.57-.05-1.12-.06-1.67,0-.22.02-.42.14-.54.33l-2.11,3.46,1.2,1.65Zm5.79,5.13l-1.34-4.13h-4.34l-1.34,4.13,3.51,2.55,3.51-2.55Zm-7.7.75l-1.93.63-.24,2.85c1.03-.46,2.25-.45,3.27.02l1.85.86c.23.11.48.19.74.23v-1.91l-3.69-2.68Zm1.4-10.58c.1-.16-.06-.35-.24-.29-1.83.61-3.45,1.78-4.6,3.33-.11.15.02.36.21.32l3.02-.72,1.61-2.63Zm-1.72,9.63l1.41-4.34-1.19-1.65-3.98.96c-.21.05-.39.2-.48.4-.21.49-.38,1.01-.5,1.54-.05.22,0,.44.15.61l2.66,3.1,1.93-.62Zm-5-.86c0,2.01.65,3.91,1.77,5.47.11.15.35.09.36-.1l.25-3.15-2.03-2.36c-.12-.14-.35-.05-.35.13Zm17.23,5.46c1.11-1.56,1.76-3.46,1.77-5.48,0-.19-.23-.28-.35-.13l-2.04,2.37.26,3.14c.02.19.25.25.36.1Z"/>
</svg>