<?xml version="1.0" encoding="UTF-8"?>
<svg id="Fill" xmlns="http://www.w3.org/2000/svg" viewBox="0 0 24 24">
  <defs>
    <style>
      .cls-1 {
        fill: #282a32;
        stroke-width: 0px;
      }
    </style>
  </defs>
  <path class="cls-1" d="m21.5,19.49c-.45,0-.87-.09-1.24-.27l-1.85-.86c-1.04-.48-2.29-.48-3.33,0l-1.85.86c-.77.37-1.7.37-2.48,0l-1.85-.86c-1.04-.48-2.28-.48-3.32,0l-1.84.86c-.38.18-.8.27-1.24.27-.28,0-.5.23-.5.5v.51c0,.27.22.5.5.5h19c.27,0,.5-.22.5-.5v-.51c0-.27-.22-.5-.5-.5ZM15.32,3.1c-2.11-.78-4.48-.81-6.64.01-.24.09-.27.41-.05.54l1.68.94h3.37l1.69-.95c.22-.12.19-.45-.05-.54Zm-6.63,5.64l-2.81,1.63v3.27l2.81,1.63,2.81-1.63v-3.27l-2.81-1.63Zm-.39,7.46l-2.92-1.7-1.55.9c-.32.18-.44.59-.28.92.28.55.6,1.06.97,1.53l1.06-.49c1.03-.47,2.25-.48,3.28-.02l-.56-1.14Zm5.2-10.61h-3l-1.16,2.37,2.66,1.54,2.66-1.54-1.16-2.37Zm-6.09-1.49c-.23-.13-.51-.12-.73.03-1.35.9-2.42,2.14-3.13,3.55-.16.33-.04.73.28.92l1.56.9,2.91-1.7,1.23-2.51-2.12-1.19Zm7.9,4.64l-2.81,1.63v3.27l2.81,1.63,2.81-1.63v-3.27l-2.81-1.63Zm-11.83.82c-.29-.17-.66-.02-.74.31-.31,1.37-.33,2.82,0,4.25.08.33.45.49.74.32l1.4-.81v-3.26l-1.4-.81Zm16.97-1.88c-.74-1.48-1.84-2.67-3.14-3.55-.22-.15-.5-.16-.73-.03l-2.11,1.19,1.22,2.51,2.93,1.7,1.56-.9c.32-.19.44-.59.27-.92Zm.8,2.18c-.07-.33-.45-.48-.74-.32l-1.39.82v3.28l1.4.8c.29.17.66.01.73-.31.33-1.37.34-2.83,0-4.27Zm-1.07,5.55l-1.56-.91-2.93,1.7-.55,1.14c1.03-.46,2.25-.45,3.27.02l1.06.49c.38-.48.7-.99.98-1.53.17-.32.04-.73-.27-.91Zm-8.18-.91l-2.66,1.55.96,1.96c1.14.65,2.2.64,3.41-.01l.95-1.95-2.66-1.55Z"/>
</svg>