<?xml version="1.0" encoding="UTF-8"?>
<svg id="Fill" xmlns="http://www.w3.org/2000/svg" viewBox="0 0 24 24">
  <defs>
    <style>
      .cls-1 {
        fill: #282a32;
        stroke-width: 0px;
      }
    </style>
  </defs>
  <path class="cls-1" d="m11.21,13.06c.2.08,1.38.57,1.39.57l-1.51,2.25c-.07.1-.09.19-.09.37v.25h-2.31c1.76-1.41,2.31-2.69,2.52-3.44Zm9.79-6.06v10c0,2.21-1.79,4-4,4H7c-2.21,0-4-1.79-4-4V7c0-2.21,1.79-4,4-4h10c2.21,0,4,1.79,4,4Zm-9.5.5c0,.83.67,1.5,1.5,1.5s1.5-.67,1.5-1.5-.67-1.5-1.5-1.5-1.5.67-1.5,1.5Zm-4.61,6.91c.36.21.82.08,1.02-.27l1.39-2.4c.21-.36.08-.82-.27-1.02l.53-.91c.21-.36.08-.82-.27-1.02-.07-.04-.15-.06-.23-.08l1.92-3.32c.07-.12.03-.27-.09-.34-.12-.07-.27-.03-.34.09l-.14.25-.4-.23c-.12-.07-.27-.03-.34.09-.07.12-.03.27.09.34l.4.23-2.76,4.75c-.21.36-.08.82.27,1.02l-1.04,1.81c-.21.36-.08.82.27,1.02Zm12.04,1.84c-.1-.1-.26-.1-.35,0-.16.16-.38.26-.62.26h-3.96v-.25c0-.41-.34-.75-.75-.75h-.56c.36-.44.74-.91.94-1.15.61-.75.41-1.49-.25-1.84-.23-.13-1.25-.65-1.55-.81.07-.17.13-.33.18-.48,1.21.41,2.45.17,3.25-.64l2.62,4.55c.05.08.13.12.22.12.04,0,.09-.01.12-.03.12-.07.16-.22.09-.34l-2.72-4.71c.23-.35.39-.78.46-1.28.11-.55-.71-.83-.95-.31-.24.49-.52.95-.88,1.12-.71.44-1.64-.07-2.34-.38-2.3-1.32-.88,5.32-5.96,7.75-.25.12-.42.39-.42.67v.54c0,.14.09.21.25.21h7.58c.37,0,.71-.14.97-.4.1-.1.1-.26,0-.35s-.26-.1-.35,0c-.17.17-.38.26-.62.26h-4.83v-.25c0-.33-.22-.61-.53-.7.01-.01.03-.02.04-.03h9.94c.37,0,.71-.14.97-.4.1-.1.1-.26,0-.35Z"/>
</svg>