<?xml version="1.0" encoding="UTF-8"?>
<svg id="Fill" xmlns="http://www.w3.org/2000/svg" viewBox="0 0 24 24">
  <defs>
    <style>
      .cls-1 {
        fill: #282a32;
        stroke-width: 0px;
      }
    </style>
  </defs>
  <path class="cls-1" d="m14.5,12.38c-.17-.26-.39-.45-.67-.58.21-.14.37-.32.49-.53.11-.22.17-.46.17-.73,0-.34-.09-.64-.27-.91-.18-.27-.45-.49-.82-.65-.37-.16-.84-.23-1.41-.23s-1.04.08-1.41.24c-.37.16-.65.38-.83.65-.18.27-.27.57-.27.91,0,.28.06.52.18.73.11.2.28.38.5.52-.27.13-.48.33-.65.58-.18.26-.26.55-.26.88,0,.27.05.53.17.77.11.24.28.45.5.63.23.18.51.32.86.43.35.1.75.16,1.21.16.62,0,1.13-.09,1.54-.27.41-.18.71-.42.91-.72.21-.3.31-.63.31-.99,0-.33-.08-.63-.25-.89Zm-3.32-2.14c.08-.1.19-.19.33-.25.14-.06.3-.09.48-.09s.35.03.49.09c.14.06.25.15.33.25.08.11.12.24.12.38,0,.15-.04.27-.12.38-.08.1-.2.19-.34.25-.14.06-.3.09-.48.09s-.34-.03-.48-.09c-.14-.06-.25-.14-.33-.25-.08-.11-.12-.23-.12-.38,0-.14.04-.27.12-.38Zm1.73,3.47c-.09.12-.22.21-.38.28-.16.07-.34.1-.54.1s-.38-.03-.54-.1c-.16-.07-.29-.16-.38-.28-.1-.13-.14-.28-.14-.45,0-.18.04-.32.14-.44.09-.12.22-.22.38-.28.16-.07.34-.1.54-.1s.38.03.54.1c.16.06.29.16.38.28.1.12.14.26.14.44,0,.17-.04.32-.14.45Zm1.59-1.33c-.17-.26-.39-.45-.67-.58.21-.14.37-.32.49-.53.11-.22.17-.46.17-.73,0-.34-.09-.64-.27-.91-.18-.27-.45-.49-.82-.65-.37-.16-.84-.23-1.41-.23s-1.04.08-1.41.24c-.37.16-.65.38-.83.65-.18.27-.27.57-.27.91,0,.28.06.52.18.73.11.2.28.38.5.52-.27.13-.48.33-.65.58-.18.26-.26.55-.26.88,0,.27.05.53.17.77.11.24.28.45.5.63.23.18.51.32.86.43.35.1.75.16,1.21.16.62,0,1.13-.09,1.54-.27.41-.18.71-.42.91-.72.21-.3.31-.63.31-.99,0-.33-.08-.63-.25-.89Zm-3.32-2.14c.08-.1.19-.19.33-.25.14-.06.3-.09.48-.09s.35.03.49.09c.14.06.25.15.33.25.08.11.12.24.12.38,0,.15-.04.27-.12.38-.08.1-.2.19-.34.25-.14.06-.3.09-.48.09s-.34-.03-.48-.09c-.14-.06-.25-.14-.33-.25-.08-.11-.12-.23-.12-.38,0-.14.04-.27.12-.38Zm1.73,3.47c-.09.12-.22.21-.38.28-.16.07-.34.1-.54.1s-.38-.03-.54-.1c-.16-.07-.29-.16-.38-.28-.1-.13-.14-.28-.14-.45,0-.18.04-.32.14-.44.09-.12.22-.22.38-.28.16-.07.34-.1.54-.1s.38.03.54.1c.16.06.29.16.38.28.1.12.14.26.14.44,0,.17-.04.32-.14.45Zm7.73,1.29c.22,0,.42-.14.49-.36.25-.84.38-1.73.38-2.64s-.13-1.81-.38-2.64c-.06-.21-.27-.36-.49-.36h-3.45c-.2-.36-.45-.7-.73-1h3.82c.15,0,.25-.16.18-.3-1.56-3.09-4.77-5.2-8.47-5.2S5.09,4.61,3.52,7.7c-.07.13.03.3.18.3h3.82c-.28.3-.52.64-.73,1h-3.44c-.22,0-.42.14-.49.36-.25.84-.38,1.73-.38,2.64s.13,1.81.38,2.64c.06.21.27.36.49.36h3.44c.21.36.45.7.73,1h-3.82c-.15,0-.25.16-.18.3,1.57,3.08,4.77,5.2,8.48,5.2s6.91-2.12,8.47-5.2c.07-.13-.03-.3-.18-.3h-3.82c.28-.3.53-.64.73-1h3.45Zm-8.64,2c-2.76,0-5-2.24-5-5s2.24-5,5-5,5,2.23,5,5-2.24,5-5,5Zm1.83-5.2c.21-.14.37-.32.49-.53.11-.22.17-.46.17-.73,0-.34-.09-.64-.27-.91-.18-.27-.45-.49-.82-.65-.37-.16-.84-.23-1.41-.23s-1.04.08-1.41.24c-.37.16-.65.38-.83.65-.18.27-.27.57-.27.91,0,.28.06.52.18.73.11.2.28.38.5.52-.27.13-.48.33-.65.58-.18.26-.26.55-.26.88,0,.27.05.53.17.77.11.24.28.45.5.63.23.18.51.32.86.43.35.1.75.16,1.21.16.62,0,1.13-.09,1.54-.27.41-.18.71-.42.91-.72.21-.3.31-.63.31-.99,0-.33-.08-.63-.25-.89-.17-.26-.39-.45-.67-.58Zm-2.65-1.56c.08-.1.19-.19.33-.25.14-.06.3-.09.48-.09s.35.03.49.09c.14.06.25.15.33.25.08.11.12.24.12.38,0,.15-.04.27-.12.38-.08.1-.2.19-.34.25-.14.06-.3.09-.48.09s-.34-.03-.48-.09c-.14-.06-.25-.14-.33-.25-.08-.11-.12-.23-.12-.38,0-.14.04-.27.12-.38Zm1.73,3.47c-.09.12-.22.21-.38.28-.16.07-.34.1-.54.1s-.38-.03-.54-.1c-.16-.07-.29-.16-.38-.28-.1-.13-.14-.28-.14-.45,0-.18.04-.32.14-.44.09-.12.22-.22.38-.28.16-.07.34-.1.54-.1s.38.03.54.1c.16.06.29.16.38.28.1.12.14.26.14.44,0,.17-.04.32-.14.45Z"/>
</svg>