<?xml version="1.0" encoding="UTF-8"?>
<svg id="Fill" xmlns="http://www.w3.org/2000/svg" viewBox="0 0 24 24">
  <defs>
    <style>
      .cls-1 {
        fill: #282a32;
        stroke-width: 0px;
      }
    </style>
  </defs>
  <path class="cls-1" d="m17,3H7c-2.21,0-4,1.79-4,4v10c0,2.21,1.79,4,4,4h10c2.21,0,4-1.79,4-4V7c0-2.21-1.79-4-4-4Zm-1.15,6.77c.7,0,1.26.56,1.26,1.26s-.56,1.26-1.26,1.26-1.26-.56-1.26-1.26.56-1.26,1.26-1.26Zm-2.69-1.53c.7,0,1.26.56,1.26,1.26s-.56,1.26-1.26,1.26-1.26-.56-1.26-1.26.56-1.26,1.26-1.26Zm-2.69-1.53c.7,0,1.26.56,1.26,1.26s-.56,1.26-1.26,1.26-1.26-.56-1.26-1.26.56-1.26,1.26-1.26Zm-2.69-1.53c.7,0,1.26.56,1.26,1.26s-.56,1.26-1.26,1.26-1.26-.56-1.26-1.26.56-1.26,1.26-1.26Zm-1.69,5.72c.14-.24.44-.32.68-.19l9.91,5.68c-.05-.65-.39-1.67-1.83-2.49l-8.46-4.85c-.24-.14-.32-.44-.19-.68.14-.24.44-.32.68-.19l8.46,4.85c2.4,1.38,2.51,3.43,2.24,4.33-.04.15-.15.26-.29.32-.06.02-.12.04-.18.04-.09,0-.17-.02-.25-.07l-10.59-6.07c-.24-.14-.32-.44-.19-.68Zm3.82,3.62c-.05.08-.13.12-.22.12-.04,0-.09-.01-.12-.03l-3.71-2.14c-.12-.07-.16-.22-.09-.34s.22-.16.34-.09l3.71,2.14c.12.07.16.22.09.34Zm8.35,3.73c-.22.38-.62.6-1.04.6-.2,0-.41-.05-.59-.16l-3.45-2c-.12-.07-.16-.22-.09-.34.07-.12.22-.16.34-.09l3.45,1.99c.33.19.76.08.95-.25.07-.12.22-.16.34-.09.12.07.16.22.09.34Z"/>
</svg>