<?xml version="1.0" encoding="UTF-8"?>
<svg id="Fill" xmlns="http://www.w3.org/2000/svg" viewBox="0 0 24 24">
  <defs>
    <style>
      .cls-1 {
        fill: #282a32;
        stroke-width: 0px;
      }
    </style>
  </defs>
  <path class="cls-1" d="m21,8.07c-.08-.15-.24-.25-.42-.26-.24,0-.52-.14-.77-.38-.3-.3-.37-.69-.28-.97.06-.18,0-.37-.13-.5-1.83-1.82-4.47-2.96-7.41-2.96s-5.57,1.14-7.39,2.95c-.13.13-.19.32-.14.5.08.28.01.68-.28.98-.25.24-.53.37-.77.38-.17,0-.33.11-.42.26-.64,1.19-1.01,2.52-1.01,3.93s.37,2.74,1.01,3.93c.08.15.24.25.41.26.24.01.52.14.77.39.3.3.35.67.27.96-.05.17,0,.36.13.49,1.83,1.83,4.47,2.98,7.42,2.98s5.58-1.14,7.41-2.96c.13-.13.17-.33.11-.51-.09-.28,0-.66.3-.95.25-.25.53-.38.77-.39.17,0,.33-.11.41-.26.64-1.19,1-2.52,1-3.93s-.36-2.74-1-3.93Zm-13.83,9.59c-.26.26-.77.18-1.13-.19-.37-.36-.45-.87-.19-1.13s.77-.17,1.13.19.45.87.19,1.13Zm-.19-10.19c-.36.37-.87.45-1.13.19s-.18-.76.19-1.13.87-.45,1.13-.19.18.77-.19,1.13Zm2.89,10.14c-.29.29-.79.25-1.13-.09-.34-.34-.38-.84-.1-1.13.29-.29.8-.25,1.14.09.33.34.38.85.09,1.13Zm-.09-10.09c-.34.34-.85.38-1.14.09-.28-.28-.24-.79.1-1.13.34-.34.84-.38,1.13-.09s.24.79-.09,1.13Zm2.79,10.05c-.31.31-.82.31-1.13,0-.31-.32-.31-.82,0-1.13.31-.32.82-.32,1.13,0,.31.31.31.81,0,1.13Zm0-10c-.31.31-.82.31-1.13,0-.31-.32-.31-.83,0-1.14.31-.32.82-.32,1.13,0,.31.31.31.82,0,1.14Zm2.7,9.95c-.34.34-.84.38-1.13.09-.29-.28-.25-.79.09-1.13.34-.34.85-.38,1.13-.09.29.29.25.79-.09,1.13Zm.09-9.91c-.28.29-.79.25-1.13-.09-.34-.34-.38-.84-.09-1.13s.79-.25,1.13.09.38.85.09,1.13Zm2.61,9.86c-.36.37-.87.45-1.13.19-.26-.26-.18-.76.19-1.13s.87-.45,1.13-.19c.26.26.17.77-.19,1.13Zm.19-9.81c-.26.26-.77.18-1.13-.19-.37-.36-.45-.87-.19-1.13.26-.26.77-.17,1.13.19.36.37.45.87.19,1.13Z"/>
</svg>