<?xml version="1.0" encoding="UTF-8"?>
<svg id="Fill" xmlns="http://www.w3.org/2000/svg" viewBox="0 0 24 24">
  <defs>
    <style>
      .cls-1 {
        fill: #282a32;
        stroke-width: 0px;
      }
    </style>
  </defs>
  <path class="cls-1" d="m12,2.5C6.76,2.5,2.5,6.76,2.5,12s4.26,9.5,9.5,9.5,9.5-4.25,9.5-9.5S17.25,2.5,12,2.5Zm-4.64,6.1c-.24-.65.31-1.44,1.22-1.77.9-.33,1.83-.08,2.07.57.23.65-.31,1.45-1.22,1.78-.91.33-1.83.07-2.07-.58Zm4.64,7.15c-.96,0-1.75-.78-1.75-1.75s.79-1.75,1.75-1.75,1.75.79,1.75,1.75-.78,1.75-1.75,1.75Zm4.65-7.15c-.24.65-1.17.91-2.07.58-.91-.33-1.46-1.13-1.22-1.78.24-.65,1.16-.9,2.07-.57.91.33,1.45,1.12,1.22,1.77Z"/>
</svg>