<?xml version="1.0" encoding="UTF-8"?>
<svg id="Fill" xmlns="http://www.w3.org/2000/svg" viewBox="0 0 24 24">
  <defs>
    <style>
      .cls-1 {
        fill: #282a32;
        stroke-width: 0px;
      }
    </style>
  </defs>
  <path id="_Compound_Path_" data-name="&amp;lt;Compound Path&amp;gt;" class="cls-1" d="m6.94,21.7l-4.15-4.19c-.38-.39-.38-1.02,0-1.41l2.4-2.42c.39-.39,1.03-.39,1.42,0l4.15,4.19c.39.39.39,1.02,0,1.41l-2.4,2.42c-.39.39-1.03.39-1.42,0Zm13.03-14.72c-2.6-4.67-3.74-4.94-4.93-4.98-.54-.01-2.14.07-3.08,2.05-1.38,2.89,2.23,9.54,6.19,8.51.22-.06.45.08.54.29t0,.02c.1.27-.05.58-.34.65-1.76.39-3.42-.07-4.79-1.54-.92-.99-1.58-1.96-2.04-2.89-.29.73-.76,1.52-1.44,2.45-.16.22-.47.26-.69.11s-.25-.49-.1-.69c1.22-1.65,1.56-2.65,1.63-3.41-.35-1.17-.37-2.19-.21-2.95.07-.34-.19-.66-.54-.62-.5.06-1.18.26-1.75.84-1.42,1.44-2.15,3.43-1.98,5.45l.12,1.45c.03.35.18.68.43.93l4.76,4.8c.28.28.66.44,1.06.44,1.34-.02,4.5-.3,6.62-2.44,1.42-1.44,3.59-3.02.56-8.48Z"/>
</svg>