<?xml version="1.0" encoding="UTF-8"?>
<svg id="Fill" xmlns="http://www.w3.org/2000/svg" viewBox="0 0 24 24">
  <defs>
    <style>
      .cls-1 {
        fill: #282a32;
        stroke-width: 0px;
      }
    </style>
  </defs>
  <path class="cls-1" d="m12.63,14.76l1.47,1.47c-4.57,4.19-9.31,6.24-10.94,4.62-1.63-1.63.43-6.37,4.62-10.94l1.47,1.47c-1.21,1.66-1.58,3.37-.79,4.17.79.79,2.5.42,4.17-.78Zm8.57,5.47l-.97.97c-.35.35-.91.4-1.31.1-.3-.22-.59-.48-.88-.77-1.28-1.28-1.99-2.74-1.82-3.61L7.07,7.78c-.87.16-2.32-.54-3.61-1.82-.29-.29-.54-.58-.77-.88-.3-.4-.25-.96.1-1.31l.97-.97c.35-.35.91-.4,1.31-.1.29.22.59.48.88.77,1.28,1.28,1.99,2.74,1.82,3.61l1.4,1.4C13.97,3.82,19.12,1.45,20.84,3.17c1.71,1.71-.66,6.87-5.31,11.66l1.4,1.4c.87-.16,2.32.54,3.61,1.82.29.29.54.58.77.88.3.4.25.95-.1,1.31Zm-7.09-6.83c1.7-1.88,2.34-4.01,1.43-4.93s-3.05-.27-4.93,1.43l3.5,3.5Z"/>
</svg>