<?xml version="1.0" encoding="UTF-8"?>
<svg id="Fill" xmlns="http://www.w3.org/2000/svg" viewBox="0 0 24 24">
  <defs>
    <style>
      .cls-1 {
        fill: #282a32;
        stroke-width: 0px;
      }
    </style>
  </defs>
  <path class="cls-1" d="m12,5.51c.55,0,1,.45,1,1s-.45,1-1,1-1-.45-1-1,.45-1,1-1Zm6.73,9.11c-.53.47-.92.94-1.21,1.38H6.49c-.3-.44-.69-.91-1.22-1.38-3.11-2.77-3.65-6.49-1.36-8.42,1.85-1.56,3.9-1.34,5.48-.75.41.16.62.58.62,1.02-.01.65.29,1.3.91,1.71s1.48.43,2.12.04.98-1.08.97-1.75c0-.45.21-.88.63-1.03,1.57-.59,3.61-.79,5.45.76,2.3,1.93,1.75,5.65-1.36,8.42Zm-8.73-3.44c0-1.05-.85-1.97-1.99-2.15-.14-.02-.28-.03-.42-.03-.88,0-1.01.43-1.06.58-.27.88,1.1,2.26,2.2,3.37.45.46.89.9,1.27,1.34v-3.11Zm7.47-1.6c-.04-.15-.17-.58-1.06-.58-.13,0-.28,0-.42.03-1.13.18-1.99,1.1-1.99,2.15v3.11c.38-.44.82-.88,1.27-1.34,1.1-1.11,2.47-2.49,2.2-3.37Zm-3.47-4.78v-1.6l-1.41.21.21-1.41h-1.6l.21,1.41-1.41-.21v1.6l2-.3,2,.3Zm2.5,12.2H7.5c-.83,0-1.5.67-1.5,1.5v1.5c0,.55.45,1,1,1h10c.55,0,1-.45,1-1v-1.5c0-.83-.67-1.5-1.5-1.5Z"/>
</svg>