<?xml version="1.0" encoding="UTF-8"?>
<svg id="Fill" xmlns="http://www.w3.org/2000/svg" viewBox="0 0 24 24">
  <defs>
    <style>
      .cls-1 {
        fill: #282a32;
        stroke-width: 0px;
      }
    </style>
  </defs>
  <path class="cls-1" d="m17,3H7c-2.21,0-4,1.79-4,4v10c0,2.21,1.79,4,4,4h10c2.21,0,4-1.79,4-4V7c0-2.21-1.79-4-4-4Zm-6.45,2.85c.63-.53,1.58-.45,2.11.18.53.63.45,1.58-.19,2.11-.63.53-1.58.45-2.11-.18-.53-.63-.45-1.58.18-2.11Zm-4.55.78c0-.35.28-.63.63-.63s.63.28.63.63-.28.63-.63.63-.63-.28-.63-.63Zm1.37,6.37c-.35,0-.63-.28-.63-.63s.28-.63.63-.63.63.28.63.63-.28.63-.63.63Zm7.07,3.6c.36.21.48.67.27,1.02-.21.36-.67.48-1.02.27l-.86-.5c-.36-.21-.55-.71-.27-1.02.71-.81,1.15-1.74,1.04-2.37-.05-.27-1.36-.62-1.69-.6-.59,1.24-1.42,2.36-2.39,3.27v1.07c0,.41-.34.75-.75.75s-.75-.34-.75-.75v-1c0-.35.25-.64.58-.72.99-1.44,1.99-3.18,2.15-5.39-.8.02-1.59-.16-2.26-.62-.61-.45-.75-2.07.25-1.85.24.09.34.33.32.56,0,.24.04.32.17.42.74.39,1.79.2,2.62-.03,1.3-.37,2.45-1.14,3.25-2.2.36-.49,1.15.03.84.55-.62,1.1-1.77,2.09-3.06,2.66-.09.51-.24,1.26-.34,1.59.54.19,1.73.93,1.99,1.12.77.57.47,1.5.19,2.02-.26.48-.51.97-.8,1.43l.53.31Zm1.93,2.4c-.35,0-.63-.28-.63-.63s.28-.63.63-.63.63.28.63.63-.28.63-.63.63Zm.26-7.74c-.35,0-.63-.28-.63-.63s.28-.63.63-.63.63.28.63.63-.28.63-.63.63Zm.74-5.01c-.35,0-.63-.28-.63-.63s.28-.63.63-.63.63.28.63.63-.28.63-.63.63Z"/>
</svg>