<?xml version="1.0" encoding="UTF-8"?>
<svg id="Fill" xmlns="http://www.w3.org/2000/svg" viewBox="0 0 24 24">
  <defs>
    <style>
      .cls-1 {
        fill: #282a32;
        stroke-width: 0px;
      }
    </style>
  </defs>
  <path class="cls-1" d="m3.54,8.16c-.05-.05-.1-.09-.16-.12,1.5-3.27,4.79-5.54,8.62-5.54s7.28,2.38,8.72,5.78l-.07.08c-.03-.07-.06-.14-.11-.2-.2-.21-.52-.21-.71,0l-.18.2c-.03-.07-.06-.14-.11-.2-.2-.21-.52-.21-.71,0l-.18.2c-.03-.07-.06-.14-.11-.2-.2-.21-.52-.21-.71,0l-.18.2c-.03-.07-.06-.14-.11-.2-.2-.21-.52-.21-.71,0l-.18.2c-.03-.07-.06-.14-.11-.2-.2-.21-.52-.21-.71,0l-.18.2c-.03-.07-.06-.14-.11-.2-.2-.21-.52-.21-.71,0l-.18.2c-.03-.07-.06-.14-.11-.2-.2-.21-.52-.21-.71,0l-.18.2c-.03-.07-.06-.14-.11-.2-.2-.21-.52-.21-.71,0l-.18.2c-.03-.07-.06-.14-.11-.2-.2-.21-.52-.21-.71,0l-.18.2c-.03-.07-.06-.14-.11-.2-.2-.21-.52-.21-.71,0l-.18.2c-.03-.07-.06-.14-.11-.2-.2-.21-.52-.21-.71,0l-.18.2c-.03-.07-.06-.14-.11-.2-.2-.21-.52-.21-.71,0l-.18.2c-.03-.07-.06-.14-.11-.2-.2-.21-.52-.21-.71,0l-.18.2c-.03-.07-.06-.14-.11-.2-.2-.21-.52-.21-.71,0l-.18.2c-.03-.07-.06-.14-.11-.2-.2-.21-.52-.21-.71,0l-.18.2c-.03-.07-.06-.14-.11-.2-.2-.21-.52-.21-.71,0l-.18.2c-.03-.07-.06-.14-.11-.2-.2-.21-.52-.21-.71,0l-.18.2c-.03-.07-.06-.14-.11-.2Zm18.03,2.34h-.2c-.06-.37-.14-.74-.25-1.1-.2.16-.47.14-.65-.06-.05-.06-.09-.13-.11-.2l-.18.2c-.2.22-.51.22-.71,0-.05-.06-.09-.13-.11-.2l-.18.2c-.2.22-.51.22-.71,0-.05-.06-.09-.13-.11-.2l-.18.2c-.2.22-.51.22-.71,0-.05-.06-.09-.13-.11-.2l-.18.2c-.2.22-.51.22-.71,0-.05-.06-.09-.13-.11-.2l-.18.2c-.2.22-.51.22-.71,0-.05-.06-.09-.13-.11-.2l-.18.2c-.2.22-.51.22-.71,0-.05-.06-.09-.13-.11-.2l-.18.2c-.2.22-.51.22-.71,0-.05-.06-.09-.13-.11-.2l-.18.2c-.2.22-.51.22-.71,0-.05-.06-.09-.13-.11-.2l-.18.2c-.2.22-.51.22-.71,0-.05-.06-.09-.13-.11-.2l-.18.2c-.2.22-.51.22-.71,0-.05-.06-.09-.13-.11-.2l-.18.2c-.2.22-.51.22-.71,0-.05-.06-.09-.13-.11-.2l-.18.2c-.2.22-.51.22-.71,0-.05-.06-.09-.13-.11-.2l-.18.2c-.2.22-.51.22-.71,0-.05-.06-.09-.13-.11-.2l-.18.2c-.2.22-.51.22-.71,0-.05-.06-.09-.13-.11-.2l-.18.2c-.2.22-.51.22-.71,0-.05-.06-.09-.13-.11-.2l-.18.2c-.2.22-.51.22-.71,0-.05-.06-.09-.13-.11-.2l-.18.2c-.2.22-.51.22-.71,0-.05-.06-.09-.13-.11-.2l-.18.2c-.09.1-.21.15-.33.16-.09.33-.17.66-.22,1h-.19c-.24,0-.44.2-.44.43v.57h20v-.57c0-.23-.19-.43-.43-.43Zm-1.03,5.34c-.2.22-.52.22-.71,0l-.18-.2c-.03.07-.06.14-.11.2-.2.22-.52.22-.71,0l-.18-.2c-.03.07-.06.14-.11.2-.2.22-.52.22-.71,0l-.18-.2c-.03.07-.06.14-.11.2-.2.22-.52.22-.71,0l-.18-.2c-.03.07-.06.14-.11.2-.2.22-.52.22-.71,0l-.18-.2c-.03.07-.06.14-.11.2-.2.22-.52.22-.71,0l-.18-.2c-.03.07-.06.14-.11.2-.2.22-.52.22-.71,0l-.18-.2c-.03.07-.06.14-.11.2-.2.22-.52.22-.71,0l-.18-.2c-.03.07-.06.14-.11.2-.2.22-.52.22-.71,0l-.18-.2c-.03.07-.06.14-.11.2-.2.22-.52.22-.71,0l-.18-.2c-.03.07-.06.14-.11.2-.2.22-.52.22-.71,0l-.18-.2c-.03.07-.06.14-.11.2-.2.22-.52.22-.71,0l-.18-.2c-.03.07-.06.14-.11.2-.2.22-.52.22-.71,0l-.18-.2c-.03.07-.06.14-.11.2-.2.22-.52.22-.71,0l-.18-.2c-.03.07-.06.14-.11.2-.2.22-.52.22-.71,0l-.18-.2c-.03.07-.06.14-.11.2-.2.22-.52.22-.71,0l-.18-.2c-.03.07-.06.14-.11.2-.2.22-.52.22-.71,0l-.18-.2c-.03.07-.06.14-.11.2-.05.05-.1.09-.16.12,1.5,3.27,4.79,5.54,8.62,5.54s7.28-2.38,8.72-5.78l-.07-.08c-.03.07-.06.14-.11.2ZM2,12.5v.57c0,.24.2.43.44.43h.19c.05.34.13.67.22,1,.12.01.24.07.33.16l.18.2c.02-.07.06-.14.11-.2.2-.21.51-.21.71,0l.18.2c.02-.07.06-.14.11-.2.2-.21.51-.21.71,0l.18.2c.02-.07.06-.14.11-.2.2-.21.51-.21.71,0l.18.2c.02-.07.06-.14.11-.2.2-.21.51-.21.71,0l.18.2c.02-.07.06-.14.11-.2.2-.21.51-.21.71,0l.18.2c.02-.07.06-.14.11-.2.2-.21.51-.21.71,0l.18.2c.02-.07.06-.14.11-.2.2-.21.51-.21.71,0l.18.2c.02-.07.06-.14.11-.2.2-.21.51-.21.71,0l.18.2c.02-.07.06-.14.11-.2.2-.21.51-.21.71,0l.18.2c.02-.07.06-.14.11-.2.2-.21.51-.21.71,0l.18.2c.02-.07.06-.14.11-.2.2-.21.51-.21.71,0l.18.2c.02-.07.06-.14.11-.2.2-.21.51-.21.71,0l.18.2c.02-.07.06-.14.11-.2.2-.21.51-.21.71,0l.18.2c.02-.07.06-.14.11-.2.2-.21.51-.21.71,0l.18.2c.02-.07.06-.14.11-.2.2-.21.51-.21.71,0l.18.2c.02-.07.06-.14.11-.2.2-.21.51-.21.71,0l.18.2c.02-.07.06-.14.11-.2.2-.21.51-.21.71,0l.18.2c.02-.07.06-.14.11-.2.18-.19.45-.21.65-.06.11-.36.19-.73.25-1.1h.2c.24,0,.43-.19.43-.43v-.57H2Z"/>
</svg>