<?xml version="1.0" encoding="UTF-8"?>
<svg id="Fill" xmlns="http://www.w3.org/2000/svg" viewBox="0 0 24 24">
  <defs>
    <style>
      .cls-1 {
        fill: #282a32;
        stroke-width: 0px;
      }
    </style>
  </defs>
  <path class="cls-1" d="m21.5,14.5v.5H2.5v-.5c0-2.48,2.02-4.5,4.5-4.5h10c2.49,0,4.5,2.02,4.5,4.5Zm-19,2c0,2.49,2.02,4.5,4.5,4.5h10c2.49,0,4.5-2.01,4.5-4.5v-.5H2.5v.5Zm15.76-8.5c-.37-.26-.88-.51-1.49-.73-.8-.29-1.43-.91-1.74-1.7l-.53-1.32c-.3-.76-1.04-1.26-1.86-1.26h-4.61c-.53,0-1,.4-1.03.93-.04.58.42,1.07,1,1.07h5.22c.46,0,.86.31.97.76h0c.11.44-.25.86-.71.82s-.97-.07-1.48-.07c-2.74,0-5.11.7-6.26,1.5-.44.31-.21,1,.32,1h11.88c.53,0,.76-.69.32-1Z"/>
</svg>