<?xml version="1.0" encoding="UTF-8"?>
<svg id="Fill" xmlns="http://www.w3.org/2000/svg" viewBox="0 0 24 24">
  <defs>
    <style>
      .cls-1 {
        fill: #282a32;
        stroke-width: 0px;
      }
    </style>
  </defs>
  <path class="cls-1" d="m18,15.1c0,.97-.79,1.75-1.75,1.75s-1.75-.79-1.75-1.75.79-1.75,1.75-1.75,1.75.79,1.75,1.75Zm-10.25-1.74c-.96,0-1.75.78-1.75,1.75s.78,1.75,1.75,1.75,1.75-.78,1.75-1.75-.78-1.75-1.75-1.75Zm13.25-6.35v10c0,2.21-1.79,4-4,4H7c-2.21,0-4-1.79-4-4V7c0-2.21,1.79-4,4-4h10c2.21,0,4,1.79,4,4Zm-6.25.65c0,.83.67,1.5,1.5,1.5s1.5-.67,1.5-1.5-.67-1.5-1.5-1.5-1.5.67-1.5,1.5Zm-4.25,7.45c0-1.52-1.23-2.75-2.75-2.75s-2.75,1.23-2.75,2.75,1.23,2.75,2.75,2.75,2.75-1.23,2.75-2.75Zm2.91-2.13c.02-1.31-1.32-1.61-2.26-2.13-.02,0-.03-.06,0-.07.24-.17,1.81-1.02,1.96-1.19.04.03-.09-.17.27.27,1.05,1.18,2.64,1.63,4.03,1.49.59-.05.59-.95,0-1-1.18-.11-2.24-.64-2.87-1.46-.22-.4-.69-.83-1.19-.89-.48-.12-1.05.14-1.43.36-.54.3-1.24.63-1.77.96-1.14.71-1.03,2.58.2,3.13.29.13,1.06.49,1.35.6,0,0,.07.03.09.04-.33.87-.74,1.86-1.03,2.76-.07.21,0,.44.2.57.23.16.54.1.7-.13.37-.54.69-1.1,1.03-1.65.24-.46.76-1.11.73-1.66Zm5.6,2.12c0-1.52-1.23-2.75-2.75-2.75s-2.75,1.23-2.75,2.75,1.23,2.75,2.75,2.75,2.75-1.23,2.75-2.75Z"/>
</svg>