<?xml version="1.0" encoding="UTF-8"?>
<svg id="Fill" xmlns="http://www.w3.org/2000/svg" viewBox="0 0 24 24">
  <defs>
    <style>
      .cls-1 {
        fill: #282a32;
        stroke-width: 0px;
      }
    </style>
  </defs>
  <path class="cls-1" d="m9.7,9.7c-1.27,1.27-1.27,3.33,0,4.6,1.27,1.27,3.33,1.27,4.6,0,.81-.81,1.11-1.95.87-2.99l2.13-2.13c1.2,2.27.85,5.16-1.06,7.06-2.34,2.34-6.14,2.34-8.48,0-2.34-2.33-2.34-6.14,0-8.48,1.91-1.91,4.79-2.26,7.06-1.05l-2.12,2.12c-1.05-.24-2.19.06-3,.87Zm8.33-1.25c1.59,2.68,1.23,6.2-1.08,8.5-2.73,2.74-7.16,2.74-9.9,0-2.73-2.73-2.73-7.16,0-9.9,2.31-2.3,5.83-2.66,8.51-1.07l1.81-1.82c-3.7-2.54-8.8-2.17-12.09,1.12-3.71,3.71-3.71,9.73,0,13.44,3.71,3.71,9.73,3.71,13.44,0,3.28-3.28,3.66-8.38,1.12-12.08l-1.81,1.81Zm3.81-4.61l-1.07-.21c-.2-.04-.35-.19-.39-.39l-.21-1.07c-.03-.16-.22-.21-.34-.1l-1.48,1.48c-.24.24-.34.58-.27.9l.07.36-5.17,5.18c-.29-.14-.62-.22-.96-.22-1.24,0-2.25,1.01-2.25,2.25s1.01,2.25,2.25,2.25,2.25-1.01,2.25-2.25c0-.35-.08-.67-.22-.96l5.17-5.17.36.07c.33.07.67-.04.9-.27l1.48-1.48c.11-.11.05-.31-.1-.34Z"/>
</svg>