<?xml version="1.0" encoding="UTF-8"?>
<svg id="Fill" xmlns="http://www.w3.org/2000/svg" viewBox="0 0 24 24">
  <defs>
    <style>
      .cls-1 {
        fill: #282a32;
        stroke-width: 0px;
      }
    </style>
  </defs>
  <path class="cls-1" d="m17.09,21H6.91c-.55,0-1-.45-1-1h0c0-.55.45-1,1-1h10.18c.55,0,1,.45,1,1h0c0,.55-.45,1-1,1Zm-1.03-3c0-3-2.54-1.93-2.54-4s1.16-2.28,2.54-5c.75-1.48.95-2.96,1-4.44.03-.85-.66-1.56-1.52-1.56h-7.07c-.86,0-1.55.71-1.52,1.56.05,1.48.25,2.96,1,4.44,1.38,2.72,2.53,2.91,2.53,5s-2.53,1-2.53,4h8.12Zm4.89-10.58c-.21.93-.66,1.85-1.64,2.78-1.57,1.5-3.45,2.11-4.61,2.83.13-.35.37-.66.71-1.13.14-.19.29-.39.45-.61.9-.46,1.89-.99,2.75-1.81.73-.69,1.16-1.42,1.36-2.28.08-.39-.09-.68-.2-.81-.19-.25-.49-.39-.8-.39h-.98c.04-.34.06-.68.08-1h.9c1.29,0,2.27,1.18,1.99,2.42Zm-12.36,4.48c.34.46.57.77.7,1.12-1.16-.71-3.02-1.33-4.6-2.82-.97-.93-1.43-1.85-1.64-2.78-.28-1.24.7-2.42,1.99-2.42h.91c.01.32.04.66.08,1h-.99c-.31,0-.61.14-.8.39-.11.13-.28.42-.19.81.19.86.63,1.59,1.36,2.28.85.82,1.84,1.35,2.74,1.81.15.22.3.42.45.61Z"/>
</svg>