<?xml version="1.0" encoding="UTF-8"?>
<svg id="Fill" xmlns="http://www.w3.org/2000/svg" viewBox="0 0 24 24">
  <defs>
    <style>
      .cls-1 {
        fill: #282a32;
        stroke-width: 0px;
      }
    </style>
  </defs>
  <path class="cls-1" d="m17.77,4.35c-1.3-.98-2.8-1.58-4.34-1.82-.47-.07-.87.32-.82.8.2,1.84.95,3.63,2.26,5.09l2.99-2.99c.31-.31.26-.82-.09-1.08Zm1.88,1.88c-.26-.35-.76-.4-1.07-.09l-3,2.99c1.46,1.31,3.25,2.07,5.1,2.26.47.05.86-.35.79-.82-.23-1.54-.84-3.04-1.82-4.34Zm-8.06-3.07c-.03-.42-.38-.71-.79-.66-1.62.2-3.2.82-4.56,1.85-.35.26-.4.77-.09,1.08l5.85,5.86,2.16-2.16c-1.56-1.7-2.41-3.82-2.58-5.97Zm3.29,6.69l-2.15,2.15,1.27,1.27c.96-.79,2.18-1.27,3.51-1.27.77,0,1.35.06,1.81.18-1.61-.38-3.14-1.15-4.44-2.33Zm-1.6,4.13l-1.27-1.27-2.16,2.17c1.16,1.28,1.94,2.79,2.32,4.37-.11-.44-.16-1-.16-1.75,0-1.34.47-2.57,1.27-3.52Zm-7.83-7.84c-.31-.31-.82-.26-1.08.09-1.03,1.37-1.65,2.94-1.86,4.56-.05.41.25.77.66.8,2.15.16,4.27,1.02,5.97,2.57l2.16-2.16-5.85-5.86Zm-2.11,6.48c-.47-.05-.86.35-.79.82.23,1.54.84,3.03,1.82,4.33.28.37.75.42,1.08.09l2.98-2.98c-1.45-1.31-3.25-2.06-5.09-2.26Zm5.89,3.06s-.12-.05-.17,0l-2.81,2.8c-.37.38-.32.94.11,1.25,1.27.93,2.72,1.52,4.22,1.74.47.07.88-.32.82-.79-.19-1.8-.91-3.56-2.17-5Zm9.71.59c.13.24.19.51.19.81v.03h-3.24v-.03c0-.31.06-.58.19-.81.13-.24.31-.43.55-.56.24-.14.53-.21.87-.21s.63.07.87.21c.24.14.43.33.56.56Zm3.07,1.23c0,2.48-2.01,4.5-4.5,4.5s-4.5-2.01-4.5-4.5,2.01-4.5,4.5-4.5,4.5,2.01,4.5,4.5Zm-1.75-.09c0-.54-.11-1-.32-1.41s-.52-.71-.93-.93c-.41-.22-.91-.33-1.51-.33-.54,0-1,.1-1.4.3-.4.2-.71.48-.94.84-.23.36-.36.79-.39,1.27,0,.09-.01.2-.01.34s0,.25.01.34c.05.75.31,1.34.79,1.77s1.13.65,1.95.65c.4,0,.76-.05,1.08-.14s.59-.21.8-.35c.22-.14.38-.29.5-.43.12-.15.18-.27.19-.37,0-.07-.01-.12-.06-.16-.05-.04-.11-.06-.18-.06h-.58c-.09,0-.15,0-.19.03-.04.02-.09.07-.17.15-.04.05-.12.13-.24.22-.12.09-.27.17-.46.25-.19.07-.43.11-.71.11-.32,0-.6-.07-.84-.22-.24-.15-.42-.34-.55-.59-.13-.24-.2-.5-.21-.78v-.09h4.09c.08,0,.14-.02.2-.06s.08-.1.08-.17v-.17Z"/>
</svg>