<?xml version="1.0" encoding="UTF-8"?>
<svg id="Fill" xmlns="http://www.w3.org/2000/svg" viewBox="0 0 24 24">
  <defs>
    <style>
      .cls-1 {
        fill: #282a32;
        stroke-width: 0px;
      }
    </style>
  </defs>
  <path class="cls-1" d="m12.15,18.87h0s-3.07,1.9-3.07,1.9c-.19.11-.43.13-.63.05-.51-.2-.99-.45-1.46-.74-.19-.11-.31-.32-.33-.54l-.32-4.07,1.82-.93,3.93,1.99c-.15.76-.13,1.55.07,2.34Zm.34.96l-1.94,1.2c-.16.09-.11.34.07.37.97.14,1.97.13,2.95-.03-.44-.44-.8-.95-1.08-1.54Zm-4.79-6.19l.72-4.51-1.44-1.44-3.83,1.59c-.2.08-.36.26-.41.47-.13.51-.21,1.04-.24,1.56-.01.22.08.43.25.57l3.14,2.68,1.82-.93Zm5.98-4.92l-4.29.68-.68,4.29,3.64,1.85c.53-1.43,1.66-2.62,3.2-3.19l-1.86-3.63Zm-4.56-.29l4.51-.71.92-1.81-2.66-3.14c-.14-.17-.36-.26-.58-.25-.53.03-1.05.12-1.56.24-.22.05-.39.21-.48.41l-1.59,3.82,1.44,1.44Zm12.28,2.2c-.03-.19-.27-.24-.37-.08l-1.21,1.97c.57.27,1.1.63,1.54,1.08.17-.98.18-1.98.04-2.97Zm-.59-2.18c-.2-.49-.44-.98-.74-1.44-.12-.19-.32-.31-.54-.33l-4.08-.31-.93,1.8,2,3.92c.79-.14,1.59-.11,2.33.09l1.89-3.11c.12-.18.14-.41.06-.62Zm-2.14-3.21c-1.43-1.42-3.23-2.3-5.13-2.62-.19-.03-.31.19-.19.33l2.05,2.4,3.11.23c.19.01.29-.21.15-.34ZM2.6,13.56c.32,1.89,1.2,3.7,2.63,5.13.13.13.36.03.34-.15l-.24-3.13-2.41-2.04c-.14-.12-.36,0-.33.19ZM7.64,3.54c-1.72.88-3.19,2.29-4.12,4.1-.09.17.08.35.25.28l2.93-1.2,1.21-2.92c.07-.17-.11-.34-.28-.25Zm10.72,12.16c-.25-.14-.54-.21-.88-.21s-.63.07-.87.21c-.24.14-.42.33-.55.57-.13.24-.19.51-.19.82v.03h3.25v-.03c0-.31-.07-.58-.2-.82-.13-.24-.32-.43-.56-.57Zm-.87-2.71c-2.49,0-4.51,2.02-4.51,4.5s2.02,4.5,4.51,4.5,4.51-2.02,4.51-4.5-2.02-4.5-4.51-4.5Zm2.75,4.59c0,.07-.03.13-.08.17s-.12.06-.2.06h-4.1v.09c.02.28.09.54.21.78.13.24.31.44.55.59.24.15.52.22.85.22.28,0,.52-.04.71-.11.19-.07.34-.16.46-.25.12-.09.2-.16.24-.22.07-.08.13-.13.17-.15.04-.02.1-.03.19-.03h.58c.07,0,.13.02.18.06.05.04.07.09.07.16,0,.1-.07.23-.19.37-.12.15-.29.29-.5.43-.22.14-.49.26-.81.35s-.68.14-1.08.14c-.82,0-1.47-.22-1.95-.65s-.75-1.02-.79-1.77c0-.09-.01-.2-.01-.34s0-.25.01-.34c.03-.48.16-.91.39-1.27.23-.36.54-.64.94-.84.4-.2.87-.3,1.4-.3.6,0,1.1.11,1.51.33.41.22.72.53.93.93s.32.87.32,1.41v.17Z"/>
</svg>