<?xml version="1.0" encoding="UTF-8"?>
<svg id="Fill" xmlns="http://www.w3.org/2000/svg" viewBox="0 0 24 24">
  <defs>
    <style>
      .cls-1 {
        fill: #282a32;
        stroke-width: 0px;
      }
    </style>
  </defs>
  <path class="cls-1" d="m12,17.5c0,1.34.47,2.57,1.27,3.52-2.19.78-4.24.63-5.48-.61l-1.45-1.44c-.25-.25-.07-.67.28-.68,1.71-.02,3.64-.68,5.49-1.91-.07.36-.11.74-.11,1.12Zm8.41-9.71l-1.44-1.44c-.25-.26-.67-.08-.68.27-.02,1.71-.68,3.64-1.9,5.49.36-.07.73-.11,1.11-.11,1.34,0,2.56.48,3.52,1.28.78-2.19.63-4.25-.61-5.49Zm-6.66,5.96c-3.49,3.48-8.03,4.58-10.16,2.45-2.13-2.13-1.03-6.67,2.45-10.16,3.49-3.48,8.03-4.58,10.16-2.45,2.13,2.13,1.03,6.68-2.45,10.16Zm4.62,1.95c-.24-.14-.54-.21-.88-.21s-.63.07-.87.21c-.24.14-.42.33-.55.57-.13.24-.19.51-.19.81v.03h3.24v-.03c0-.31-.06-.58-.19-.81-.13-.24-.32-.43-.56-.57Zm-.87-2.7c-2.48,0-4.5,2.01-4.5,4.5s2.02,4.5,4.5,4.5,4.5-2.01,4.5-4.5-2.01-4.5-4.5-4.5Zm2.75,4.58c0,.07-.03.13-.08.17s-.12.06-.2.06h-4.09v.09c.02.28.09.54.21.78.13.24.31.44.55.59.24.15.52.22.85.22.28,0,.52-.04.71-.11.19-.07.34-.16.46-.25.12-.09.2-.16.24-.22.07-.08.13-.13.17-.15.04-.02.1-.03.19-.03h.58c.07,0,.13.02.18.06.05.04.07.09.06.16,0,.1-.07.23-.19.37-.12.15-.29.29-.5.43-.22.14-.48.26-.8.35s-.68.14-1.08.14c-.82,0-1.47-.22-1.95-.65s-.75-1.02-.79-1.77c0-.09-.01-.2-.01-.34s0-.25.01-.34c.03-.48.16-.9.39-1.27.23-.36.54-.64.94-.84.4-.2.87-.3,1.4-.3.6,0,1.1.11,1.51.33.41.22.72.53.93.93s.32.87.32,1.41v.17Z"/>
</svg>