<?xml version="1.0" encoding="UTF-8"?>
<svg id="Fill" xmlns="http://www.w3.org/2000/svg" viewBox="0 0 24 24">
  <defs>
    <style>
      .cls-1 {
        fill: #282a32;
        stroke-width: 0px;
      }
    </style>
  </defs>
  <path class="cls-1" d="m9.16,14.84c1.67,1.67,2.55,3.84,2.63,6.04.01.36-.3.65-.66.62-4.58-.41-8.22-4.06-8.63-8.63-.03-.36.26-.67.62-.66,2.19.08,4.36.96,6.03,2.63Zm4.97-4.97c-1.86-1.86-2.83-4.27-2.93-6.72-.01-.36-.33-.63-.69-.57-4.07.64-7.3,3.86-7.93,7.93-.06.36.21.68.57.69,2.45.1,4.86,1.07,6.72,2.93.94.94,1.65,2.02,2.14,3.17.1-2.88,2.41-5.19,5.29-5.29-1.15-.49-2.23-1.2-3.17-2.14Zm-1.26-7.37c-.36-.03-.67.26-.66.62.08,2.19.96,4.36,2.63,6.04,1.67,1.67,3.84,2.55,6.04,2.63.36.01.65-.3.62-.66-.41-4.58-4.05-8.22-8.63-8.63Zm5.5,13.2c-.24-.14-.54-.21-.88-.21s-.63.07-.87.21c-.24.14-.42.33-.55.57-.13.24-.19.51-.19.81v.03h3.24v-.03c0-.31-.06-.58-.19-.81-.13-.24-.32-.43-.56-.57Zm-.87-2.7c-2.48,0-4.5,2.01-4.5,4.5s2.02,4.5,4.5,4.5,4.5-2.01,4.5-4.5-2.01-4.5-4.5-4.5Zm2.75,4.58c0,.07-.03.13-.08.17s-.12.06-.2.06h-4.09v.09c.02.28.09.54.21.78.13.24.31.44.55.59.24.15.52.22.85.22.28,0,.52-.04.71-.11.19-.07.34-.16.46-.25.12-.09.2-.16.24-.22.07-.08.13-.13.17-.15.04-.02.1-.03.19-.03h.58c.07,0,.13.02.18.06.05.04.07.09.06.16,0,.1-.07.23-.19.37-.12.15-.29.29-.5.43-.22.14-.48.26-.8.35s-.68.14-1.08.14c-.82,0-1.47-.22-1.95-.65s-.75-1.02-.79-1.77c0-.09-.01-.2-.01-.34s0-.25.01-.34c.03-.48.16-.9.39-1.27.23-.36.54-.64.94-.84.4-.2.87-.3,1.4-.3.6,0,1.1.11,1.51.33.41.22.72.53.93.93s.32.87.32,1.41v.17Z"/>
</svg>