<?xml version="1.0" encoding="UTF-8"?>
<svg id="Fill" xmlns="http://www.w3.org/2000/svg" viewBox="0 0 24 24">
  <defs>
    <style>
      .cls-1 {
        fill: #282a32;
        stroke-width: 0px;
      }
    </style>
  </defs>
  <path class="cls-1" d="m16.81,6.67c-.24-1.16-.65-2.21-1.19-3.11-.19-.32-.49-.56-.85-.67-.66-.2-1.35-.33-2.06-.39-.31-.02-.53.3-.39.58.72,1.45,1.11,3.06,1.11,4.7,0,1.39-.29,2.79-.87,4.14.4.53.84,1.02,1.33,1.44.79-.69,1.79-1.16,2.9-1.31.37-1.83.39-3.66.02-5.38Zm-5.71-3.73c-.14-.24-.43-.37-.71-.33-4.24.71-7.53,4.24-7.89,8.59,0,.2.24.29.36.14,2.03-2.62,5.4-4.6,9.41-5.26-.2-1.11-.59-2.17-1.17-3.14Zm6.38,1.28c-.16-.12-.37.05-.3.24.26.63.47,1.3.62,2.01.2.91.29,1.86.29,2.83,0,.89-.09,1.8-.27,2.71,1.36.07,2.61.65,3.54,1.58.09-.52.14-1.05.14-1.6,0-3.21-1.59-6.04-4.02-7.77Zm-5.08,2.85c-4.3.72-7.82,3.05-9.52,6-.19.33-.25.72-.16,1.09.16.69.39,1.34.69,1.96.14.28.52.3.69.05,1.66-2.49,4.36-4.26,7.54-4.63.63-1.45.87-2.99.76-4.47Zm-.63,5.46c-1.59.18-3.04.74-4.27,1.59,1.3,1.6,2.84,2.89,4.52,3.79-.11-1.43.34-2.77,1.17-3.82-.52-.47-1-.99-1.42-1.56Zm.48,6.62c-2.08-.97-3.98-2.49-5.54-4.42-.85.72-1.57,1.59-2.12,2.56-.14.25-.11.56.08.78,1.75,2.1,4.38,3.43,7.32,3.43.55,0,1.08-.05,1.61-.13-.61-.6-1.08-1.36-1.35-2.22Zm6.68-2.88c.13.24.19.51.19.81v.03h-3.24v-.03c0-.31.06-.58.19-.81.13-.24.31-.43.55-.57.24-.14.53-.21.87-.21s.63.07.88.21c.24.14.43.33.56.57Zm3.07,1.23c0,2.48-2.01,4.5-4.5,4.5s-4.5-2.01-4.5-4.5,2.01-4.5,4.5-4.5,4.5,2.01,4.5,4.5Zm-1.75-.09c0-.54-.11-1-.32-1.41s-.52-.71-.93-.93c-.41-.22-.91-.33-1.51-.33-.54,0-1,.1-1.4.3-.4.2-.71.48-.94.84-.23.36-.36.79-.39,1.27,0,.09-.01.2-.01.34s0,.25.01.34c.05.75.31,1.34.79,1.77s1.13.65,1.95.65c.4,0,.76-.05,1.08-.14s.59-.21.8-.35c.22-.14.38-.29.5-.43.12-.15.18-.27.19-.37,0-.07-.01-.12-.06-.16-.05-.04-.11-.06-.18-.06h-.58c-.09,0-.15,0-.19.03-.04.02-.09.07-.17.15-.04.05-.12.13-.24.22-.12.09-.27.17-.46.25-.19.08-.43.11-.71.11-.32,0-.6-.07-.85-.22-.24-.15-.42-.34-.55-.59-.13-.24-.2-.5-.21-.78v-.09h4.09c.08,0,.14-.02.2-.06s.08-.1.08-.17v-.17Z"/>
</svg>