<?xml version="1.0" encoding="UTF-8"?>
<svg id="Fill" xmlns="http://www.w3.org/2000/svg" viewBox="0 0 24 24">
  <defs>
    <style>
      .cls-1 {
        fill: #282a32;
        stroke-width: 0px;
      }
    </style>
  </defs>
  <path class="cls-1" d="m21.44,11.11c-1.19-4.24-3.76-6.11-5.38-6.11-1.89,0-1.91,1-4.05,1s-2.17-1-4.06-1c-1.61,0-4.19,1.87-5.38,6.11-1.03,3.67-.7,7.89,1.41,7.89,1.28,0,2.64-1.04,3.69-2.65.56-.84,1.49-1.35,2.5-1.35h3.67c1.01,0,1.95.51,2.5,1.35,1.05,1.61,2.41,2.65,3.69,2.65,2.11,0,2.44-4.22,1.41-7.89Zm-11.93-.11h-1v1c0,.28-.23.5-.5.5s-.5-.22-.5-.5v-1h-1c-.28,0-.5-.22-.5-.5s.22-.5.5-.5h1v-1c0-.27.22-.5.5-.5s.5.23.5.5v1h1c.27,0,.5.23.5.5s-.23.5-.5.5Zm5.1.1c-.34,0-.6-.27-.6-.6s.26-.6.6-.6.6.27.6.6-.27.6-.6.6Zm1.59,1.59c-.34,0-.6-.27-.6-.6s.26-.6.6-.6.6.27.6.6-.27.6-.6.6Zm0-3.18c-.34,0-.6-.27-.6-.6s.26-.6.6-.6.6.27.6.6-.27.6-.6.6Zm1.59,1.59c-.33,0-.6-.27-.6-.6s.27-.6.6-.6.6.27.6.6-.27.6-.6.6Zm-5.78-6.1c-.13,0-.26-.05-.36-.15-.19-.2-.19-.51.01-.71.05-.05,0-.24-.09-.41-.43-.82-.19-1.32.09-1.59.2-.19.51-.19.7.01.19.2.19.51-.01.71-.07.07.03.28.09.41.45.87.13,1.37-.09,1.59-.1.09-.22.14-.35.14Z"/>
</svg>