<?xml version="1.0" encoding="UTF-8"?>
<svg id="Fill" xmlns="http://www.w3.org/2000/svg" viewBox="0 0 24 24">
  <defs>
    <style>
      .cls-1 {
        fill: #282a32;
        stroke-width: 0px;
      }
    </style>
  </defs>
  <path class="cls-1" d="m16.15,9.2c-.12,3.53-4.66,6.34-5.26,8.12-.53-1.08-4.36-2.63-4.33-6.03.03-2.82,1.5-3.7,2.3-3.7,1.12,0,1.58.85,1.65,1.23.08.38.5.68.64.06.13-.62,1.44-2.5,3.06-2.5,1.47,0,1.98,1.52,1.94,2.82Zm5.35,2.8c0,5.25-4.25,9.5-9.5,9.5S2.5,17.25,2.5,12,6.75,2.5,12,2.5s9.5,4.26,9.5,9.5Zm-3.81-2.79c0-2.5-1.63-3.71-2.96-3.71s-2.89.98-3.84,2.61c-.26-.59-1.17-1.23-2.26-1.23-.87,0-3.32,1.09-3.32,4.62,0,4.56,4.6,5.49,5.53,6.91.07.1.27.17.35-.06.74-2.2,6.5-4.67,6.5-9.14Z"/>
</svg>