<?xml version="1.0" encoding="UTF-8"?>
<svg id="Fill" xmlns="http://www.w3.org/2000/svg" viewBox="0 0 24 24">
  <defs>
    <style>
      .cls-1 {
        fill: #282a32;
        stroke-width: 0px;
      }
    </style>
  </defs>
  <path class="cls-1" d="m20.72,5.61c-.1-.53-.49-.95-1-1.12l-7.08-2.39c-.42-.14-.86-.14-1.28,0l-7.08,2.39c-.51.17-.9.59-1,1.12-.18,1.01-.28,2.07-.28,3.17,0,5.97,2.77,10.9,8.29,13.08.45.18.97.18,1.42,0,5.53-2.18,8.29-7.11,8.29-13.08,0-1.1-.1-2.16-.28-3.17Zm-13.36.13c.43-.35,1.06-.3,1.42.12.23.28.27.65.16.97l2.43,2.87-.67.78-2.53-3c-.34.05-.7-.05-.94-.33-.36-.42-.29-1.05.13-1.41Zm9.36,11.1c-.31.26-.79.21-1.06-.1l-1.12-1.34-.91.77c-.24.21-.63.13-.77-.15-.43-.86-.32-1.89.28-2.64l-1.15-1.36-1.14,1.35c.6.75.71,1.79.29,2.65-.14.28-.53.35-.77.15l-.91-.76-1.13,1.33c-.27.31-.74.36-1.06.09-.32-.27-.36-.74-.09-1.06l1.12-1.33-.91-.76c-.25-.2-.25-.59.01-.78.78-.56,1.83-.63,2.68-.17l4.98-5.9c-.12-.32-.08-.69.16-.97.36-.42.99-.47,1.42-.12.42.36.48.99.12,1.41-.24.28-.59.38-.93.33l-3.18,3.75,1.27,1.5c.84-.46,1.9-.39,2.68.17.25.19.25.58.01.79l-.92.75,1.13,1.34c.27.31.23.78-.1,1.06Z"/>
</svg>