<?xml version="1.0" encoding="UTF-8"?>
<svg id="Fill" xmlns="http://www.w3.org/2000/svg" viewBox="0 0 24 24">
  <defs>
    <style>
      .cls-1 {
        fill: #282a32;
        stroke-width: 0px;
      }
    </style>
  </defs>
  <path class="cls-1" d="m21.35,10.3c-.03-.14-.12-.26-.24-.33-.11-.06-.2-.19-.25-.36s-.03-.32.03-.43c.07-.12.09-.27.05-.41-.38-1.04-.94-2.03-1.7-2.92-.09-.11-.23-.16-.37-.16-.12,0-.27-.07-.39-.19-.12-.12-.18-.26-.19-.39,0-.14-.06-.28-.17-.37-.89-.75-1.88-1.32-2.92-1.69-.14-.05-.28-.02-.41.05-.11.06-.27.08-.43.04-.17-.04-.3-.14-.36-.25-.07-.12-.19-.22-.33-.24-1.12-.2-2.26-.2-3.37,0-.14.03-.26.12-.33.24-.06.11-.19.2-.36.25-.17.04-.32.03-.43-.03-.13-.07-.27-.09-.41-.05-1.04.38-2.03.94-2.92,1.7-.11.09-.16.23-.16.37,0,.12-.07.27-.19.39-.12.12-.26.18-.39.19-.14,0-.28.06-.37.17-.75.89-1.32,1.88-1.69,2.92-.05.14-.02.28.05.41.06.11.08.27.04.43-.04.17-.14.3-.25.36-.12.07-.22.19-.24.33-.2,1.12-.2,2.26,0,3.37.03.14.12.26.24.33.11.06.2.19.25.36.04.17.03.32-.03.43-.07.12-.09.27-.05.41.38,1.04.94,2.03,1.7,2.92.09.11.23.16.37.16.12,0,.27.07.39.19s.18.26.19.39c0,.14.06.28.17.37.89.75,1.88,1.32,2.92,1.69.14.05.28.02.41-.05.11-.06.27-.08.43-.04.17.04.3.14.36.25.07.12.19.22.33.24,1.12.2,2.26.2,3.37,0,.14-.03.26-.12.33-.24.06-.11.19-.2.36-.25.17-.04.32-.03.43.03.13.07.27.09.41.05,1.04-.38,2.03-.94,2.92-1.7.11-.09.16-.23.16-.37,0-.12.07-.27.19-.39.12-.12.26-.18.39-.19.14,0,.28-.06.37-.17.75-.89,1.32-1.88,1.69-2.92.05-.14.02-.28-.05-.41-.06-.11-.08-.27-.04-.43.04-.17.14-.3.25-.36.12-.07.22-.19.24-.33.2-1.12.2-2.26,0-3.37Zm-3.23-2.7c.24-.14.6.04.81.4.21.36.18.76-.06.9s-.6-.04-.81-.4c-.21-.36-.18-.76.06-.9Zm-3.02-2.47c.14-.24.54-.26.9-.06.36.21.54.57.4.81-.14.24-.54.27-.9.06-.36-.21-.54-.57-.4-.81Zm-3.1-1.13c.41,0,.75.22.75.5s-.34.5-.75.5-.75-.22-.75-.5.34-.5.75-.5Zm-4,1.07c.36-.21.76-.18.9.06.14.24-.04.6-.4.81-.36.21-.76.18-.9-.06-.14-.24.04-.6.4-.81Zm-1.13,3.97c.25-.43.71-.63,1.03-.44.32.19.38.69.13,1.12-.25.43-.71.63-1.03.44-.32-.19-.38-.69-.13-1.12Zm-2.37,3.71c-.28,0-.5-.34-.5-.75s.22-.75.5-.75.5.34.5.75-.22.75-.5.75Zm1.38,3.65c-.24.14-.6-.04-.81-.4-.21-.36-.18-.76.06-.9.24-.14.6.04.81.4.21.36.18.76-.06.9Zm.06-7.9c-.21.36-.57.54-.81.4s-.27-.54-.06-.9c.21-.36.57-.54.81-.4.24.14.27.54.06.9Zm1.22,5.73c-.36.1-.76-.21-.88-.69s.06-.95.42-1.04c.36-.1.76.21.89.69.13.48-.06.95-.42,1.04Zm1.74,4.64c-.14.24-.54.27-.9.06-.36-.21-.54-.57-.4-.81.14-.24.54-.27.9-.06.36.21.54.57.4.81Zm1.25-1.87c-.19.32-.69.38-1.12.13-.43-.25-.63-.71-.44-1.03.19-.32.69-.38,1.12-.13.43.25.63.71.44,1.03Zm-.38-9.83c-.1-.36.21-.76.69-.88.48-.13.95.06,1.04.42.1.36-.21.76-.69.88-.48.13-.95-.06-1.04-.42Zm2.23,12.84c-.41,0-.75-.22-.75-.5s.34-.5.75-.5.75.22.75.5-.34.5-.75.5Zm1.53-2.28c-.48.13-.95-.06-1.04-.42-.1-.36.21-.76.69-.88.48-.13.95.06,1.04.42.1.36-.21.76-.69.89Zm.75-9.69c-.43-.25-.63-.71-.44-1.03.19-.32.69-.38,1.12-.13.43.25.63.71.44,1.03s-.69.38-1.12.13Zm1.71,10.89c-.36.21-.76.18-.9-.06-.14-.24.04-.6.4-.81.36-.21.76-.18.9.06.14.24-.04.6-.4.81Zm1.13-3.97c-.25.43-.71.63-1.03.44s-.38-.69-.13-1.12c.25-.43.71-.63,1.03-.44.32.19.38.69.13,1.12Zm.17-3.45c-.36.1-.76-.21-.88-.69-.13-.48.06-.95.42-1.04.36-.1.76.21.89.69.13.48-.06.95-.42,1.04Zm1.62,4.49c-.21.36-.57.54-.81.4s-.27-.54-.06-.9c.21-.36.57-.54.81-.4.24.14.27.54.06.9Zm.57-3.25c-.28,0-.5-.34-.5-.75s.22-.75.5-.75.5.34.5.75-.22.75-.5.75Z"/>
</svg>