<?xml version="1.0" encoding="UTF-8"?>
<svg id="Fill" xmlns="http://www.w3.org/2000/svg" viewBox="0 0 24 24">
  <defs>
    <style>
      .cls-1 {
        fill: #282a32;
        stroke-width: 0px;
      }
    </style>
  </defs>
  <path class="cls-1" d="m17,3H7c-2.21,0-4,1.79-4,4v10c0,2.21,1.79,4,4,4h10c2.21,0,4-1.79,4-4V7c0-2.21-1.79-4-4-4Zm-2.09,2.52c.83,0,1.5.67,1.5,1.5s-.67,1.5-1.5,1.5-1.5-.67-1.5-1.5.67-1.5,1.5-1.5Zm.11,12.75c0,.14-.11.25-.25.25h-2.52c-.14,0-.25-.11-.25-.25h0c0-.14.11-.25.25-.25h2.52c.14,0,.25.11.25.25h0Zm2.85-9.27c-.92.95-2.06,1.41-3.19,1.44-.6.53-1.24.94-1.9,1.22,1.06,1.23,1.43,3.01.93,4.54h.55c.42,0,.75.34.75.75s-.34.75-.75.75h-1.51c-.42,0-.75-.34-.75-.75h0c0-.14.04-.26.1-.37.39-.65.74-1.35.62-2.1-.03-.15-.06-.3-.11-.45-.25-.84-.85-1.53-1.6-1.94-1.62.11-3.17-.58-4.21-2.16-.29-.41-.82-1.76-.72-2.55l-.36-.36c-.29-.29-.29-.77,0-1.06.29-.29.77-.29,1.07,0l1.07,1.06c.29.29.29.77,0,1.06-.09.09-.19.15-.3.18-.11.04-.17.17-.12.27.11.24.25.46.42.66.73.9,1.93,1.42,3.06,1.2.47-.13.95-.36,1.39-.64-.47-.31-.92-.71-1.28-1.23-.5-.6-.96-1.21-1.39-1.85-.14-.21-.12-.49.06-.66.21-.19.52-.17.71.02,1,.95,1.95,2.34,3.11,2.98,1.08.49,2.72.06,3.64-.72.45-.43,1.15.26.71.71Z"/>
</svg>