<?xml version="1.0" encoding="UTF-8"?>
<svg id="Fill" xmlns="http://www.w3.org/2000/svg" viewBox="0 0 24 24">
  <defs>
    <style>
      .cls-1 {
        fill: #282a32;
        stroke-width: 0px;
      }
    </style>
  </defs>
  <path class="cls-1" d="m12,2.5C6.75,2.5,2.5,6.75,2.5,12s4.25,9.5,9.5,9.5,9.5-4.25,9.5-9.5S17.25,2.5,12,2.5Zm-6.3,9.74c-.57-.15-.85-.97-.62-1.82.23-.85.88-1.42,1.44-1.27.57.15.85.97.62,1.82-.23.85-.88,1.42-1.44,1.27Zm2.72,6.68c-.19.23-.89-.05-1.57-.62s-1.07-1.21-.88-1.44c.19-.23.89.05,1.57.62.68.57,1.07,1.21.88,1.44Zm3.58-1.57c-.88,0-1.6-.6-1.6-1.34s.72-1.34,1.6-1.34,1.6.6,1.6,1.34-.72,1.34-1.6,1.34Zm0-5.61c-.88,0-1.6-.72-1.6-1.6s.72-1.6,1.6-1.6,1.6.72,1.6,1.6-.72,1.6-1.6,1.6Zm0-5.61c-.88,0-1.6-.48-1.6-1.07s.72-1.07,1.6-1.07,1.6.48,1.6,1.07-.72,1.07-1.6,1.07Zm5.14,12.16c-.68.57-1.38.85-1.57.62-.19-.23.21-.87.88-1.44.68-.57,1.38-.85,1.57-.62s-.21.87-.88,1.44Zm1.16-6.06c-.57.15-1.22-.42-1.44-1.27-.23-.85.05-1.67.62-1.82.57-.15,1.22.42,1.44,1.27.23.85-.05,1.67-.62,1.82Z"/>
</svg>