<?xml version="1.0" encoding="UTF-8"?>
<svg id="Fill" xmlns="http://www.w3.org/2000/svg" viewBox="0 0 24 24">
  <defs>
    <style>
      .cls-1 {
        fill: #282a32;
        stroke-width: 0px;
      }
    </style>
  </defs>
  <path id="_Compound_Path_" data-name="&amp;lt;Compound Path&amp;gt;" class="cls-1" d="m7.71,17.08l-3.96-.94c-.22-.05-.4-.2-.48-.41-.21-.5-.38-1.01-.51-1.55-.05-.22,0-.45.15-.62l2.66-3.11,1.94.63,1.41,4.34-1.2,1.65Zm-3.11.28c-.18-.04-.32.16-.21.31,1.12,1.51,2.7,2.69,4.57,3.33.18.06.33-.13.24-.29l-1.61-2.63-3-.72Zm3.21-7.22l3.69-2.68v-2.03l-3.82-1.58c-.2-.08-.44-.07-.63.04-.45.27-.88.58-1.27.94-.16.15-.25.36-.23.58l.32,4.1,1.94.63Zm6.47,5.88h-4.56l-1.2,1.65,2.11,3.45c.11.19.31.31.53.33.57.05,1.12.06,1.67,0,.22-.02.42-.14.54-.33l2.11-3.46-1.2-1.65Zm-5.79-5.13l1.34,4.13h4.34l1.34-4.13-3.51-2.55-3.51,2.55Zm4.01-3.43l3.69,2.68,1.93-.63.34-4.1c.02-.22-.07-.44-.24-.58-.39-.35-.82-.66-1.28-.93-.19-.11-.42-.13-.63-.05l-3.82,1.58v2.03Zm2.28,13.26c-.1.16.06.35.24.29,1.83-.61,3.45-1.78,4.6-3.33.11-.15-.02-.36-.21-.32l-3.02.72-1.61,2.63Zm1.72-9.63l-1.41,4.34,1.19,1.65,3.98-.96c.21-.05.39-.2.48-.4.21-.49.38-1.01.5-1.54.05-.22,0-.44-.15-.61l-2.66-3.1-1.93.62Zm5,.86c0-2.01-.65-3.91-1.77-5.47-.11-.15-.35-.09-.36.1l-.25,3.15,2.03,2.36c.12.14.35.05.35-.13ZM4.27,6.48c-1.11,1.56-1.76,3.46-1.77,5.48,0,.19.23.28.35.13l2.04-2.37-.26-3.14c-.02-.19-.25-.25-.36-.1Zm10.64-3.52c-1.84-.6-3.87-.63-5.81,0-.18.06-.19.3-.02.38l2.92,1.22,2.92-1.21c.17-.07.16-.32-.02-.38Z"/>
</svg>