<?xml version="1.0" encoding="UTF-8"?>
<svg id="Fill" xmlns="http://www.w3.org/2000/svg" viewBox="0 0 24 24">
  <defs>
    <style>
      .cls-1 {
        fill: #282a32;
        stroke-width: 0px;
      }
    </style>
  </defs>
  <path class="cls-1" d="m12,2.5C6.75,2.5,2.5,6.76,2.5,12s4.25,9.5,9.5,9.5,9.5-4.25,9.5-9.5S17.24,2.5,12,2.5Zm-7,11.75l3.59-3.7c.49-.52,1.15-.8,1.84-.8h5.6l-1.06,1.13h-4.54c-.41,0-.81.17-1.1.47l-2.82,2.9h-1.51Zm5.86-1.12c-.14,0-.26.05-.37.15l-.94.97h-1.52l1.73-1.78c.3-.3.69-.47,1.1-.47h3.05l-1.05,1.13h-2Zm3.91,1.12h-1.47l4.22-4.5h1.48l-4.23,4.5Z"/>
</svg>