<?xml version="1.0" encoding="UTF-8"?>
<svg id="Fill" xmlns="http://www.w3.org/2000/svg" viewBox="0 0 24 24">
  <defs>
    <style>
      .cls-1 {
        fill: #282a32;
        stroke-width: 0px;
      }
    </style>
  </defs>
  <path class="cls-1" d="m18.01,8.19c-.37-1.72-1.18-3.46-2.29-4.73-.07-.08.02-.2.12-.16,3.33,1.47,5.66,4.81,5.66,8.69,0,.07,0,.14,0,.2,0,.11-.15.13-.19.03-1.01-2.63-2.67-3.71-3.29-4.04Zm2.79,5.78c-.76-3.29-2.62-4.54-3.22-4.88l-5.08,2.66v5.58c2.12.89,4.23.82,5.64.6,1.06-.17,1.97-.86,2.43-1.83,0,0,0-.02.01-.03.31-.65.38-1.4.22-2.1Zm-8.8,4.22c-2.35,1.03-4.65.98-6.21.75-.1-.01-.16.11-.08.17,1.67,1.48,3.87,2.38,6.29,2.38s4.62-.9,6.29-2.38c.07-.07.02-.19-.08-.17-1.56.23-3.86.27-6.21-.75Zm0-7.31l5-2.62c-.64-2.83-2.66-5.76-5-5.76s-4.38,2.93-5.01,5.76l5.01,2.62Zm-6.13,7.05c1.41.22,3.51.29,5.63-.6v-5.58l-5.08-2.66c-.61.33-2.45,1.57-3.22,4.87-.16.7-.09,1.44.21,2.1,0,0,0,.02.01.03.46.99,1.38,1.69,2.45,1.86Zm-3.37-5.75c0,.11.15.13.19.03,1.01-2.61,2.67-3.7,3.29-4.03.36-1.71,1.16-3.44,2.26-4.71.07-.08-.02-.2-.12-.16-3.32,1.47-5.64,4.8-5.64,8.67,0,.06,0,.12,0,.19Z"/>
</svg>