<?xml version="1.0" encoding="UTF-8"?>
<svg id="Fill" xmlns="http://www.w3.org/2000/svg" viewBox="0 0 24 24">
  <defs>
    <style>
      .cls-1 {
        fill: #282a32;
        stroke-width: 0px;
      }
    </style>
  </defs>
  <path class="cls-1" d="m9.79,6h-2.21v-2.02c0-.23.13-.44.34-.54.36-.17.73-.32,1.11-.45.25-.08.52.09.53.36.05.95.13,1.83.24,2.65Zm3.43,0c.11-.89.2-1.89.25-3.02,0-.21-.14-.39-.35-.42-.37-.05-.74-.07-1.12-.07s-.75.02-1.12.07c-.21.03-.36.21-.35.42.04,1.12.13,2.12.27,3.02h2.42Zm3.21-2.02c0-.23-.13-.44-.34-.54-.36-.17-.73-.33-1.12-.45-.25-.08-.52.09-.53.36-.04.94-.12,1.83-.23,2.66h2.21v-2.02Zm-.28,3.02H7.86c-.92.76-1.6,1.73-1.99,2.83,1.82-.21,3.89-.33,6.13-.33s4.32.13,6.13.33c-.38-1.09-1.06-2.07-1.98-2.83Zm1.6-2.54c-.13-.1-.32,0-.32.16v2.21c1.28,1.34,2.07,3.16,2.07,5.17s-.79,3.83-2.08,5.17v2.22c0,.16.19.26.32.16,2.29-1.72,3.76-4.47,3.76-7.55s-1.47-5.82-3.75-7.54Zm-3.3,16.19c.01.27.28.44.53.36.38-.13.75-.28,1.11-.45.21-.1.34-.31.34-.54v-2.02h-2.21c.11.82.19,1.71.24,2.65Zm-3.67-2.65c-.11.89-.2,1.89-.25,3.02,0,.21.14.39.35.42.37.05.74.07,1.12.07s.75-.02,1.12-.07c.21-.03.36-.21.35-.42-.04-1.12-.13-2.12-.27-3.02h-2.42Zm-3.21,2.02c0,.23.13.44.34.54.36.17.73.33,1.12.45.25.08.52-.09.53-.36.04-.94.12-1.83.23-2.66h-2.21v2.02Zm.28-3.02h8.29c.92-.76,1.6-1.73,1.99-2.83-1.82.21-3.89.33-6.13.33s-4.32-.13-6.13-.33c.38,1.09,1.06,2.07,1.98,2.83Zm10.54-6.13c-1.72-.22-3.83-.37-6.39-.37s-4.67.15-6.39.36c-.07.37-.11.75-.11,1.14s.04.76.11,1.13c1.72.22,3.83.37,6.39.37s4.67-.15,6.39-.36c.07-.37.11-.75.11-1.14s-.04-.76-.11-1.13ZM6.58,6.83v-2.22c0-.16-.19-.26-.32-.16-2.29,1.72-3.76,4.47-3.76,7.55s1.47,5.82,3.75,7.54c.13.1.32,0,.32-.16v-2.21c-1.28-1.34-2.07-3.16-2.07-5.17s.79-3.83,2.08-5.17Z"/>
</svg>