<?xml version="1.0" encoding="UTF-8"?>
<svg id="Fill" xmlns="http://www.w3.org/2000/svg" viewBox="0 0 24 24">
  <defs>
    <style>
      .cls-1 {
        fill: #282a32;
        stroke-width: 0px;
      }
    </style>
  </defs>
  <g id="_Compound_Path_" data-name="&amp;lt;Compound Path&amp;gt;">
    <path class="cls-1" d="m12,2c-4.42,0-8,3.58-8,8s3.58,8,8,8,8-3.58,8-8-3.58-8-8-8Zm-.08,11.81c-.3.29-.77.29-1.07,0-.29-.29-.29-.77,0-1.06s.77-.3,1.07,0,.29.77,0,1.06Zm.88-1.95c-.29-.29-.29-.76,0-1.06.29-.29.77-.29,1.06,0,.29.3.29.77,0,1.06-.29.3-.77.3-1.06,0Zm2.03,2.92c-.29.3-.77.3-1.06,0-.29-.29-.29-.76,0-1.06.29-.29.77-.29,1.06,0,.29.3.29.77,0,1.06Zm-.09-4.86c-.29-.29-.29-.77,0-1.06.3-.29.77-.29,1.06,0,.3.29.3.77,0,1.06-.29.29-.76.29-1.06,0Zm2.04,2.92c-.3.29-.77.29-1.06,0-.3-.3-.3-.77,0-1.07.29-.29.76-.29,1.06,0,.29.3.29.77,0,1.07Zm-1.28,6.17c0,.22-.14.41-.35.48,0,0,0,0-.01,0-.68.22-1.14.85-1.14,1.57h0c0,.52-.42.94-.94.94h-2.13c-.52,0-.94-.42-.94-.94h0c0-.71-.46-1.35-1.14-1.57,0,0-.01,0-.02,0-.21-.07-.34-.26-.34-.48h0c0-.34.34-.58.66-.47.89.3,1.85.46,2.84.46s1.94-.16,2.84-.46c.33-.11.66.13.66.47h0Z"/>
  </g>
</svg>