<?xml version="1.0" encoding="UTF-8"?>
<svg id="Fill" xmlns="http://www.w3.org/2000/svg" viewBox="0 0 24 24">
  <defs>
    <style>
      .cls-1 {
        fill: #282a32;
        stroke-width: 0px;
      }
    </style>
  </defs>
  <path class="cls-1" d="m12,2.5C6.75,2.5,2.5,6.75,2.5,12s4.25,9.5,9.5,9.5,9.5-4.25,9.5-9.5S17.25,2.5,12,2.5Zm-4.56,15.09l1.31-1.47h6.48l1.3,1.47H7.44Zm1.83-1.93v-1.94h5.43v1.94h-5.43Zm8.11-1.12c-.19.43-.58.71-.95.73-.27.02-1.39.01-1.39.01v-.8s.39-.01.74.01c.75.03.99-1.01.12-1.39-.83-.36-5.68-1.85-6.25-2.01-.56-.16-1.82-.35-2.78.62-.05.05-.08.06-.1.04-.03-.01-.02-.03,0-.07l4.29-6.76s0-.02.04-.01c.02.01.02.03.02.03-.03.41-.07,1.62.48,2.19.66.7,4.99,5.18,5.42,5.61.47.47.67,1.15.37,1.8Z"/>
</svg>