<?xml version="1.0" encoding="UTF-8"?>
<svg id="Fill" xmlns="http://www.w3.org/2000/svg" viewBox="0 0 24 24">
  <defs>
    <style>
      .cls-1 {
        fill: #282a32;
        stroke-width: 0px;
      }
    </style>
  </defs>
  <path class="cls-1" d="m21.98,9.26c-.27-.73-4.21-2.38-6.1-4.17-1.9-1.79-3.6-1.85-3.6-1.85,0,0-.17-1.24-1.38-1.24-2.31,0-3.43,1.24-3.84,1.83-.1.15-.05.36.12.44l1.04.49s-2.4,1.88-4.32,5.47c-.92,1.72-1.43,3.12-1.72,4.47,2.12.14,3.49,1.35,4.84,2.55.91.8,1.79,1.58,2.89,2.04.04-.17.06-.34.06-.52,0-.59-.03-1.21-.08-1.79-.25-3.17.85-6.21,2.91-6.75,2.05-.54,3.47.52,5.32.93,1.88.41,4.13-1.16,3.86-1.9Zm-7.78-2.31c-.28,0-.53-.22-.55-.51s.21-.56.51-.59c.32-.02.59.24.59.55s-.25.55-.55.55Zm-7.84,11.05c-1.3-1.15-2.49-2.21-4.33-2.31-.18,1.92.59,3.4,2.83,4.3.84.34,1.52.62,2.08.85.95.38,1.95.06,2.53-.65-1.22-.52-2.18-1.36-3.11-2.19Z"/>
</svg>