<?xml version="1.0" encoding="UTF-8"?>
<svg id="Fill" xmlns="http://www.w3.org/2000/svg" viewBox="0 0 24 24">
  <defs>
    <style>
      .cls-1 {
        fill: #282a32;
        stroke-width: 0px;
      }
    </style>
  </defs>
  <path class="cls-1" d="m10,6h-2v-2c0-.55.45-1,1-1h0c.55,0,1,.45,1,1v2Zm5-3h0c-.55,0-1,.45-1,1v2h2v-2c0-.55-.45-1-1-1Zm6,4H3c-.55,0-1,.45-1,1h0c0,.66.11,1.32.32,1.95l.34,1.03c.2.61.78,1.03,1.42,1.03h15.84c.65,0,1.22-.41,1.42-1.03l.34-1.03c.21-.63.32-1.29.32-1.95h0c0-.55-.45-1-1-1ZM4.81,21h3.09c.33,0,.6-.27.6-.6v-1.9c0-1.93,1.5-3.5,3.5-3.5s3.5,1.57,3.5,3.5v1.9c0,.33.27.6.6.6h3.09c.37,0,.61-.39.45-.72l-1.68-3.35c-.3-.59-.35-1.28-.14-1.91l.67-2.02H5.5s.67,2.02.67,2.02c.21.63.16,1.32-.14,1.91l-1.68,3.35c-.17.33.08.72.45.72Z"/>
</svg>