<?xml version="1.0" encoding="UTF-8"?>
<svg id="Fill" xmlns="http://www.w3.org/2000/svg" viewBox="0 0 24 24">
  <defs>
    <style>
      .cls-1 {
        fill: #282a32;
        stroke-width: 0px;
      }
    </style>
  </defs>
  <path class="cls-1" d="m14.66,16.05l-1.16,2.37h-3.01l-1.15-2.37,2.66-1.55,2.66,1.55Zm1.03.15l-1.22,2.51,2.11,1.19c.23.13.51.12.73-.03,1.35-.91,2.42-2.14,3.13-3.55.17-.33.05-.73-.27-.92l-1.56-.91-2.93,1.7Zm4.82-6.65l-1.4.81v3.28l1.4.81c.29.17.66.01.74-.31.32-1.37.34-2.83,0-4.27-.08-.33-.45-.48-.74-.31Zm-1.9-.05l1.56-.9c.32-.19.44-.59.28-.92-.74-1.47-1.84-2.67-3.14-3.55-.22-.15-.5-.15-.73-.03l-2.11,1.18,1.22,2.51,2.93,1.7Zm-13.74.87l-1.39-.81c-.29-.17-.66-.01-.74.31-.32,1.37-.33,2.82,0,4.25.08.33.45.48.74.32l1.39-.81v-3.26Zm7.63,0v3.27l2.81,1.63,2.81-1.63v-3.27l-2.81-1.63-2.81,1.63Zm-4.2-2.57l1.23-2.51-2.12-1.19c-.23-.13-.51-.12-.73.03-1.35.91-2.42,2.14-3.13,3.55-.17.33-.04.73.28.92l1.56.9,2.92-1.7Zm3.7,1.7l2.66-1.54-1.16-2.37h-3l-1.16,2.37,2.66,1.54Zm-6.63,5l-1.55.9c-.32.19-.44.59-.27.92.74,1.47,1.84,2.68,3.14,3.55.22.15.5.15.73.02l2.1-1.18-1.22-2.51-2.93-1.7Zm3.32-5.76l-2.82,1.63v3.27l2.82,1.63,2.81-1.63v-3.27l-2.81-1.63Zm1.61,10.68l-1.66.94c-.22.13-.2.45.04.54,2.11.79,4.47.82,6.64,0,.24-.09.26-.42.04-.54l-1.67-.94h-3.39Zm3.38-14.83l1.69-.95c.22-.13.2-.46-.04-.54-2.11-.78-4.48-.81-6.65,0-.24.09-.26.42-.04.54l1.68.94h3.37Z"/>
</svg>