<?xml version="1.0" encoding="UTF-8"?>
<svg id="Fill" xmlns="http://www.w3.org/2000/svg" viewBox="0 0 24 24">
  <defs>
    <style>
      .cls-1 {
        fill: #282a32;
        stroke-width: 0px;
      }
    </style>
  </defs>
  <path class="cls-1" d="m21.29,12.22c-1.26-1.7-.75-1.71-2.05-3.58-.98-1.41-.46-1.54-.93-2.23-.49-.72-1.06-1.26-1.67-1.67-.18-.12-.23-.37-.11-.55.52-.75.55-1.58.52-2.02,0-.14-.17-.22-.28-.13-.22.17-.62.43-1.34.67-.77.25-1.06.67-1.24.91-.1.13-.26.18-.42.17-2.16-.13-4.13,1-5.31,1.96-3.96,3.25-3.96,7.25-.97,10.25,1.82,1.83,5.71,2.7,6.38,4.47.06.16.29.18.36.02,2.72-5.52-3.11-6.14-1.18-9.45,2.51,3.06,4.99,1.06,4.99,2.92,0,.64.68,1.29,1.64.95,1.99-.72,2.03-2.12,1.61-2.69Zm-3.91-4.22l-.54.54c-.15.15-.41.07-.45-.15l-.13-.72c-.03-.15.1-.28.25-.25l.73.13c.21.04.29.3.14.45Zm-4.51,12.69c-.6-.97-3.87-1.9-6.09-3.98-2.28-2.13-2.5-4.2-2.36-5.95,0-.12-.16-.15-.19-.04-.28.83-.51,1.81-.66,2.88-.56,3.91,2.48,7.4,6.42,7.4h2.71c.16,0,.26-.17.17-.31Z"/>
</svg>