<?xml version="1.0" encoding="UTF-8"?>
<svg id="Fill" xmlns="http://www.w3.org/2000/svg" viewBox="0 0 24 24">
  <defs>
    <style>
      .cls-1 {
        fill: #282a32;
        stroke-width: 0px;
      }
    </style>
  </defs>
  <path class="cls-1" d="m17.62,16.11c-3.05,0-4.84-2.29-5.8-3.53l-.42-.52c-.86-1.11-2.47-3.16-5.02-3.16s-3.8,1.05-3.88,3.11h0c0,.54,0,1.06.05,1.6.29,4.19,3.65,7.56,7.84,7.84,1.07.07,2.15.07,3.21,0,3.41-.23,6.28-2.51,7.37-5.61.09-.26-.18-.51-.42-.37-.7.39-1.65.64-2.93.64Zm3.82-5.71c-.28-4.19-3.65-7.56-7.84-7.84-1.06-.07-2.14-.07-3.21,0-3.42.23-6.29,2.51-7.38,5.62-.09.26.18.51.42.37.71-.4,1.66-.65,2.95-.65,3.04,0,4.91,2.39,5.81,3.54l.41.53c.92,1.17,2.46,3.14,5.02,3.14s3.79-1.04,3.88-3.1v-.03c0-.53-.02-1.06-.06-1.58Z"/>
</svg>