<?xml version="1.0" encoding="UTF-8"?>
<svg id="Fill" xmlns="http://www.w3.org/2000/svg" viewBox="0 0 24 24">
  <defs>
    <style>
      .cls-1 {
        fill: #282a32;
        stroke-width: 0px;
      }
    </style>
  </defs>
  <path class="cls-1" d="m18.29,6.62c0-.35.42-.52.67-.27l1.45,1.45c2.13,2.13,1.03,6.68-2.45,10.17-3.49,3.49-8.04,4.59-10.17,2.45l-1.45-1.45c-.25-.25-.08-.67.27-.67,2.47-.03,5.37-1.37,7.84-3.84,2.46-2.46,3.81-5.37,3.84-7.84Zm-2.09-3.03c-2.13-2.13-6.67-1.03-10.16,2.45-3.48,3.49-4.58,8.03-2.45,10.16,2.13,2.13,6.67,1.03,10.16-2.45,3.48-3.48,4.58-8.03,2.45-10.16Z"/>
</svg>