<?xml version="1.0" encoding="UTF-8"?>
<svg id="Fill" xmlns="http://www.w3.org/2000/svg" viewBox="0 0 24 24">
  <defs>
    <style>
      .cls-1 {
        fill: #282a32;
        stroke-width: 0px;
      }
    </style>
  </defs>
  <path class="cls-1" d="m19.01,3h-10.93c-1.64,0-3.06,1.13-3.42,2.74l-.27,1.2c-.51.2-.91.66-1.03,1.22l-1.07,4.99c-.11.54.05,1.08.4,1.47l-.61,2.72c-.42,1.88,1.01,3.66,2.93,3.66h10.93c1.61,0,3-1.1,3.38-2.65.66-.11,1.19-.62,1.34-1.3l1.06-4.99c.09-.44,0-.89-.23-1.27-.11-.16-.24-.3-.39-.41l.83-3.73c.42-1.88-1-3.65-2.92-3.65Zm.67,13.85s-.02.08-.04.12h-.01c-.1.26-.34.42-.62.42-.05,0-.09-.01-.14-.02l-1.54-.32c-.37-.08-.61-.45-.53-.82l.09-.44c.04-.16-.06-.31-.21-.35l-2.02-.56c-.05-.01-.09-.01-.13-.01-.18,0-.34.09-.44.25l-.2.36c-.13.21-.36.34-.6.34-.04,0-.09,0-.13-.01l-3.48-.74c-.29-.06-.5-.3-.53-.6l-.05-.42c-.02-.22-.19-.4-.42-.44l-2.09-.32h-.05c-.14,0-.26.09-.29.23l-.09.45c-.07.32-.36.54-.68.54-.04,0-.09,0-.14-.01l-1.54-.33c-.37-.08-.61-.44-.53-.81l1.06-4.99c.07-.33.36-.55.67-.55.05,0,.1.01.15.02l1.54.33c.37.07.6.44.53.81l-.11.51c-.04.16.07.32.23.35l1.33.28c.11.03.21.04.32.04.08,0,.17-.01.25-.02l-.14-.44c-.03-.08-.09-.14-.17-.16-.26-.05-.41-.31-.33-.56.06-.19.24-.31.43-.31.03,0,.07.01.1.01l.39.09c.23.05.4.26.37.49-.01.08-.05.16-.1.22-.13.16-.18.36-.12.55h0c.27-.09.52-.26.73-.48l.88-1.01-2.8-.59-.04.21c-.02.11-.11.18-.22.18-.01,0-.03,0-.04,0-.12-.02-.2-.14-.17-.26l.27-1.29c.02-.11.12-.18.22-.18,0,0,.03,0,.04.01.12.02.2.14.17.26l-.04.21,3.29.7.3-.34c.19-.22.45-.32.71-.32.39,0,.77.24.91.67l.14.43,3.28.7.05-.22c.02-.1.11-.17.22-.17h.04c.12.03.2.15.17.26l-.27,1.3c-.03.1-.12.17-.22.17h-.04c-.12-.03-.2-.14-.17-.26l.04-.22-2.8-.59.4,1.28c.1.29.26.53.47.74.14-.15.17-.36.12-.55-.03-.08-.03-.17,0-.25.06-.19.24-.31.43-.31.04,0,.07,0,.1.01l.41.09c.27.06.43.34.32.61-.07.16-.24.26-.42.26-.03,0-.06,0-.1-.01h-.04s-.1.02-.14.06l-.33.36c.17.1.34.18.53.22l1.33.28s.04.01.06.01c.14,0,.26-.1.29-.24l.11-.51c.07-.32.35-.54.67-.54.05,0,.1,0,.14.01l1.54.33c.37.08.61.44.53.82l-.7,3.29-.36,1.7Z"/>
</svg>