<?xml version="1.0" encoding="UTF-8"?>
<svg id="Fill" xmlns="http://www.w3.org/2000/svg" viewBox="0 0 24 24">
  <defs>
    <style>
      .cls-1 {
        fill: #282a32;
        stroke-width: 0px;
      }
    </style>
  </defs>
  <path class="cls-1" d="m17,3H7c-2.21,0-4,1.79-4,4v10c0,2.21,1.79,4,4,4h10c2.21,0,4-1.79,4-4V7c0-2.21-1.79-4-4-4Zm-6.35,3.8c.47-.56,1.31-.64,1.87-.16.56.47.64,1.31.16,1.87-.47.56-1.31.64-1.87.16s-.64-1.31-.16-1.87Zm2.69,10.38c-.47.56-1.31.64-1.87.16s-.64-1.31-.16-1.87c.47-.56,1.31-.64,1.87-.16s.64,1.31.16,1.87Zm5.73-10.3c-.41,1.15-1.6,3.15-1.72,4.58.05.12.1.25.13.39.14.62-.06,1.29-.35,1.73-.61.88-2.69,2.4-3.66,1.31-.75-.84-3.41-4.58-3.41-4.58l-1.65,1.46c.76,1.48,1.68,3.28,1.15,5.07.25.07.43.29.43.56,0,.33-.27.59-.59.59h-.4c-.33,0-.59-.27-.59-.59,0-.13.11-.42.11-.46.07-.57-.06-1.26-.32-1.88-.1-.29-.24-.54-.39-.76-.46.91-1.09,1.73-1.71,2.57h.01c.29.15.42.51.27.8-.14.29-.5.42-.8.27l-.36-.18c-.25-.12-.4-.41-.31-.67.42-1.15,1.6-3.16,1.72-4.59-.05-.12-.1-.25-.13-.39-.14-.62.06-1.29.35-1.73.61-.88,2.74-2.4,3.66-1.31.73.86,3.41,4.58,3.41,4.58l1.65-1.46c-.76-1.47-1.68-3.27-1.15-5.06-.25-.07-.43-.29-.43-.56,0-.33.27-.59.59-.59h.4c.33,0,.59.27.59.59,0,.13-.1.41-.11.45-.07.57.06,1.26.32,1.88.11.29.24.54.39.76.46-.91,1.09-1.73,1.71-2.56h0c-.29-.15-.42-.5-.27-.8.14-.29.5-.42.8-.27l.36.18c.25.12.4.41.31.66Z"/>
</svg>