<?xml version="1.0" encoding="UTF-8"?>
<svg id="Fill" xmlns="http://www.w3.org/2000/svg" viewBox="0 0 24 24">
  <defs>
    <style>
      .cls-1 {
        fill: #282a32;
        stroke-width: 0px;
      }
    </style>
  </defs>
  <path class="cls-1" d="m22,7h-9.5v-3h6.5c1.65,0,3,1.34,3,3Zm-17,1v8h2V8h-2Zm12,0v8h2V8h-2Zm-4.5,0v8h3.5v-8h-3.5Zm-4.5,0v8h3.5v-8h-3.5Zm4.5,9v3h6.5c1.65,0,3-1.35,3-3h-9.5Zm7.5-9v8h2V8h-2Zm-16,0h-2v8h2v-8Zm1-4c-1.66,0-3,1.34-3,3h9.5v-3h-6.5Zm0,16h6.5v-3H2c0,1.65,1.34,3,3,3Z"/>
</svg>