<?xml version="1.0" encoding="UTF-8"?>
<svg id="Fill" xmlns="http://www.w3.org/2000/svg" viewBox="0 0 24 24">
  <defs>
    <style>
      .cls-1 {
        fill: #282a32;
        stroke-width: 0px;
      }
    </style>
  </defs>
  <path class="cls-1" d="m17,3H7c-2.21,0-4,1.79-4,4v10c0,2.21,1.79,4,4,4h10c2.21,0,4-1.79,4-4V7c0-2.21-1.79-4-4-4Zm-6.48,3c.83,0,1.5.67,1.5,1.5s-.67,1.5-1.5,1.5-1.5-.67-1.5-1.5.67-1.5,1.5-1.5Zm7.24,11.83h-1.48c-.41,0-.74-.33-.74-.73,0-.08,0-.23-.1-.27-1.68-.67-3.32-1.21-4.71-2.42-.9-.09-1.91-.18-2.71.07-.41.16-.51.26-.51.63.03.38.09.95.48,1.31.22.2.47.37.47.68,0,.4-.33.73-.74.73h-1.48c-.41,0-.74-.33-.74-.73s.33-.73.74-.73h.58c-.37-.69-.67-1.56-.18-2.3.74-.9,1.82-1.07,2.91-1.1-.34-.72-.48-1.56-.37-2.31,0,0,0,0,0-.01-1.62-.88-2.71-2.42-2.57-4.84,0-.65.98-.65.99,0,.03,4.74,5.42,4.89,8.99,4.28.6-.12.83.77.24.95-1.77.55-3.89.7-5.74.3-.14,2.61,3.86,3.85,5.82,5.03h.85c.41,0,.74.33.74.73s-.33.73-.74.73Z"/>
</svg>