<?xml version="1.0" encoding="UTF-8"?>
<svg id="Fill" xmlns="http://www.w3.org/2000/svg" viewBox="0 0 24 24">
  <defs>
    <style>
      .cls-1 {
        fill: #282a32;
        stroke-width: 0px;
      }
    </style>
  </defs>
  <path class="cls-1" d="m19.73,8.04c.11-1.26-.29-2.52-1.13-3.48-.88-.99-2.15-1.57-3.48-1.57h-6.24c-1.33,0-2.6.58-3.48,1.57-.84.96-1.24,2.22-1.13,3.48-.54.14-.87.66-.74,1.17,0,0,.31,1.3.51,2.88.19,1.58.21,2.9.21,2.92,0,.54.47.98,1.04.98h.03c.46,1.7,1.48,3.23,2.91,4.28,1.13.83,2.45,1.24,3.77,1.24s2.64-.42,3.77-1.24c1.43-1.05,2.45-2.58,2.91-4.28h.03c.57,0,1.04-.44,1.04-.98,0-.02.02-1.34.22-2.92.19-1.58.5-2.87.5-2.88.13-.51-.21-1.03-.74-1.17Zm-5.06,4.96c-1.86,1.22-1,1.94-.36,2.54.94.88,1.45,2.45-2.31,2.45s-3.26-1.57-2.32-2.45c.64-.6,1.51-1.32-.36-2.54-1.52-.99-2.96-2.76-2.02-3.64s1.88,0,4.7,0,3.76-.88,4.7,0-.51,2.65-2.03,3.64Z"/>
</svg>