<?xml version="1.0" encoding="UTF-8"?>
<svg id="Fill" xmlns="http://www.w3.org/2000/svg" viewBox="0 0 24 24">
  <defs>
    <style>
      .cls-1 {
        fill: #282a32;
        stroke-width: 0px;
      }
    </style>
  </defs>
  <path class="cls-1" d="m10,18v2c0,.55-.45,1-1,1h-5c-.55,0-1-.45-1-1v-2c0-.55.45-1,1-1h5c.55,0,1,.45,1,1Zm10-1h-5c-.55,0-1,.45-1,1v2c0,.55.45,1,1,1h5c.55,0,1-.45,1-1v-2c0-.55-.45-1-1-1Zm-8-9c-1.1,0-2,.9-2,2s.9,2,2,2,2-.9,2-2-.9-2-2-2Zm8,8l-1.02-9.77c-.02-.23.06-.44.18-.63.51-.78.43-1.83-.25-2.51-.78-.78-2.05-.78-2.83,0-.68.68-.77,1.74-.25,2.51.13.19.21.4.18.63l-1.02,9.77h5Zm-11,0l-1.02-9.77c-.02-.23.06-.44.18-.63.51-.78.43-1.83-.25-2.51-.78-.78-2.05-.78-2.83,0-.68.68-.77,1.74-.25,2.51.13.19.21.4.18.63l-1.02,9.77h5Z"/>
</svg>