<?xml version="1.0" encoding="UTF-8"?>
<svg id="Fill" xmlns="http://www.w3.org/2000/svg" viewBox="0 0 24 24">
  <defs>
    <style>
      .cls-1 {
        fill: #282a32;
        stroke-width: 0px;
      }
    </style>
  </defs>
  <path class="cls-1" d="m20,19.5c0,1.1-.9,2-2,2s-2-.9-2-2,.9-2,2-2,2,.9,2,2Zm.16-5.88c-3,1.98-5.66.98-8.2,3.51-2.16,2.16-3.76,2.43-4.84,2.17-.5-.13-1.03.01-1.4.38l-1.52,1.52c-.39.39-1.02.4-1.41,0s-.39-1.03,0-1.41l1.52-1.52c.37-.37.52-.9.38-1.4-.25-1.07.01-2.67,2.18-4.84,2.53-2.53,1.53-5.2,3.51-8.2,1.48-2.26,5.88-1.55,8.59,1.17s3.43,7.13,1.18,8.6Zm-2.33-6.91c-.24.27-.47.56-.71.88h0c-.37.52-.74,1.1-1.04,1.74.64-.3,1.22-.66,1.73-1.04h0c.27-.2.52-.4.74-.59-.21-.35-.45-.68-.73-.98Zm-2.29,3.95c-.09.28-.16.56-.23.86.3-.07.58-.14.85-.24.16-.38.31-.75.5-1.1-.35.18-.72.34-1.11.49Zm-1.14.35c-.22.05-.45.1-.69.14-.04.24-.1.48-.16.71.23-.06.47-.11.71-.16h0c.04-.25.09-.48.14-.7Zm-.27-1.75c-.09.28-.16.56-.23.85.28-.07.57-.14.84-.23.15-.39.3-.76.49-1.1-.35.18-.72.34-1.11.49Zm2.17-3.81c-.2.23-.39.47-.59.74h0c-.37.52-.74,1.1-1.04,1.74.64-.3,1.22-.66,1.73-1.04h0c.32-.24.61-.47.88-.71-.3-.28-.64-.52-.98-.73Zm-3.31,4.16c-.22.05-.45.1-.69.14h0c-.04.25-.09.48-.16.71.23-.06.47-.12.71-.16.04-.24.09-.47.14-.69Zm.83-2.25c-.35.18-.72.34-1.1.5-.1.27-.17.55-.23.84.29-.06.57-.13.85-.23.15-.39.3-.76.49-1.11Zm-2.06-2.03c.58-.23,1.15-.48,1.15-.48.06-.09.16-.22.26-.35-.08,0-.14.01-.22.02-.21.01-.74.11-.95.42-.08.13-.17.25-.24.38Zm.16,1.73c.15-.39.3-.76.49-1.11-.35.18-.71.33-1.1.48-.1.28-.18.57-.25.86.29-.06.64-.16.87-.23Zm-.49,1.83c.04-.24.09-.47.14-.69-.18.04-.51.11-.76.16-.06.23-.11.48-.18.72.26-.06.62-.16.81-.18Zm3.56-3.42c.19-.15.38-.28.54-.43-.36-.18-.76-.32-1.13-.41-.04.05-.07.1-.11.15h0c-.37.52-.74,1.1-1.04,1.74.64-.3,1.22-.66,1.73-1.05h.01Zm-4.04,5.39h0c.11-.3.2-.6.27-.91-.28.06-.64.18-.94.29-.13.4-.3.81-.53,1.21.38-.23.78-.42,1.2-.59Zm-3.45,5.15c.48-.5.99-1.07,1.47-1.7h0c.49-.64.95-1.32,1.34-2.04-.56.29-1.28.62-1.91,1.03l-.15.15c-1.22,1.22-1.03,2.11-.76,2.56Zm3.61-3.12c.4-.23.81-.45,1.24-.62h0c.11-.3.2-.6.28-.91-.31.07-.61.16-.9.27h0c-.18.44-.38.86-.62,1.26Zm-.42,2.69c.42-.63.74-1.35,1.03-1.91-.73.39-1.41.86-2.04,1.34h0c-.62.49-1.2,1-1.69,1.48.44.25,1.32.46,2.55-.77l.15-.15Zm3.06-1.87c.12-.29.23-.66.29-.94-.31.07-.61.16-.91.27h0c-.17.42-.36.82-.59,1.2.42-.22.82-.4,1.21-.53Zm1.89-.52c.04-.25.12-.6.16-.78-.22.05-.45.1-.69.14-.03.18-.12.54-.18.81.25-.06.49-.12.72-.17Zm3.73-3.61c-.1-.38-.24-.76-.42-1.13-.15.18-.28.35-.42.55h0c-.37.52-.74,1.1-1.04,1.74.64-.3,1.22-.66,1.73-1.04h0s.11-.08.16-.12Zm-1.81,3.11c.15-.39.3-.76.49-1.11-.35.18-.72.34-1.11.49-.07.23-.17.58-.24.88.3-.07.59-.15.86-.25Zm1.5-.69c.32-.21.41-.74.42-.95,0-.08.01-.14.02-.22-.13.1-.25.2-.35.26,0,0-.25.57-.48,1.15.13-.07.25-.16.38-.24Z"/>
</svg>