<?xml version="1.0" encoding="UTF-8"?>
<svg id="Fill" xmlns="http://www.w3.org/2000/svg" viewBox="0 0 24 24">
  <defs>
    <style>
      .cls-1 {
        fill: #282a32;
        stroke-width: 0px;
      }
    </style>
  </defs>
  <path class="cls-1" d="m20.35,8.5l-2.88-5c-.54-.93-1.53-1.5-2.59-1.5h-5.76c-1.07,0-2.05.57-2.59,1.5l-2.88,5c-.53.93-.53,2.07,0,3l2.88,5c.54.93,1.53,1.5,2.59,1.5h.63l.62-6.65c.01-.11-.02-.22-.08-.31-.25-.41-.36-.92-.25-1.44.15-.77.79-1.41,1.56-1.56,1.28-.25,2.39.73,2.39,1.96,0,.38-.1.74-.29,1.04-.06.09-.09.2-.08.3l.62,6.65h.63c1.07,0,2.05-.57,2.59-1.5l2.88-5c.53-.93.53-2.07,0-3Zm-12.85,5c-.82,0-1.5-.67-1.5-1.5s.68-1.5,1.5-1.5,1.5.67,1.5,1.5-.67,1.5-1.5,1.5Zm1.99-6.5c-.82,0-1.5-.67-1.5-1.5s.68-1.5,1.5-1.5,1.5.67,1.5,1.5-.67,1.5-1.5,1.5Zm4.49-.5c0-.83.68-1.5,1.5-1.5s1.5.67,1.5,1.5-.67,1.5-1.5,1.5-1.5-.67-1.5-1.5Zm2.49,5.5c-.82,0-1.5-.67-1.5-1.5s.68-1.5,1.5-1.5,1.5.67,1.5,1.5-.67,1.5-1.5,1.5Zm3.5,8c0,.55-.45,1-1,1H5.02c-.55,0-1-.45-1-1s.45-1,1-1h5.64l.74-7.97c.01-.14-.05-.28-.15-.38-.15-.17-.25-.39-.25-.64,0-.55.45-1,1-1s1,.45,1,1c0,.25-.1.47-.25.64-.1.11-.16.24-.15.38l.74,7.97h5.64c.55,0,1,.45,1,1Z"/>
</svg>