<?xml version="1.0" encoding="UTF-8"?>
<svg id="Fill" xmlns="http://www.w3.org/2000/svg" viewBox="0 0 24 24">
  <defs>
    <style>
      .cls-1 {
        fill: #282a32;
        stroke-width: 0px;
      }
    </style>
  </defs>
  <path class="cls-1" d="m17,3H7c-2.21,0-4,1.79-4,4v10c0,2.21,1.79,4,4,4h10c2.21,0,4-1.79,4-4V7c0-2.21-1.79-4-4-4ZM6,7.5c0-.83.67-1.5,1.5-1.5s1.5.67,1.5,1.5-.67,1.5-1.5,1.5-1.5-.67-1.5-1.5Zm9.06,9.39c-.17.07-.35.11-.53.11-.24,0-.48-.06-.69-.19l-6.51-3.76c-.12-.07-.16-.22-.09-.34.07-.12.22-.16.34-.09l6.51,3.76c.24.14.52.16.78.05.13-.06.28,0,.33.13.05.13,0,.28-.14.33Zm2.21-.21s-9.81-5.08-9.81-5.08c-1.21-.66-.18-2.46,1.01-1.74l9.3,5.95c.53.33.05,1.17-.5.87Z"/>
</svg>