<?xml version="1.0" encoding="UTF-8"?>
<svg id="Fill" xmlns="http://www.w3.org/2000/svg" viewBox="0 0 24 24">
  <defs>
    <style>
      .cls-1 {
        fill: #282a32;
        stroke-width: 0px;
      }
    </style>
  </defs>
  <path class="cls-1" d="m6.78,9.67l-3.09-1.01c-.28-.09-.43-.41-.31-.68,1.36-2.97,4.2-5.1,7.57-5.48.29-.03.55.21.55.51v3.22l-4.72,3.44Zm10.44,0l3.09-1.01c.28-.09.43-.41.31-.68-1.36-2.97-4.2-5.1-7.57-5.48-.29-.03-.55.21-.55.51v3.22l4.72,3.44Zm-10.75.95l-3.11-1.01c-.28-.09-.58.07-.64.36-.14.64-.22,1.31-.22,2,0,2.78,1.19,5.28,3.07,7.02.22.2.56.15.74-.08l1.96-2.71-1.8-5.57Zm5.53-3.52l-4.55,3.32,1.74,5.36h5.62l1.74-5.36-4.55-3.32Zm9.5,4.86c0-.69-.08-1.35-.22-2-.06-.29-.37-.45-.64-.36l-3.11,1.01-1.8,5.57,1.96,2.71c.17.24.52.28.74.08,1.89-1.74,3.07-4.24,3.07-7.02Zm-12.42,4.82l-1.96,2.71c-.17.24-.11.58.14.73,1.39.81,3.01,1.27,4.74,1.27s3.35-.47,4.74-1.28c.25-.15.32-.49.14-.73l-1.96-2.71h-5.84Z"/>
</svg>