<?xml version="1.0" encoding="UTF-8"?>
<svg id="Fill" xmlns="http://www.w3.org/2000/svg" viewBox="0 0 24 24">
  <defs>
    <style>
      .cls-1 {
        fill: #282a32;
        stroke-width: 0px;
      }
    </style>
  </defs>
  <path class="cls-1" d="m20.39,7.27l-6.01-4.48c-1.41-1.05-3.35-1.05-4.77,0L3.61,7.27c-1.39,1.04-1.96,2.86-1.39,4.5l2.23,6.53c.55,1.62,2.07,2.7,3.78,2.7h7.55c1.71,0,3.23-1.09,3.78-2.7l2.23-6.53c.56-1.64,0-3.46-1.39-4.5Zm-7.89,6.14h-2.99c-.55,0-1-.45-1-1v-5c0-.55.45-1,1-1h5.49c.28,0,.5.22.5.5s-.22.5-.5.5h-4.99c-.28,0-.5.22-.5.5v4c0,.28.22.5.5.5h2.5c1.1,0,2,.89,2,2s-.89,2-2,2h-3.49c-.28,0-.5-.22-.5-.5s.22-.5.5-.5h3.49c.55,0,1-.45,1-1s-.45-1-1-1Zm0,5h-3.49c-.28,0-.5-.22-.5-.5s.22-.5.5-.5h3.49c1.65,0,2.99-1.34,2.99-3s-1.34-3-2.99-3h-1.5c-.28,0-.5-.22-.5-.5v-2c0-.28.22-.5.5-.5h3.99c.28,0,.5.22.5.5s-.22.5-.5.5h-3.49v1h1c2.2,0,3.99,1.79,3.99,4s-1.79,4-3.99,4Z"/>
</svg>