<?xml version="1.0" encoding="UTF-8"?>
<svg id="Fill" xmlns="http://www.w3.org/2000/svg" viewBox="0 0 24 24">
  <defs>
    <style>
      .cls-1 {
        fill: #282a32;
        stroke-width: 0px;
      }
    </style>
  </defs>
  <path class="cls-1" d="m6.49,13.95c-.02.29.21.55.5.55h1.15c-.2.44-.63.75-1.14.75-.71,0-1.28-.59-1.25-1.31.02-.65.58-1.19,1.23-1.19.52-.01.96.3,1.16.75h-1.13c-.26,0-.49.19-.52.45Zm10.51-1.2c-.14,0-.27.03-.4.08l.82.81c.2.21.19.55-.04.74-.2.17-.5.14-.68-.05l-.85-.84c-.09.21-.13.45-.09.7.1.6.63,1.06,1.24,1.06.69-.01,1.25-.57,1.25-1.25s-.57-1.25-1.25-1.25Zm4-5.75v10c0,2.21-1.8,4-4,4H7c-2.21,0-4-1.79-4-4V7c0-2.21,1.79-4,4-4h10c2.2,0,4,1.79,4,4Zm-1.76,6.83c-.08-1.02-.85-1.87-1.86-2.05-.57-.1-1.1.03-1.53.29l-.73-.72c.53-.38,1.18-.61,1.87-.61.13,0,.25.01.37.03.22.02.43-.08.54-.27.04-.08.07-.16.07-.26v-.04c-.08-1.67-1.34-2.24-2.2-2.44-.28-.06-.49.27-.3.49.24.31.38.69.38,1.08,0,.24-.17.44-.4.49l-.34.07c-.17.03-.35-.02-.46-.15-.67-.72-1.32-.69-1.32-.69h-1.28c-.73,0-1.22.67-1.46,1.11-.11.21-.36.31-.59.23l-.92-.3c-.22-.07-.39-.24-.46-.47l-.13-.46c-.05-.17-.18-.3-.35-.35l-1.62-.43c-.27-.07-.55.14-.55.42,0,.39.18.76.47,1l3.66,3.05c.2.16.23.44.1.65h-1.01c-.25-1.09-1.27-1.87-2.46-1.74-1.03.12-1.85.95-1.97,1.97-.15,1.36.91,2.52,2.24,2.52,1.07,0,1.96-.75,2.19-1.75h.33l.21.53c.15.38.52.63.92.63h3.55c-.29-.49-.46-1.06-.46-1.67,0-.73.26-1.4.67-1.94l.71.71c-.25.38-.39.84-.37,1.34.05,1.19,1.05,2.15,2.24,2.15,1.3,0,2.35-1.1,2.25-2.42Z"/>
</svg>