<?xml version="1.0" encoding="UTF-8"?>
<svg id="Fill" xmlns="http://www.w3.org/2000/svg" viewBox="0 0 24 24">
  <defs>
    <style>
      .cls-1 {
        fill: #282a32;
        stroke-width: 0px;
      }
    </style>
  </defs>
  <path class="cls-1" d="m18.8,3h-10.37c-1.44,0-2.7.96-3.08,2.34l-3.23,11.6c-.57,2.04.97,4.06,3.08,4.06h10.37c1.44,0,2.7-.96,3.08-2.34l3.23-11.6c.57-2.04-.97-4.06-3.08-4.06Zm-13.8,13.32l2.4-8.64h.99l-2.39,8.64h-1Zm1.64,0l2.4-8.64h.99l-2.39,8.64h-1Zm1.89,0l2.41-8.64h1.59l-2.39,8.64h-1.61Zm2.25,0l2.41-8.64h1.59l-2.39,8.64h-1.61Zm5.83,0h-3.31l2.4-8.63h3.31l-2.4,8.63Z"/>
</svg>