<?xml version="1.0" encoding="UTF-8"?>
<svg id="Fill" xmlns="http://www.w3.org/2000/svg" viewBox="0 0 24 24">
  <defs>
    <style>
      .cls-1 {
        fill: #282a32;
        stroke-width: 0px;
      }
    </style>
  </defs>
  <path class="cls-1" d="m14.94,13.66c0,.59-.57,1.27-.96,1.4-.29.09-.48.38-.48.7v.25h-1.87c.99-.84,1.83-1.86,2.4-3.02,0,0,.91.29.91.68Zm6.06-6.66v10c0,2.21-1.79,4-4,4H7c-2.21,0-4-1.79-4-4V7c0-2.21,1.79-4,4-4h10c2.21,0,4,1.79,4,4Zm-7.5,0c0,.83.67,1.5,1.5,1.5s1.5-.67,1.5-1.5-.67-1.5-1.5-1.5-1.5.67-1.5,1.5Zm5.5,8.13c0-.14-.11-.25-.25-.25s-.25.11-.25.25c0,.48-.39.87-.87.87h-1.13v-.25c0-.41-.34-.75-.75-.75h-.28c1.41-1.5.46-2.7-.91-3.34,1.6-4.67-5.12-3.2-5.98.01l-3.21-1.85c-.12-.07-.27-.03-.34.09-.07.12-.03.27.09.34l3.38,1.95c0,.1,0,.2,0,.3.05.5.68.57.91.23l.43.25s.08.03.12.03c.09,0,.17-.04.22-.12.07-.12.03-.27-.09-.34l-.49-.28c.43-.89,1.83-1.69,2.94-1.8.27-.03.48.23.42.5-.42,1.91-3.7,5.55-5,6.09-.27.11-.47.38-.47.69v.25h-2.25c-.14,0-.25.11-.25.25s.11.25.25.25h8.38c.75,0,1.37-.62,1.37-1.37,0-.14-.11-.25-.25-.25s-.25.11-.25.25c0,.48-.39.87-.87.87h-3.13v-.25c0-.29-.17-.52-.4-.65.31-.18.6-.39.9-.6h6.63c.76,0,1.37-.62,1.37-1.37Z"/>
</svg>