<?xml version="1.0" encoding="UTF-8"?>
<svg id="Fill" xmlns="http://www.w3.org/2000/svg" viewBox="0 0 24 24">
  <defs>
    <style>
      .cls-1 {
        fill: #282a32;
        stroke-width: 0px;
      }
    </style>
  </defs>
  <path class="cls-1" d="m12.97,10.11l7.26,4.03c.48.26.77.77.77,1.31v4.75c0,.61-.65,1-1.19.7l-6.84-3.8c-.6-.34-1.34-.34-1.94,0l-6.84,3.8c-.53.3-1.19-.09-1.19-.7v-4.75c0-.55.3-1.05.77-1.31l7.26-4.03c.6-.34,1.34-.34,1.94,0Zm-1.94-6.86L3.77,7.28c-.48.26-.77.77-.77,1.31v1.93c0,.53.57.87,1.04.61l6.99-3.88c.6-.34,1.34-.34,1.94,0l6.99,3.88c.47.26,1.04-.08,1.04-.61v-1.93c0-.55-.3-1.05-.77-1.31l-7.26-4.03c-.6-.34-1.34-.34-1.94,0Z"/>
</svg>