<?xml version="1.0" encoding="UTF-8"?>
<svg id="Fill" xmlns="http://www.w3.org/2000/svg" viewBox="0 0 24 24">
  <defs>
    <style>
      .cls-1 {
        fill: #282a32;
        stroke-width: 0px;
      }
    </style>
  </defs>
  <path class="cls-1" d="m15.97,13.77c-.13.7-.74,1.23-1.47,1.23s-1.34-.53-1.47-1.23c.72-.33,1.26-.98,1.42-1.77.02,0,.03,0,.05,0s.03,0,.05,0c.16.79.7,1.44,1.42,1.77Zm-3.97-3.77c-.73,0-1.34.53-1.47,1.23.72.33,1.26.98,1.42,1.77.02,0,.03,0,.05,0s.03,0,.05,0c.16-.79.7-1.44,1.42-1.77-.13-.7-.74-1.23-1.47-1.23Zm-5,0c-.83,0-1.5.67-1.5,1.5s.67,1.5,1.5,1.5c.02,0,.03,0,.05,0,.16-.79.7-1.44,1.42-1.77-.13-.7-.74-1.23-1.47-1.23Zm2.55,2.01s-.03,0-.05,0-.03,0-.05,0c-.16.79-.7,1.44-1.42,1.77.13.7.74,1.23,1.47,1.23s1.34-.53,1.47-1.23c-.72-.33-1.26-.98-1.42-1.77Zm11.95,0c0,5.25-4.25,9.5-9.5,9.5S2.5,17.25,2.5,12,6.75,2.5,12,2.5s9.5,4.25,9.5,9.5Zm-2-.5c0-1.38-1.12-2.5-2.5-2.5-1.21,0-2.22.86-2.45,2-.02,0-.03,0-.05,0s-.03,0-.05,0c-.23-1.14-1.24-2-2.45-2s-2.22.86-2.45,2c-.02,0-.03,0-.05,0s-.03,0-.05,0c-.23-1.14-1.24-2-2.45-2-1.38,0-2.5,1.12-2.5,2.5s1.12,2.5,2.5,2.5c.02,0,.03,0,.05,0,.23,1.14,1.24,2,2.45,2s2.22-.86,2.45-2c.02,0,.03,0,.05,0s.03,0,.05,0c.23,1.14,1.24,2,2.45,2s2.22-.86,2.45-2c.02,0,.03,0,.05,0,1.38,0,2.5-1.12,2.5-2.5Zm-2.5-1.5c-.73,0-1.34.53-1.47,1.23.72.33,1.26.98,1.42,1.77.02,0,.03,0,.05,0,.83,0,1.5-.67,1.5-1.5s-.67-1.5-1.5-1.5Z"/>
</svg>