<?xml version="1.0" encoding="UTF-8"?>
<svg id="Fill" xmlns="http://www.w3.org/2000/svg" viewBox="0 0 24 24">
  <defs>
    <style>
      .cls-1 {
        fill: #282a32;
        stroke-width: 0px;
      }
    </style>
  </defs>
  <path id="_Compound_Path_" data-name="&amp;lt;Compound Path&amp;gt;" class="cls-1" d="m21.5,12.02c0,3.86-2.3,7.18-5.6,8.68l-.44-1.04h-1.23c-.24-.36-.21-.43-.62-.47-.93-.05-1.05-.17-1.05-.85,0-.62.27-1.77.3-2.22.02-.57-.05-.78-.05-1.18s.27-.85.31-1.79c.05-.94-.17-1.62-.17-1.62.2-.03.44-.17.51-.34.1-.23.41-1.51.41-2.02,0-.22-.02-.4-.07-.54-.22-.53-.87-.44-1.16-.77-.09-.1-.15-.1-.15-.48.15-.2.19-.51.19-.96,0-.38-.29-.67-.68-.67s-.68.29-.68.67c0,.45.05.76.2.96,0,.38-.06.38-.15.48-.29.33-.94.24-1.16.77-.05.14-.07.32-.07.54,0,.51.31,1.79.41,2.02.07.17.31.31.51.34,0,0-.23.68-.18,1.62.05.94.32,1.39.32,1.79s-.08.61-.05,1.18c.02.45.3,1.6.3,2.22,0,.68-.13.8-1.05.85-.41.04-.39.11-.63.47h-1.23l-.44,1.04c-3.3-1.5-5.6-4.83-5.6-8.68C2.5,6.76,6.75,2.5,12,2.5s9.5,4.26,9.5,9.52Z"/>
</svg>