<?xml version="1.0" encoding="UTF-8"?>
<svg id="Fill" xmlns="http://www.w3.org/2000/svg" viewBox="0 0 24 24">
  <defs>
    <style>
      .cls-1 {
        fill: #282a32;
        stroke-width: 0px;
      }
    </style>
  </defs>
  <path class="cls-1" d="m12,2.5C6.75,2.5,2.5,6.76,2.5,12s4.25,9.5,9.5,9.5,9.5-4.25,9.5-9.5S17.25,2.5,12,2.5Zm-3,10.38c0,.48-.39.87-.87.87h-1.75c-.49,0-.88-.39-.88-.87v-1.75c0-.49.39-.88.88-.88h1.75c.48,0,.87.39.87.88v1.75Zm3,1.12c-1.1,0-2-.89-2-2s.9-2,2-2,2,.9,2,2-.89,2-2,2Zm6.76-.25h-3.52c-.33,0-.53-.32-.37-.58l1.76-2.73c.17-.25.58-.25.74,0l1.76,2.73c.17.26-.04.58-.37.58Z"/>
</svg>