<?xml version="1.0" encoding="UTF-8"?>
<svg id="Fill" xmlns="http://www.w3.org/2000/svg" viewBox="0 0 24 24">
  <defs>
    <style>
      .cls-1 {
        fill: #282a32;
        stroke-width: 0px;
      }
    </style>
  </defs>
  <path class="cls-1" d="m17.5,12.35c0,2.85-.6,5.71-1.78,7.67-.41.69-1.12,1.16-1.91,1.31-.59.11-1.19.17-1.81.17s-1.22-.06-1.81-.17c-.79-.15-1.49-.62-1.91-1.31-1.18-1.96-1.78-4.82-1.78-7.67,0-4.97,4.21-5.36,5.5-5.36s5.5.39,5.5,5.36ZM13.06,2.56C7.33,1.94,2.5,6.4,2.5,12c0,3.27,1.65,6.15,4.17,7.87.17.12.38-.06.3-.25-.96-2.04-1.46-4.66-1.46-7.27,0-4.69,3.36-6.36,6.5-6.36s6.5,1.67,6.5,6.36c0,2.61-.5,5.22-1.46,7.26-.09.18.12.37.29.26,2.76-1.89,4.49-5.18,4.13-8.84-.44-4.4-4-8-8.4-8.47Z"/>
</svg>