<?xml version="1.0" encoding="UTF-8"?>
<svg id="Fill" xmlns="http://www.w3.org/2000/svg" viewBox="0 0 24 24">
  <defs>
    <style>
      .cls-1 {
        fill: #282a32;
        stroke-width: 0px;
      }
    </style>
  </defs>
  <path class="cls-1" d="m19.87,12.3l1.19.13c.27.03.47.27.44.54-.14,1.32-.55,2.57-1.17,3.68-.14.24-.44.33-.69.2l-1.06-.59c-.34-.19-.49-.59-.37-.95l.8-2.47c.11-.33.42-.55.76-.55.03,0,.06,0,.09.01Zm-2.78-5.17c.14.1.31.15.47.15.2,0,.39-.07.54-.21l.88-.8c.21-.19.22-.51.03-.71-.88-.95-1.94-1.71-3.14-2.24-.25-.11-.54,0-.66.25l-.48,1.05c-.16.35-.06.76.25.98l2.11,1.53Zm-10.76.2c.17,0,.33-.05.47-.16l2.11-1.52c.31-.22.42-.63.26-.98l-.49-1.06c-.11-.25-.41-.36-.66-.25-1.19.54-2.25,1.32-3.11,2.27-.19.2-.17.52.03.71l.84.77c.15.15.35.22.54.22Zm-.54,8.06l-.8-2.47c-.11-.33-.42-.55-.76-.55h-.1l-1.18.14c-.27.03-.47.28-.44.55.15,1.32.57,2.57,1.2,3.66.14.24.44.33.68.19l1.02-.57c.33-.19.49-.59.37-.95Zm7.54,3.51h-2.61c-.38,0-.71.26-.78.64l-.24,1.19c-.05.27.12.53.39.59.62.13,1.26.19,1.91.19s1.34-.07,1.97-.2c.27-.06.45-.32.39-.59l-.24-1.17c-.07-.38-.4-.64-.78-.64Zm8.15-8.05c.04.32-.23.6-.55.56l-.93-.11c-.08-.01-.15-.01-.23-.01-.76,0-1.46.49-1.69,1.22l-.81,2.49c-.27.82.08,1.71.83,2.13l.85.48c.28.16.34.54.12.78-.85.93-1.89,1.7-3.07,2.23-.29.14-.64-.04-.7-.36l-.18-.92c-.16-.84-.9-1.44-1.76-1.44h-2.64c-.85,0-1.59.6-1.76,1.44l-.19.95c-.06.32-.41.49-.7.36-1.18-.53-2.22-1.28-3.08-2.21-.22-.24-.16-.62.12-.78l.81-.45c.74-.42,1.1-1.31.83-2.13l-.8-2.47c-.24-.74-.93-1.24-1.72-1.24-.07,0-.14,0-.21,0l-.96.11c-.32.04-.59-.23-.55-.55.14-1.29.54-2.51,1.16-3.58.16-.28.54-.34.78-.12l.66.61c.34.31.77.48,1.23.48.39,0,.75-.12,1.07-.35l2.11-1.52c.69-.5.95-1.43.58-2.21l-.39-.85c-.13-.29.04-.63.35-.7.62-.13,1.28-.2,1.94-.2s1.25.06,1.84.18c.32.06.5.41.36.7l-.38.82c-.36.78-.12,1.71.57,2.21l2.11,1.53c.31.22.68.34,1.07.34.46,0,.89-.17,1.23-.48l.71-.65c.23-.22.61-.16.77.12.62,1.07,1.04,2.29,1.2,3.58Zm-8.46,4.29l-.9-1.05c-.08-.1-.23-.1-.33.01l-.9,1.04c-.07.1-.01.24.12.25h1.91c.13,0,.19-.16.11-.25Zm1.95-2.97c0-1.65-2.09-3.07-2.79-3.5-.14-.08-.32-.08-.46,0-.71.43-2.79,1.84-2.79,3.5,0,1.91,2.09,1.91,2.79.96.12-.16.33-.16.45,0,.7.95,2.79.95,2.79-.96Z"/>
</svg>