<?xml version="1.0" encoding="UTF-8"?>
<svg id="Fill" xmlns="http://www.w3.org/2000/svg" viewBox="0 0 24 24">
  <defs>
    <style>
      .cls-1 {
        fill: #282a32;
        stroke-width: 0px;
      }
    </style>
  </defs>
  <path class="cls-1" d="m12,2.5C6.75,2.5,2.5,6.76,2.5,12s4.25,9.5,9.5,9.5,9.5-4.25,9.5-9.5S17.24,2.5,12,2.5Zm0,14.5c-2.76,0-5-2.24-5-5s2.24-5,5-5,5,2.24,5,5-2.24,5-5,5Zm0-1.75c-.46,0-.87-.05-1.21-.16-.35-.11-.63-.25-.86-.43-.22-.18-.39-.39-.51-.63s-.17-.5-.17-.77c0-.33.09-.62.26-.88.17-.25.39-.45.65-.59-.22-.14-.39-.31-.5-.52-.12-.21-.17-.45-.17-.73,0-.34.09-.64.27-.91.18-.27.46-.49.82-.65.37-.16.84-.24,1.41-.24s1.04.08,1.41.24c.37.16.64.37.82.65.18.27.27.57.27.91,0,.27-.06.51-.17.73-.11.21-.28.39-.49.53.28.13.5.33.67.59.17.26.25.55.25.88,0,.36-.1.69-.3.99-.2.3-.51.54-.91.72-.41.18-.92.27-1.54.27Zm0-1.16c.2,0,.38-.03.54-.1.16-.07.29-.16.38-.28.09-.12.14-.27.14-.45s-.05-.32-.14-.44c-.09-.12-.22-.21-.38-.28-.16-.07-.34-.1-.54-.1s-.38.03-.54.1c-.16.07-.29.16-.38.28-.09.12-.14.27-.14.44s.05.32.14.45c.09.12.22.22.38.28.16.07.34.1.54.1Zm0-2.74c.17,0,.33-.03.48-.09.14-.06.26-.15.34-.25.08-.11.12-.23.12-.37s-.04-.27-.12-.38c-.08-.11-.19-.19-.33-.25-.14-.06-.31-.09-.49-.09s-.34.03-.48.09-.25.14-.33.25c-.08.11-.12.23-.12.38s.04.27.12.38c.08.11.19.19.33.25s.3.09.48.09Z"/>
</svg>