<?xml version="1.0" encoding="UTF-8"?>
<svg id="Fill" xmlns="http://www.w3.org/2000/svg" viewBox="0 0 24 24">
  <defs>
    <style>
      .cls-1 {
        fill: #282a32;
        stroke-width: 0px;
      }
    </style>
  </defs>
  <path class="cls-1" d="m13.77,3h-3.54c-3.61,0-6.4,3.18-5.93,6.77l.68,5.27c.08.63.25,1.24.49,1.83l2.7-2.71c.19-.19.51-.19.7,0,.1.1.15.23.15.35,0,.13-.05.26-.15.36l-2.94,2.95c.55.96,1.31,1.81,2.26,2.48,1.13.8,2.47,1.2,3.81,1.2s2.68-.4,3.8-1.2c.89-.63,1.63-1.42,2.18-2.32.04-.06.07-.12.11-.18-.04-.01-.07-.04-.1-.07l-2.86-2.86c-.19-.2-.19-.51,0-.71.1-.09.23-.14.35-.14.13,0,.25.05.35.14l2.7,2.71c.24-.59.4-1.2.48-1.83l.69-5.26c.47-3.59-2.32-6.78-5.93-6.78Zm-3.25,3.07l.78-.11c.06-.01.11-.05.14-.11l.34-.71c.09-.18.35-.18.44,0l.34.71c.02.06.08.1.14.11l.77.11c.2.03.28.27.14.42l-.57.56s-.06.1-.05.16l.13.79c.04.2-.17.35-.35.26l-.68-.37s-.12-.03-.17,0l-.7.37c-.17.09-.38-.06-.35-.26l.14-.79c0-.06-.01-.12-.06-.16l-.56-.56c-.14-.15-.06-.39.13-.42Zm2.97,7.43c0,.56-.67,1-1.49,1s-1.5-.44-1.5-1,.68-1,1.5-1,1.49.45,1.49,1Zm-5.43-2.54c-.5-.39-.56-1.05-.54-1.48.02-.25.21-.45.47-.47.53-.03,1.45-.01,1.98.43.51.4.57,1.05.54,1.48-.02.25-.21.45-.46.46-.53.03-1.45.01-1.99-.42Zm5.76,7.55h-3.64c-.67,0-1.19-.67-.96-1.3.44-1.19,1.52-1.7,2.78-1.7s2.33.51,2.78,1.69c.24.63-.28,1.31-.96,1.31Zm2.12-7.55c-.54.43-1.46.45-1.99.42-.25-.01-.45-.21-.46-.46-.03-.43.03-1.08.53-1.48.54-.44,1.47-.46,2-.43.25.02.45.22.46.47.02.43-.04,1.09-.54,1.48Z"/>
</svg>