<?xml version="1.0" encoding="UTF-8"?>
<svg id="Fill" xmlns="http://www.w3.org/2000/svg" viewBox="0 0 24 24">
  <defs>
    <style>
      .cls-1 {
        fill: #282a32;
        stroke-width: 0px;
      }
    </style>
  </defs>
  <path class="cls-1" d="m21.26,12.79c-.78-1.17-2.24-2.49-4.6-3.37-.17-1.41-1.47-2.99-2.22-3.81-.33-.34-.73-.6-1.17-.77-3.02-1.07-5.71-1.6-7.14-1.82-.64-.11-1.28.19-1.65.74l-1.74,2.71c-.32.5-.31,1.16.03,1.65l.7,1c.18.27.56.28.78.05.79-.86,2.05-1.19,3.21-.77,1.55.56,2.36,2.3,1.79,3.87-.05.14-.11.27-.18.39-.14.27-.01.6.27.7l3.83,1.4c.28.1.6-.06.66-.36.03-.14.07-.28.12-.42.57-1.57,2.29-2.38,3.84-1.8,1.56.56,2.36,2.31,1.8,3.87-.03.08-.06.18-.09.28-.13.46.4.84.78.55.15-.12.27-.28.34-.47l.79-2.24c.16-.46.12-.98-.15-1.39Zm-6.59-3.99c-.86-.32-2.69-1-4.49-1.67-.3-.11-.42-.46-.26-.73l.51-.82c.16-.26.47-.39.76-.31.58.15,1.19.33,1.83.55.29.11.55.29.76.53.39.44,1.01,1.25,1.28,2.06.08.24-.16.46-.39.38Zm3.36,4.67c.84.71.95,1.97.24,2.82s-1.96.96-2.8.25-.95-1.97-.24-2.82,1.96-.96,2.8-.25Zm-10.31-3.78c.84.71.95,1.97.24,2.82-.7.85-1.96.96-2.8.25s-.95-1.97-.24-2.82,1.96-.96,2.8-.25Zm-4.71,8.32c0-.55,0-1.29,0-1.91,0-.92.61-1.73,1.48-1.96s1.74-.19,2.39.02c2.49.81,1.95,1.95,4.32,1.95,3.01,0,4.92,2.79,9.29,2.82.28,0,.51.22.51.5v1.05c0,.28-.22.51-.5.51H3.5c-.28,0-.5-.23-.5-.51v-2.48Z"/>
</svg>