<?xml version="1.0" encoding="UTF-8"?>
<svg id="Fill" xmlns="http://www.w3.org/2000/svg" viewBox="0 0 24 24">
  <defs>
    <style>
      .cls-1 {
        fill: #282a32;
        stroke-width: 0px;
      }
    </style>
  </defs>
  <path class="cls-1" d="m12,2.5C6.75,2.5,2.5,6.76,2.5,12s4.25,9.5,9.5,9.5,9.5-4.25,9.5-9.5S17.25,2.5,12,2.5Zm-3.88,2.79c.6-.35,1.37-.14,1.71.46.35.6.14,1.36-.46,1.71-.59.34-1.36.14-1.7-.46-.35-.6-.14-1.36.45-1.71Zm-2.62,7.96c-.69,0-1.25-.56-1.25-1.25s.56-1.25,1.25-1.25,1.25.56,1.25,1.25-.56,1.25-1.25,1.25Zm4.33,5.01c-.34.59-1.11.8-1.71.45-.59-.34-.8-1.11-.45-1.7.34-.6,1.11-.81,1.7-.46.6.34.81,1.11.46,1.71Zm-1.33-6.26c0-1.93,1.57-3.5,3.5-3.5s3.5,1.57,3.5,3.5-1.57,3.5-3.5,3.5-3.5-1.57-3.5-3.5Zm7.37,6.71c-.59.35-1.36.14-1.7-.45-.35-.6-.14-1.37.45-1.71.6-.35,1.37-.14,1.71.46.35.59.14,1.36-.46,1.7Zm.46-11.71c-.34.6-1.11.8-1.71.46-.59-.35-.8-1.11-.45-1.71.34-.6,1.11-.81,1.7-.46.6.35.81,1.11.46,1.71Zm2.17,6.25c-.69,0-1.25-.56-1.25-1.25s.56-1.25,1.25-1.25,1.25.56,1.25,1.25-.56,1.25-1.25,1.25Zm-6.5-3.75c-1.38,0-2.5,1.12-2.5,2.5s1.12,2.5,2.5,2.5,2.5-1.12,2.5-2.5-1.12-2.5-2.5-2.5Z"/>
</svg>