<?xml version="1.0" encoding="UTF-8"?>
<svg id="Fill" xmlns="http://www.w3.org/2000/svg" viewBox="0 0 24 24">
  <defs>
    <style>
      .cls-1 {
        fill: #282a32;
        stroke-width: 0px;
      }
    </style>
  </defs>
  <path class="cls-1" d="m20.23,5.42c-.01-.2.26-.29.36-.11,1.93,3.2.7,8.34-3.13,12.16s-8.96,5.06-12.16,3.13c-.17-.1-.09-.38.11-.36,2.1.11,5.84-2.02,9.32-5.49,3.47-3.47,5.61-7.21,5.49-9.32Zm-1.54-2.02c.18.11.09.37-.11.37-1.58-.08-4.09,1.11-6.7,3.17l-.09-.09c-.2-.2-.51-.2-.71,0s-.2.51,0,.71l1.06,1.06c.19.19.51.2.71,0s.19-.52,0-.71l-.25-.25c3.35-2.63,5.92-3.26,6.47-2.71.69.69-.46,4.52-5.03,9.09-4.57,4.57-8.4,5.72-9.09,5.03-.55-.55.09-3.11,2.71-6.47l.25.25c.19.19.51.2.71,0s.19-.52,0-.71l-1.06-1.06c-.2-.2-.51-.2-.71,0s-.2.51,0,.71l.09.09c-2.07,2.62-3.25,5.12-3.17,6.7,0,.2-.26.29-.37.11-1.93-3.2-.7-8.34,3.13-12.16,3.83-3.83,8.96-5.06,12.16-3.13Zm-9.92,6.08c-.2-.2-.51-.2-.71,0s-.2.51,0,.71l1.06,1.06c.2.2.51.2.71,0s.2-.51,0-.71l-1.06-1.06Zm1.41-1.41c-.2-.2-.51-.2-.71,0s-.2.51,0,.71l1.06,1.06c.2.2.51.2.71,0s.2-.51,0-.71l-1.06-1.06Z"/>
</svg>