<?xml version="1.0" encoding="UTF-8"?>
<svg id="Fill" xmlns="http://www.w3.org/2000/svg" viewBox="0 0 24 24">
  <defs>
    <style>
      .cls-1 {
        fill: #282a32;
        stroke-width: 0px;
      }
    </style>
  </defs>
  <path class="cls-1" d="m11.11,21.21c-2.67.66-5.22.22-6.88-1.44-1.66-1.66-2.1-4.2-1.44-6.88.05-.19.31-.2.38-.02.66,1.66,1.73,3.32,3.18,4.78,1.46,1.46,3.11,2.52,4.78,3.18.18.07.17.33-.02.38Zm8.97-9.23c.28.81.18,1.7-.25,2.44-.62,1.07-1.41,2.1-2.37,3.06-.95.95-1.99,1.75-3.06,2.37-.73.42-1.61.53-2.4.26-1.71-.58-3.44-1.65-4.95-3.16s-2.58-3.23-3.16-4.95c-.27-.8-.16-1.68.26-2.4.62-1.07,1.41-2.11,2.37-3.06s1.99-1.75,3.06-2.37c.73-.42,1.61-.53,2.4-.26,1.71.58,3.44,1.65,4.95,3.16,1.5,1.5,2.56,3.21,3.15,4.91Zm-4.91-3.15c-.19-.19-.52-.19-.71,0l-.71.71-.35-.35c-.19-.19-.52-.19-.71,0-.2.2-.19.52,0,.71l.35.35-1.06,1.06-.35-.35c-.19-.19-.52-.19-.71,0s-.19.52,0,.71l.35.35-1.06,1.06-.35-.35c-.19-.19-.52-.19-.71,0s-.19.52,0,.71l.35.35-.71.71c-.2.2-.19.52,0,.71s.51.2.71,0l.71-.71.35.35c.2.2.51.2.71,0,.19-.19.2-.51,0-.71l-.35-.35,1.06-1.06.35.35c.2.2.51.2.71,0,.19-.19.2-.51,0-.71l-.35-.35,1.06-1.06.35.35c.2.2.51.2.71,0s.2-.51,0-.71l-.35-.35.71-.71c.19-.19.2-.51,0-.71Zm4.59-4.59c-1.66-1.66-4.2-2.1-6.88-1.44-.19.05-.2.31-.02.38,1.66.66,3.32,1.73,4.78,3.18s2.52,3.11,3.18,4.78c.07.18.33.17.38-.02.66-2.67.22-5.22-1.44-6.88Z"/>
</svg>