<?xml version="1.0" encoding="UTF-8"?>
<svg id="Fill" xmlns="http://www.w3.org/2000/svg" viewBox="0 0 24 24">
  <defs>
    <style>
      .cls-1 {
        fill: #282a32;
        stroke-width: 0px;
      }
    </style>
  </defs>
  <path class="cls-1" d="m18.92,13.5h-6.7c2.23-3.47.2-8.45-.84-10.53-.15-.29.16-.58.44-.42,6.89,4.12,7.46,8.52,7.1,10.96ZM10.42,4.2l-5.74,9.3h6.32V4.38c0-.32-.41-.44-.58-.18Zm11.32,14.92c-.47.26-.99.38-1.5.38s-1.03-.12-1.5-.38l-1.59-.86c-.65-.34-1.41-.34-2.05,0l-1.6.86c-.94.51-2.06.51-3,0l-1.59-.86c-.64-.34-1.41-.34-2.05,0l-1.6.86c-.94.51-2.06.51-3,0-.24-.13-.33-.43-.2-.67.13-.25.44-.34.68-.21.64.35,1.41.35,2.05,0l1.59-.86c.94-.5,2.06-.5,3,0l1.6.86c.64.35,1.4.35,2.05,0l1.59-.86c.94-.5,2.06-.5,3,0l1.59.86c.65.35,1.41.35,2.05,0,.25-.13.55-.04.68.21.13.24.04.54-.2.67Zm0,2c-.47.26-.99.38-1.5.38s-1.03-.12-1.5-.38l-1.59-.86c-.65-.34-1.41-.34-2.05,0l-1.6.86c-.94.51-2.06.51-3,0l-1.59-.86c-.64-.34-1.41-.34-2.05,0l-1.6.86c-.94.51-2.06.51-3,0-.24-.13-.33-.43-.2-.68.13-.24.44-.33.68-.2.64.35,1.41.35,2.05,0l1.59-.86c.94-.5,2.06-.5,3,0l1.6.86c.64.35,1.4.35,2.05,0l1.59-.86c.94-.5,2.06-.5,3,0l1.59.86c.65.35,1.41.35,2.05,0,.25-.13.55-.04.68.2.13.25.04.55-.2.68Zm-.34-5.82l-1.51,2.01c-.24-.03-.47-.11-.68-.22l-1.59-.86c-.94-.5-2.06-.5-3,0l-1.59.86c-.65.35-1.41.35-2.05,0l-1.6-.86c-.94-.5-2.06-.5-3,0l-1.59.86c-.22.11-.44.19-.68.22l-1.51-2.01c-.24-.33-.01-.8.4-.8h18c.42,0,.65.47.4.8Z"/>
</svg>