<?xml version="1.0" encoding="UTF-8"?>
<svg id="Fill" xmlns="http://www.w3.org/2000/svg" viewBox="0 0 24 24">
  <defs>
    <style>
      .cls-1 {
        fill: #282a32;
        stroke-width: 0px;
      }
    </style>
  </defs>
  <path class="cls-1" d="m5.79,14.85c-1-.27-1.94-.61-2.8-1.01-.22-.1-.37-.3-.4-.54-.06-.43-.09-.86-.09-1.31s.03-.86.08-1.27c.03-.21.26-.32.45-.22,1.02.6,2.32,1.09,3.84,1.43-.43.97-.79,1.95-1.08,2.91Zm1.51-8.02c-1.03.94-1.78,2.19-2.1,3.59.63.23,1.32.43,2.1.59.47-.96.99-1.87,1.55-2.73-.52-.58-1.04-1.05-1.55-1.45Zm2.22,2.24c-1.13,1.91-2.32,4.43-3.06,7.16.69.91,1.6,1.64,2.64,2.12.45-2.26,1.55-4.95,2.33-6.36-.59-1.07-1.24-2.06-1.91-2.92Zm2.82-5.05c.34-.32.7-.63,1.05-.91.21-.16.12-.5-.14-.53-.41-.05-.82-.08-1.25-.08-4.09,0-7.58,2.59-8.91,6.22-.12.32,0,.67.3.85.26.16.55.31.87.46.88-3.47,4.18-6.01,8.09-6.01Zm1.62,14.68c-.13-.66-.3-1.36-.53-2.09-.83.08-1.85.09-2.85,0-.23.74-.4,1.43-.53,2.1.62.18,1.27.29,1.95.29s1.34-.11,1.96-.3Zm-1.96,1.3c-3.11,0-5.77-1.8-7.09-4.4-.46-.14-.91-.3-1.34-.47-.24-.09-.48.15-.39.39,1.4,3.5,4.82,5.98,8.82,5.98.57,0,1.12-.05,1.65-.14.35-.06.6-.38.58-.73-.02-.3-.05-.61-.1-.93-.68.19-1.39.3-2.13.3Zm3.69-8.8c-.51-1.1-2.54-4.41-4.38-6.17-1.18.12-2.27.53-3.21,1.16,1.44,1.15,3.27,3.36,4.2,5.28,1.22,0,2.36-.11,3.39-.27Zm3.13-.79c-.33-1.41-1.1-2.65-2.14-3.59-.5.39-1,.87-1.5,1.43.56.87,1.07,1.79,1.54,2.76.77-.16,1.46-.37,2.1-.6Zm-4.38,6.12c.43,1.43.69,2.78.78,3.99.01.2.22.34.41.26.78-.32,1.51-.75,2.18-1.26.19-.15.29-.39.26-.64-.11-.92-.29-1.88-.55-2.84-.98.22-2.01.39-3.08.49Zm.16-9.12c1-1.09,1.9-1.84,3.18-2.39.21-.09.25-.37.07-.51-.7-.55-1.48-1-2.31-1.33-.21-.09-.46-.06-.65.07-.75.5-1.48,1.1-2.18,1.79.67.72,1.3,1.51,1.9,2.37Zm4.37,4c-.74.26-3.71,1.14-6.64,1.06-.56.92-1.16,2.24-1.41,3.14,2.08.19,5.31-.17,7.47-.82.38-.86.61-1.8.61-2.79,0-.2-.02-.39-.03-.59Zm.4-5.4c-.17-.2-.43-.29-.69-.24-.13.03-.27.06-.4.12-.25.09-.5.21-.75.36,1.51,1.45,2.47,3.49,2.47,5.76,0,1.6-.53,3.2-1.38,4.46.1.46.19.91.27,1.35.04.25.37.34.53.14,1.31-1.63,2.09-3.7,2.09-5.95s-.8-4.36-2.13-5.99Z"/>
</svg>