<?xml version="1.0" encoding="UTF-8"?>
<svg id="Fill" xmlns="http://www.w3.org/2000/svg" viewBox="0 0 24 24">
  <defs>
    <style>
      .cls-1 {
        fill: #282a32;
        stroke-width: 0px;
      }
    </style>
  </defs>
  <path class="cls-1" d="m17,3H7c-2.21,0-4,1.79-4,4v10c0,2.2,1.79,4,4,4h10c2.21,0,4-1.8,4-4V7c0-2.21-1.79-4-4-4Zm-.51,11c-.02.28-.26.5-.55.48-.26-.02-.46-.23-.48-.48-.05-1.26-.44-2.28-1.05-3.06-.47.21-1.1.49-1.69.75,1.37.87,2.35,2.33.97,3.81-.34.35-.71.6-1.1.81-.03.12-.09.24-.18.33-.27.27-.68.28-.98.07l-.68.48s-.1.05-.15.05c-.08,0-.16-.04-.21-.11-.08-.12-.05-.28.06-.36l.68-.48c-.07-.26-.02-.54.19-.75.21-.21.51-.27.77-.18,1.84-1.18.83-2.26-.93-2.76.03.61-.17,1.45-.53,1.85-.66.86-1.51,1.47-2.38,2.03-.03.15-.08.3-.2.42-.27.27-.68.28-.98.07l-.68.48s-.1.05-.15.05c-.08,0-.16-.04-.21-.11-.08-.12-.05-.28.06-.36l.68-.48c-.07-.26-.01-.54.19-.75.18-.18.42-.24.65-.21.89-.72,2.14-1.71,2.01-2.61-.06-.43-.14-1.25.27-1.65.33-.38,1.87-1.29,2.68-1.75-1.06-.42-2.32-.51-3.67-.22-.62.11-.84-.83-.24-1,2.69-.95,6.29-.1,7.39,2.81.37.91.49,1.89.43,2.82Zm.02-4.5c-.83,0-1.5-.67-1.5-1.5s.67-1.5,1.5-1.5,1.5.67,1.5,1.5-.67,1.5-1.5,1.5Z"/>
</svg>