<?xml version="1.0" encoding="UTF-8"?>
<svg id="Fill" xmlns="http://www.w3.org/2000/svg" viewBox="0 0 24 24">
  <defs>
    <style>
      .cls-1 {
        fill: #282a32;
        stroke-width: 0px;
      }
    </style>
  </defs>
  <path class="cls-1" d="m13.36,15.54c0,.11.02.23.06.34l-2.42.88-.11-.3c-.09-.24-.29-.4-.53-.46.5-.98.87-2.06.72-3.04,1.68-.41,2.38.48,2.28,2.57Zm7.64-8.54v10c0,2.21-1.79,4-4,4H7c-2.21,0-4-1.79-4-4V7c0-2.21,1.79-4,4-4h10c2.21,0,4,1.79,4,4Zm-9.02.65c.63.53,1.58.45,2.11-.18.53-.63.45-1.58-.19-2.11-.63-.53-1.58-.45-2.11.18-.53.63-.45,1.58.19,2.11Zm-1.43,11.14c.05-.27-.13-.53-.41-.58-.27-.05-.53.13-.58.41-.05.27.13.53.41.58.27.05.53-.13.58-.41Zm5.78-2.1c.05-.27-.13-.53-.41-.58s-.53.13-.58.41c-.05.27.13.53.41.58.27.05.53-.13.58-.41Zm1.03-3c-.12-.06-.27,0-.33.12-.25.54-.68.94-1.21,1.18l-.11-.31c-.14-.39-.57-.59-.96-.45l-.42.15c-.01-2.94-1.92-3.58-3.78-2.98.36-.31,1.45-1.03,2.1-1.46,1.43.3,3.15.16,4.06-1.08.38-.45-.27-1.09-.71-.7-2.52,2.12-6.05-1.71-8.59.71-.45.41.16,1.14.64.77.55-.4,1.21-.45,1.93-.35-.51.43-.98.92-1.28,1.24-.93.96-1.03,2.85.78,2.67.19.96-.01,2.25-.6,3.22-.18.3-.46.55-.34.89l.08.21c-.43.04-.86-.02-1.27-.21-.13-.06-.27,0-.33.12-.06.12,0,.27.12.33.4.18.82.28,1.24.28.34,0,.68-.06,1.01-.18l6.43-2.34c.74-.27,1.33-.81,1.66-1.52.06-.12,0-.27-.12-.33Z"/>
</svg>