<?xml version="1.0" encoding="UTF-8"?>
<svg id="Fill" xmlns="http://www.w3.org/2000/svg" viewBox="0 0 24 24">
  <defs>
    <style>
      .cls-1 {
        fill: #282a32;
        stroke-width: 0px;
      }
    </style>
  </defs>
  <path class="cls-1" d="m17,3H7c-2.21,0-4,1.79-4,4v10c0,2.21,1.79,4,4,4h10c2.21,0,4-1.79,4-4V7c0-2.21-1.79-4-4-4Zm-.71,15.31c-.18.32-.48.54-.84.64-.12.03-.24.05-.36.05-.24,0-.47-.06-.69-.18l-7.18-4.13c-.12-.07-.16-.22-.09-.34.07-.12.22-.16.34-.09l3.74,2.15c-.12-.38-.08-.81.19-1.13.46-.46.83-.55,1.28-.86,0,0,.02-.01.03-.02-2.4-1.17-4.6-2.88-5.83-5.2-.14.36-.54.55-.91.41-.37-.13-.56-.54-.43-.9l.49-1.32c.13-.36.54-.55.91-.42.33.12.38.46.44.79.19,1,1.92,2.37,3.29,3.26-.54-1.13-.93-2.12-1.09-3.36-.17.08-.37.1-.56.03-.37-.13-.56-.54-.43-.9l.49-1.32c.13-.36.54-.55.91-.42.28.1.46.36.47.64.02,1.37,1.53,5.81,4.01,7.34.79.37.64,1.31.09,1.74-.57.44-2.08,1.27-2.08,1.27l1.32.75c.5.28.36.87,0,1.1l.85.49c.2.12.44.15.66.09.23-.06.41-.21.53-.41.07-.12.22-.16.34-.09.12.07.16.22.09.34Zm.71-1.81c-.83,0-1.5-.67-1.5-1.5s.67-1.5,1.5-1.5,1.5.67,1.5,1.5-.67,1.5-1.5,1.5Z"/>
</svg>