<?xml version="1.0" encoding="UTF-8"?>
<svg id="Fill" xmlns="http://www.w3.org/2000/svg" viewBox="0 0 24 24">
  <defs>
    <style>
      .cls-1 {
        fill: #282a32;
        stroke-width: 0px;
      }
    </style>
  </defs>
  <path class="cls-1" d="m17,3H7c-2.21,0-4,1.79-4,4v10c0,2.21,1.79,4,4,4h10c2.21,0,4-1.79,4-4V7c0-2.21-1.79-4-4-4Zm.01,4.36c.83,0,1.5.67,1.5,1.5s-.67,1.5-1.5,1.5-1.5-.67-1.5-1.5.67-1.5,1.5-1.5Zm1.81,5.48c-.05.08-.13.12-.22.12-.04,0-.08-.01-.12-.03l-1.44-.83c-1.47.24-3.24-.63-3.36-2.32-.51-.03-1.36-.04-1.83-.03.34.18,1.03.67,1.03,1.42,0,.91-1.82,1.59-2.69,2l.52.3c.36.21.48.67.27,1.02l-.14.25,5.07,2.93c.2.12.44.15.66.09.23-.06.41-.2.53-.41.07-.12.22-.16.34-.09s.16.22.09.34c-.18.32-.48.54-.83.64-.12.03-.24.05-.36.05-.24,0-.47-.06-.68-.18l-10.41-6.01c-.12-.07-.16-.22-.09-.34.07-.12.22-.16.34-.09l2.74,1.58.14-.25c.15-.27.43-.37.83-.47.74-.18,2.17-1.39,2.17-1.39-.56-.28-1.65-.59-2.18-1.05-.66-.59-.34-1.54.6-1.84.13-.04.26-.07.4-.1l-3.43-1.98c-.12-.07-.16-.22-.09-.34.07-.12.22-.16.34-.09l3.93,2.27c.75-.1,1.5-.08,2.26.02.9.12,1.75.68,1.82,1.39.15,1.39,1.17,2.04,2.36,1.76.55-.17.79.48.31.73l1.03.6c.12.07.16.22.09.34Z"/>
</svg>