<?xml version="1.0" encoding="UTF-8"?>
<svg id="Fill" xmlns="http://www.w3.org/2000/svg" viewBox="0 0 24 24">
  <defs>
    <style>
      .cls-1 {
        fill: #282a32;
        stroke-width: 0px;
      }
    </style>
  </defs>
  <path class="cls-1" d="m17,3H7c-2.21,0-4,1.79-4,4v10c0,2.21,1.79,4,4,4h10c2.21,0,4-1.79,4-4V7c0-2.21-1.79-4-4-4Zm-.13,2.5c.83,0,1.5.67,1.5,1.5s-.67,1.5-1.5,1.5-1.5-.67-1.5-1.5.67-1.5,1.5-1.5Zm1.34,5.08l-12.73,7.35s-.08.03-.12.03c-.09,0-.17-.04-.22-.12-.07-.12-.03-.27.09-.34l1.99-1.15c-.16-.04-.34-.35-.21-.79.9-2.56,1.84-4.25,3.8-6-1.2.08-2.4.13-3.62.12-.57.01-.67-.86-.12-.99,2.23-.58,4.48-.93,6.75-1.23,1.42-.19,1.55,1.38.65,1.75-1.47.77-2.82,1.74-3.95,2.96-.58.61-1.08,1.29-1.53,2,.36-.2.81-.08,1.01.28l.15.21,7.82-4.51c.24-.14.4-.39.43-.67.01-.14.14-.24.27-.22.14.01.24.14.22.27-.04.44-.3.83-.68,1.05Z"/>
</svg>