<?xml version="1.0" encoding="UTF-8"?>
<svg id="Fill" xmlns="http://www.w3.org/2000/svg" viewBox="0 0 24 24">
  <defs>
    <style>
      .cls-1 {
        fill: #282a32;
        stroke-width: 0px;
      }
    </style>
  </defs>
  <path class="cls-1" d="m17,3H7c-2.21,0-4,1.79-4,4v10c0,2.21,1.79,4,4,4h10c2.21,0,4-1.79,4-4V7c0-2.21-1.79-4-4-4Zm-2.53,3.28c.53-.63,1.48-.72,2.11-.18.63.53.72,1.48.19,2.11-.53.63-1.48.72-2.11.18s-.72-1.48-.19-2.11Zm4.37,3.56c-.12.11-.29.23-.48.35v7.56c0,.14-.11.25-.25.25s-.25-.11-.25-.25v-7.28c-.47.23-1.01.42-1.51.42-.98,0-1.93-.3-2.63-.83-.57.33-1.39.8-1.83,1.05,0,0,1.46.72,1.7.86.63.39.65,1.24-.39,1.88-.34.21-1.95,1.07-2.75,1.32l.59.34c.36.21.44.62.27,1.02-.04.09-.11.24-.11.24l2.84,1.64c.3.17.68.07.85-.23.07-.12.22-.16.34-.09.12.07.16.22.09.34-.21.36-.58.56-.97.56-.19,0-.38-.05-.56-.15l-8.69-5.02c-.12-.07-.16-.22-.09-.34.07-.12.22-.16.34-.09l3.23,1.86s.09-.14.14-.23c.21-.36.83-.33,3.29-2-.53-.2-1.25-.46-1.58-.6-1.17-.35-1.3-1.87-.19-2.62.27-.18,1.48-.91,1.84-1.13-.86-.59-1.73-.79-2.72-.39l.4.23c.12.07.16.22.09.34-.05.08-.13.12-.22.12-.04,0-.08-.01-.12-.03l-.68-.39c-.08.05-.16.09-.24.14-.47.29-.92-.29-.69-.68l-2.67-1.54c-.12-.07-.16-.22-.09-.34.07-.12.22-.16.34-.09l2.82,1.63c2.05-1.48,3.88-.76,5.58.82,1.51,1.42,2.65,1.82,4.37.52.51-.36,1.08.43.58.8Z"/>
</svg>