<?xml version="1.0" encoding="UTF-8"?>
<svg id="Fill" xmlns="http://www.w3.org/2000/svg" viewBox="0 0 24 24">
  <defs>
    <style>
      .cls-1 {
        fill: #282a32;
        stroke-width: 0px;
      }
    </style>
  </defs>
  <path class="cls-1" d="m20.86,13.74l-5.08-9.03c-.84-1.48-2.31-2.21-3.78-2.21s-2.95.73-3.78,2.21L3.13,13.74c-1.82,3.24.51,7.26,4.23,7.26h9.29c3.71,0,6.05-4.02,4.22-7.26Zm-4.47,3.86c-.88,0-1.59-.71-1.59-1.6s.72-1.6,1.59-1.6,1.59.72,1.59,1.6-.71,1.6-1.59,1.6Zm-10.36-1.6c0-.88.72-1.6,1.59-1.6s1.59.72,1.59,1.6-.71,1.6-1.59,1.6-1.59-.71-1.59-1.6Zm5.98-10c.89,0,1.59.72,1.59,1.6s-.71,1.6-1.59,1.6-1.59-.71-1.59-1.6.72-1.6,1.59-1.6Zm.5,5.82v-.04c0-.87.72-1.58,1.59-1.58s1.59.72,1.59,1.6-.72,1.6-1.59,1.6-1.58-.7-1.59-1.58Zm1.1,4.18c0,.89-.71,1.6-1.59,1.6s-1.59-.71-1.59-1.6.72-1.6,1.59-1.6,1.59.72,1.59,1.6Zm-2.09-4.22v.04c-.01.88-.72,1.58-1.59,1.58s-1.59-.71-1.59-1.6.72-1.6,1.59-1.6,1.58.71,1.59,1.58Z"/>
</svg>