<?xml version="1.0" encoding="UTF-8"?>
<svg id="Fill" xmlns="http://www.w3.org/2000/svg" viewBox="0 0 24 24">
  <defs>
    <style>
      .cls-1 {
        fill: #282a32;
        stroke-width: 0px;
      }
    </style>
  </defs>
  <path class="cls-1" d="m16.5,16.72c.81.47,1.54,1.06,2.17,1.75.22.25.21.63-.04.85-1.35,1.21-3.11,1.99-5.03,2.12-1.06.08-2.14.08-3.2,0-1.92-.13-3.68-.91-5.03-2.12-.25-.22-.26-.6-.04-.85.63-.69,1.36-1.28,2.17-1.75h0c0,.28.22.51.5.51s.5-.23.5-.5v-.52c.93-.4,1.94-.63,3-.69v.48c0,.27.22.5.5.5s.5-.23.5-.5v-.48c1.06.06,2.07.29,3,.69v.52c0,.27.22.5.5.5s.5-.23.5-.5h0Zm0-8.3v.85c0,.27-.21.49-.48.5s-.52-.24-.52-.52v-.4c-.94.36-1.95.57-3,.62v.53c0,.27-.22.5-.5.5s-.5-.23-.5-.5v-.53c-1.05-.05-2.06-.26-3-.62v.42c0,.27-.21.49-.48.5s-.52-.24-.52-.52v-.83c-1.02-.52-1.94-1.2-2.72-2.02-.27-.28-.73-.24-.94.09-.73,1.15-1.19,2.47-1.29,3.9-.03.54-.05,1.07-.05,1.61s.02,1.07.05,1.6c.1,1.43.55,2.76,1.29,3.91.21.33.67.37.94.09.78-.82,1.7-1.5,2.72-2.02v-.85c0-.28.21-.49.48-.5s.52.24.52.52v.39c.94-.35,1.95-.56,3-.62v-.52c0-.27.21-.49.48-.5s.52.24.52.52v.5c1.05.06,2.06.27,3,.62v-.41c0-.28.21-.49.48-.5s.52.24.52.52v.83c1.02.52,1.94,1.2,2.72,2.02.27.28.73.24.94-.09.73-1.15,1.19-2.47,1.29-3.91.03-.53.05-1.07.05-1.6s-.02-1.07-.05-1.61c-.1-1.43-.55-2.75-1.29-3.9-.21-.33-.67-.37-.94-.09-.78.82-1.7,1.5-2.72,2.02Zm-6.1-5.87c-1.92.14-3.68.92-5.03,2.13-.25.22-.26.6-.04.85.63.69,1.36,1.28,2.17,1.75h0c0-.28.22-.51.5-.51s.5.23.5.5v.52c.93.39,1.94.62,3,.68v-.47c0-.27.21-.49.48-.5s.52.24.52.52v.45c1.06-.06,2.07-.29,3-.68v-.52c0-.27.22-.5.5-.5s.5.23.5.5h0c.81-.46,1.54-1.05,2.17-1.74.22-.25.21-.63-.04-.85-1.35-1.21-3.11-1.99-5.03-2.13-1.06-.07-2.14-.07-3.2,0Z"/>
</svg>