<?xml version="1.0" encoding="UTF-8"?>
<svg id="Fill" xmlns="http://www.w3.org/2000/svg" viewBox="0 0 24 24">
  <defs>
    <style>
      .cls-1 {
        fill: #282a32;
        stroke-width: 0px;
      }
    </style>
  </defs>
  <path class="cls-1" d="m18.03,13.82c0,.67-.54,1.21-1.21,1.21s-1.21-.54-1.21-1.21c0-.36.17-.68.42-.9l.4,1.09c.09.25.37.38.62.29.25-.09.38-.37.29-.62l-.38-1.04c.6.07,1.07.56,1.07,1.18Zm2.97-6.82v10c0,2.21-1.79,4-4,4H7c-2.21,0-4-1.79-4-4V7c0-2.21,1.79-4,4-4h10c2.21,0,4,1.79,4,4Zm-12.15,8.21c-.42-.18-.8-.46-1.1-.83-.63-.75-1.39-1.57-2.4-1.73-.22.34-.35.74-.35,1.18,0,1.2.98,2.18,2.17,2.18.68,0,1.27-.31,1.68-.79Zm10.15-1.39c0-1.2-.97-2.18-2.17-2.18-.08,0-.15.01-.22.02l-1.58-4.35c-.09-.25-.37-.38-.62-.29-.25.09-.38.37-.29.62l.51,1.4h-2.47c-.26,0-.5.1-.68.28l-.59.59c-.18.18-.43.28-.68.28h-3.76c-.32,0-.62.16-.8.43l-.4.6c-.12.18-.01.42.2.45,1.44.21,2.42,1.32,3.05,2.08.37.45.92.72,1.5.72h.4c1.37,0,1.68-.72,2.36-1.94.41-.73,1.09-2.08,2.35-2.21l.6,1.65c-.62.38-1.04,1.06-1.04,1.85,0,1.2.97,2.18,2.17,2.18s2.17-.97,2.17-2.18Z"/>
</svg>