<?xml version="1.0" encoding="UTF-8"?>
<svg id="Fill" xmlns="http://www.w3.org/2000/svg" viewBox="0 0 24 24">
  <defs>
    <style>
      .cls-1 {
        fill: #282a32;
        stroke-width: 0px;
      }
    </style>
  </defs>
  <path class="cls-1" d="m20.9,9.96c-.38-.26-.6-.68-.6-1.13,0-.15.03-.31.09-.47.61-1.61-.57-3.31-2.24-3.31h-.21c-.6,0-1.12-.41-1.27-.99-.3-1.13-1.29-1.81-2.33-1.81-.52,0-1.05.17-1.51.55-.24.19-.54.29-.83.29s-.59-.1-.83-.29c-.45-.38-.98-.55-1.51-.55-1.03,0-2.03.68-2.33,1.81-.15.58-.67.99-1.26.99h-.08c-1.44-.07-2.54,1.09-2.54,2.43,0,.29.05.58.16.88.06.16.09.32.09.47,0,.45-.22.87-.6,1.13-.73.48-1.1,1.26-1.1,2.04s.37,1.56,1.1,2.05c.38.25.6.68.6,1.12,0,.15-.03.31-.09.48-.6,1.6.56,3.3,2.24,3.3h.2c.6,0,1.13.4,1.28.99.45,1.71,2.49,2.38,3.84,1.26.24-.2.54-.3.83-.3s.59.1.83.3c.46.38.99.55,1.51.55,1.04,0,2.03-.68,2.33-1.81.15-.59.68-.99,1.29-.99h.06c1.43.08,2.53-1.1,2.53-2.42,0-.3-.05-.59-.16-.88-.06-.17-.09-.33-.09-.48,0-.45.22-.87.6-1.12.73-.49,1.1-1.27,1.1-2.05s-.37-1.56-1.1-2.04Zm-8.9,7.54c-3.04,0-5.5-2.46-5.5-5.5s2.46-5.5,5.5-5.5,5.5,2.46,5.5,5.5-2.47,5.5-5.5,5.5Zm1.73-5.09c-.06.08-.1.18-.09.28l.22,1.32c.06.34-.28.59-.58.44l-1.14-.62c-.09-.05-.2-.05-.29,0l-1.15.62c-.29.15-.64-.1-.58-.44l.22-1.32c.02-.1-.02-.2-.09-.28l-.94-.94c-.24-.24-.1-.64.23-.69l1.28-.2c.1-.02.19-.08.24-.17l.57-1.19c.14-.31.58-.31.73,0l.57,1.19c.04.09.13.16.24.17l1.28.2c.33.05.46.46.23.69l-.94.94Z"/>
</svg>