<?xml version="1.0" encoding="UTF-8"?>
<svg id="Fill" xmlns="http://www.w3.org/2000/svg" viewBox="0 0 24 24">
  <defs>
    <style>
      .cls-1 {
        fill: #282a32;
        stroke-width: 0px;
      }
    </style>
  </defs>
  <path class="cls-1" d="m17,3H7c-2.21,0-4,1.79-4,4v10c0,2.21,1.79,4,4,4h10c2.21,0,4-1.79,4-4V7c0-2.21-1.79-4-4-4Zm-4.8,14.5h-2.5c-.14,0-.25-.11-.25-.25s.11-.25.25-.25h2.5c.14,0,.25.11.25.25s-.11.25-.25.25Zm2.39-5.65l-1.09-.07c.47,1.17-.19,2.37-1.63,3.25.37.06.66.38.63.78-.03.4-.38.69-.78.69h-1.45c-.43,0-.79-.35-.78-.78,0-.23.11-.45.34-.6.87-.57,1.84-1.28,2.31-1.95.22-.35.19-.68-.14-1.11-.94,1.5-2.75,1.93-4.44,1.2l-1.45.84c-.36.21-.82.08-1.02-.27s-.08-.82.27-1.02c0,0,.97-.56,1.3-.75.27-.16.59-.1.84.06,1.04.67,2.61.31,3.14-.79.45-.93.96-1.36,2.25-1.36l-2.5-1.77c-.22-.16-.28-.47-.12-.7.15-.22.45-.29.68-.15.97.59,3.39,2.06,4.19,2.62.85.6.57,1.93-.55,1.89Zm2.91-.85c-.83,0-1.5-.67-1.5-1.5s.67-1.5,1.5-1.5,1.5.67,1.5,1.5-.67,1.5-1.5,1.5Z"/>
</svg>