<?xml version="1.0" encoding="UTF-8"?>
<svg id="Fill" xmlns="http://www.w3.org/2000/svg" viewBox="0 0 24 24">
  <defs>
    <style>
      .cls-1 {
        fill: #282a32;
        stroke-width: 0px;
      }
    </style>
  </defs>
  <path class="cls-1" d="m7.97,18.43c-.84.31-1.58.85-2.23,1.75-1.12,1.58-3.57,2.33-3.2-1.17.17-1.62.76-2.96,1.63-4.04.86.98,1.77.56,2,.44.29,1.46,1.29,2.56,1.8,3.02Zm8.07,0c.84.31,1.58.85,2.23,1.75,1.12,1.58,3.57,2.33,3.2-1.17-.17-1.62-.76-2.96-1.63-4.04-.86.98-1.77.56-2,.44-.29,1.46-1.29,2.56-1.8,3.02Zm-8.94-3.43c.46,2.28,2.48,4,4.9,4s4.44-1.72,4.9-4c-1.14.66-3.03,1-4.9,1s-3.75-.34-4.9-1ZM15.99,5.71c-.27-.1-.57.05-.64.33-.41,1.55-1.7,2.96-3.35,2.96s-2.94-1.41-3.35-2.96c-.07-.28-.37-.43-.64-.33-2.68,1.01-4.51,3-4.51,5.29,0,1.27.56,2.46,1.52,3.42.36.37.98.11.98-.41h0c0-1.18.34-2.31.97-3.28.15-.23.46-.3.69-.15.24.15.3.46.15.69,0,.02,0,.03-.02.05-.32.51-.56,1.08-.69,1.69-.09.44.09.89.48,1.11.8.45,2.38.88,4.42.88s3.62-.42,4.42-.88c.39-.22.57-.67.48-1.11-.13-.62-.37-1.2-.7-1.71t-.01-.02c-.15-.24-.08-.55.15-.7.23-.15.54-.08.69.15.64.97.97,2.1.97,3.27h0c0,.53.62.79.98.42.96-.96,1.52-2.15,1.52-3.42,0-2.29-1.82-4.28-4.51-5.29Zm-2.79-2.51c.19-.13.3-.28.3-.45,0-.41-.67-.75-1.5-.75s-1.5.34-1.5.75c0,.17.11.32.3.45-.77.28-1.3.86-1.3,1.8,0,1.38,1.12,3,2.5,3s2.5-1.62,2.5-3c0-.94-.53-1.52-1.3-1.8Z"/>
</svg>