<?xml version="1.0" encoding="UTF-8"?>
<svg id="Fill" xmlns="http://www.w3.org/2000/svg" viewBox="0 0 24 24">
  <defs>
    <style>
      .cls-1 {
        fill: #282a32;
        stroke-width: 0px;
      }
    </style>
  </defs>
  <path class="cls-1" d="m17,3H7c-2.21,0-4,1.79-4,4v10c0,2.21,1.79,4,4,4h10c2.21,0,4-1.79,4-4V7c0-2.21-1.79-4-4-4Zm-.34,9.83c-.24.09-.51-.02-.62-.25-.55-1.12-1.17-2.34-1.95-3.37-.64.16-1.54.44-1.98.66,2.58.95,2.72,4.02,1.86,6.16-.02.06-.05.11-.08.16,1.17.99,1.81,1.86,1.56,2.3-.41.72-3.08-.04-5.95-1.7-2.87-1.65-4.86-3.57-4.45-4.29.27-.47,1.52-.29,3.15.34.03-.03.06-.06.1-.08.66-.42,1.53-1.02,2.04-1.67-.37-.29-.63-.73-.62-1.22,0-.53.34-1.04.79-1.32.58-.4,1.21-.74,1.9-.99-.88-.58-1.91-.87-3.16-.68-.61.05-.74-.86-.15-.99,1.81-.49,4.05.11,5.26,1.59,1.26,1.42,1.99,3.05,2.59,4.7.1.26-.04.55-.3.64Zm-.16-4.58c-.83,0-1.5-.67-1.5-1.5s.67-1.5,1.5-1.5,1.5.67,1.5,1.5-.67,1.5-1.5,1.5Zm-4.44,3.48c1.2.67,1.21,2.42.99,3.81-.61-.44-1.29-.9-2.05-1.33-.53-.3-1.04-.57-1.54-.81.84-.36,2.01-.99,2.6-1.67Z"/>
</svg>