<?xml version="1.0" encoding="UTF-8"?>
<svg id="Fill" xmlns="http://www.w3.org/2000/svg" viewBox="0 0 24 24">
  <defs>
    <style>
      .cls-1 {
        fill: #282a32;
        stroke-width: 0px;
      }
    </style>
  </defs>
  <path class="cls-1" d="m9.44,7.67l-1.15,3.46c-.17.52-.66.87-1.2.87h-2.17c-.55,0-1.04-.35-1.21-.87l-1.15-3.46c-.24-.72.19-1.44.87-1.62.53.87,1.49,1.45,2.57,1.45s2.04-.58,2.57-1.45c.69.18,1.11.9.87,1.62Zm11.12-1.62c-.53.87-1.48,1.45-2.57,1.45s-2.04-.58-2.57-1.45c-.68.18-1.11.9-.87,1.62l1.44,4.33h4l1.44-4.33c.24-.72-.18-1.44-.87-1.62ZM6.01,2.5c-1.1,0-2,.9-2,2s.89,2,2,2,2-.9,2-2-.89-2-2-2Zm2.36,16.5h0c-.36,0-.65-.3-.63-.67l.27-5.33h-4l.27,5.33c.02.36-.27.67-.63.67h0c-.35,0-.63.28-.63.63v.73c0,.35.28.63.63.63h4.73c.35,0,.63-.28.63-.63v-.73c0-.35-.28-.63-.63-.63Zm11.99,0h0c-.36,0-.65-.3-.63-.67l.27-5.33h-4l.27,5.33c.02.36-.27.67-.63.67h0c-.35,0-.63.28-.63.63v.73c0,.35.28.63.63.63h4.73c.35,0,.63-.28.63-.63v-.73c0-.35-.28-.63-.63-.63Zm-2.36-16.5c-1.1,0-2,.9-2,2s.89,2,2,2,2-.9,2-2-.89-2-2-2Zm-4.67,4.5h-2.66l-.67,2h4l-.67-2Zm-1.33,8c-1.1,0-1.99.89-1.99,2s.89,2,1.99,2,1.99-.89,1.99-2-.89-2-1.99-2Z"/>
</svg>