<?xml version="1.0" encoding="UTF-8"?>
<svg id="Fill" xmlns="http://www.w3.org/2000/svg" viewBox="0 0 24 24">
  <defs>
    <style>
      .cls-1 {
        fill: #282a32;
        stroke-width: 0px;
      }
    </style>
  </defs>
  <path class="cls-1" d="m7.1,10l6.9,6.91c.2.2.04.54-.24.52-.68-.05-1.34-.24-1.97-.53-1.22-.58-2.67-.35-3.59.65l-3.26,3.55c-.57.55-1.47.55-2.03-.01s-.56-1.45-.01-2.03l3.55-3.26c1-.91,1.22-2.36.65-3.59-.3-.63-.49-1.29-.53-1.97-.02-.28.32-.44.52-.24Zm12.5-5.59c-2.74-2.74-7.23-2.45-10.29.37-1.07.99-1.78,1.94-2.21,2.87-.18.39-.1.84.2,1.14l7.92,7.92c.3.3.76.38,1.14.2.93-.43,1.88-1.14,2.87-2.21,2.82-3.05,3.11-7.55.37-10.29Zm-.59,13.07c-1.1,0-2,.9-2,2s.9,2,2,2,2-.9,2-2-.9-2-2-2Z"/>
</svg>