<?xml version="1.0" encoding="UTF-8"?>
<svg id="Fill" xmlns="http://www.w3.org/2000/svg" viewBox="0 0 24 24">
  <defs>
    <style>
      .cls-1 {
        fill: #282a32;
        stroke-width: 0px;
      }
    </style>
  </defs>
  <path class="cls-1" d="m17,3H7c-2.21,0-4,1.79-4,4v10c0,2.21,1.79,4,4,4h10c2.21,0,4-1.79,4-4V7c0-2.21-1.79-4-4-4Zm-10.5,3.97c.09-.82.84-1.41,1.66-1.32s1.41.84,1.32,1.66c-.09.82-.84,1.41-1.66,1.32s-1.41-.84-1.32-1.66Zm10.9,2.44l-.5.03s-3.81,1.98-4.98,3.25c-.35.66-.95,3.02-.73,4.51.02.14.14.26.14.41,0,.41-.34.75-.75.75h-.5c-.41,0-.75-.34-.75-.75s.32-.72.72-.74c-.21-1.44-.24-3,.32-4.33-.25-.11-.47-.23-.66-.36-.82.9-2.8.61-2.84-.77.35-2.43,4.33-3.12,6.27-3.35.63-.07.76.89.13.99-1.03.19-2.04.42-2.98.81.21.38.7.82,1.39,1.07,1.34-1,4.43-2.18,4.43-2.19-.03-.41.29-.77.7-.8l.5-.03c.41-.03.77.29.8.7.03.41-.29.77-.7.8Zm-8.86,1.47c.12.24.29.49.51.73-.25.09-.66.15-.79.02-.12-.12-.09-.49.29-.75Z"/>
</svg>