<?xml version="1.0" encoding="UTF-8"?>
<svg id="Fill" xmlns="http://www.w3.org/2000/svg" viewBox="0 0 24 24">
  <defs>
    <style>
      .cls-1 {
        fill: #282a32;
        stroke-width: 0px;
      }
    </style>
  </defs>
  <path id="_Compound_Path_" data-name="&amp;lt;Compound Path&amp;gt;" class="cls-1" d="m8,12c0,2.35-.91,4.5-2.4,6.11-.25.27-.67.25-.9-.03-2.94-3.51-2.93-8.65,0-12.16.23-.28.66-.29.9-.03,1.49,1.6,2.4,3.75,2.4,6.1Zm9.67-6.79c.24-.26.21-.68-.08-.89-3.32-2.42-7.86-2.42-11.18,0-.29.21-.32.63-.08.89,1.66,1.79,2.67,4.18,2.67,6.79s-1.01,5.01-2.67,6.79c-.24.26-.21.68.08.89,3.32,2.42,7.86,2.41,11.18,0,.29-.21.33-.63.08-.89-1.66-1.78-2.67-4.17-2.67-6.79s1.01-5,2.67-6.79Zm1.63.71c-.23-.28-.66-.29-.9-.03-1.49,1.6-2.4,3.75-2.4,6.11s.91,4.5,2.4,6.11c.25.27.67.25.9-.03,2.94-3.51,2.94-8.65,0-12.16Z"/>
</svg>