<?xml version="1.0" encoding="UTF-8"?>
<svg id="Fill" xmlns="http://www.w3.org/2000/svg" viewBox="0 0 24 24">
  <defs>
    <style>
      .cls-1 {
        fill: #282a32;
        stroke-width: 0px;
      }
    </style>
  </defs>
  <path class="cls-1" d="m20.39,7.27l-6.01-4.48c-1.41-1.05-3.35-1.05-4.77,0L3.61,7.27c-1.39,1.04-1.96,2.86-1.39,4.5l2.23,6.53c.55,1.62,2.07,2.7,3.78,2.7h7.55c1.71,0,3.23-1.09,3.78-2.7l2.23-6.53c.56-1.64,0-3.46-1.39-4.5Zm-7.39,2.14h-3.99c-.28,0-.5-.22-.5-.5s.22-.5.5-.5h4.49c.55,0,1,.45,1,1v1c0,.55-.45,1-1,1h-4.49c-.28,0-.5-.22-.5-.5s.22-.5.5-.5h3.99c.28,0,.5-.22.5-.5s-.22-.5-.5-.5Zm0,4h-3.99c-.28,0-.5-.22-.5-.5s.22-.5.5-.5h4.49c.55,0,1,.45,1,1v2c0,.55-.45,1-1,1h-4.49c-.28,0-.5-.22-.5-.5s.22-.5.5-.5h3.99c.28,0,.5-.22.5-.5v-1c0-.28-.22-.5-.5-.5Zm3.49-2.35c0,.23-.09.44-.25.6l-.11.11c-.08.08-.08.2,0,.28l.11.11c.16.16.25.37.25.59v3.65c0,1.1-.89,2-2,2h-5.49c-.28,0-.5-.22-.5-.5s.22-.5.5-.5h5.49c.55,0,1-.45,1-1v-3.48c0-.32-.18-.61-.46-.75-.22-.11-.22-.42,0-.54.29-.15.47-.44.47-.76v-2.47c0-.55-.45-1-1-1h-5.49c-.28,0-.5-.22-.5-.5s.22-.5.5-.5h5.49c1.1,0,2,.89,2,2v2.65Z"/>
</svg>