<?xml version="1.0" encoding="UTF-8"?>
<svg id="Fill" xmlns="http://www.w3.org/2000/svg" viewBox="0 0 24 24">
  <defs>
    <style>
      .cls-1 {
        fill: #282a32;
        stroke-width: 0px;
      }
    </style>
  </defs>
  <path class="cls-1" d="m12.31,10.07c-.18,1.02-.27,1.52-.45,2.54.89.27,1.32.48,2.17.87.18-1.01.27-1.51.45-2.51-.84-.41-1.27-.62-2.17-.9Zm0,0c-.18,1.02-.27,1.52-.45,2.54.89.27,1.32.48,2.17.87.18-1.01.27-1.51.45-2.51-.84-.41-1.27-.62-2.17-.9Zm0,0c-.18,1.02-.27,1.52-.45,2.54.89.27,1.32.48,2.17.87.18-1.01.27-1.51.45-2.51-.84-.41-1.27-.62-2.17-.9Zm0,0c-.18,1.02-.27,1.52-.45,2.54.89.27,1.32.48,2.17.87.18-1.01.27-1.51.45-2.51-.84-.41-1.27-.62-2.17-.9Zm-4.76.44l-.43,2.45c1.01-.54,1.49-.65,2.44-.68.18-1.01.27-1.52.45-2.53-.95.05-1.44.17-2.46.76Zm4.76-.44c-.18,1.02-.27,1.52-.45,2.54.89.27,1.32.48,2.17.87.18-1.01.27-1.51.45-2.51-.84-.41-1.27-.62-2.17-.9Zm0,0c-.18,1.02-.27,1.52-.45,2.54.89.27,1.32.48,2.17.87.18-1.01.27-1.51.45-2.51-.84-.41-1.27-.62-2.17-.9Zm-5.19,2.89c1.01-.54,1.49-.65,2.44-.68.18-1.01.27-1.52.45-2.53-.95.05-1.44.17-2.46.76l-.43,2.45ZM17,3H7c-2.21,0-4,1.79-4,4v10c0,2.21,1.79,4,4,4h10c2.21,0,4-1.79,4-4V7c0-2.21-1.79-4-4-4Zm1.68,8.08l-.23,1.36c-.75-.05-1.14-.18-1.93-.51-.18.98-.27,1.48-.45,2.46.8.32,1.19.45,1.94.49l-.24,1.37c-.11.65-.76,1.06-1.39.88-.22-.07-.46-.16-.76-.27l.45-2.47c-.79-.31-1.2-.52-2.04-.91-.19,1-.28,1.5-.46,2.5-.84-.37-1.28-.57-2.17-.84.19-1.01.28-1.52.46-2.53-.89-.27-1.35-.37-2.29-.33-.18,1.01-.27,1.52-.46,2.52-.94.02-1.43.11-2.42.61l-.29,1.64c-.05.3-.34.5-.64.44-.3-.04-.51-.33-.45-.64l1.92-10.89c.06-.31.34-.51.64-.45.3.06.5.34.44.64l-.33,1.92c1.02-.65,1.52-.78,2.47-.85-.18,1.01-.27,1.52-.44,2.53.95-.05,1.41.04,2.3.32.19-1.01.28-1.52.46-2.53.9.28,1.33.5,2.17.92-.18,1.01-.27,1.51-.46,2.51.84.4,1.25.63,2.04.96.18-.99.27-1.48.45-2.47.4.17.69.29.97.38.53.15.84.7.74,1.24Zm-6.37-1.01c-.18,1.02-.27,1.52-.45,2.54.89.27,1.32.48,2.17.87.18-1.01.27-1.51.45-2.51-.84-.41-1.27-.62-2.17-.9Zm-5.19,2.89c1.01-.54,1.49-.65,2.44-.68.18-1.01.27-1.52.45-2.53-.95.05-1.44.17-2.46.76l-.43,2.45Zm.43-2.45l-.43,2.45c1.01-.54,1.49-.65,2.44-.68.18-1.01.27-1.52.45-2.53-.95.05-1.44.17-2.46.76Zm4.76-.44c-.18,1.02-.27,1.52-.45,2.54.89.27,1.32.48,2.17.87.18-1.01.27-1.51.45-2.51-.84-.41-1.27-.62-2.17-.9Zm-4.76.44l-.43,2.45c1.01-.54,1.49-.65,2.44-.68.18-1.01.27-1.52.45-2.53-.95.05-1.44.17-2.46.76Zm4.76-.44c-.18,1.02-.27,1.52-.45,2.54.89.27,1.32.48,2.17.87.18-1.01.27-1.51.45-2.51-.84-.41-1.27-.62-2.17-.9Zm0,0c-.18,1.02-.27,1.52-.45,2.54.89.27,1.32.48,2.17.87.18-1.01.27-1.51.45-2.51-.84-.41-1.27-.62-2.17-.9Zm0,0c-.18,1.02-.27,1.52-.45,2.54.89.27,1.32.48,2.17.87.18-1.01.27-1.51.45-2.51-.84-.41-1.27-.62-2.17-.9Z"/>
</svg>