<?xml version="1.0" encoding="UTF-8"?>
<svg id="Fill" xmlns="http://www.w3.org/2000/svg" viewBox="0 0 24 24">
  <defs>
    <style>
      .cls-1 {
        fill: #282a32;
        stroke-width: 0px;
      }
    </style>
  </defs>
  <path class="cls-1" d="m4.19,13.96c-.2.67-.35,1.33-.43,1.99-.02.2-.29.24-.38.06-.57-1.22-.89-2.59-.89-4.03,0-2.94,1.33-5.57,3.43-7.32.22-.18.53-.21.78-.07.97.55,1.84,1.27,2.56,2.11-2.44,1.98-4.24,4.52-5.08,7.25Zm7.28-2.19c-.18-1.58-.74-3.03-1.59-4.27-2.28,1.86-3.95,4.22-4.73,6.75-.35,1.13-.5,2.24-.46,3.29.01.36.16.71.41.97.46.49.98.94,1.54,1.33.26.18.6,0,.62-.31.02-.39.07-.77.14-1.16.47-2.66,1.91-4.99,4.08-6.6Zm.99-.13c1.45.63,2.98.87,4.47.76-.72-4.3-3.04-7.81-6-9.52-.33-.19-.72-.25-1.09-.16-.69.16-1.35.39-1.96.7-.28.13-.3.52-.04.69,2.49,1.66,4.26,4.36,4.63,7.53Zm2.24,6.45c-1.94,0-3.93-.43-5.88-1.19-.19.53-.35,1.08-.45,1.64-.1.57-.15,1.16-.14,1.73,0,.28.18.54.45.64,1.03.39,2.16.6,3.33.6,3.21,0,6.04-1.59,7.77-4.02.12-.16-.06-.38-.24-.3-.63.26-1.3.46-2.01.61-.91.2-1.86.29-2.82.29Zm3.21-5.82c1.11-.19,2.17-.59,3.14-1.16.24-.15.37-.43.33-.71-.71-4.24-4.23-7.53-8.59-7.89-.2-.02-.3.24-.14.36,2.61,2.03,4.6,5.4,5.26,9.41Zm-1.7,1.16c-1.38,0-2.78-.29-4.14-.87-1.23.91-2.2,2.08-2.86,3.44,2.7,1.06,5.54,1.37,8.11.82,1.16-.25,2.21-.65,3.11-1.19.32-.19.56-.49.67-.85.2-.66.34-1.35.39-2.07.02-.31-.3-.52-.58-.38-1.45.72-3.06,1.11-4.7,1.11Z"/>
</svg>