<?xml version="1.0" encoding="UTF-8"?>
<svg id="Fill" xmlns="http://www.w3.org/2000/svg" viewBox="0 0 24 24">
  <defs>
    <style>
      .cls-1 {
        fill: #282a32;
        stroke-width: 0px;
      }
    </style>
  </defs>
  <path class="cls-1" d="m18.96,5.42c.15.16.08.42-.13.49-1.83.58-3.21.62-2.21-1.35.13-.25-.12-.52-.38-.41-2.36.99-8.53,4.03-6.66.38.12-.24-.12-.51-.38-.41-.82.33-2.1.91-3.32,1.38-.31.12-.56-.27-.32-.5,1.73-1.62,4-2.59,6.79-2.51,2.64.08,4.93,1.17,6.6,2.92Zm2.13,7.73c-2.56,1.04-5.1,1.76-3.57-.86.14-.25-.11-.53-.37-.42-2.52,1.06-8.84,4.18-6.63.37.14-.24-.11-.53-.37-.42-1.73.71-5.54,2.39-7.02,2.3-.21-.01-.36.18-.31.38v.02c.18.64.89.98,1.5.72.46-.19.87-.37,1.21-.5.25-.1.5.17.37.41-1.86,3.63,4.29.61,6.65-.33.25-.1.5.17.37.41-1.86,3.63,4.28.55,6.65-.41.26-.1.5.17.38.41-.52,1.01-.39,1.44.12,1.58.13.04.27-.02.33-.14.57-.99.92-2.02,1.09-3.19.03-.23-.2-.41-.41-.32Zm-15.42,5.92c1.62,1.45,3.74,2.35,6.07,2.43,2.26.07,4.34-.62,6.01-1.86.27-.2.05-.63-.27-.53-1.78.55-2.99.49-1.82-1.53.14-.25-.11-.54-.37-.43-2.6,1.07-8.93,4.28-6.73.49.14-.25-.11-.53-.38-.42-.62.26-1.46.64-2.37,1.02-.34.14-.42.58-.15.83Zm-2.5-7.96c1.42-.49,3.06-1.26,4.05-1.66.26-.1.5.17.38.41-1.91,3.71,4.32.66,6.68-.36.26-.11.51.16.39.4-1.7,3.37,3.52.89,6.08-.19.27-.11.4-.41.32-.68,0,0,0,0,0,0-.09-.28-.38-.45-.67-.38-1.4.34-2.17.13-1.16-1.6.15-.25-.11-.54-.37-.43-2.51,1.06-8.73,4.13-6.55.36.14-.25-.11-.53-.38-.42-2.55,1.08-8.95,4.24-6.7.38.14-.25-.1-.53-.37-.43,0,0-.01,0-.02,0-.58.22-1.06.65-1.35,1.2-.46.88-.8,1.82-.96,2.84-.06.37.3.68.66.55Z"/>
</svg>