<?xml version="1.0" encoding="UTF-8"?>
<svg id="Fill" xmlns="http://www.w3.org/2000/svg" viewBox="0 0 24 24">
  <defs>
    <style>
      .cls-1 {
        fill: #282a32;
        stroke-width: 0px;
      }
    </style>
  </defs>
  <path id="_Compound_Path_" data-name="&amp;lt;Compound Path&amp;gt;" class="cls-1" d="m20.24,21.5c-.52,0-1.03-.13-1.5-.38l-1.59-.86c-.64-.35-1.41-.35-2.05,0l-1.59.86c-.94.51-2.06.51-3,0l-1.59-.86c-.64-.35-1.41-.35-2.05,0l-1.59.86c-.94.51-2.06.51-3,0-.24-.13-.33-.43-.2-.68.13-.24.43-.33.68-.2.64.35,1.41.35,2.05,0l1.59-.86c.94-.51,2.06-.51,3,0l1.59.86c.64.35,1.41.35,2.05,0l1.59-.86c.94-.51,2.06-.51,3,0l1.59.86c.64.35,1.41.35,2.05,0,.24-.13.55-.04.68.2.13.24.04.55-.2.68-.47.25-.98.38-1.5.38Zm1.5-2.38c.24-.13.33-.43.2-.68-.13-.24-.43-.33-.68-.2-.64.35-1.41.35-2.05,0l-1.59-.86c-.94-.51-2.06-.51-3,0l-1.59.86c-.64.35-1.41.35-2.05,0l-1.59-.86c-.94-.51-2.06-.51-3,0l-1.59.86c-.64.35-1.41.35-2.05,0-.24-.13-.55-.04-.68.2-.13.24-.04.55.2.68.94.51,2.06.51,3,0l1.59-.86c.64-.35,1.41-.35,2.05,0l1.59.86c.94.51,2.06.51,3,0l1.59-.86c.64-.35,1.41-.35,2.05,0l1.59.86c.47.25.98.38,1.5.38s1.03-.13,1.5-.38ZM6.26,4.45c-2.29,1.72-3.76,4.47-3.76,7.55,0,1.97.6,3.8,1.63,5.31.23-.03.45-.11.66-.22l1.18-.64c-.93-1.24-1.47-2.78-1.47-4.45,0-2.01.79-3.83,2.08-5.17v-2.22c0-.16-.19-.26-.32-.16Zm3.29-1.11c-.01-.27-.28-.44-.53-.36-.38.13-.75.28-1.11.45-.21.1-.34.31-.34.54v2.02h2.21c-.11-.82-.19-1.71-.24-2.65Zm3.67,2.65c.11-.89.2-1.89.25-3.02,0-.21-.14-.39-.35-.42-.37-.05-.74-.07-1.12-.07s-.75.02-1.12.07c-.21.03-.36.21-.35.42.04,1.12.13,2.12.27,3.02h2.42Zm3.21-2.02c0-.23-.13-.44-.34-.54-.36-.17-.73-.33-1.12-.45-.25-.08-.52.09-.53.36-.04.94-.12,1.83-.23,2.66h2.21v-2.02Zm-.28,3.02H7.86c-.92.76-1.6,1.73-1.99,2.83,1.82-.21,3.89-.33,6.13-.33s4.32.13,6.13.33c-.38-1.09-1.06-2.07-1.98-2.83Zm-4.15,7.5c-2.24,0-4.32-.13-6.13-.33.23.67.58,1.3,1.02,1.85.82-.27,1.72-.2,2.49.21l1.6.86c.64.35,1.4.35,2.05,0l1.59-.86c.77-.41,1.67-.48,2.49-.21.44-.55.79-1.18,1.02-1.85-1.81.21-3.89.33-6.13.33Zm-6.39-3.64c-.07.37-.11.75-.11,1.14s.04.76.11,1.13c1.72.22,3.84.37,6.39.37s4.67-.15,6.39-.37c.07-.37.11-.74.11-1.13s-.04-.76-.11-1.13c-1.72-.22-3.83-.37-6.39-.37s-4.67.15-6.39.36Zm12.14-6.4c-.13-.1-.32,0-.32.16v2.21c1.28,1.34,2.07,3.16,2.07,5.17,0,1.67-.54,3.21-1.47,4.45l1.18.64c.21.11.43.19.66.22,1.03-1.51,1.63-3.34,1.63-5.31,0-3.08-1.47-5.82-3.75-7.54Z"/>
</svg>