<?xml version="1.0" encoding="UTF-8"?>
<svg id="Fill" xmlns="http://www.w3.org/2000/svg" viewBox="0 0 24 24">
  <defs>
    <style>
      .cls-1 {
        fill: #282a32;
        stroke-width: 0px;
      }
    </style>
  </defs>
  <path class="cls-1" d="m18.63,6.5c.05-.27.39-.37.58-.17l1.71,1.71c1.29,1.29-.55,5.22-4.1,8.77-3.56,3.56-7.49,5.39-8.78,4.11l-1.71-1.71c-.2-.2-.1-.53.17-.58,2.22-.43,5.06-2.35,7.42-4.71s4.27-5.18,4.7-7.41Zm-7.78,4.34c-2.81,2.81-5.85,4.53-7.66,4.49-.28,0-.42.31-.23.5l1.48,1.48c1.29,1.29,5.22-.55,8.78-4.11,3.55-3.55,5.39-7.47,4.1-8.77l-1.48-1.48c-.19-.19-.51-.05-.5.23.04,1.8-1.69,4.85-4.49,7.65Zm3.36-8.1c.92.92-.9,4.23-4.06,7.4-3.17,3.17-6.48,4.99-7.41,4.07-.92-.92.9-4.23,4.07-7.4,3.16-3.16,6.48-4.99,7.4-4.06Zm-4.51,4.16c-.29-.29-1.15.1-1.93.88s-1.17,1.65-.88,1.93,1.16-.11,1.93-.88,1.17-1.65.88-1.93Zm12,12.78l-2.68-2.67-.5-.5c-.32.36-.64.7-.98,1.04-.35.35-.7.68-1.06.99l3.19,3.18c.39.39,1.02.39,1.41,0l.62-.62c.39-.39.39-1.02,0-1.42Z"/>
</svg>