<?xml version="1.0" encoding="UTF-8"?>
<svg id="Fill" xmlns="http://www.w3.org/2000/svg" viewBox="0 0 24 24">
  <defs>
    <style>
      .cls-1 {
        fill: #282a32;
        stroke-width: 0px;
      }
    </style>
  </defs>
  <path class="cls-1" d="m7.44,11.6c0-.48.23-.9.58-1.17.31.13.61.27.88.43-.43.02-.77.4-.7.85.05.34.33.61.68.64.45.04.81-.32.81-.75,0-.1-.02-.2-.05-.28.28.19.54.39.76.61-.15.67-.74,1.17-1.46,1.17-.82,0-1.5-.67-1.5-1.5Zm7.82,1.49c.71-.09,1.27-.69,1.31-1.4.02-.52-.2-.97-.57-1.26-.31.13-.6.28-.88.43.39.03.7.34.7.74,0,.46-.41.83-.89.74-.35-.06-.61-.39-.61-.74,0-.1.02-.19.06-.28-.28.2-.54.4-.77.62.17.72.86,1.25,1.65,1.15Zm1.75-3.04c.42.5.63,1.17.54,1.89-.15,1.09-1.01,1.96-2.09,2.13-1.1.18-2.09-.4-2.57-1.29-.1.15-.38.84-.6,1.39-.1.25-.46.25-.56,0-.22-.55-.5-1.23-.6-1.38-.42.78-1.24,1.31-2.19,1.31-1.37,0-2.5-1.12-2.5-2.5,0-.59.22-1.13.57-1.56-.37-.12-.76-.23-1.16-.33-.27.5-.41,1.07-.41,1.68,0,2.64,1.59,3.47,3.6,4.52.99.52,2,1.05,2.89,1.84.04.04.1.04.14,0,.89-.79,1.9-1.32,2.9-1.84,2.01-1.05,3.6-1.88,3.6-4.52,0-.6-.14-1.16-.41-1.66-.4.09-.78.2-1.15.32Zm4.49,1.95c0,5.25-4.25,9.5-9.5,9.5S2.5,17.25,2.5,12,6.76,2.5,12,2.5s9.5,4.26,9.5,9.5ZM6.24,7.76c.42.09.82.2,1.21.33,1.13-.7,2.71-1.09,4.56-1.09s3.42.39,4.55,1.09c.39-.12.8-.24,1.22-.33-1.34-1.11-3.36-1.76-5.77-1.76s-4.42.65-5.77,1.76Zm13.33,3.63c0-.67-.14-1.3-.41-1.87-.14-.33-.33-.64-.56-.92-.37.07-.73.15-1.08.24-2.44.65-4.39,1.83-5.43,3.33-.04.06-.12.06-.16,0-1.03-1.5-2.99-2.69-5.44-3.33-.35-.09-.71-.18-1.08-.24-.23.28-.42.59-.56.92-.27.57-.41,1.2-.41,1.87,0,3.25,2.1,4.34,4.13,5.41,1.08.56,2.19,1.14,3.07,2.05.1.1.23.15.36.15s.26-.05.36-.15c.88-.91,1.99-1.49,3.07-2.05,2.04-1.07,4.14-2.17,4.14-5.41Z"/>
</svg>